<?xml version="1.0" encoding="UTF-8" standalone="no"?>
<svg
   xmlns:dc="http://purl.org/dc/elements/1.1/"
   xmlns:cc="http://creativecommons.org/ns#"
   xmlns:rdf="http://www.w3.org/1999/02/22-rdf-syntax-ns#"
   xmlns:svg="http://www.w3.org/2000/svg"
   xmlns="http://www.w3.org/2000/svg"
   xmlns:xlink="http://www.w3.org/1999/xlink"
   xmlns:sodipodi="http://sodipodi.sourceforge.net/DTD/sodipodi-0.dtd"
   xmlns:inkscape="http://www.inkscape.org/namespaces/inkscape"
   version="1.1"
   viewBox="0 0 32 32"
   id="svg29"
   sodipodi:docname="folder-locked2.svg"
   inkscape:version="1.0.2 (e86c870879, 2021-01-15)">
  <metadata
     id="metadata33">
    <rdf:RDF>
      <cc:Work
         rdf:about="">
        <dc:format>image/svg+xml</dc:format>
        <dc:type
           rdf:resource="http://purl.org/dc/dcmitype/StillImage" />
        <dc:title></dc:title>
      </cc:Work>
    </rdf:RDF>
  </metadata>
  <sodipodi:namedview
     pagecolor="#ffffff"
     bordercolor="#666666"
     borderopacity="1"
     objecttolerance="10"
     gridtolerance="10"
     guidetolerance="10"
     inkscape:pageopacity="0"
     inkscape:pageshadow="2"
     inkscape:window-width="1366"
     inkscape:window-height="689"
     id="namedview31"
     showgrid="true"
     inkscape:zoom="8.359375"
     inkscape:cx="15.73671"
     inkscape:cy="9.8283477"
     inkscape:window-x="0"
     inkscape:window-y="0"
     inkscape:window-maximized="1"
     inkscape:current-layer="svg29"
     inkscape:document-rotation="0">
    <inkscape:grid
       type="xygrid"
       id="grid858" />
  </sodipodi:namedview>
  <defs
     id="defs7">
    <linearGradient
       id="a"
       x2="0"
       y1="29"
       y2="8"
       gradientUnits="userSpaceOnUse">
      <stop
         stop-color="#3daee9"
         offset="0"
         id="stop2" />
      <stop
         stop-color="#6cc1ef"
         offset="1"
         id="stop4" />
    </linearGradient>
    <linearGradient
       inkscape:collect="always"
       xlink:href="#linearGradient4372"
       id="linearGradient4302"
       x1="488"
       y1="514"
       x2="86"
       y2="112"
       gradientUnits="userSpaceOnUse"
       gradientTransform="translate(-145,-279)" />
    <linearGradient
       inkscape:collect="always"
       id="linearGradient4372">
      <stop
         style="stop-color:#000000;stop-opacity:1"
         offset="0"
         id="stop4374" />
      <stop
         id="stop4380"
         offset="0.15026461"
         style="stop-color:#000000;stop-opacity:0" />
      <stop
         style="stop-color:#000000;stop-opacity:0.58823532"
         offset="1"
         id="stop4376" />
    </linearGradient>
    <filter
       inkscape:collect="always"
       style="color-interpolation-filters:sRGB"
       id="filter4308"
       x="-0.044689655"
       width="1.0893793"
       y="-0.05184"
       height="1.10368">
      <feGaussianBlur
         inkscape:collect="always"
         stdDeviation="8.64"
         id="feGaussianBlur4310" />
    </filter>
    <filter
       inkscape:collect="always"
       style="color-interpolation-filters:sRGB"
       id="filter4278"
       x="-0.011172414"
       width="1.0223448"
       y="-0.01296"
       height="1.02592">
      <feGaussianBlur
         inkscape:collect="always"
         stdDeviation="2.16"
         id="feGaussianBlur4280" />
    </filter>
    <clipPath
       clipPathUnits="userSpaceOnUse"
       id="clipPath4255">
      <path
         inkscape:connector-curvature="0"
         id="path4257"
         d="M 88.55469,36 C 10.5,35.999999 2.5,36.000001 2.5,113.89844 V 326.10156 C 2.5,404 10.5,412 88.55469,412 H 428.44531 C 506.5,412 514.5,404 514.5,326.10156 V 145.89844 C 514.5,68.000001 506.49923,59.652236 428.44531,60 L 200,60.000001 l -24,-24 z"
         style="color:#000000;display:inline;overflow:visible;visibility:visible;fill:#d04616;fill-opacity:1;fill-rule:nonzero;stroke:none;stroke-width:1;marker:none;enable-background:accumulate"
         sodipodi:nodetypes="ssssssssccs" />
    </clipPath>
    <filter
       inkscape:collect="always"
       style="color-interpolation-filters:sRGB"
       id="filter4242"
       x="-0.042375557"
       width="1.0847511"
       y="-0.055345986"
       height="1.110692">
      <feGaussianBlur
         inkscape:collect="always"
         stdDeviation="9.0401191"
         id="feGaussianBlur4244" />
    </filter>
    <linearGradient
       gradientUnits="userSpaceOnUse"
       y2="478"
       x2="224"
       y1="86"
       x1="224"
       id="linearGradient4226"
       xlink:href="#linearGradient4338"
       inkscape:collect="always"
       gradientTransform="matrix(0.05378636,0,0,0.05378636,2.2306882,2.3574388)" />
    <linearGradient
       inkscape:collect="always"
       id="linearGradient4338">
      <stop
         style="stop-color:#f67122;stop-opacity:1"
         offset="0"
         id="stop4340" />
      <stop
         style="stop-color:#ff984b;stop-opacity:1"
         offset="1"
         id="stop4342" />
    </linearGradient>
  </defs>
  <path
     style="color:#000000;display:inline;overflow:visible;visibility:visible;opacity:0.3;fill:url(#linearGradient4302);fill-opacity:1;fill-rule:nonzero;stroke:none;stroke-width:1;marker:none;filter:url(#filter4308);enable-background:accumulate"
     d="M -43.01367,-165 C -113.75073,-165 -121,-164.99976 -121,-94.4043 v 73.25 119.3086 59 C -121,227.74976 -113.75073,235 -43.01367,235 H 265.01367 C 335.75073,235 343,227.74976 343,157.1543 v -59 -141.3086 -22 c 0,-70.59546 -7.24997,-78.16086 -77.98633,-77.8457 H 73 l -22,-22 z"
     id="path4236-1"
     inkscape:connector-curvature="0"
     transform="matrix(0.05935047,0,0,0.05935047,9.4120982,14.023519)" />
  <path
     style="color:#000000;display:inline;overflow:visible;visibility:visible;opacity:0.1;fill:#000000;fill-opacity:1;fill-rule:nonzero;stroke:none;stroke-width:1;marker:none;filter:url(#filter4278);enable-background:accumulate"
     d="M -43.01367,-165 C -113.75073,-165 -121,-164.99976 -121,-94.4043 v 73.25 119.3086 59 C -121,227.74976 -113.75073,235 -43.01367,235 H 265.01367 C 335.75073,235 343,227.74976 343,157.1543 v -59 -141.3086 -22 c 0,-70.59546 -7.24997,-78.16086 -77.98633,-77.8457 H 73 l -22,-22 z"
     id="path4236-5"
     inkscape:connector-curvature="0"
     transform="matrix(0.05935047,0,0,0.05935047,9.4120982,14.023519)" />
  <path
     sodipodi:nodetypes="ssssssssccs"
     style="color:#000000;display:inline;overflow:visible;visibility:visible;fill:#f6531e;fill-opacity:1;fill-rule:nonzero;stroke:none;stroke-width:0.0593505;marker:none;enable-background:accumulate"
     d="m 6.8592582,4.1119888 c -4.19828,0 -4.62857,0 -4.62857,4.18987 V 19.730339 c 0,4.18987 0.43029,4.62016 4.62857,4.62016 H 25.140738 c 4.19828,0 4.62857,-0.43029 4.62857,-4.62016 v -9.69247 c 0,-4.1898802 -0.43033,-4.6388702 -4.62857,-4.6201702 h -11.39606 l -1.30571,-1.30571 z"
     id="path4236"
     inkscape:connector-curvature="0" />
  <g
     inkscape:groupmode="maskhelper"
     id="g4252"
     clip-path="url(#clipPath4255)"
     style="display:inline;fill:#c54215;fill-opacity:1;stroke-width:1.10345;filter:url(#filter4242);enable-background:new"
     transform="matrix(0.05378636,0,0,0.05378636,2.0962282,2.1905188)">
    <path
       inkscape:connector-curvature="0"
       id="path4246"
       d="M 88.55469,106 C 10.5,106 2.5,114 2.5,191.89844 V 388.10156 C 2.5,466 10.5,474 88.55469,474 H 428.44531 C 506.5,474 514.5,466 514.5,388.10156 V 167.89844 C 514.5,90 506.49907,81.618217 428.44531,82 H 240 l -24,24 z"
       style="color:#000000;display:inline;overflow:visible;visibility:visible;fill:#d04616;fill-opacity:1;fill-rule:nonzero;stroke:none;stroke-width:1.10345;marker:none;enable-background:accumulate"
       sodipodi:nodetypes="ssssssssccs" />
  </g>
  <path
     inkscape:connector-curvature="0"
     id="rect4158"
     d="m 6.8592582,8.0291188 c -4.19828,0 -4.62857,0.43029 -4.62857,4.6201702 v 10.58272 c 0,4.18988 0.43029,4.62017 4.62857,4.62017 H 25.140738 c 4.19828,0 4.62857,-0.43029 4.62857,-4.62017 v -11.88843 c 0,-4.1898802 -0.43029,-4.6201702 -4.62857,-4.6201702 h -10.12002 l -1.30664,1.30571 z"
     style="color:#000000;display:inline;overflow:visible;visibility:visible;fill:url(#linearGradient4226);fill-opacity:1;fill-rule:nonzero;stroke:none;stroke-width:0.0593505;marker:none;enable-background:accumulate"
     sodipodi:nodetypes="ssssssssccs" />
  <path
     style="color:#000000;display:inline;overflow:visible;visibility:visible;opacity:0.1;fill:#ffffff;fill-opacity:1;fill-rule:nonzero;stroke:none;stroke-width:0.949607;stroke-linecap:butt;stroke-linejoin:miter;stroke-miterlimit:4;stroke-dasharray:none;stroke-dashoffset:0;stroke-opacity:1;marker:none;enable-background:accumulate"
     d="m 29.769308,20.730119 -7.12206,7.12206 h 2.49353 c 4.19828,0 4.62853,-0.43031 4.62853,-4.62018 z"
     id="path4226" />
  <path
     style="color:#000000;display:inline;overflow:visible;visibility:visible;opacity:0.3;fill:#000000;fill-opacity:1;fill-rule:nonzero;stroke:none;stroke-width:0.0593505;marker:none;enable-background:accumulate"
     d="m 2.2306882,23.113299 v 0.1187 c 0,4.18987 0.43025,4.62018 4.62853,4.62018 H 25.140778 c 4.19828,0 4.62853,-0.43031 4.62853,-4.62018 v -0.1187 c 0,4.18987 -0.43025,4.62018 -4.62853,4.62018 H 6.8592182 c -4.19828,0 -4.62853,-0.43031 -4.62853,-4.62018 z"
     id="path4216"
     inkscape:connector-curvature="0" />
  <path
     style="color:#000000;display:inline;overflow:visible;visibility:visible;opacity:0.15;fill:#ffffff;fill-opacity:1;fill-rule:nonzero;stroke:none;stroke-width:0.0593505;marker:none;enable-background:accumulate"
     d="m 15.020718,6.7234088 -1.30664,1.30571 H 6.8592182 c -4.19828,0 -4.62853,0.43031 -4.62853,4.6201802 v 0.1187 c 0,-4.1898702 0.43025,-4.6201802 4.62853,-4.6201802 h 6.8548598 l 1.30664,-1.30571 h 10.12006 c 4.19828,0 4.62853,0.43031 4.62853,4.6201802 v -0.1187 c 0,-4.1898702 -0.43025,-4.6201802 -4.62853,-4.6201802 z"
     id="path4231" />
  <path
     style="color:#000000;display:inline;overflow:visible;visibility:visible;opacity:0.15;fill:#ffffff;fill-opacity:1;fill-rule:nonzero;stroke:none;stroke-width:0.0593505;marker:none;enable-background:accumulate"
     d="m 6.8592182,4.1119888 c -4.19828,0 -4.62853,2e-5 -4.62853,4.18989 v 0.1187 c 0,-4.18987 0.43025,-4.18989 4.62853,-4.18989 h 5.5797498 l 1.30571,1.30571 h 11.3961 c 4.19824,-0.0187 4.62853,0.43031 4.62853,4.6201802 v -0.1187 c 0,-4.1898702 -0.43029,-4.6388802 -4.62853,-4.6201802 h -11.3961 l -1.30571,-1.30571 z"
     id="path4215" />
  <path
     sodipodi:nodetypes="cccsccccccccccccccc"
     style="color:#000000;display:inline;overflow:visible;visibility:visible;opacity:0.05;fill:#ff0000;fill-opacity:0;fill-rule:nonzero;stroke:none;stroke-width:2.37402;marker:none;enable-background:accumulate"
     d="m 15.870168,6.7234088 -2.08839,4.2528302 v 3.51652 c -0.29319,0.34352 -0.61364,0.68968 -0.94776,1.02379 -1.09817,1.09817 -2.32937,2.05868 -3.1529898,2.33322 l -1.38732,-1.38546 -4.25283,2.08839 v 10.13038 H 19.234598 V 9.8355988 c -0.91498,-1.9849 -1.92106,-2.72544 -3.36443,-3.11219 z m -5.79038,13.5912602 c 4.2e-4,-3e-4 10e-4,3e-4 0.002,0 -0.1549498,0.0968 -0.3116498,0.1915 -0.4692398,0.28562 0.15763,-0.0941 0.31241,-0.18887 0.4673898,-0.28562 z m -1.4299698,0.83461 c 4.7e-4,-2.3e-4 10e-4,2.4e-4 0.002,0 -0.16273,0.089 -0.32813,0.1769 -0.49335,0.26337 0.16524,-0.0865 0.32874,-0.1744 0.4915,-0.26337 z"
     id="path4505-6"
     inkscape:connector-curvature="0" />
  <g
     transform="matrix(0.62499609,0,0,0.62499609,-9.2498483,-187.20575)"
     fill="#808080"
     shape-rendering="auto"
     id="g8"
     style="opacity:0.6;fill:#ffffff">
    <path
       d="m 34,327 -3e-5,9.0001 h 12 v -9 z m 0.99997,1.0001 h 10 v 7 h -10 z"
       color="#000000"
       color-rendering="auto"
       image-rendering="auto"
       solid-color="#000000"
       style="font-variant-ligatures:none;font-variant-position:normal;font-variant-caps:normal;font-variant-numeric:normal;font-variant-alternates:normal;font-feature-settings:normal;text-indent:0;text-decoration:none;text-decoration-line:none;text-decoration-style:solid;text-decoration-color:#000000;text-transform:none;white-space:normal;shape-padding:0;isolation:auto;mix-blend-mode:normal;fill:#ffffff"
       id="path2" />
    <path
       d="m 40,320 c -2.7621,0 -5,2.2379 -5,5 v 2 h 1 v -2 c 0,-2.222 1.778,-4 4,-4 2.222,0 4,1.778 4,4 v 2 h 1 v -2 c 0,-2.7621 -2.2379,-5 -5,-5 z"
       color="#000000"
       color-rendering="auto"
       image-rendering="auto"
       solid-color="#000000"
       style="text-indent:0;text-decoration:none;text-decoration-line:none;text-decoration-style:solid;text-decoration-color:#000000;text-transform:none;white-space:normal;shape-padding:0;isolation:auto;mix-blend-mode:normal;fill:#ffffff"
       id="path4" />
    <path
       d="m 34,327 v 9 h 12 v -9 z m 1,1 h 10 v 7 H 35 Z m 4,2 v 3 h 2 v -3 z"
       color="#000000"
       color-rendering="auto"
       image-rendering="auto"
       solid-color="#000000"
       style="font-variant-ligatures:none;font-variant-position:normal;font-variant-caps:normal;font-variant-numeric:normal;font-variant-alternates:normal;font-feature-settings:normal;text-indent:0;text-decoration:none;text-decoration-line:none;text-decoration-style:solid;text-decoration-color:#000000;text-transform:none;white-space:normal;shape-padding:0;isolation:auto;mix-blend-mode:normal;fill:#ffffff"
       id="path6" />
  </g>
</svg>
