<?xml version="1.0" encoding="UTF-8" standalone="no"?>
<svg
   xmlns:dc="http://purl.org/dc/elements/1.1/"
   xmlns:cc="http://creativecommons.org/ns#"
   xmlns:rdf="http://www.w3.org/1999/02/22-rdf-syntax-ns#"
   xmlns:svg="http://www.w3.org/2000/svg"
   xmlns="http://www.w3.org/2000/svg"
   xmlns:xlink="http://www.w3.org/1999/xlink"
   xmlns:sodipodi="http://sodipodi.sourceforge.net/DTD/sodipodi-0.dtd"
   xmlns:inkscape="http://www.inkscape.org/namespaces/inkscape"
   version="1.1"
   viewBox="0 0 32 32"
   id="svg29"
   sodipodi:docname="folder-image-people.svg"
   inkscape:version="1.0.2 (e86c870879, 2021-01-15)">
  <metadata
     id="metadata33">
    <rdf:RDF>
      <cc:Work
         rdf:about="">
        <dc:format>image/svg+xml</dc:format>
        <dc:type
           rdf:resource="http://purl.org/dc/dcmitype/StillImage" />
        <dc:title></dc:title>
      </cc:Work>
    </rdf:RDF>
  </metadata>
  <sodipodi:namedview
     pagecolor="#ffffff"
     bordercolor="#666666"
     borderopacity="1"
     objecttolerance="10"
     gridtolerance="10"
     guidetolerance="10"
     inkscape:pageopacity="0"
     inkscape:pageshadow="2"
     inkscape:window-width="1366"
     inkscape:window-height="689"
     id="namedview31"
     showgrid="true"
     inkscape:zoom="11.821941"
     inkscape:cx="14.847476"
     inkscape:cy="14.453296"
     inkscape:window-x="0"
     inkscape:window-y="0"
     inkscape:window-maximized="1"
     inkscape:current-layer="svg29"
     inkscape:document-rotation="0">
    <inkscape:grid
       type="xygrid"
       id="grid858" />
  </sodipodi:namedview>
  <defs
     id="defs7">
    <linearGradient
       id="a"
       x2="0"
       y1="29"
       y2="8"
       gradientUnits="userSpaceOnUse">
      <stop
         stop-color="#3daee9"
         offset="0"
         id="stop2" />
      <stop
         stop-color="#6cc1ef"
         offset="1"
         id="stop4" />
    </linearGradient>
    <clipPath
       clipPathUnits="userSpaceOnUse"
       id="clipPath4255">
      <path
         inkscape:connector-curvature="0"
         id="path4257"
         d="M 88.55469,36 C 10.5,35.999999 2.5,36.000001 2.5,113.89844 V 326.10156 C 2.5,404 10.5,412 88.55469,412 H 428.44531 C 506.5,412 514.5,404 514.5,326.10156 V 145.89844 C 514.5,68.000001 506.49923,59.652236 428.44531,60 L 200,60.000001 l -24,-24 z"
         style="color:#000000;display:inline;overflow:visible;visibility:visible;fill:#d04616;fill-opacity:1;fill-rule:nonzero;stroke:none;stroke-width:1;marker:none;enable-background:accumulate"
         sodipodi:nodetypes="ssssssssccs" />
    </clipPath>
    <clipPath
       clipPathUnits="userSpaceOnUse"
       id="clipPath977">
      <path
         id="path979"
         d="M 78.994141,52 C 43.625611,52 40,53.999146 40,89.296875 V 140 H 264 V 108.92188 C 264,73.624145 260.37439,68 225.00586,68 H 138 L 122,52 Z"
         style="color:#000000;display:inline;overflow:visible;visibility:visible;fill:#f6531e;fill-opacity:1;fill-rule:nonzero;stroke:none;stroke-width:1;marker:none;enable-background:accumulate"
         inkscape:connector-curvature="0" />
    </clipPath>
    <clipPath
       clipPathUnits="userSpaceOnUse"
       id="clipPath977-3">
      <path
         id="path979-6"
         d="M 78.994141,52 C 43.625611,52 40,53.999146 40,89.296875 V 140 H 264 V 108.92188 C 264,73.624145 260.37439,68 225.00586,68 H 138 L 122,52 Z"
         style="color:#000000;display:inline;overflow:visible;visibility:visible;fill:#f6531e;fill-opacity:1;fill-rule:nonzero;stroke:none;stroke-width:1;marker:none;enable-background:accumulate"
         inkscape:connector-curvature="0" />
    </clipPath>
    <linearGradient
       inkscape:collect="always"
       xlink:href="#linearGradient36441"
       id="linearGradient1815"
       x1="320"
       y1="164"
       x2="352"
       y2="134"
       gradientUnits="userSpaceOnUse"
       gradientTransform="translate(-320,-133)" />
    <linearGradient
       inkscape:collect="always"
       id="linearGradient36441">
      <stop
         style="stop-color:#2c001e;stop-opacity:1"
         offset="0"
         id="stop36437" />
      <stop
         id="stop36445"
         offset="0.10864977"
         style="stop-color:#2c001e;stop-opacity:1" />
      <stop
         style="stop-color:#370626;stop-opacity:1"
         offset="0.18689813"
         id="stop36449" />
      <stop
         id="stop36451"
         offset="0.2980746"
         style="stop-color:#55163b;stop-opacity:1" />
      <stop
         style="stop-color:#772953;stop-opacity:1"
         offset="0.37246177"
         id="stop36453" />
      <stop
         style="stop-color:#7c2b51;stop-opacity:1"
         offset="0.44700962"
         id="stop36447" />
      <stop
         id="stop36455"
         offset="0.52428877"
         style="stop-color:#8b314b;stop-opacity:1" />
      <stop
         style="stop-color:#8b314b;stop-opacity:1"
         offset="0.59614229"
         id="stop36457" />
      <stop
         id="stop36459"
         offset="0.66876179"
         style="stop-color:#a33a41;stop-opacity:1" />
      <stop
         style="stop-color:#c44732;stop-opacity:1"
         offset="0.79755175"
         id="stop36461" />
      <stop
         id="stop36463"
         offset="0.91251218"
         style="stop-color:#e65524;stop-opacity:1" />
      <stop
         style="stop-color:#e65524;stop-opacity:1"
         offset="1"
         id="stop36439" />
    </linearGradient>
    <linearGradient
       inkscape:collect="always"
       xlink:href="#linearGradient3388"
       id="linearGradient1827"
       x1="321"
       y1="139"
       x2="352"
       y2="163"
       gradientUnits="userSpaceOnUse"
       gradientTransform="translate(-320,-133)" />
    <linearGradient
       inkscape:collect="always"
       id="linearGradient3388">
      <stop
         style="stop-color:#666666;stop-opacity:1;"
         offset="0"
         id="stop3384" />
      <stop
         style="stop-color:#7a7a7a;stop-opacity:1"
         offset="1"
         id="stop3386" />
    </linearGradient>
  </defs>
  <path
     sodipodi:nodetypes="scccccccccccsscccsscccsccccs"
     inkscape:connector-curvature="0"
     id="path3453"
     d="M 7.0332,2 C 5.5062,2 4.3316,2.0572 3.3652,2.25391 2.3947,2.45148 1.584,2.82005 1.0215,3.47266 0.4615,4.12241 0.2313,4.93975 0.1211,5.83203 0.011,6.72318 0.0083,7.74289 0,8.99219 v 0.002 0.004 15.0039 0.004 0.002 c 0.017,2.49108 -0.083,4.16296 0.8418,5.44922 0.4763,0.66243 1.2071,1.07232 2.0625,1.28125 0.8459,0.20664 1.8469,0.26172 3.1289,0.26172 h 19 c 1.527,0 2.7019,-0.0572 3.668,-0.25391 0.9699,-0.19756 1.779,-0.56452 2.3398,-1.21875 0.5583,-0.65128 0.7856,-1.47025 0.8906,-2.36328 0.1049,-0.89165 0.1016,-1.91451 0.1016,-3.16406 v -13 c 0,-1.24947 0,-2.27216 -0.1016,-3.16406 C 31.8266,6.94318 31.5993,6.12421 31.041,5.47294 30.4802,4.81871 29.6711,4.45175 28.7012,4.25419 27.7351,4.05712 26.5602,4 25.0332,4 H 14.4277 L 12.2852,2 h -0.3946 c -2.0639,-9e-5 -3.912,-2e-5 -4.3574,0 z"
     style="color:#000000;font-style:normal;font-variant:normal;font-weight:normal;font-stretch:normal;font-size:medium;line-height:normal;font-family:sans-serif;font-variant-ligatures:none;font-variant-position:normal;font-variant-caps:normal;font-variant-numeric:normal;font-variant-alternates:normal;font-feature-settings:normal;text-indent:0;text-align:start;text-decoration:none;text-decoration-line:none;text-decoration-style:solid;text-decoration-color:#000000;letter-spacing:normal;word-spacing:normal;text-transform:none;writing-mode:lr-tb;direction:ltr;text-orientation:mixed;dominant-baseline:auto;baseline-shift:baseline;text-anchor:start;white-space:normal;shape-padding:0;clip-rule:nonzero;display:inline;overflow:visible;visibility:visible;opacity:0.1;isolation:auto;mix-blend-mode:normal;color-interpolation:sRGB;color-interpolation-filters:linearRGB;solid-color:#000000;solid-opacity:1;vector-effect:none;fill:#000000;fill-opacity:1;fill-rule:nonzero;stroke:none;stroke-width:1;stroke-linecap:butt;stroke-linejoin:miter;stroke-miterlimit:4;stroke-dasharray:none;stroke-dashoffset:0;stroke-opacity:1;marker:none;color-rendering:auto;image-rendering:auto;shape-rendering:auto;text-rendering:auto;enable-background:accumulate" />
  <path
     sodipodi:nodetypes="ccscccccccsscscsscsssccccc"
     inkscape:connector-curvature="0"
     id="path3455"
     d="M 7.0332,1.5 C 5.5193,1.5 4.371,1.5597 3.4648,1.74414 2.5587,1.92861 1.8691,2.25499 1.4004,2.79883 0.9317,3.34267 0.7215,4.04775 0.6172,4.89258 0.5128,5.73741 0.5083,6.7462 0.5,7.99609 v 0.002 15.0039 0.002 c 0.017,2.49977 -0.038,4.0689 0.7481,5.16211 0.393,0.5466 0.9994,0.8964 1.7753,1.08593 0.776,0.18954 1.7431,0.24805 3.0098,0.24805 h 19 c 1.5139,0 2.6627,-0.0597 3.5684,-0.24414 0.9057,-0.18449 1.5936,-0.51 2.0605,-1.05469 0.4669,-0.54469 0.674,-1.25062 0.7735,-2.0957 0.099,-0.84508 0.098,-1.85547 0.098,-3.10547 v -13 c 0,-1.25 0,-2.26039 -0.098,-3.10547 C 31.3356,6.04953 31.129,5.3436 30.6621,4.79891 30.1952,4.25422 29.5073,3.92871 28.6016,3.74422 27.6959,3.55973 26.5471,3.50008 25.0332,3.50008 H 14.2305 l -2.1426,-2 h -0.1973 c -2.3007,-10e-5 -4.8574,0 -4.8574,0 z"
     style="color:#000000;font-style:normal;font-variant:normal;font-weight:normal;font-stretch:normal;font-size:medium;line-height:normal;font-family:sans-serif;font-variant-ligatures:none;font-variant-position:normal;font-variant-caps:normal;font-variant-numeric:normal;font-variant-alternates:normal;font-feature-settings:normal;text-indent:0;text-align:start;text-decoration:none;text-decoration-line:none;text-decoration-style:solid;text-decoration-color:#000000;letter-spacing:normal;word-spacing:normal;text-transform:none;writing-mode:lr-tb;direction:ltr;text-orientation:mixed;dominant-baseline:auto;baseline-shift:baseline;text-anchor:start;white-space:normal;shape-padding:0;clip-rule:nonzero;display:inline;overflow:visible;visibility:visible;isolation:auto;mix-blend-mode:normal;color-interpolation:sRGB;color-interpolation-filters:linearRGB;solid-color:#000000;solid-opacity:1;vector-effect:none;fill:url(#linearGradient1815);fill-opacity:1;fill-rule:nonzero;stroke:none;stroke-width:1;stroke-linecap:butt;stroke-linejoin:miter;stroke-miterlimit:4;stroke-dasharray:none;stroke-dashoffset:0;stroke-opacity:1;marker:none;color-rendering:auto;image-rendering:auto;shape-rendering:auto;text-rendering:auto;enable-background:accumulate" />
  <path
     style="color:#000000;font-style:normal;font-variant:normal;font-weight:normal;font-stretch:normal;font-size:medium;line-height:normal;font-family:sans-serif;font-variant-ligatures:none;font-variant-position:normal;font-variant-caps:normal;font-variant-numeric:normal;font-variant-alternates:normal;font-feature-settings:normal;text-indent:0;text-align:start;text-decoration:none;text-decoration-line:none;text-decoration-style:solid;text-decoration-color:#000000;letter-spacing:normal;word-spacing:normal;text-transform:none;writing-mode:lr-tb;direction:ltr;baseline-shift:baseline;text-anchor:start;white-space:normal;shape-padding:0;clip-rule:nonzero;display:inline;overflow:visible;visibility:visible;isolation:auto;mix-blend-mode:normal;color-interpolation:sRGB;color-interpolation-filters:linearRGB;solid-color:#000000;solid-opacity:1;fill:url(#linearGradient1827);fill-opacity:1;fill-rule:nonzero;stroke:none;stroke-width:4;stroke-linecap:butt;stroke-linejoin:miter;stroke-miterlimit:4;stroke-dasharray:none;stroke-dashoffset:0;stroke-opacity:1;marker:none;color-rendering:auto;image-rendering:auto;shape-rendering:auto;text-rendering:auto;enable-background:accumulate"
     d="M 16.1426,6 14,8 H 6.5 c -5.9671,0 -5.9998,0.99667 -6,5.92578 0,0.0272 0,0.0468 0,0.0742 0,2.4577 0.019,4.9135 0.01,7.35938 -2e-4,0.01 -2e-4,0.0195 0,0.0293 0.054,1.76416 -0.1006,3.63712 0.2148,5.57031 0,0.01 0.01,0.0196 0.01,0.0293 0.2671,1.33673 1.429,2.19355 2.6601,2.34961 1.8121,0.26968 3.5568,0.10509 5.1817,0.16211 0.01,1.7e-4 0.019,1.7e-4 0.029,0 6.4942,-0.007 13.0085,0.0246 19.5156,-0.12695 0.036,-3.5e-4 0.072,-0.003 0.1074,-0.008 0.5732,-0.0889 1.2063,-0.26164 1.7832,-0.61914 0.5769,-0.35749 1.1085,-0.95184 1.2754,-1.75 0,-0.02 0.01,-0.0402 0.01,-0.0605 0.3017,-2.28103 0.1519,-4.5186 0.2011,-6.66407 10e-5,-0.007 10e-5,-0.0143 0,-0.0215 -0.011,-3.50034 0.02,-7.01499 -0.027,-10.53516 -0.1773,-3.00208 -1.0487,-3.71484 -5.9707,-3.71484 0,0 -7.0567,-1e-4 -9.3574,0 z"
     id="path3495"
     inkscape:connector-curvature="0" />
  <path
     id="path3497"
     d="M 16.1426,6 14,8 H 6.5 c -6,0 -6,1 -6,6 v 1 c 0,-5 0,-6 6,-6 H 14 l 2.1426,-2 c 2.3007,-10e-5 9.3578,0 9.3578,0 6,0 5.9999,1 6.0332,6 v -1 c -0.033,-5 -0.033,-6 -6.0332,-6 0,0 -7.0571,-10e-5 -9.3578,0 z"
     style="color:#000000;font-style:normal;font-variant:normal;font-weight:normal;font-stretch:normal;font-size:medium;line-height:normal;font-family:sans-serif;font-variant-ligatures:none;font-variant-position:normal;font-variant-caps:normal;font-variant-numeric:normal;font-variant-alternates:normal;font-feature-settings:normal;text-indent:0;text-align:start;text-decoration:none;text-decoration-line:none;text-decoration-style:solid;text-decoration-color:#000000;letter-spacing:normal;word-spacing:normal;text-transform:none;writing-mode:lr-tb;direction:ltr;baseline-shift:baseline;text-anchor:start;white-space:normal;shape-padding:0;clip-rule:nonzero;display:inline;overflow:visible;visibility:visible;opacity:0.3;isolation:auto;mix-blend-mode:normal;color-interpolation:sRGB;color-interpolation-filters:linearRGB;solid-color:#000000;solid-opacity:1;fill:#ffffff;fill-opacity:1;fill-rule:nonzero;stroke:none;stroke-width:4;stroke-linecap:butt;stroke-linejoin:miter;stroke-miterlimit:4;stroke-dasharray:none;stroke-dashoffset:0;stroke-opacity:1;marker:none;color-rendering:auto;image-rendering:auto;shape-rendering:auto;text-rendering:auto;enable-background:accumulate"
     inkscape:connector-curvature="0"
     sodipodi:nodetypes="ccsscsccccccc" />
  <path
     style="color:#000000;font-style:normal;font-variant:normal;font-weight:normal;font-stretch:normal;font-size:medium;line-height:normal;font-family:sans-serif;font-variant-ligatures:none;font-variant-position:normal;font-variant-caps:normal;font-variant-numeric:normal;font-variant-alternates:normal;font-feature-settings:normal;text-indent:0;text-align:start;text-decoration:none;text-decoration-line:none;text-decoration-style:solid;text-decoration-color:#000000;letter-spacing:normal;word-spacing:normal;text-transform:none;writing-mode:lr-tb;direction:ltr;text-orientation:mixed;dominant-baseline:auto;baseline-shift:baseline;text-anchor:start;white-space:normal;shape-padding:0;clip-rule:nonzero;display:inline;overflow:visible;visibility:visible;opacity:0.4;isolation:auto;mix-blend-mode:normal;color-interpolation:sRGB;color-interpolation-filters:linearRGB;solid-color:#000000;solid-opacity:1;vector-effect:none;fill:none;fill-opacity:1;fill-rule:nonzero;stroke:#000000;stroke-width:1;stroke-linecap:butt;stroke-linejoin:miter;stroke-miterlimit:4;stroke-dasharray:none;stroke-dashoffset:0;stroke-opacity:1;marker:none;color-rendering:auto;image-rendering:auto;shape-rendering:auto;text-rendering:auto;enable-background:accumulate"
     d="M 7.0332,1.5 C 5.5193,1.5 4.371,1.5597 3.4648,1.74414 2.5587,1.92861 1.8691,2.25499 1.4004,2.79883 0.9317,3.34267 0.7215,4.04775 0.6172,4.89258 0.5128,5.73741 0.5083,6.7462 0.5,7.99609 v 0.002 15.0039 0.002 c 0.017,2.49977 -0.038,4.0689 0.7481,5.16211 0.393,0.5466 0.9994,0.8964 1.7753,1.08593 0.776,0.18954 1.7431,0.24805 3.0098,0.24805 h 19 c 1.5139,0 2.6627,-0.0597 3.5684,-0.24414 0.9057,-0.18449 1.5936,-0.51 2.0605,-1.05469 0.4669,-0.54469 0.674,-1.25062 0.7735,-2.0957 0.099,-0.84508 0.098,-1.85547 0.098,-3.10547 v -13 c 0,-1.25 0,-2.26039 -0.098,-3.10547 C 31.3356,6.04953 31.129,5.3436 30.6621,4.79891 30.1952,4.25422 29.5073,3.92871 28.6016,3.74422 27.6959,3.55973 26.5471,3.50008 25.0332,3.50008 H 14.2305 l -2.1426,-2 h -0.1973 c -2.3007,-10e-5 -4.8574,0 -4.8574,0 z"
     id="path3499"
     inkscape:connector-curvature="0"
     sodipodi:nodetypes="ccscccccccsscscsscsssccccc" />
  <path
     inkscape:connector-curvature="0"
     style="color:#000000;font-style:normal;font-variant:normal;font-weight:normal;font-stretch:normal;font-size:medium;line-height:normal;font-family:sans-serif;font-variant-ligatures:none;font-variant-position:normal;font-variant-caps:normal;font-variant-numeric:normal;font-variant-alternates:normal;font-feature-settings:normal;text-indent:0;text-align:start;text-decoration:none;text-decoration-line:none;text-decoration-style:solid;text-decoration-color:#000000;letter-spacing:normal;word-spacing:normal;text-transform:none;writing-mode:lr-tb;direction:ltr;baseline-shift:baseline;text-anchor:start;white-space:normal;shape-padding:0;clip-rule:nonzero;display:inline;overflow:visible;visibility:visible;opacity:0.2;isolation:auto;mix-blend-mode:normal;color-interpolation:sRGB;color-interpolation-filters:linearRGB;solid-color:#000000;solid-opacity:1;fill:#491706;fill-opacity:1;fill-rule:nonzero;stroke:none;stroke-width:4;stroke-linecap:butt;stroke-linejoin:miter;stroke-miterlimit:4;stroke-dasharray:none;stroke-dashoffset:0;stroke-opacity:1;marker:none;color-rendering:auto;image-rendering:auto;shape-rendering:auto;text-rendering:auto;enable-background:accumulate"
     d="M 16.1426,5 14,7 H 6.5 c -6,0 -6,1 -6,6 v 1 c 0,-5 0,-6 6,-6 H 14 l 2.1426,-2 c 2.3007,-10e-5 9.3578,0 9.3578,0 6,0 5.9999,1 6.0332,6 v -1 c -0.033,-5 -0.033,-6 -6.0332,-6 0,0 -7.0571,-10e-5 -9.3578,0 z"
     id="path3501"
     sodipodi:nodetypes="ccsscsccccccc" />
  <path
     id="path3513"
     d="M 7.0332,2 C 1.0332,2 1.0333,3 1,8 V 9 C 1.033,4 1.033,3 7.0332,3 c 0,0 2.5567,-1e-4 4.8574,0 l 2.1426,2 h 11 c 6,0 6,1 6,6 v -1 c 0,-5 0,-6 -6,-6 h -11 L 11.8906,2 C 9.5899,1.9999 7.0332,2 7.0332,2 Z"
     style="color:#000000;font-style:normal;font-variant:normal;font-weight:normal;font-stretch:normal;font-size:medium;line-height:normal;font-family:sans-serif;font-variant-ligatures:none;font-variant-position:normal;font-variant-caps:normal;font-variant-numeric:normal;font-variant-alternates:normal;font-feature-settings:normal;text-indent:0;text-align:start;text-decoration:none;text-decoration-line:none;text-decoration-style:solid;text-decoration-color:#000000;letter-spacing:normal;word-spacing:normal;text-transform:none;writing-mode:lr-tb;direction:ltr;baseline-shift:baseline;text-anchor:start;white-space:normal;shape-padding:0;clip-rule:nonzero;display:inline;overflow:visible;visibility:visible;opacity:0.4;isolation:auto;mix-blend-mode:normal;color-interpolation:sRGB;color-interpolation-filters:linearRGB;solid-color:#000000;solid-opacity:1;fill:#fec589;fill-opacity:1;fill-rule:nonzero;stroke:none;stroke-width:4;stroke-linecap:butt;stroke-linejoin:miter;stroke-miterlimit:4;stroke-dasharray:none;stroke-dashoffset:0;stroke-opacity:1;marker:none;color-rendering:auto;image-rendering:auto;shape-rendering:auto;text-rendering:auto;enable-background:accumulate"
     inkscape:connector-curvature="0" />
  <path
     sodipodi:nodetypes="ccscc"
     inkscape:connector-curvature="0"
     id="path3517"
     d="m 31,20 -9,9 h 4 c 5,0 4.9999,-1 5.0332,-6 z"
     style="color:#000000;font-style:normal;font-variant:normal;font-weight:normal;font-stretch:normal;font-size:medium;line-height:normal;font-family:sans-serif;font-variant-ligatures:none;font-variant-position:normal;font-variant-caps:normal;font-variant-numeric:normal;font-variant-alternates:normal;font-feature-settings:normal;text-indent:0;text-align:start;text-decoration:none;text-decoration-line:none;text-decoration-style:solid;text-decoration-color:#000000;letter-spacing:normal;word-spacing:normal;text-transform:none;writing-mode:lr-tb;direction:ltr;baseline-shift:baseline;text-anchor:start;white-space:normal;shape-padding:0;clip-rule:nonzero;display:inline;overflow:visible;visibility:visible;opacity:0.05;isolation:auto;mix-blend-mode:normal;color-interpolation:sRGB;color-interpolation-filters:linearRGB;solid-color:#000000;solid-opacity:1;fill:#ffffff;fill-opacity:1;fill-rule:nonzero;stroke:none;stroke-width:4;stroke-linecap:butt;stroke-linejoin:miter;stroke-miterlimit:4;stroke-dasharray:none;stroke-dashoffset:0;stroke-opacity:1;marker:none;color-rendering:auto;image-rendering:auto;shape-rendering:auto;text-rendering:auto;enable-background:accumulate" />
  <g
     transform="matrix(0.84709046,0,0,0.84709046,-831.49979,-33.449885)"
     label="status"
     id="g4"
     style="opacity:0.75;fill:#ffffff;fill-opacity:1">
    <path
       d="m 1001,54 c -0.5291,0 -1.0315,0.0974 -1.4941,0.29492 -0.4595,0.1878 -0.86412,0.46562 -1.1953,0.82422 -0.3402,0.3589 -0.60145,0.79186 -0.78125,1.2832 -0.18243,0.48918 -0.26953,1.0246 -0.26953,1.5977 h 0.008 c 0,0.58157 0.0877,1.1227 0.27149,1.6133 0.1805,0.48378 0.44175,0.9117 0.78125,1.2695 0.3304,0.35746 0.73205,0.63789 1.1894,0.83399 v 0.002 c 0.46203,0.18805 0.96244,0.28125 1.49024,0.28125 0.5279,0 1.0306,-0.0935 1.4922,-0.28125 v -0.002 -0.002 c 0.4578,-0.19626 0.8627,-0.47587 1.2012,-0.83203 v -0.002 -0.002 c 0.3296,-0.35779 0.5858,-0.78378 0.7656,-1.2656 0.1831,-0.49061 0.2695,-1.0317 0.2695,-1.6133 0,-0.57371 -0.087,-1.11 -0.2695,-1.5996 -0.1794,-0.48927 -0.4352,-0.92065 -0.7656,-1.2793 v -0.002 -0.004 c -0.3393,-0.35698 -0.7472,-0.63255 -1.2071,-0.82031 -0.4553,-0.19666 -0.9578,-0.29464 -1.4865,-0.29464 z m 0,1 c 0.4058,0 0.7701,0.0743 1.1016,0.21484 l 0.01,0.002 0.01,0.004 c 0.3294,0.13451 0.6098,0.32807 0.8496,0.57813 l 0.012,0.01 c 0.2301,0.25193 0.4167,0.55926 0.5547,0.93555 v 0.004 0.002 c 0.136,0.36442 0.207,0.77878 0.207,1.25 0,0.48085 -0.071,0.9003 -0.207,1.2637 -0.1293,0.34639 -0.3107,0.62633 -0.5235,0.8711 l -0.01,0.006 -0.051,0.0703 c -0.2381,0.24532 -0.5129,0.44149 -0.8379,0.58203 -10e-4,4.4e-4 0,-4.4e-4 0,0 -0.3328,0.13438 -0.6994,0.20703 -1.1093,0.20703 -0.4046,0 -0.7655,-0.0717 -1.0918,-0.20312 -0.3338,-0.14338 -0.61446,-0.34144 -0.84766,-0.59376 v -0.004 l -0.0117,-0.004 c -0.2425,-0.25561 -0.43311,-0.56404 -0.57031,-0.93164 v -0.002 c -0.14123,-0.36189 -0.21321,-0.78029 -0.21321,-1.2621 v -0.0469 c 0.005,-0.44864 0.0685,-0.85057 0.19922,-1.2012 v -0.006 c 0.1375,-0.37593 0.32856,-0.68649 0.56836,-0.93945 v -0.01 c 0.2309,-0.24998 0.50799,-0.44134 0.83789,-0.57618 l 0.0117,-0.002 0.01,-0.004 c 0.33021,-0.14026 0.69511,-0.2143 1.10131,-0.2143 z m -0.029,9.0254 c -0.057,0 -0.095,0.004 -0.1504,0.004 -0.6735,0.003 -1.2836,0.0202 -1.8203,0.0586 -1.6644,0.11914 -2.7396,0.42888 -3.5898,1.0703 -0.57474,0.43358 -0.95376,1.025 -1.168,1.7129 -0.158,0.50743 -0.21889,0.97459 -0.24804,1.5312 -0.008,0.0405 -0.002,0.0818 -1.6e-4,0.12305 0.0137,0.27631 0.23951,0.489 0.51578,0.47461 0.26541,-0.0145 0.47306,-0.23419 0.47266,-0.5 0.009,-0.46614 0.14125,-0.94537 0.21494,-1.334 0.16618,-0.53363 0.41151,-0.90354 0.81641,-1.209 0.58713,-0.44293 1.479,-0.7287 2.9863,-0.85547 h 0.002 c 0.5395,-0.0455 1.15961,-0.0718 1.88481,-0.0742 0.032,-1.1e-4 0.051,-0.004 0.084,-0.004 0.039,0 0.063,0.004 0.1015,0.004 0.7252,0.002 1.3453,0.0287 1.8848,0.0742 1.5073,0.12677 2.3992,0.41254 2.9863,0.85547 0.4049,0.30545 0.6502,0.67536 0.8164,1.209 0.1263,0.40546 0.1834,0.81043 0.211,1.334 -2e-4,0.008 -2e-4,0.0169 0,0.0254 0.014,0.27631 0.2491,0.489 0.5254,0.47461 0.2755,-0.0147 0.487,-0.24985 0.4726,-0.52539 0,-0.0223 0,-0.0445 -0.01,-0.0664 -0.029,-0.55942 -0.089,-1.0278 -0.248,-1.5371 -0.2142,-0.68788 -0.5933,-1.2793 -1.168,-1.7129 -0.8502,-0.64142 -1.9255,-0.95117 -3.5898,-1.0703 -0.5368,-0.0384 -1.1468,-0.0558 -1.8203,-0.0586 -0.062,-2.6e-4 -0.1052,-0.004 -0.168,-0.004 z"
       style="font-variant-ligatures:normal;font-variant-position:normal;font-variant-caps:normal;font-variant-numeric:normal;font-variant-alternates:normal;font-feature-settings:normal;text-indent:0;text-decoration:none;text-decoration-line:none;text-decoration-style:solid;text-decoration-color:#000000;text-transform:none;text-orientation:mixed;white-space:normal;shape-padding:0;isolation:auto;mix-blend-mode:normal;fill:#ffffff;fill-opacity:1"
       id="path2" />
  </g>
</svg>
