<?xml version="1.0" encoding="UTF-8" standalone="no"?>
<svg
   xmlns:dc="http://purl.org/dc/elements/1.1/"
   xmlns:cc="http://creativecommons.org/ns#"
   xmlns:rdf="http://www.w3.org/1999/02/22-rdf-syntax-ns#"
   xmlns:svg="http://www.w3.org/2000/svg"
   xmlns="http://www.w3.org/2000/svg"
   xmlns:xlink="http://www.w3.org/1999/xlink"
   xmlns:sodipodi="http://sodipodi.sourceforge.net/DTD/sodipodi-0.dtd"
   xmlns:inkscape="http://www.inkscape.org/namespaces/inkscape"
   version="1.1"
   viewBox="0 0 32 32"
   id="svg29"
   sodipodi:docname="folder-remote.svg"
   inkscape:version="1.0.2 (e86c870879, 2021-01-15)">
  <metadata
     id="metadata33">
    <rdf:RDF>
      <cc:Work
         rdf:about="">
        <dc:format>image/svg+xml</dc:format>
        <dc:type
           rdf:resource="http://purl.org/dc/dcmitype/StillImage" />
        <dc:title></dc:title>
      </cc:Work>
    </rdf:RDF>
  </metadata>
  <sodipodi:namedview
     pagecolor="#ffffff"
     bordercolor="#666666"
     borderopacity="1"
     objecttolerance="10"
     gridtolerance="10"
     guidetolerance="10"
     inkscape:pageopacity="0"
     inkscape:pageshadow="2"
     inkscape:window-width="1366"
     inkscape:window-height="689"
     id="namedview31"
     showgrid="true"
     inkscape:zoom="5.9109705"
     inkscape:cx="15.099553"
     inkscape:cy="24.425829"
     inkscape:window-x="0"
     inkscape:window-y="0"
     inkscape:window-maximized="1"
     inkscape:current-layer="svg29"
     inkscape:document-rotation="0">
    <inkscape:grid
       type="xygrid"
       id="grid858" />
  </sodipodi:namedview>
  <defs
     id="defs7">
    <linearGradient
       id="a"
       x2="0"
       y1="29"
       y2="8"
       gradientUnits="userSpaceOnUse">
      <stop
         stop-color="#3daee9"
         offset="0"
         id="stop2" />
      <stop
         stop-color="#6cc1ef"
         offset="1"
         id="stop4" />
    </linearGradient>
    <clipPath
       clipPathUnits="userSpaceOnUse"
       id="clipPath4255">
      <path
         inkscape:connector-curvature="0"
         id="path4257"
         d="M 88.55469,36 C 10.5,35.999999 2.5,36.000001 2.5,113.89844 V 326.10156 C 2.5,404 10.5,412 88.55469,412 H 428.44531 C 506.5,412 514.5,404 514.5,326.10156 V 145.89844 C 514.5,68.000001 506.49923,59.652236 428.44531,60 L 200,60.000001 l -24,-24 z"
         style="color:#000000;display:inline;overflow:visible;visibility:visible;fill:#d04616;fill-opacity:1;fill-rule:nonzero;stroke:none;stroke-width:1;marker:none;enable-background:accumulate"
         sodipodi:nodetypes="ssssssssccs" />
    </clipPath>
    <clipPath
       clipPathUnits="userSpaceOnUse"
       id="clipPath977">
      <path
         id="path979"
         d="M 78.994141,52 C 43.625611,52 40,53.999146 40,89.296875 V 140 H 264 V 108.92188 C 264,73.624145 260.37439,68 225.00586,68 H 138 L 122,52 Z"
         style="color:#000000;display:inline;overflow:visible;visibility:visible;fill:#f6531e;fill-opacity:1;fill-rule:nonzero;stroke:none;stroke-width:1;marker:none;enable-background:accumulate"
         inkscape:connector-curvature="0" />
    </clipPath>
    <clipPath
       clipPathUnits="userSpaceOnUse"
       id="clipPath977-5">
      <path
         id="path979-7"
         d="M 78.994141,52 C 43.625611,52 40,53.999146 40,89.296875 V 140 H 264 V 108.92188 C 264,73.624145 260.37439,68 225.00586,68 H 138 L 122,52 Z"
         style="color:#000000;display:inline;overflow:visible;visibility:visible;fill:#f6531e;fill-opacity:1;fill-rule:nonzero;stroke:none;stroke-width:1;marker:none;enable-background:accumulate"
         inkscape:connector-curvature="0" />
    </clipPath>
    <clipPath
       clipPathUnits="userSpaceOnUse"
       id="clipPath977-1">
      <path
         id="path979-3"
         d="M 78.994141,52 C 43.625611,52 40,53.999146 40,89.296875 V 140 H 264 V 108.92188 C 264,73.624145 260.37439,68 225.00586,68 H 138 L 122,52 Z"
         style="color:#000000;display:inline;overflow:visible;visibility:visible;fill:#f6531e;fill-opacity:1;fill-rule:nonzero;stroke:none;stroke-width:1;marker:none;enable-background:accumulate"
         inkscape:connector-curvature="0" />
    </clipPath>
    <linearGradient
       inkscape:collect="always"
       xlink:href="#linearGradient36441"
       id="linearGradient12886"
       gradientUnits="userSpaceOnUse"
       gradientTransform="matrix(1.0000026,0,0,0.96637988,-320.00083,-129.48657)"
       x1="320"
       y1="164"
       x2="352"
       y2="134" />
    <linearGradient
       inkscape:collect="always"
       id="linearGradient36441">
      <stop
         style="stop-color:#2c001e;stop-opacity:1"
         offset="0"
         id="stop36437" />
      <stop
         id="stop36445"
         offset="0.10864977"
         style="stop-color:#2c001e;stop-opacity:1" />
      <stop
         style="stop-color:#370626;stop-opacity:1"
         offset="0.18689813"
         id="stop36449" />
      <stop
         id="stop36451"
         offset="0.2980746"
         style="stop-color:#55163b;stop-opacity:1" />
      <stop
         style="stop-color:#772953;stop-opacity:1"
         offset="0.37246177"
         id="stop36453" />
      <stop
         style="stop-color:#7c2b51;stop-opacity:1"
         offset="0.44700962"
         id="stop36447" />
      <stop
         id="stop36455"
         offset="0.52428877"
         style="stop-color:#8b314b;stop-opacity:1" />
      <stop
         style="stop-color:#8b314b;stop-opacity:1"
         offset="0.59614229"
         id="stop36457" />
      <stop
         id="stop36459"
         offset="0.66876179"
         style="stop-color:#a33a41;stop-opacity:1" />
      <stop
         style="stop-color:#c44732;stop-opacity:1"
         offset="0.79755175"
         id="stop36461" />
      <stop
         id="stop36463"
         offset="0.91251218"
         style="stop-color:#e65524;stop-opacity:1" />
      <stop
         style="stop-color:#e65524;stop-opacity:1"
         offset="1"
         id="stop36439" />
    </linearGradient>
    <linearGradient
       inkscape:collect="always"
       xlink:href="#linearGradient3388"
       id="linearGradient12898"
       gradientUnits="userSpaceOnUse"
       gradientTransform="matrix(1.0000026,0,0,0.96637988,-320.00083,-129.48657)"
       x1="321"
       y1="139"
       x2="352"
       y2="163" />
    <linearGradient
       inkscape:collect="always"
       id="linearGradient3388">
      <stop
         style="stop-color:#666666;stop-opacity:1;"
         offset="0"
         id="stop3384" />
      <stop
         style="stop-color:#7a7a7a;stop-opacity:1"
         offset="1"
         id="stop3386" />
    </linearGradient>
    <linearGradient
       inkscape:collect="always"
       xlink:href="#linearGradient3388"
       id="linearGradient3585"
       x1="2321"
       y1="464"
       x2="2321"
       y2="466"
       gradientUnits="userSpaceOnUse"
       gradientTransform="matrix(0.69565217,0,0,0.69565217,-1614.6087,-293.30435)" />
    <linearGradient
       inkscape:collect="always"
       xlink:href="#linearGradient3388"
       id="linearGradient3601"
       x1="2343"
       y1="459"
       x2="2343"
       y2="465"
       gradientUnits="userSpaceOnUse"
       gradientTransform="matrix(0.69565217,0,0,0.5289855,-1614.6087,-215.80435)" />
    <linearGradient
       inkscape:collect="always"
       xlink:href="#linearGradient3388"
       id="linearGradient3593"
       x1="2340"
       y1="463"
       x2="2340"
       y2="467"
       gradientUnits="userSpaceOnUse"
       gradientTransform="matrix(0.69565217,0,0,0.69565217,-1614.6087,-293.30435)" />
  </defs>
  <path
     sodipodi:nodetypes="scccccccccccsscccsscccsccccs"
     inkscape:connector-curvature="0"
     id="path3453-48"
     d="m 7.033218,0.97471369 c -1.5270039,0 -2.7016069,0.055277 -3.6680094,0.24537351 C 2.3947061,1.4110149 1.584004,1.7671935 1.0215026,2.3978626 0.46150118,3.0257679 0.23130059,3.8156289 0.12110031,4.6779103 0.01100003,5.5390997 0.00830002,6.5245269 0,7.7318252 v 0.00193 0.00386 14.4994658 0.0038 0.002 C 0.01700004,24.65021 -0.08300021,26.265882 0.84180215,27.508897 1.3181034,28.149083 2.0489052,28.545193 2.9043074,28.747099 3.7502096,28.946771 4.7512121,29 6.0332154,29 H 25.033264 c 1.527004,0 2.701907,-0.05528 3.668009,-0.245373 0.969903,-0.190919 1.779005,-0.545542 2.339806,-1.177776 0.558302,-0.629384 0.785602,-1.42082 0.890603,-2.283826 0.1049,-0.861673 0.1016,-1.850145 0.1016,-3.057684 V 9.6724029 c 0,-1.2074626 0,-2.1957697 -0.1016,-3.0576838 C 31.826681,5.7517032 31.599381,4.9602672 31.041079,4.330893 30.480278,3.6986583 29.671176,3.3440355 28.701273,3.1531175 27.735171,2.962673 26.560268,2.9074734 25.033264,2.9074734 H 14.427737 L 12.285231,0.97471369 H 11.89063 c -2.0639049,-8.697e-5 -3.9120096,-1.933e-5 -4.3574108,0 z"
     style="color:#000000;font-style:normal;font-variant:normal;font-weight:normal;font-stretch:normal;font-size:medium;line-height:normal;font-family:sans-serif;font-variant-ligatures:none;font-variant-position:normal;font-variant-caps:normal;font-variant-numeric:normal;font-variant-alternates:normal;font-feature-settings:normal;text-indent:0;text-align:start;text-decoration:none;text-decoration-line:none;text-decoration-style:solid;text-decoration-color:#000000;letter-spacing:normal;word-spacing:normal;text-transform:none;writing-mode:lr-tb;direction:ltr;text-orientation:mixed;dominant-baseline:auto;baseline-shift:baseline;text-anchor:start;white-space:normal;shape-padding:0;clip-rule:nonzero;display:inline;overflow:visible;visibility:visible;opacity:0.1;isolation:auto;mix-blend-mode:normal;color-interpolation:sRGB;color-interpolation-filters:linearRGB;solid-color:#000000;solid-opacity:1;vector-effect:none;fill:#000000;fill-opacity:1;fill-rule:nonzero;stroke:none;stroke-width:0.983048;stroke-linecap:butt;stroke-linejoin:miter;stroke-miterlimit:4;stroke-dasharray:none;stroke-dashoffset:0;stroke-opacity:1;marker:none;color-rendering:auto;image-rendering:auto;shape-rendering:auto;text-rendering:auto;enable-background:accumulate" />
  <path
     sodipodi:nodetypes="ccscccccccsscscsscsssccccc"
     inkscape:connector-curvature="0"
     id="path3455-0"
     d="m 7.033218,0.49152375 c -1.5139039,0 -2.6622068,0.0576929 -3.5684092,0.23593198 C 2.5587065,0.90572382 1.8691048,1.2211309 1.4004036,1.7466869 0.93170238,2.2722429 0.72150184,2.953618 0.61720158,3.7700448 0.51280131,4.5864714 0.5083013,5.5613458 0.50000128,6.7692143 v 0.00193 14.4994667 0.002 c 0.017,2.415727 -0.0380001,3.932103 0.74810192,4.988559 0.393001,0.528225 0.9994025,0.866263 1.7753045,1.049421 0.776002,0.183169 1.7431045,0.239711 3.0098077,0.239711 H 25.033264 c 1.513904,0 2.662707,-0.0577 3.568409,-0.235932 0.905702,-0.178288 1.593604,-0.492853 2.060505,-1.019231 0.466902,-0.526378 0.674002,-1.208574 0.773502,-2.025242 0.099,-0.816669 0.098,-1.793089 0.098,-3.001064 V 8.7058298 c 0,-1.2079748 0,-2.1843954 -0.098,-3.0010636 -0.1,-0.8166683 -0.3066,-1.4988649 -0.773502,-2.0252423 C 30.195277,3.1531464 29.507375,2.8385801 28.601673,2.6602928 27.695971,2.4820054 26.547168,2.4243607 25.033264,2.4243607 H 14.230536 L 12.087931,0.49160107 H 11.89063 c -2.3007055,-9.664e-5 -4.857412,0 -4.857412,0 z"
     style="color:#000000;font-style:normal;font-variant:normal;font-weight:normal;font-stretch:normal;font-size:medium;line-height:normal;font-family:sans-serif;font-variant-ligatures:none;font-variant-position:normal;font-variant-caps:normal;font-variant-numeric:normal;font-variant-alternates:normal;font-feature-settings:normal;text-indent:0;text-align:start;text-decoration:none;text-decoration-line:none;text-decoration-style:solid;text-decoration-color:#000000;letter-spacing:normal;word-spacing:normal;text-transform:none;writing-mode:lr-tb;direction:ltr;text-orientation:mixed;dominant-baseline:auto;baseline-shift:baseline;text-anchor:start;white-space:normal;shape-padding:0;clip-rule:nonzero;display:inline;overflow:visible;visibility:visible;isolation:auto;mix-blend-mode:normal;color-interpolation:sRGB;color-interpolation-filters:linearRGB;solid-color:#000000;solid-opacity:1;vector-effect:none;fill:url(#linearGradient12886);fill-opacity:1;fill-rule:nonzero;stroke:none;stroke-width:0.983048;stroke-linecap:butt;stroke-linejoin:miter;stroke-miterlimit:4;stroke-dasharray:none;stroke-dashoffset:0;stroke-opacity:1;marker:none;color-rendering:auto;image-rendering:auto;shape-rendering:auto;text-rendering:auto;enable-background:accumulate" />
  <path
     style="color:#000000;font-style:normal;font-variant:normal;font-weight:normal;font-stretch:normal;font-size:medium;line-height:normal;font-family:sans-serif;font-variant-ligatures:none;font-variant-position:normal;font-variant-caps:normal;font-variant-numeric:normal;font-variant-alternates:normal;font-feature-settings:normal;text-indent:0;text-align:start;text-decoration:none;text-decoration-line:none;text-decoration-style:solid;text-decoration-color:#000000;letter-spacing:normal;word-spacing:normal;text-transform:none;writing-mode:lr-tb;direction:ltr;baseline-shift:baseline;text-anchor:start;white-space:normal;shape-padding:0;clip-rule:nonzero;display:inline;overflow:visible;visibility:visible;isolation:auto;mix-blend-mode:normal;color-interpolation:sRGB;color-interpolation-filters:linearRGB;solid-color:#000000;solid-opacity:1;fill:url(#linearGradient12898);fill-opacity:1;fill-rule:nonzero;stroke:none;stroke-width:3.93219;stroke-linecap:butt;stroke-linejoin:miter;stroke-miterlimit:4;stroke-dasharray:none;stroke-dashoffset:0;stroke-opacity:1;marker:none;color-rendering:auto;image-rendering:auto;shape-rendering:auto;text-rendering:auto;enable-background:accumulate"
     d="M 16.142641,4.8402332 14.000036,6.7729927 H 6.5000166 c -5.96711524,0 -5.99981532,0.9631618 -6.00001532,5.7265543 0,0.02628 0,0.04523 0,0.07171 0,2.375072 0.0190001,4.748307 0.01,7.111956 -2e-4,0.0097 -2e-4,0.01885 0,0.02832 0.0540001,1.70485 -0.10060025,3.514841 0.21480055,5.383036 0,0.0097 0.01,0.01894 0.01,0.02832 0.26710077,1.291789 1.42900367,2.119803 2.66010687,2.270616 1.8121046,0.260612 3.556809,0.101557 5.1817132,0.15666 0.01,1.64e-4 0.019,1.64e-4 0.029,0 6.4942171,-0.0067 13.0085331,0.02377 19.5156501,-0.122674 0.036,-3.39e-4 0.072,-0.0029 0.1074,-0.0077 0.573202,-0.08591 1.206303,-0.252844 1.783205,-0.598325 0.576901,-0.345471 1.108502,-0.919839 1.275403,-1.691166 0,-0.01932 0.01,-0.03885 0.01,-0.05846 0.301701,-2.204342 0.1519,-4.366684 0.2011,-6.440024 10e-5,-0.0067 10e-5,-0.01379 0,-0.02078 -0.011,-3.382659 0.02,-6.779146 -0.027,-10.180967 -0.1773,-2.9011496 -1.048702,-3.5899464 -5.970715,-3.5899464 0,0 -7.056718,-9.67e-5 -9.357424,0 z"
     id="path3495-4"
     inkscape:connector-curvature="0" />
  <path
     id="path3497-1"
     d="M 16.142641,4.8402332 14.000036,6.7729927 H 6.5000166 c -6.00001532,0 -6.00001532,0.9663799 -6.00001532,5.7982793 v 0.96638 c 0,-4.8318996 0,-5.7982794 6.00001532,-5.7982794 h 7.5000194 l 2.142605,-1.9327597 c 2.300706,-9.66e-5 9.357824,0 9.357824,0 6.000015,0 5.999915,0.9663798 6.033216,5.7982791 v -0.96638 c -0.033,-4.8318991 -0.033,-5.7982788 -6.033216,-5.7982788 0,0 -7.057118,-9.67e-5 -9.357824,0 z"
     style="color:#000000;font-style:normal;font-variant:normal;font-weight:normal;font-stretch:normal;font-size:medium;line-height:normal;font-family:sans-serif;font-variant-ligatures:none;font-variant-position:normal;font-variant-caps:normal;font-variant-numeric:normal;font-variant-alternates:normal;font-feature-settings:normal;text-indent:0;text-align:start;text-decoration:none;text-decoration-line:none;text-decoration-style:solid;text-decoration-color:#000000;letter-spacing:normal;word-spacing:normal;text-transform:none;writing-mode:lr-tb;direction:ltr;baseline-shift:baseline;text-anchor:start;white-space:normal;shape-padding:0;clip-rule:nonzero;display:inline;overflow:visible;visibility:visible;opacity:0.3;isolation:auto;mix-blend-mode:normal;color-interpolation:sRGB;color-interpolation-filters:linearRGB;solid-color:#000000;solid-opacity:1;fill:#ffffff;fill-opacity:1;fill-rule:nonzero;stroke:none;stroke-width:3.93219;stroke-linecap:butt;stroke-linejoin:miter;stroke-miterlimit:4;stroke-dasharray:none;stroke-dashoffset:0;stroke-opacity:1;marker:none;color-rendering:auto;image-rendering:auto;shape-rendering:auto;text-rendering:auto;enable-background:accumulate"
     inkscape:connector-curvature="0"
     sodipodi:nodetypes="ccsscsccccccc" />
  <path
     style="color:#000000;font-style:normal;font-variant:normal;font-weight:normal;font-stretch:normal;font-size:medium;line-height:normal;font-family:sans-serif;font-variant-ligatures:none;font-variant-position:normal;font-variant-caps:normal;font-variant-numeric:normal;font-variant-alternates:normal;font-feature-settings:normal;text-indent:0;text-align:start;text-decoration:none;text-decoration-line:none;text-decoration-style:solid;text-decoration-color:#000000;letter-spacing:normal;word-spacing:normal;text-transform:none;writing-mode:lr-tb;direction:ltr;text-orientation:mixed;dominant-baseline:auto;baseline-shift:baseline;text-anchor:start;white-space:normal;shape-padding:0;clip-rule:nonzero;display:inline;overflow:visible;visibility:visible;opacity:0.4;isolation:auto;mix-blend-mode:normal;color-interpolation:sRGB;color-interpolation-filters:linearRGB;solid-color:#000000;solid-opacity:1;vector-effect:none;fill:none;fill-opacity:1;fill-rule:nonzero;stroke:#000000;stroke-width:0.983048;stroke-linecap:butt;stroke-linejoin:miter;stroke-miterlimit:4;stroke-dasharray:none;stroke-dashoffset:0;stroke-opacity:1;marker:none;color-rendering:auto;image-rendering:auto;shape-rendering:auto;text-rendering:auto;enable-background:accumulate"
     d="m 7.033218,0.49152375 c -1.5139039,0 -2.6622068,0.0576929 -3.5684092,0.23593198 C 2.5587065,0.90572382 1.8691048,1.2211309 1.4004036,1.7466869 0.93170238,2.2722429 0.72150184,2.953618 0.61720158,3.7700448 0.51280131,4.5864714 0.5083013,5.5613458 0.50000128,6.7692143 v 0.00193 14.4994667 0.002 c 0.017,2.415727 -0.0380001,3.932103 0.74810192,4.988559 0.393001,0.528225 0.9994025,0.866263 1.7753045,1.049421 0.776002,0.183169 1.7431045,0.239711 3.0098077,0.239711 H 25.033264 c 1.513904,0 2.662707,-0.0577 3.568409,-0.235932 0.905702,-0.178288 1.593604,-0.492853 2.060505,-1.019231 0.466902,-0.526378 0.674002,-1.208574 0.773502,-2.025242 0.099,-0.816669 0.098,-1.793089 0.098,-3.001064 V 8.7058298 c 0,-1.2079748 0,-2.1843954 -0.098,-3.0010636 -0.1,-0.8166683 -0.3066,-1.4988649 -0.773502,-2.0252423 C 30.195277,3.1531464 29.507375,2.8385801 28.601673,2.6602928 27.695971,2.4820054 26.547168,2.4243607 25.033264,2.4243607 H 14.230536 L 12.087931,0.49160107 H 11.89063 c -2.3007055,-9.664e-5 -4.857412,0 -4.857412,0 z"
     id="path3499-5"
     inkscape:connector-curvature="0"
     sodipodi:nodetypes="ccscccccccsscscsscsssccccc" />
  <path
     inkscape:connector-curvature="0"
     style="color:#000000;font-style:normal;font-variant:normal;font-weight:normal;font-stretch:normal;font-size:medium;line-height:normal;font-family:sans-serif;font-variant-ligatures:none;font-variant-position:normal;font-variant-caps:normal;font-variant-numeric:normal;font-variant-alternates:normal;font-feature-settings:normal;text-indent:0;text-align:start;text-decoration:none;text-decoration-line:none;text-decoration-style:solid;text-decoration-color:#000000;letter-spacing:normal;word-spacing:normal;text-transform:none;writing-mode:lr-tb;direction:ltr;baseline-shift:baseline;text-anchor:start;white-space:normal;shape-padding:0;clip-rule:nonzero;display:inline;overflow:visible;visibility:visible;opacity:0.2;isolation:auto;mix-blend-mode:normal;color-interpolation:sRGB;color-interpolation-filters:linearRGB;solid-color:#000000;solid-opacity:1;fill:#491706;fill-opacity:1;fill-rule:nonzero;stroke:none;stroke-width:3.93219;stroke-linecap:butt;stroke-linejoin:miter;stroke-miterlimit:4;stroke-dasharray:none;stroke-dashoffset:0;stroke-opacity:1;marker:none;color-rendering:auto;image-rendering:auto;shape-rendering:auto;text-rendering:auto;enable-background:accumulate"
     d="M 16.142641,3.8738533 14.000036,5.8066129 H 6.5000166 c -6.00001532,0 -6.00001532,0.9663798 -6.00001532,5.7982791 v 0.96638 c 0,-4.8318994 0,-5.7982793 6.00001532,-5.7982793 h 7.5000194 l 2.142605,-1.9327595 c 2.300706,-9.67e-5 9.357824,0 9.357824,0 6.000015,0 5.999915,0.9663797 6.033216,5.7982788 V 9.6721323 c -0.033,-4.8318991 -0.033,-5.798279 -6.033216,-5.798279 0,0 -7.057118,-9.67e-5 -9.357824,0 z"
     id="path3501-41"
     sodipodi:nodetypes="ccsscsccccccc" />
  <path
     id="path3513-8"
     d="m 7.033218,0.97471369 c -6.0000154,0 -5.9999154,0.96637991 -6.0332154,5.79827901 v 0.9663799 c 0.033,-4.8318992 0.033,-5.798279 6.0332154,-5.798279 0,0 2.5567065,-9.67e-5 4.857412,0 l 2.142606,1.9327597 h 11.000028 c 6.000015,0 6.000015,0.9663799 6.000015,5.798279 V 8.7057524 c 0,-4.8318991 0,-5.798279 -6.000015,-5.798279 H 14.033236 L 11.89063,0.97471369 c -2.3007055,-9.664e-5 -4.857412,0 -4.857412,0 z"
     style="color:#000000;font-style:normal;font-variant:normal;font-weight:normal;font-stretch:normal;font-size:medium;line-height:normal;font-family:sans-serif;font-variant-ligatures:none;font-variant-position:normal;font-variant-caps:normal;font-variant-numeric:normal;font-variant-alternates:normal;font-feature-settings:normal;text-indent:0;text-align:start;text-decoration:none;text-decoration-line:none;text-decoration-style:solid;text-decoration-color:#000000;letter-spacing:normal;word-spacing:normal;text-transform:none;writing-mode:lr-tb;direction:ltr;baseline-shift:baseline;text-anchor:start;white-space:normal;shape-padding:0;clip-rule:nonzero;display:inline;overflow:visible;visibility:visible;opacity:0.4;isolation:auto;mix-blend-mode:normal;color-interpolation:sRGB;color-interpolation-filters:linearRGB;solid-color:#000000;solid-opacity:1;fill:#fec589;fill-opacity:1;fill-rule:nonzero;stroke:none;stroke-width:3.93219;stroke-linecap:butt;stroke-linejoin:miter;stroke-miterlimit:4;stroke-dasharray:none;stroke-dashoffset:0;stroke-opacity:1;marker:none;color-rendering:auto;image-rendering:auto;shape-rendering:auto;text-rendering:auto;enable-background:accumulate"
     inkscape:connector-curvature="0" />
  <path
     sodipodi:nodetypes="ccscc"
     inkscape:connector-curvature="0"
     id="path3517-2"
     d="m 31.000079,18.369551 -9.000023,8.697419 h 4.00001 c 5.000013,0 4.999913,-0.966381 5.033213,-5.79828 z"
     style="color:#000000;font-style:normal;font-variant:normal;font-weight:normal;font-stretch:normal;font-size:medium;line-height:normal;font-family:sans-serif;font-variant-ligatures:none;font-variant-position:normal;font-variant-caps:normal;font-variant-numeric:normal;font-variant-alternates:normal;font-feature-settings:normal;text-indent:0;text-align:start;text-decoration:none;text-decoration-line:none;text-decoration-style:solid;text-decoration-color:#000000;letter-spacing:normal;word-spacing:normal;text-transform:none;writing-mode:lr-tb;direction:ltr;baseline-shift:baseline;text-anchor:start;white-space:normal;shape-padding:0;clip-rule:nonzero;display:inline;overflow:visible;visibility:visible;opacity:0.05;isolation:auto;mix-blend-mode:normal;color-interpolation:sRGB;color-interpolation-filters:linearRGB;solid-color:#000000;solid-opacity:1;fill:#ffffff;fill-opacity:1;fill-rule:nonzero;stroke:none;stroke-width:3.93219;stroke-linecap:butt;stroke-linejoin:miter;stroke-miterlimit:4;stroke-dasharray:none;stroke-dashoffset:0;stroke-opacity:1;marker:none;color-rendering:auto;image-rendering:auto;shape-rendering:auto;text-rendering:auto;enable-background:accumulate" />
  <path
     id="rect3625"
     d="m 13.913043,29.478261 c -0.385391,0 -0.695652,0.310261 -0.695652,0.695652 H 0 v 1.391304 h 13.217391 c 0,0.385392 0.310261,0.695653 0.695652,0.695653 h 4.173914 c 0.385391,0 0.695652,-0.310261 0.695652,-0.695653 H 32 V 30.173913 H 18.782609 c 0,-0.385391 -0.310261,-0.695652 -0.695652,-0.695652 z"
     style="display:inline;opacity:0.1;vector-effect:none;fill:#000000;fill-opacity:1;stroke:none;stroke-width:2.78316;stroke-linecap:butt;stroke-linejoin:miter;stroke-miterlimit:4;stroke-dasharray:none;stroke-dashoffset:0;stroke-opacity:1;marker:none;enable-background:new"
     inkscape:connector-curvature="0" />
  <rect
     y="29.47826"
     x="0"
     height="1.3913044"
     width="32"
     id="rect2619"
     style="display:inline;vector-effect:none;fill:url(#linearGradient3585);fill-opacity:1;stroke:none;stroke-width:2.78316;stroke-linecap:butt;stroke-linejoin:miter;stroke-miterlimit:4;stroke-dasharray:none;stroke-dashoffset:0;stroke-opacity:1;marker:none;enable-background:new" />
  <rect
     y="29.47826"
     x="0"
     height="0.69565219"
     width="32"
     id="rect3678"
     style="display:inline;opacity:0.3;vector-effect:none;fill:#ffffff;fill-opacity:1;stroke:none;stroke-width:2.78316;stroke-linecap:butt;stroke-linejoin:miter;stroke-miterlimit:4;stroke-dasharray:none;stroke-dashoffset:0;stroke-opacity:1;marker:none;enable-background:new" />
  <rect
     ry="0"
     rx="0"
     y="27"
     x="15.304348"
     height="3.173913"
     width="1.3913044"
     id="rect2625"
     style="display:inline;vector-effect:none;fill:url(#linearGradient3601);fill-opacity:1;stroke:none;stroke-width:2.42697;stroke-linecap:butt;stroke-linejoin:miter;stroke-miterlimit:4;stroke-dasharray:none;stroke-dashoffset:0;stroke-opacity:1;marker:none;enable-background:new" />
  <rect
     ry="0.68419755"
     rx="0.69565219"
     y="28.782608"
     x="13.217392"
     height="2.7826087"
     width="5.5652175"
     id="rect2621"
     style="display:inline;vector-effect:none;fill:url(#linearGradient3593);fill-opacity:1;stroke:none;stroke-width:2.78316;stroke-linecap:butt;stroke-linejoin:miter;stroke-miterlimit:4;stroke-dasharray:none;stroke-dashoffset:0;stroke-opacity:1;marker:none;enable-background:new" />
  <path
     id="rect2621-5"
     d="m 13.913043,28.782609 c -0.385391,0 -0.695652,0.305739 -0.695652,0.684786 v 0.695652 c 0,-0.379047 0.310261,-0.684786 0.695652,-0.684786 h 4.173914 c 0.385391,0 0.695652,0.305739 0.695652,0.684786 v -0.695652 c 0,-0.379047 -0.310261,-0.684786 -0.695652,-0.684786 z"
     style="display:inline;opacity:0.7;vector-effect:none;fill:#ffffff;fill-opacity:1;stroke:none;stroke-width:2.78316;stroke-linecap:butt;stroke-linejoin:miter;stroke-miterlimit:4;stroke-dasharray:none;stroke-dashoffset:0;stroke-opacity:1;marker:none;enable-background:new"
     inkscape:connector-curvature="0" />
</svg>
