<?xml version="1.0" encoding="UTF-8" standalone="no"?>
<svg
   xmlns:dc="http://purl.org/dc/elements/1.1/"
   xmlns:cc="http://creativecommons.org/ns#"
   xmlns:rdf="http://www.w3.org/1999/02/22-rdf-syntax-ns#"
   xmlns:svg="http://www.w3.org/2000/svg"
   xmlns="http://www.w3.org/2000/svg"
   xmlns:xlink="http://www.w3.org/1999/xlink"
   xmlns:sodipodi="http://sodipodi.sourceforge.net/DTD/sodipodi-0.dtd"
   xmlns:inkscape="http://www.inkscape.org/namespaces/inkscape"
   version="1.1"
   viewBox="0 0 32 32"
   id="svg29"
   sodipodi:docname="folder-open.svg"
   inkscape:version="1.0.2 (e86c870879, 2021-01-15)">
  <metadata
     id="metadata33">
    <rdf:RDF>
      <cc:Work
         rdf:about="">
        <dc:format>image/svg+xml</dc:format>
        <dc:type
           rdf:resource="http://purl.org/dc/dcmitype/StillImage" />
        <dc:title></dc:title>
      </cc:Work>
    </rdf:RDF>
  </metadata>
  <sodipodi:namedview
     pagecolor="#ffffff"
     bordercolor="#666666"
     borderopacity="1"
     objecttolerance="10"
     gridtolerance="10"
     guidetolerance="10"
     inkscape:pageopacity="0"
     inkscape:pageshadow="2"
     inkscape:window-width="1366"
     inkscape:window-height="689"
     id="namedview31"
     showgrid="true"
     inkscape:zoom="5.9109705"
     inkscape:cx="15.099553"
     inkscape:cy="24.425829"
     inkscape:window-x="0"
     inkscape:window-y="0"
     inkscape:window-maximized="1"
     inkscape:current-layer="svg29"
     inkscape:document-rotation="0">
    <inkscape:grid
       type="xygrid"
       id="grid858" />
  </sodipodi:namedview>
  <defs
     id="defs7">
    <linearGradient
       id="a"
       x2="0"
       y1="29"
       y2="8"
       gradientUnits="userSpaceOnUse">
      <stop
         stop-color="#3daee9"
         offset="0"
         id="stop2" />
      <stop
         stop-color="#6cc1ef"
         offset="1"
         id="stop4" />
    </linearGradient>
    <clipPath
       clipPathUnits="userSpaceOnUse"
       id="clipPath4255">
      <path
         inkscape:connector-curvature="0"
         id="path4257"
         d="M 88.55469,36 C 10.5,35.999999 2.5,36.000001 2.5,113.89844 V 326.10156 C 2.5,404 10.5,412 88.55469,412 H 428.44531 C 506.5,412 514.5,404 514.5,326.10156 V 145.89844 C 514.5,68.000001 506.49923,59.652236 428.44531,60 L 200,60.000001 l -24,-24 z"
         style="color:#000000;display:inline;overflow:visible;visibility:visible;fill:#d04616;fill-opacity:1;fill-rule:nonzero;stroke:none;stroke-width:1;marker:none;enable-background:accumulate"
         sodipodi:nodetypes="ssssssssccs" />
    </clipPath>
    <clipPath
       clipPathUnits="userSpaceOnUse"
       id="clipPath977">
      <path
         id="path979"
         d="M 78.994141,52 C 43.625611,52 40,53.999146 40,89.296875 V 140 H 264 V 108.92188 C 264,73.624145 260.37439,68 225.00586,68 H 138 L 122,52 Z"
         style="color:#000000;display:inline;overflow:visible;visibility:visible;fill:#f6531e;fill-opacity:1;fill-rule:nonzero;stroke:none;stroke-width:1;marker:none;enable-background:accumulate"
         inkscape:connector-curvature="0" />
    </clipPath>
    <clipPath
       clipPathUnits="userSpaceOnUse"
       id="clipPath977-5">
      <path
         id="path979-7"
         d="M 78.994141,52 C 43.625611,52 40,53.999146 40,89.296875 V 140 H 264 V 108.92188 C 264,73.624145 260.37439,68 225.00586,68 H 138 L 122,52 Z"
         style="color:#000000;display:inline;overflow:visible;visibility:visible;fill:#f6531e;fill-opacity:1;fill-rule:nonzero;stroke:none;stroke-width:1;marker:none;enable-background:accumulate"
         inkscape:connector-curvature="0" />
    </clipPath>
    <clipPath
       clipPathUnits="userSpaceOnUse"
       id="clipPath977-1">
      <path
         id="path979-3"
         d="M 78.994141,52 C 43.625611,52 40,53.999146 40,89.296875 V 140 H 264 V 108.92188 C 264,73.624145 260.37439,68 225.00586,68 H 138 L 122,52 Z"
         style="color:#000000;display:inline;overflow:visible;visibility:visible;fill:#f6531e;fill-opacity:1;fill-rule:nonzero;stroke:none;stroke-width:1;marker:none;enable-background:accumulate"
         inkscape:connector-curvature="0" />
    </clipPath>
    <linearGradient
       inkscape:collect="always"
       xlink:href="#linearGradient36441"
       id="linearGradient1839"
       x1="320"
       y1="-196"
       x2="352"
       y2="-226"
       gradientUnits="userSpaceOnUse"
       gradientTransform="translate(-320,227)" />
    <linearGradient
       inkscape:collect="always"
       id="linearGradient36441">
      <stop
         style="stop-color:#2c001e;stop-opacity:1"
         offset="0"
         id="stop36437" />
      <stop
         id="stop36445"
         offset="0.10864977"
         style="stop-color:#2c001e;stop-opacity:1" />
      <stop
         style="stop-color:#370626;stop-opacity:1"
         offset="0.18689813"
         id="stop36449" />
      <stop
         id="stop36451"
         offset="0.2980746"
         style="stop-color:#55163b;stop-opacity:1" />
      <stop
         style="stop-color:#772953;stop-opacity:1"
         offset="0.37246177"
         id="stop36453" />
      <stop
         style="stop-color:#7c2b51;stop-opacity:1"
         offset="0.44700962"
         id="stop36447" />
      <stop
         id="stop36455"
         offset="0.52428877"
         style="stop-color:#8b314b;stop-opacity:1" />
      <stop
         style="stop-color:#8b314b;stop-opacity:1"
         offset="0.59614229"
         id="stop36457" />
      <stop
         id="stop36459"
         offset="0.66876179"
         style="stop-color:#a33a41;stop-opacity:1" />
      <stop
         style="stop-color:#c44732;stop-opacity:1"
         offset="0.79755175"
         id="stop36461" />
      <stop
         id="stop36463"
         offset="0.91251218"
         style="stop-color:#e65524;stop-opacity:1" />
      <stop
         style="stop-color:#e65524;stop-opacity:1"
         offset="1"
         id="stop36439" />
    </linearGradient>
    <linearGradient
       inkscape:collect="always"
       xlink:href="#linearGradient3388"
       id="linearGradient13910"
       x1="320"
       y1="-217"
       x2="352"
       y2="-197"
       gradientUnits="userSpaceOnUse"
       gradientTransform="translate(-320,227)" />
    <linearGradient
       inkscape:collect="always"
       id="linearGradient3388">
      <stop
         style="stop-color:#666666;stop-opacity:1;"
         offset="0"
         id="stop3384" />
      <stop
         style="stop-color:#7a7a7a;stop-opacity:1"
         offset="1"
         id="stop3386" />
    </linearGradient>
  </defs>
  <path
     style="color:#000000;font-style:normal;font-variant:normal;font-weight:normal;font-stretch:normal;font-size:medium;line-height:normal;font-family:sans-serif;font-variant-ligatures:none;font-variant-position:normal;font-variant-caps:normal;font-variant-numeric:normal;font-variant-alternates:normal;font-feature-settings:normal;text-indent:0;text-align:start;text-decoration:none;text-decoration-line:none;text-decoration-style:solid;text-decoration-color:#000000;letter-spacing:normal;word-spacing:normal;text-transform:none;writing-mode:lr-tb;direction:ltr;text-orientation:mixed;dominant-baseline:auto;baseline-shift:baseline;text-anchor:start;white-space:normal;shape-padding:0;clip-rule:nonzero;display:inline;overflow:visible;visibility:visible;opacity:0.1;isolation:auto;mix-blend-mode:normal;color-interpolation:sRGB;color-interpolation-filters:linearRGB;solid-color:#000000;solid-opacity:1;vector-effect:none;fill:#000000;fill-opacity:1;fill-rule:nonzero;stroke:none;stroke-width:1;stroke-linecap:butt;stroke-linejoin:miter;stroke-miterlimit:4;stroke-dasharray:none;stroke-dashoffset:0;stroke-opacity:1;marker:none;color-rendering:auto;image-rendering:auto;shape-rendering:auto;text-rendering:auto;enable-background:accumulate"
     d="M 7.0332,2 C 5.50617,2 4.33161,2.0572 3.36523,2.25391 2.39473,2.45148 1.58396,2.82005 1.02148,3.47266 0.46147,4.12241 0.2313,4.93975 0.12109,5.83203 0.01101,6.72318 0.00832,7.74289 0,8.99219 v 0.002 0.004 15.0039 0.004 0.002 c 0.0166,2.49108 -0.0831,4.16296 0.8418,5.44922 0.47631,0.66243 1.20712,1.07232 2.0625,1.28125 0.84594,0.20664 1.84685,0.26172 3.1289,0.26172 h 19 c 1.52704,0 2.70194,-0.0572 3.66797,-0.25391 0.96989,-0.19756 1.77907,-0.56452 2.33985,-1.21875 0.55824,-0.65128 0.78556,-1.47025 0.89062,-2.36328 0.10488,-0.89165 0.10156,-1.91451 0.10156,-3.16406 v -13 c 0,-1.24947 0.004,-2.27216 -0.10156,-3.16406 C 31.8266,6.94318 31.59925,6.12421 31.04102,5.47294 30.48024,4.81871 29.67106,4.45175 28.70117,4.25419 27.7351,4.05712 26.56023,4 25.0332,4 H 14.42773 L 12.28516,2 h -0.39454 c -2.0639,-9e-5 -3.91198,-2e-5 -4.35742,0 z"
     id="path1462"
     inkscape:connector-curvature="0"
     sodipodi:nodetypes="scccccccccccsscccsscccsccccs" />
  <path
     style="color:#000000;font-style:normal;font-variant:normal;font-weight:normal;font-stretch:normal;font-size:medium;line-height:normal;font-family:sans-serif;font-variant-ligatures:none;font-variant-position:normal;font-variant-caps:normal;font-variant-numeric:normal;font-variant-alternates:normal;font-feature-settings:normal;text-indent:0;text-align:start;text-decoration:none;text-decoration-line:none;text-decoration-style:solid;text-decoration-color:#000000;letter-spacing:normal;word-spacing:normal;text-transform:none;writing-mode:lr-tb;direction:ltr;text-orientation:mixed;dominant-baseline:auto;baseline-shift:baseline;text-anchor:start;white-space:normal;shape-padding:0;clip-rule:nonzero;display:inline;overflow:visible;visibility:visible;isolation:auto;mix-blend-mode:normal;color-interpolation:sRGB;color-interpolation-filters:linearRGB;solid-color:#000000;solid-opacity:1;vector-effect:none;fill:url(#linearGradient1839);fill-opacity:1;fill-rule:nonzero;stroke:none;stroke-width:1;stroke-linecap:butt;stroke-linejoin:miter;stroke-miterlimit:4;stroke-dasharray:none;stroke-dashoffset:0;stroke-opacity:1;marker:none;color-rendering:auto;image-rendering:auto;shape-rendering:auto;text-rendering:auto;enable-background:accumulate"
     d="M 7.0332,1.5 C 5.51931,1.5 4.37098,1.5597 3.46484,1.74414 2.55871,1.92861 1.86912,2.25499 1.40039,2.79883 0.93166,3.34267 0.72154,4.04775 0.61719,4.89258 0.51283,5.73741 0.50832,6.7462 0.5,7.99609 v 0.002 15.0039 0.002 c 0.0167,2.49977 -0.038,4.0689 0.74805,5.16211 0.39303,0.5466 0.99944,0.8964 1.77539,1.08593 0.77595,0.18954 1.7431,0.24805 3.00976,0.24805 h 19 c 1.51389,0 2.66266,-0.0597 3.56836,-0.24414 0.9057,-0.18449 1.59367,-0.51 2.06055,-1.05469 0.46688,-0.54469 0.67402,-1.25062 0.77344,-2.0957 0.0994,-0.84508 0.0977,-1.85547 0.0977,-3.10547 v -13 c 0,-1.25 0.002,-2.26039 -0.0977,-3.10547 C 31.33615,6.04953 31.12899,5.3436 30.66211,4.79891 30.19523,4.25422 29.50726,3.92871 28.60156,3.74422 27.69586,3.55973 26.54709,3.50008 25.0332,3.50008 H 14.23047 l -2.14258,-2 h -0.19727 c -2.3007,-10e-5 -4.85742,0 -4.85742,0 z"
     id="path1456"
     inkscape:connector-curvature="0"
     sodipodi:nodetypes="ccscccccccsscscsscsssccccc" />
  <path
     style="color:#000000;font-style:normal;font-variant:normal;font-weight:normal;font-stretch:normal;font-size:medium;line-height:normal;font-family:sans-serif;font-variant-ligatures:none;font-variant-position:normal;font-variant-caps:normal;font-variant-numeric:normal;font-variant-alternates:normal;font-feature-settings:normal;text-indent:0;text-align:start;text-decoration:none;text-decoration-line:none;text-decoration-style:solid;text-decoration-color:#000000;letter-spacing:normal;word-spacing:normal;text-transform:none;writing-mode:lr-tb;direction:ltr;baseline-shift:baseline;text-anchor:start;white-space:normal;shape-padding:0;clip-rule:nonzero;display:inline;overflow:visible;visibility:visible;isolation:auto;mix-blend-mode:normal;color-interpolation:sRGB;color-interpolation-filters:linearRGB;solid-color:#000000;solid-opacity:1;fill:url(#linearGradient13910);fill-opacity:1;fill-rule:nonzero;stroke:none;stroke-width:4;stroke-linecap:butt;stroke-linejoin:miter;stroke-miterlimit:4;stroke-dasharray:none;stroke-dashoffset:0;stroke-opacity:1;marker:none;color-rendering:auto;image-rendering:auto;shape-rendering:auto;text-rendering:auto;enable-background:accumulate"
     d="M 16.14258,10 14,12 H 6.5 c -5.5346,0 -5.95889,0.8928 -5.99219,4.94922 -0.007,3.06829 0.0131,6.13626 0.0879,9.20312 0.0398,1.39927 0.90156,2.85008 2.375,3.10352 1.91455,0.37893 3.8939,0.13738 5.83399,0.23047 6.31761,-0.0147 12.64043,0.0891 18.95508,-0.1211 1.48271,0.0371 3.13412,-0.73438 3.49609,-2.27734 0.40097,-1.6884 0.1498,-3.4611 0.24414,-5.18164 -0.0156,-2.60554 9.1e-4,-5.2119 -0.004,-7.81836 C 31.36716,10.75283 30.62876,10 25.5,10 c 0,0 -7.05673,-10e-5 -9.35742,0 z"
     id="path1426" />
  <path
     inkscape:connector-curvature="0"
     style="color:#000000;font-style:normal;font-variant:normal;font-weight:normal;font-stretch:normal;font-size:medium;line-height:normal;font-family:sans-serif;font-variant-ligatures:none;font-variant-position:normal;font-variant-caps:normal;font-variant-numeric:normal;font-variant-alternates:normal;font-feature-settings:normal;text-indent:0;text-align:start;text-decoration:none;text-decoration-line:none;text-decoration-style:solid;text-decoration-color:#000000;letter-spacing:normal;word-spacing:normal;text-transform:none;writing-mode:lr-tb;direction:ltr;baseline-shift:baseline;text-anchor:start;white-space:normal;shape-padding:0;clip-rule:nonzero;display:inline;overflow:visible;visibility:visible;opacity:0.3;isolation:auto;mix-blend-mode:normal;color-interpolation:sRGB;color-interpolation-filters:linearRGB;solid-color:#000000;solid-opacity:1;fill:#ffffff;fill-opacity:1;fill-rule:nonzero;stroke:none;stroke-width:4;stroke-linecap:butt;stroke-linejoin:miter;stroke-miterlimit:4;stroke-dasharray:none;stroke-dashoffset:0;stroke-opacity:1;marker:none;color-rendering:auto;image-rendering:auto;shape-rendering:auto;text-rendering:auto;enable-background:accumulate"
     d="M 16.14258,10 14,12 H 6.5 c -6,0 -6,1 -6,6 v 1 c 0,-5 0,-6 6,-6 H 14 l 2.14258,-2 c 2.30069,-10e-5 9.35777,0 9.35777,0 6,0 5.9999,1 6.0332,6 v -1 c -0.0333,-5 -0.0332,-6 -6.0332,-6 0,0 -7.05708,-10e-5 -9.35777,0 z"
     id="path1447"
     sodipodi:nodetypes="ccsscsccccccc" />
  <path
     sodipodi:nodetypes="ccscccccccsscscsscsssccccc"
     inkscape:connector-curvature="0"
     id="path1460"
     d="M 7.0332,1.5 C 5.51931,1.5 4.37098,1.5597 3.46484,1.74414 2.55871,1.92861 1.86912,2.25499 1.40039,2.79883 0.93166,3.34267 0.72154,4.04775 0.61719,4.89258 0.51283,5.73741 0.50832,6.7462 0.5,7.99609 v 0.002 15.0039 0.002 c 0.0167,2.49977 -0.038,4.0689 0.74805,5.16211 0.39303,0.5466 0.99944,0.8964 1.77539,1.08593 0.77595,0.18954 1.7431,0.24805 3.00976,0.24805 h 19 c 1.51389,0 2.66266,-0.0597 3.56836,-0.24414 0.9057,-0.18449 1.59367,-0.51 2.06055,-1.05469 0.46688,-0.54469 0.67402,-1.25062 0.77344,-2.0957 0.0994,-0.84508 0.0977,-1.85547 0.0977,-3.10547 v -13 c 0,-1.25 0.002,-2.26039 -0.0977,-3.10547 C 31.33615,6.04953 31.12899,5.3436 30.66211,4.79891 30.19523,4.25422 29.50726,3.92871 28.60156,3.74422 27.69586,3.55973 26.54709,3.50008 25.0332,3.50008 H 14.23047 l -2.14258,-2 h -0.19727 c -2.3007,-10e-5 -4.85742,0 -4.85742,0 z"
     style="color:#000000;font-style:normal;font-variant:normal;font-weight:normal;font-stretch:normal;font-size:medium;line-height:normal;font-family:sans-serif;font-variant-ligatures:none;font-variant-position:normal;font-variant-caps:normal;font-variant-numeric:normal;font-variant-alternates:normal;font-feature-settings:normal;text-indent:0;text-align:start;text-decoration:none;text-decoration-line:none;text-decoration-style:solid;text-decoration-color:#000000;letter-spacing:normal;word-spacing:normal;text-transform:none;writing-mode:lr-tb;direction:ltr;text-orientation:mixed;dominant-baseline:auto;baseline-shift:baseline;text-anchor:start;white-space:normal;shape-padding:0;clip-rule:nonzero;display:inline;overflow:visible;visibility:visible;opacity:0.4;isolation:auto;mix-blend-mode:normal;color-interpolation:sRGB;color-interpolation-filters:linearRGB;solid-color:#000000;solid-opacity:1;vector-effect:none;fill:none;fill-opacity:1;fill-rule:nonzero;stroke:#000000;stroke-width:1;stroke-linecap:butt;stroke-linejoin:miter;stroke-miterlimit:4;stroke-dasharray:none;stroke-dashoffset:0;stroke-opacity:1;marker:none;color-rendering:auto;image-rendering:auto;shape-rendering:auto;text-rendering:auto;enable-background:accumulate" />
  <path
     id="path1466"
     d="M 16.14258,9 14,11 H 6.5 c -6,0 -6,1 -6,6 v 1 c 0,-5 0,-6 6,-6 H 14 l 2.14258,-2 c 2.30069,-10e-5 9.35777,0 9.35777,0 6,0 5.9999,1 6.0332,6 v -1 c -0.0333,-5 -0.0332,-6 -6.0332,-6 0,0 -7.05708,-10e-5 -9.35777,0 z"
     style="color:#000000;font-style:normal;font-variant:normal;font-weight:normal;font-stretch:normal;font-size:medium;line-height:normal;font-family:sans-serif;font-variant-ligatures:none;font-variant-position:normal;font-variant-caps:normal;font-variant-numeric:normal;font-variant-alternates:normal;font-feature-settings:normal;text-indent:0;text-align:start;text-decoration:none;text-decoration-line:none;text-decoration-style:solid;text-decoration-color:#000000;letter-spacing:normal;word-spacing:normal;text-transform:none;writing-mode:lr-tb;direction:ltr;baseline-shift:baseline;text-anchor:start;white-space:normal;shape-padding:0;clip-rule:nonzero;display:inline;overflow:visible;visibility:visible;opacity:0.2;isolation:auto;mix-blend-mode:normal;color-interpolation:sRGB;color-interpolation-filters:linearRGB;solid-color:#000000;solid-opacity:1;fill:#491706;fill-opacity:1;fill-rule:nonzero;stroke:none;stroke-width:4;stroke-linecap:butt;stroke-linejoin:miter;stroke-miterlimit:4;stroke-dasharray:none;stroke-dashoffset:0;stroke-opacity:1;marker:none;color-rendering:auto;image-rendering:auto;shape-rendering:auto;text-rendering:auto;enable-background:accumulate"
     inkscape:connector-curvature="0"
     sodipodi:nodetypes="ccsscsccccccc" />
  <path
     inkscape:connector-curvature="0"
     style="color:#000000;font-style:normal;font-variant:normal;font-weight:normal;font-stretch:normal;font-size:medium;line-height:normal;font-family:sans-serif;font-variant-ligatures:none;font-variant-position:normal;font-variant-caps:normal;font-variant-numeric:normal;font-variant-alternates:normal;font-feature-settings:normal;text-indent:0;text-align:start;text-decoration:none;text-decoration-line:none;text-decoration-style:solid;text-decoration-color:#000000;letter-spacing:normal;word-spacing:normal;text-transform:none;writing-mode:lr-tb;direction:ltr;baseline-shift:baseline;text-anchor:start;white-space:normal;shape-padding:0;clip-rule:nonzero;display:inline;overflow:visible;visibility:visible;opacity:0.4;isolation:auto;mix-blend-mode:normal;color-interpolation:sRGB;color-interpolation-filters:linearRGB;solid-color:#000000;solid-opacity:1;fill:#fec589;fill-opacity:1;fill-rule:nonzero;stroke:none;stroke-width:4;stroke-linecap:butt;stroke-linejoin:miter;stroke-miterlimit:4;stroke-dasharray:none;stroke-dashoffset:0;stroke-opacity:1;marker:none;color-rendering:auto;image-rendering:auto;shape-rendering:auto;text-rendering:auto;enable-background:accumulate"
     d="M 7.0332,2 C 1.0332,2 1.0333,3 1,8 V 9 C 1.0333,4 1.0332,3 7.0332,3 c 0,0 2.55674,-1e-4 4.85742,0 l 2.14258,2 h 11 c 6,0 6,1 6,6 v -1 c 0,-5 0,-6 -6,-6 h -11 L 11.89062,2 C 9.58994,1.9999 7.0332,2 7.0332,2 Z"
     id="path1442" />
  <path
     style="color:#000000;font-style:normal;font-variant:normal;font-weight:normal;font-stretch:normal;font-size:medium;line-height:normal;font-family:sans-serif;font-variant-ligatures:none;font-variant-position:normal;font-variant-caps:normal;font-variant-numeric:normal;font-variant-alternates:normal;font-feature-settings:normal;text-indent:0;text-align:start;text-decoration:none;text-decoration-line:none;text-decoration-style:solid;text-decoration-color:#000000;letter-spacing:normal;word-spacing:normal;text-transform:none;writing-mode:lr-tb;direction:ltr;baseline-shift:baseline;text-anchor:start;white-space:normal;shape-padding:0;clip-rule:nonzero;display:inline;overflow:visible;visibility:visible;opacity:0.05;isolation:auto;mix-blend-mode:normal;color-interpolation:sRGB;color-interpolation-filters:linearRGB;solid-color:#000000;solid-opacity:1;fill:#ffffff;fill-opacity:1;fill-rule:nonzero;stroke:none;stroke-width:4;stroke-linecap:butt;stroke-linejoin:miter;stroke-miterlimit:4;stroke-dasharray:none;stroke-dashoffset:0;stroke-opacity:1;marker:none;color-rendering:auto;image-rendering:auto;shape-rendering:auto;text-rendering:auto;enable-background:accumulate"
     d="m 31,20 -9,9 h 4 c 5,0 4.9999,-1 5.0332,-6 z"
     id="path1510"
     inkscape:connector-curvature="0"
     sodipodi:nodetypes="ccscc" />
</svg>
