<?xml version="1.0" encoding="UTF-8" standalone="no"?>
<svg
   xmlns:dc="http://purl.org/dc/elements/1.1/"
   xmlns:cc="http://creativecommons.org/ns#"
   xmlns:rdf="http://www.w3.org/1999/02/22-rdf-syntax-ns#"
   xmlns:svg="http://www.w3.org/2000/svg"
   xmlns="http://www.w3.org/2000/svg"
   xmlns:xlink="http://www.w3.org/1999/xlink"
   xmlns:sodipodi="http://sodipodi.sourceforge.net/DTD/sodipodi-0.dtd"
   xmlns:inkscape="http://www.inkscape.org/namespaces/inkscape"
   version="1.1"
   viewBox="0 0 32 32"
   id="svg29"
   sodipodi:docname="user-trash-full.svg"
   inkscape:version="1.0.2 (e86c870879, 2021-01-15)">
  <metadata
     id="metadata33">
    <rdf:RDF>
      <cc:Work
         rdf:about="">
        <dc:format>image/svg+xml</dc:format>
        <dc:type
           rdf:resource="http://purl.org/dc/dcmitype/StillImage" />
        <dc:title />
      </cc:Work>
    </rdf:RDF>
  </metadata>
  <sodipodi:namedview
     pagecolor="#ffffff"
     bordercolor="#666666"
     borderopacity="1"
     objecttolerance="10"
     gridtolerance="10"
     guidetolerance="10"
     inkscape:pageopacity="0"
     inkscape:pageshadow="2"
     inkscape:window-width="1366"
     inkscape:window-height="689"
     id="namedview31"
     showgrid="true"
     inkscape:zoom="11.821941"
     inkscape:cx="22.409997"
     inkscape:cy="8.6073607"
     inkscape:window-x="0"
     inkscape:window-y="0"
     inkscape:window-maximized="1"
     inkscape:current-layer="svg29"
     inkscape:document-rotation="0">
    <inkscape:grid
       type="xygrid"
       id="grid858" />
  </sodipodi:namedview>
  <defs
     id="defs7">
    <linearGradient
       id="a"
       x2="0"
       y1="29"
       y2="8"
       gradientUnits="userSpaceOnUse">
      <stop
         stop-color="#3daee9"
         offset="0"
         id="stop2" />
      <stop
         stop-color="#6cc1ef"
         offset="1"
         id="stop4" />
    </linearGradient>
    <clipPath
       clipPathUnits="userSpaceOnUse"
       id="clipPath4255">
      <path
         inkscape:connector-curvature="0"
         id="path4257"
         d="M 88.55469,36 C 10.5,35.999999 2.5,36.000001 2.5,113.89844 V 326.10156 C 2.5,404 10.5,412 88.55469,412 H 428.44531 C 506.5,412 514.5,404 514.5,326.10156 V 145.89844 C 514.5,68.000001 506.49923,59.652236 428.44531,60 L 200,60.000001 l -24,-24 z"
         style="color:#000000;display:inline;overflow:visible;visibility:visible;fill:#d04616;fill-opacity:1;fill-rule:nonzero;stroke:none;stroke-width:1;marker:none;enable-background:accumulate"
         sodipodi:nodetypes="ssssssssccs" />
    </clipPath>
    <clipPath
       clipPathUnits="userSpaceOnUse"
       id="clipPath977">
      <path
         id="path979"
         d="M 78.994141,52 C 43.625611,52 40,53.999146 40,89.296875 V 140 H 264 V 108.92188 C 264,73.624145 260.37439,68 225.00586,68 H 138 L 122,52 Z"
         style="color:#000000;display:inline;overflow:visible;visibility:visible;fill:#f6531e;fill-opacity:1;fill-rule:nonzero;stroke:none;stroke-width:1;marker:none;enable-background:accumulate"
         inkscape:connector-curvature="0" />
    </clipPath>
    <clipPath
       clipPathUnits="userSpaceOnUse"
       id="clipPath977-5">
      <path
         id="path979-7"
         d="M 78.994141,52 C 43.625611,52 40,53.999146 40,89.296875 V 140 H 264 V 108.92188 C 264,73.624145 260.37439,68 225.00586,68 H 138 L 122,52 Z"
         style="color:#000000;display:inline;overflow:visible;visibility:visible;fill:#f6531e;fill-opacity:1;fill-rule:nonzero;stroke:none;stroke-width:1;marker:none;enable-background:accumulate"
         inkscape:connector-curvature="0" />
    </clipPath>
    <linearGradient
       inkscape:collect="always"
       xlink:href="#linearGradient876"
       id="linearGradient3208"
       gradientUnits="userSpaceOnUse"
       gradientTransform="matrix(0,-0.07208805,-0.07208601,0,39.129597,33.81816)"
       x1="524.61066"
       y1="320.84784"
       x2="-30.266319"
       y2="320.84784" />
    <linearGradient
       inkscape:collect="always"
       id="linearGradient876">
      <stop
         style="stop-color:#b3b3b3;stop-opacity:1"
         offset="0"
         id="stop872" />
      <stop
         style="stop-color:#d9d9d9;stop-opacity:1"
         offset="1"
         id="stop874" />
    </linearGradient>
    <linearGradient
       inkscape:collect="always"
       xlink:href="#linearGradient927"
       id="linearGradient969"
       x1="336"
       y1="134"
       x2="336"
       y2="162"
       gradientUnits="userSpaceOnUse" />
    <linearGradient
       inkscape:collect="always"
       id="linearGradient927">
      <stop
         style="stop-color:#ffffff;stop-opacity:1;"
         offset="0"
         id="stop923" />
      <stop
         id="stop933"
         offset="0.125"
         style="stop-color:#ffffff;stop-opacity:0.09803922" />
      <stop
         id="stop931"
         offset="0.92500001"
         style="stop-color:#ffffff;stop-opacity:0.09803922" />
      <stop
         style="stop-color:#ffffff;stop-opacity:0.49803922"
         offset="1"
         id="stop925" />
    </linearGradient>
    <clipPath
       clipPathUnits="userSpaceOnUse"
       id="clipPath959">
      <path
         style="color:#000000;display:inline;overflow:visible;visibility:visible;opacity:1;fill:#46a926;fill-opacity:1;fill-rule:nonzero;stroke:none;stroke-width:2;stroke-miterlimit:4;stroke-dasharray:none;stroke-opacity:1;marker:none;enable-background:accumulate"
         d="m 330.1929,133.99999 c -5.61538,0 -6.21958,0.57678 -6.19206,6.20352 v 7.79648 7.79648 c -0.0276,5.62673 0.57668,6.20351 6.19206,6.20351 h 11.615 c 5.6154,0 6.19208,-0.5767 6.19208,-6.20351 v -7.79648 -7.79648 c 0,-5.6268 -0.5767,-6.20352 -6.19208,-6.20352 z"
         id="path961"
         inkscape:connector-curvature="0"
         sodipodi:nodetypes="scccssscsss" />
    </clipPath>
    <clipPath
       clipPathUnits="userSpaceOnUse"
       id="clipPath1526">
      <path
         style="color:#000000;font-style:normal;font-variant:normal;font-weight:normal;font-stretch:normal;font-size:medium;line-height:normal;font-family:sans-serif;text-indent:0;text-align:start;text-decoration:none;text-decoration-line:none;text-decoration-style:solid;text-decoration-color:#000000;letter-spacing:normal;word-spacing:normal;text-transform:none;writing-mode:lr-tb;direction:ltr;baseline-shift:baseline;text-anchor:start;white-space:normal;clip-rule:nonzero;display:inline;overflow:visible;visibility:visible;opacity:1;isolation:auto;mix-blend-mode:normal;color-interpolation:sRGB;color-interpolation-filters:linearRGB;solid-color:#000000;solid-opacity:1;fill:#1463a5;fill-opacity:1;fill-rule:nonzero;stroke:none;stroke-width:4.00079;stroke-linecap:butt;stroke-linejoin:miter;stroke-miterlimit:4;stroke-dasharray:none;stroke-dashoffset:0;stroke-opacity:1;marker:none;color-rendering:auto;image-rendering:auto;shape-rendering:auto;text-rendering:auto;enable-background:accumulate"
         d="m 726,130 v 8 c 0,0.49856 0.0655,0.93952 0.16992,1.2168 0.10386,0.27728 0.21691,0.3959 0.41211,0.5039 0.3897,0.21556 1.27055,0.2633 2.61133,0.2793 h 0.0117 3.18554 7.21876 3.18554 0.0117 c 1.34078,-0.016 2.22163,-0.0637 2.61133,-0.2793 0.1952,-0.108 0.30825,-0.22662 0.41211,-0.5039 C 745.93454,138.93952 746,138.49856 746,138 v -8 z"
         id="path1528"
         inkscape:connector-curvature="0" />
    </clipPath>
  </defs>
  <g
     id="g951">
    <path
       inkscape:connector-curvature="0"
       id="path922"
       d="m 21.806687,1.5 c 1.41241,0 2.52238,0.0342 3.42383,0.18555 0.90145,0.15132 1.61987,0.43164 2.14258,0.95312 0.5227,0.52148 0.80325,1.23898 0.95312,2.14063 0.14988,0.90164 0.18075,2.0101 0.17383,3.42578 V 16 23.79688 c 0.007,1.41452 -0.024,2.52269 -0.17383,3.42382 -0.14987,0.90165 -0.43041,1.61915 -0.95312,2.14063 -0.52272,0.52148 -1.24112,0.8018 -2.14258,0.95312 -0.90146,0.15132 -2.01142,0.18555 -3.42383,0.18555 h -11.61523 c -1.4124099,0 -2.5184699,-0.0342 -3.4179699,-0.18555 -0.8995,-0.15137 -1.61597,-0.43149 -2.13672,-0.95312 -0.52075,-0.52163 -0.80004,-1.23774 -0.95117,-2.13867 -0.15113,-0.90094 -0.18555,-2.01055 -0.18555,-3.42578 V 16 8.20312 c 0,-1.41524 0.0344,-2.52484 0.18555,-3.42578 0.15113,-0.90093 0.43042,-1.61703 0.95117,-2.13867 0.52075,-0.52163 1.23722,-0.80175 2.13672,-0.95312 C 7.6729871,1.53418 8.7790471,1.5 10.191457,1.5 Z"
       style="color:#000000;display:inline;overflow:visible;visibility:visible;fill:url(#linearGradient3208);fill-opacity:1;fill-rule:nonzero;stroke:none;stroke-width:1;marker:none;enable-background:accumulate" />
    <path
       inkscape:connector-curvature="0"
       style="color:#000000;display:inline;overflow:visible;visibility:visible;opacity:0.4;fill:none;fill-opacity:1;fill-rule:nonzero;stroke:#000000;stroke-width:1;stroke-opacity:1;marker:none;enable-background:accumulate"
       d="m 10.194317,1.5 c -1.4124099,0 -2.5223799,0.0342 -3.4238299,0.18555 -0.90145,0.15132 -1.61987,0.43164 -2.14258,0.95312 -0.5227,0.52148 -0.80325,1.23898 -0.95312,2.14063 -0.14988,0.90164 -0.18075,2.0101 -0.17383,3.42578 V 16 23.79688 c -0.007,1.41452 0.024,2.52269 0.17383,3.42382 0.14987,0.90165 0.43041,1.61915 0.95312,2.14063 0.52272,0.52148 1.24112,0.8018 2.14258,0.95312 0.90146,0.15132 2.01142,0.18555 3.4238299,0.18555 h 11.61523 c 1.41241,0 2.51847,-0.0342 3.41797,-0.18555 0.8995,-0.15137 1.61597,-0.43149 2.13672,-0.95312 0.52075,-0.52163 0.80004,-1.23774 0.95117,-2.13867 0.15113,-0.90094 0.18555,-2.01055 0.18555,-3.42578 V 16 8.20312 c 0,-1.41524 -0.0344,-2.52484 -0.18555,-3.42578 C 28.164277,3.87641 27.884987,3.16031 27.364237,2.63867 26.843487,2.11704 26.127017,1.83692 25.227517,1.68555 24.328017,1.53418 23.221957,1.5 21.809547,1.5 Z"
       id="path1089" />
    <path
       clip-path="url(#clipPath959)"
       style="color:#000000;display:inline;overflow:visible;visibility:visible;opacity:0.4;fill:none;fill-opacity:1;fill-rule:nonzero;stroke:url(#linearGradient969);stroke-width:2;stroke-miterlimit:4;stroke-dasharray:none;stroke-opacity:1;marker:none;enable-background:accumulate"
       d="m 330.1929,133.99999 c -5.61538,0 -6.21958,0.57678 -6.19206,6.20352 v 7.79648 7.79648 c -0.0276,5.62673 0.57668,6.20351 6.19206,6.20351 h 11.615 c 5.6154,0 6.19208,-0.5767 6.19208,-6.20351 v -7.79648 -7.79648 c 0,-5.6268 -0.5767,-6.20352 -6.19208,-6.20352 z"
       id="path939"
       inkscape:connector-curvature="0"
       sodipodi:nodetypes="scccssscsss"
       transform="translate(-319.99904,-132)" />
    <path
       sodipodi:nodetypes="cccsccccccccccsccccccc"
       inkscape:connector-curvature="0"
       id="path1488"
       d="m 9.1982271,5 c -1.34332,0.0156 -2.22527,0.0636 -2.61524,0.2793 -0.19508,0.10794 -0.30771,0.22658 -0.41211,0.5039 -0.1034,0.27726 -0.16992,0.71824 -0.16992,1.2168 0,0.49856 0.0655,0.93952 0.16992,1.2168 0.10386,0.27728 0.21691,0.3959 0.41211,0.5039 0.3897,0.21556 1.27055,0.2633 2.61133,0.2793 h 0.0117 3.1855399 7.21876 3.18554 0.0117 c 1.34078,-0.016 2.22163,-0.0637 2.61133,-0.2793 0.1952,-0.108 0.30825,-0.22662 0.41211,-0.5039 0.10446,-0.27728 0.16996,-0.71824 0.16996,-1.2168 0,-0.49856 -0.0665,-0.93954 -0.16992,-1.2168 -0.1044,-0.27732 -0.21703,-0.39596 -0.41211,-0.5039 C 25.028957,5.0636 24.147007,5.0156 22.803687,5 h -0.002 -9.80073 -3.8007799 z"
       style="color:#000000;font-style:normal;font-variant:normal;font-weight:normal;font-stretch:normal;font-size:medium;line-height:normal;font-family:sans-serif;text-indent:0;text-align:start;text-decoration:none;text-decoration-line:none;text-decoration-style:solid;text-decoration-color:#000000;letter-spacing:normal;word-spacing:normal;text-transform:none;writing-mode:lr-tb;direction:ltr;baseline-shift:baseline;text-anchor:start;white-space:normal;clip-rule:nonzero;display:inline;overflow:visible;visibility:visible;opacity:0.2;isolation:auto;mix-blend-mode:normal;color-interpolation:sRGB;color-interpolation-filters:linearRGB;solid-color:#000000;solid-opacity:1;fill:#ffffff;fill-opacity:1;fill-rule:nonzero;stroke:none;stroke-width:4.00079;stroke-linecap:butt;stroke-linejoin:miter;stroke-miterlimit:4;stroke-dasharray:none;stroke-dashoffset:0;stroke-opacity:1;marker:none;color-rendering:auto;image-rendering:auto;shape-rendering:auto;text-rendering:auto;enable-background:accumulate" />
    <path
       style="display:inline;fill:#28851e;fill-opacity:1;stroke:none;stroke-width:1;enable-background:new"
       d="m 15.024267,13.08361 c 0.20056,0.0365 0.41946,0.21868 0.52885,0.36454 l 1.76864,3.0632 -0.91152,0.54698 h 3.02657 l 1.51327,-2.62538 -0.93002,0.52848 -0.92965,-1.64096 c -0.0912,-0.16409 -0.27352,-0.23686 -0.47409,-0.23686 z m -1.04355,0.18463 c -0.46494,0.016 -0.91631,0.189 -1.10775,0.52632 l -1.38561,2.42516 2.66166,1.54956 1.69574,-2.95366 -0.67467,-1.13025 c -0.24614,-0.29173 -0.72443,-0.43308 -1.18937,-0.41713 z m 7.20622,3.75382 -2.68016,1.53142 1.69574,2.89888 h 1.44037 c 0.58345,-0.10939 1.45867,-1.05756 0.94816,-2.04213 z m -11.8693899,0.63803 0.9662899,0.56512 -0.6198899,1.03921 c -0.54698,1.02103 0.3645499,2.14719 0.9115299,2.20644 h 1.42223 l 0.96629,-1.67759 0.96631,0.52885 -1.54956,-2.66202 z m 8.6970199,3.11761 -1.54993,2.66203 1.54993,2.64388 v -1.1121 h 1.89631 c 0.2188,0 0.36451,-0.12763 0.43745,-0.2735 l 1.71387,-3.02656 c -0.0912,0.0547 -0.1458,0.14562 -0.49222,0.18208 h -3.55541 z m -7.87654,0.93002 c 0.0729,0.0912 0.0546,0.0731 1.65909,2.91738 0.1094,0.1641 0.25539,0.36464 0.45595,0.34641 h 3.4096 v -3.11798 h -5.0687 c -0.27349,0 -0.36933,-0.0729 -0.45594,-0.14581 z"
       id="path1019"
       inkscape:connector-curvature="0" />
    <path
       style="color:#000000;font-style:normal;font-variant:normal;font-weight:normal;font-stretch:normal;font-size:medium;line-height:normal;font-family:sans-serif;text-indent:0;text-align:start;text-decoration:none;text-decoration-line:none;text-decoration-style:solid;text-decoration-color:#000000;letter-spacing:normal;word-spacing:normal;text-transform:none;writing-mode:lr-tb;direction:ltr;baseline-shift:baseline;text-anchor:start;white-space:normal;clip-rule:nonzero;display:inline;overflow:visible;visibility:visible;opacity:0.4;isolation:auto;mix-blend-mode:normal;color-interpolation:sRGB;color-interpolation-filters:linearRGB;solid-color:#000000;solid-opacity:1;fill:#000000;fill-opacity:1;fill-rule:nonzero;stroke:none;stroke-width:4.00079;stroke-linecap:butt;stroke-linejoin:miter;stroke-miterlimit:4;stroke-dasharray:none;stroke-dashoffset:0;stroke-opacity:1;marker:none;color-rendering:auto;image-rendering:auto;shape-rendering:auto;text-rendering:auto;enable-background:accumulate"
       d="m 9.1982271,4 c -1.34332,0.0156 -2.22527,0.0636 -2.61524,0.2793 -0.19508,0.10794 -0.30771,0.22658 -0.41211,0.5039 -0.1034,0.27726 -0.16992,0.71824 -0.16992,1.2168 0,0.49856 0.0655,0.93952 0.16992,1.2168 0.10386,0.27728 0.21691,0.3959 0.41211,0.5039 0.3897,0.21556 1.27055,0.2633 2.61133,0.2793 h 0.0117 3.1855399 7.21876 3.18554 0.0117 c 1.34078,-0.016 2.22163,-0.0637 2.61133,-0.2793 0.1952,-0.108 0.30825,-0.22662 0.41211,-0.5039 0.10446,-0.27728 0.16996,-0.71824 0.16996,-1.2168 0,-0.49856 -0.0665,-0.93954 -0.16992,-1.2168 -0.1044,-0.27732 -0.21703,-0.39596 -0.41211,-0.5039 C 25.028957,4.0636 24.147007,4.0156 22.803687,4 h -0.002 -9.80073 -3.8007799 z"
       id="path1007"
       inkscape:connector-curvature="0"
       sodipodi:nodetypes="cccsccccccccccsccccccc" />
    <rect
       style="opacity:0.25;fill:#ffffff;stroke-width:0.67082"
       id="rect886"
       width="18"
       height="3"
       x="7"
       y="5"
       ry="0.4420321" />
    <rect
       style="opacity:1;fill:#ffffff;stroke-width:0.516398"
       id="rect886-3"
       width="16"
       height="2"
       x="8"
       y="6"
       ry="0.68453437" />
    <rect
       style="opacity:1;fill:#ffffff"
       id="rect908"
       width="1"
       height="1"
       x="23"
       y="7" />
    <rect
       style="fill:#ffffff"
       id="rect908-6"
       width="1"
       height="1"
       x="8"
       y="7" />
  </g>
</svg>
