<?xml version="1.0" encoding="UTF-8" standalone="no"?>
<svg
   xmlns:dc="http://purl.org/dc/elements/1.1/"
   xmlns:cc="http://creativecommons.org/ns#"
   xmlns:rdf="http://www.w3.org/1999/02/22-rdf-syntax-ns#"
   xmlns:svg="http://www.w3.org/2000/svg"
   xmlns="http://www.w3.org/2000/svg"
   xmlns:xlink="http://www.w3.org/1999/xlink"
   xmlns:sodipodi="http://sodipodi.sourceforge.net/DTD/sodipodi-0.dtd"
   xmlns:inkscape="http://www.inkscape.org/namespaces/inkscape"
   version="1.1"
   viewBox="0 0 32 32"
   id="svg29"
   sodipodi:docname="user-desktop.svg"
   inkscape:version="1.0.2 (e86c870879, 2021-01-15)">
  <metadata
     id="metadata33">
    <rdf:RDF>
      <cc:Work
         rdf:about="">
        <dc:format>image/svg+xml</dc:format>
        <dc:type
           rdf:resource="http://purl.org/dc/dcmitype/StillImage" />
        <dc:title />
      </cc:Work>
    </rdf:RDF>
  </metadata>
  <sodipodi:namedview
     pagecolor="#ffffff"
     bordercolor="#666666"
     borderopacity="1"
     objecttolerance="10"
     gridtolerance="10"
     guidetolerance="10"
     inkscape:pageopacity="0"
     inkscape:pageshadow="2"
     inkscape:window-width="1366"
     inkscape:window-height="689"
     id="namedview31"
     showgrid="true"
     inkscape:zoom="11.821941"
     inkscape:cx="16.062968"
     inkscape:cy="16.86499"
     inkscape:window-x="0"
     inkscape:window-y="0"
     inkscape:window-maximized="1"
     inkscape:current-layer="svg29"
     inkscape:document-rotation="0">
    <inkscape:grid
       type="xygrid"
       id="grid858" />
  </sodipodi:namedview>
  <defs
     id="defs7">
    <linearGradient
       id="a"
       x2="0"
       y1="29"
       y2="8"
       gradientUnits="userSpaceOnUse">
      <stop
         stop-color="#3daee9"
         offset="0"
         id="stop2" />
      <stop
         stop-color="#6cc1ef"
         offset="1"
         id="stop4" />
    </linearGradient>
    <clipPath
       clipPathUnits="userSpaceOnUse"
       id="clipPath4255">
      <path
         inkscape:connector-curvature="0"
         id="path4257"
         d="M 88.55469,36 C 10.5,35.999999 2.5,36.000001 2.5,113.89844 V 326.10156 C 2.5,404 10.5,412 88.55469,412 H 428.44531 C 506.5,412 514.5,404 514.5,326.10156 V 145.89844 C 514.5,68.000001 506.49923,59.652236 428.44531,60 L 200,60.000001 l -24,-24 z"
         style="color:#000000;display:inline;overflow:visible;visibility:visible;fill:#d04616;fill-opacity:1;fill-rule:nonzero;stroke:none;stroke-width:1;marker:none;enable-background:accumulate"
         sodipodi:nodetypes="ssssssssccs" />
    </clipPath>
    <clipPath
       clipPathUnits="userSpaceOnUse"
       id="clipPath977">
      <path
         id="path979"
         d="M 78.994141,52 C 43.625611,52 40,53.999146 40,89.296875 V 140 H 264 V 108.92188 C 264,73.624145 260.37439,68 225.00586,68 H 138 L 122,52 Z"
         style="color:#000000;display:inline;overflow:visible;visibility:visible;fill:#f6531e;fill-opacity:1;fill-rule:nonzero;stroke:none;stroke-width:1;marker:none;enable-background:accumulate"
         inkscape:connector-curvature="0" />
    </clipPath>
    <clipPath
       clipPathUnits="userSpaceOnUse"
       id="clipPath977-5">
      <path
         id="path979-7"
         d="M 78.994141,52 C 43.625611,52 40,53.999146 40,89.296875 V 140 H 264 V 108.92188 C 264,73.624145 260.37439,68 225.00586,68 H 138 L 122,52 Z"
         style="color:#000000;display:inline;overflow:visible;visibility:visible;fill:#f6531e;fill-opacity:1;fill-rule:nonzero;stroke:none;stroke-width:1;marker:none;enable-background:accumulate"
         inkscape:connector-curvature="0" />
    </clipPath>
    <linearGradient
       inkscape:collect="always"
       xlink:href="#linearGradient1674"
       id="linearGradient924"
       gradientUnits="userSpaceOnUse"
       gradientTransform="matrix(0.07208805,0,0,0.07208601,-1.81812,-7.12863)"
       x1="459.03448"
       y1="419.23337"
       x2="35.310345"
       y2="207.36522" />
    <linearGradient
       inkscape:collect="always"
       id="linearGradient1674">
      <stop
         id="stop1670"
         offset="0"
         style="stop-color:#fb7c38;stop-opacity:1" />
      <stop
         id="stop1672"
         offset="1"
         style="stop-color:#9b33ae;stop-opacity:1" />
    </linearGradient>
    <linearGradient
       inkscape:collect="always"
       xlink:href="#linearGradient927"
       id="linearGradient969"
       x1="336"
       y1="136"
       x2="336"
       y2="160"
       gradientUnits="userSpaceOnUse"
       gradientTransform="rotate(90,335.99998,147.99998)" />
    <linearGradient
       inkscape:collect="always"
       id="linearGradient927">
      <stop
         style="stop-color:#ffffff;stop-opacity:1;"
         offset="0"
         id="stop923" />
      <stop
         id="stop933"
         offset="0.125"
         style="stop-color:#ffffff;stop-opacity:0.09803922" />
      <stop
         id="stop931"
         offset="0.92500001"
         style="stop-color:#ffffff;stop-opacity:0.09803922" />
      <stop
         style="stop-color:#ffffff;stop-opacity:0.49803922"
         offset="1"
         id="stop925" />
    </linearGradient>
    <clipPath
       clipPathUnits="userSpaceOnUse"
       id="clipPath959">
      <path
         style="color:#000000;display:inline;overflow:visible;visibility:visible;opacity:1;fill:#46a926;fill-opacity:1;fill-rule:nonzero;stroke:none;stroke-width:2;stroke-miterlimit:4;stroke-dasharray:none;stroke-opacity:1;marker:none;enable-background:accumulate"
         d="m 330.1929,133.99999 c -5.61538,0 -6.21958,0.57678 -6.19206,6.20352 v 7.79648 7.79648 c -0.0276,5.62673 0.57668,6.20351 6.19206,6.20351 h 11.615 c 5.6154,0 6.19208,-0.5767 6.19208,-6.20351 v -7.79648 -7.79648 c 0,-5.6268 -0.5767,-6.20352 -6.19208,-6.20352 z"
         id="path961"
         inkscape:connector-curvature="0"
         sodipodi:nodetypes="scccssscsss" />
    </clipPath>
  </defs>
  <path
     style="color:#000000;font-style:normal;font-variant:normal;font-weight:normal;font-stretch:normal;font-size:medium;line-height:normal;font-family:sans-serif;font-variant-ligatures:normal;font-variant-position:normal;font-variant-caps:normal;font-variant-numeric:normal;font-variant-alternates:normal;font-feature-settings:normal;text-indent:0;text-align:start;text-decoration:none;text-decoration-line:none;text-decoration-style:solid;text-decoration-color:#000000;letter-spacing:normal;word-spacing:normal;text-transform:none;writing-mode:lr-tb;direction:ltr;text-orientation:mixed;dominant-baseline:auto;baseline-shift:baseline;text-anchor:start;white-space:normal;shape-padding:0;clip-rule:nonzero;display:inline;overflow:visible;visibility:visible;opacity:0.1;isolation:auto;mix-blend-mode:normal;color-interpolation:sRGB;color-interpolation-filters:linearRGB;solid-color:#000000;solid-opacity:1;vector-effect:none;fill:#000000;fill-opacity:1;fill-rule:nonzero;stroke:none;stroke-width:2;stroke-linecap:butt;stroke-linejoin:miter;stroke-miterlimit:4;stroke-dasharray:none;stroke-dashoffset:0;stroke-opacity:1;marker:none;color-rendering:auto;image-rendering:auto;shape-rendering:auto;text-rendering:auto;enable-background:accumulate"
     d="m 1,22.80661 c 0,1.42096 0.0308,2.54883 0.19141,3.50586 0.16064,0.95703 0.4726,1.79146 1.09179,2.41211 0.61919,0.62065 1.45612,0.93647 2.41407,1.0957 0.95795,0.15924 2.08705,0.18666 3.51171,0.17969 H 16 23.79688 c 1.42131,0.007 2.5495,-0.0207 3.50585,-0.17969 0.95796,-0.15923 1.79488,-0.47505 2.41407,-1.0957 0.61919,-0.62065 0.93115,-1.45508 1.09179,-2.41211 C 30.96924,25.35544 31,24.22757 31,22.80661 V 11.19138 C 31,9.77041 30.9693,8.64469 30.80859,7.68942 30.64784,6.73415 30.33434,5.90163 29.71484,5.28317 29.09534,4.66472 28.26121,4.35183 27.30469,4.19138 26.34816,4.03092 25.22066,3.99997 23.79688,3.99997 H 16 8.20312 c -1.42378,0 -2.55128,0.031 -3.50781,0.19141 C 3.73878,4.35183 2.90466,4.66472 2.28516,5.28317 1.66565,5.90163 1.35216,6.73415 1.19141,7.68942 1.03065,8.64469 1,9.77041 1,11.19138 Z"
     id="path999"
     inkscape:connector-curvature="0"
     sodipodi:nodetypes="scscccccscsscccscscscss" />
  <path
     style="color:#000000;display:inline;overflow:visible;visibility:visible;fill:url(#linearGradient924);fill-opacity:1;fill-rule:nonzero;stroke:none;stroke-width:1;marker:none;enable-background:accumulate"
     d="M 8.20361,3.50046 C 6.7891,3.49346 5.68092,3.52446 4.77979,3.67429 3.87814,3.82416 3.16064,4.1047 2.63916,4.62741 2.11768,5.15013 1.83736,5.86853 1.68604,6.76999 1.62484,7.13449 1.59334,7.56157 1.56494,8.00046 1.52314,8.647 1.50044,9.35251 1.50044,10.19382 v 11.61523 c 0,1.41241 0.0342,2.51847 0.18555,3.41797 0.15137,0.8995 0.43149,1.61597 0.95312,2.13672 0.52163,0.52075 1.23774,0.80004 2.13867,0.95117 0.90094,0.15113 2.01057,0.18555 3.42578,0.18555 h 7.79693 7.79688 c 1.41523,0 2.52484,-0.0344 3.42578,-0.18555 0.90093,-0.15113 1.61703,-0.43042 2.13867,-0.95117 0.52163,-0.52075 0.80175,-1.23722 0.95312,-2.13672 0.15137,-0.8995 0.18555,-2.00556 0.18555,-3.41797 V 10.19382 c 0,-0.84132 -0.0246,-1.54681 -0.0664,-2.19336 C 30.40569,7.56158 30.37619,7.13448 30.31495,6.76999 30.16363,5.86854 29.88331,5.15012 29.36183,4.62741 28.84035,4.10471 28.12285,3.82416 27.2212,3.67429 26.31956,3.52441 25.2111,3.49354 23.79542,3.50046 h -7.79493 z"
     id="path922"
     inkscape:export-xdpi="95.996666"
     inkscape:export-ydpi="95.996666" />
  <path
     id="path1089"
     d="m 1.50003,21.80664 c 0,1.41241 0.0342,2.52238 0.18555,3.42383 0.15132,0.90145 0.43164,1.61987 0.95312,2.14258 0.52148,0.5227 1.23898,0.80325 2.14063,0.95312 0.90164,0.14988 2.0101,0.18075 3.42578,0.17383 h 7.79492 7.79688 c 1.41452,0.007 2.52269,-0.024 3.42382,-0.17383 0.90165,-0.14987 1.61915,-0.43041 2.14063,-0.95312 0.52148,-0.52272 0.8018,-1.24112 0.95312,-2.14258 0.15132,-0.90146 0.18555,-2.01142 0.18555,-3.42383 V 10.19141 c 0,-1.41241 -0.0342,-2.51847 -0.18555,-3.41797 C 30.16311,5.87394 29.88299,5.15747 29.36136,4.63672 28.83973,4.11597 28.12362,3.83668 27.22269,3.68555 26.32175,3.53442 25.21214,3.5 23.79691,3.5 H 16.00003 8.20315 C 6.78791,3.5 5.67831,3.5344 4.77737,3.68555 3.87644,3.83668 3.16034,4.11597 2.6387,4.63672 2.11707,5.15747 1.83695,5.87394 1.68558,6.77344 1.53421,7.67294 1.50003,8.779 1.50003,10.19141 Z"
     style="color:#000000;display:inline;overflow:visible;visibility:visible;opacity:0.3;fill:none;fill-opacity:1;fill-rule:nonzero;stroke:#000000;stroke-width:1;stroke-opacity:1;marker:none;enable-background:accumulate"
     inkscape:connector-curvature="0" />
  <path
     transform="rotate(-90,110.00046,241.99996)"
     sodipodi:nodetypes="scccssscsss"
     inkscape:connector-curvature="0"
     id="path939"
     d="m 330.1929,133.99999 c -5.61538,0 -6.21958,0.57678 -6.19206,6.20352 v 7.79648 7.79648 c -0.0276,5.62673 0.57668,6.20351 6.19206,6.20351 h 11.615 c 5.6154,0 6.19208,-0.5767 6.19208,-6.20351 v -7.79648 -7.79648 c 0,-5.6268 -0.5767,-6.20352 -6.19208,-6.20352 z"
     style="color:#000000;display:inline;overflow:visible;visibility:visible;opacity:0.3;fill:none;fill-opacity:1;fill-rule:nonzero;stroke:url(#linearGradient969);stroke-width:2;stroke-miterlimit:4;stroke-dasharray:none;stroke-opacity:1;marker:none;enable-background:accumulate"
     clip-path="url(#clipPath959)"
     inkscape:export-xdpi="95.996666"
     inkscape:export-ydpi="95.996666" />
  <path
     style="color:#000000;display:inline;overflow:visible;visibility:visible;opacity:0.3;fill:#000000;fill-opacity:1;fill-rule:nonzero;stroke:none;stroke-width:1;marker:none;enable-background:accumulate"
     d="m 1.5006874,22.3168 v 0 c -0.034,5.69818 1.17532,6.2832 7.62695,6.2832 H 22.873737 c 6.45003,0 7.62695,-0.58496 7.62695,-6.2832 v 0 z"
     id="path964-7-2"
     inkscape:connector-curvature="0"
     sodipodi:nodetypes="ccssscc" />
</svg>
