<?xml version="1.0" encoding="UTF-8" standalone="no"?>
<svg
   xmlns:dc="http://purl.org/dc/elements/1.1/"
   xmlns:cc="http://creativecommons.org/ns#"
   xmlns:rdf="http://www.w3.org/1999/02/22-rdf-syntax-ns#"
   xmlns:svg="http://www.w3.org/2000/svg"
   xmlns="http://www.w3.org/2000/svg"
   xmlns:sodipodi="http://sodipodi.sourceforge.net/DTD/sodipodi-0.dtd"
   xmlns:inkscape="http://www.inkscape.org/namespaces/inkscape"
   version="1.1"
   viewBox="0 0 16 16"
   id="svg16"
   sodipodi:docname="media-view-subtitles-symbolic.svg"
   inkscape:version="1.0.2 (e86c870879, 2021-01-15)">
  <metadata
     id="metadata22">
    <rdf:RDF>
      <cc:Work
         rdf:about="">
        <dc:format>image/svg+xml</dc:format>
        <dc:type
           rdf:resource="http://purl.org/dc/dcmitype/StillImage" />
      </cc:Work>
    </rdf:RDF>
  </metadata>
  <defs
     id="defs20" />
  <sodipodi:namedview
     pagecolor="#ffffff"
     bordercolor="#666666"
     borderopacity="1"
     objecttolerance="10"
     gridtolerance="10"
     guidetolerance="10"
     inkscape:pageopacity="0"
     inkscape:pageshadow="2"
     inkscape:window-width="1366"
     inkscape:window-height="689"
     id="namedview18"
     showgrid="false"
     inkscape:zoom="33.4375"
     inkscape:cx="8"
     inkscape:cy="8"
     inkscape:window-x="0"
     inkscape:window-y="0"
     inkscape:window-maximized="1"
     inkscape:current-layer="svg16" />
  <g
     transform="translate(-632 -260)"
     fill="#808080"
     id="g14">
    <path
       d="m634 261c-1.108 0-2 0.892-2 2v8c0 1.108 0.892 2 2 2h6.5218l2.4785 3 2-3h0.99975c1.108 0 2-0.892 2-2v-8c0-1.108-0.892-2-2-2zm0 1h12c0.554 0 1 0.446 1 1v8c0 0.554-0.446 1-1 1h-1.4338l-1.566 2.4-1.966-2.4h-7.0342c-0.554 0-1-0.446-1-1v-8c0-0.554 0.446-1 1-1z"
       enable-background="new"
       id="path2"
       style="fill:#111111;fill-opacity:1" />
    <rect
       x="635"
       y="267"
       width="4"
       height="1"
       rx=".25"
       ry=".25"
       id="rect4"
       style="fill:#111111;fill-opacity:1" />
    <rect
       x="635"
       y="269"
       width="2"
       height="1"
       rx=".25"
       ry=".25"
       id="rect6"
       style="fill:#111111;fill-opacity:1" />
    <rect
       x="638"
       y="269"
       width="4"
       height="1"
       rx=".25"
       ry=".25"
       id="rect8"
       style="fill:#111111;fill-opacity:1" />
    <rect
       x="643"
       y="269"
       width="2"
       height="1"
       rx=".25"
       ry=".25"
       id="rect10"
       style="fill:#111111;fill-opacity:1" />
    <rect
       x="640"
       y="267"
       width="5"
       height="1"
       rx=".25"
       ry=".25"
       id="rect12"
       style="fill:#111111;fill-opacity:1" />
  </g>
</svg>
