<?xml version="1.0" encoding="UTF-8" standalone="no"?>
<svg
   xmlns:dc="http://purl.org/dc/elements/1.1/"
   xmlns:cc="http://creativecommons.org/ns#"
   xmlns:rdf="http://www.w3.org/1999/02/22-rdf-syntax-ns#"
   xmlns:svg="http://www.w3.org/2000/svg"
   xmlns="http://www.w3.org/2000/svg"
   xmlns:sodipodi="http://sodipodi.sourceforge.net/DTD/sodipodi-0.dtd"
   xmlns:inkscape="http://www.inkscape.org/namespaces/inkscape"
   version="1.1"
   viewBox="0 0 16 16"
   id="svg14"
   sodipodi:docname="amarok_cart_remove.svg"
   inkscape:version="1.0.2 (e86c870879, 2021-01-15)">
  <metadata
     id="metadata20">
    <rdf:RDF>
      <cc:Work
         rdf:about="">
        <dc:format>image/svg+xml</dc:format>
        <dc:type
           rdf:resource="http://purl.org/dc/dcmitype/StillImage" />
        <dc:title />
      </cc:Work>
    </rdf:RDF>
  </metadata>
  <defs
     id="defs18" />
  <sodipodi:namedview
     pagecolor="#ffffff"
     bordercolor="#666666"
     borderopacity="1"
     objecttolerance="10"
     gridtolerance="10"
     guidetolerance="10"
     inkscape:pageopacity="0"
     inkscape:pageshadow="2"
     inkscape:window-width="1366"
     inkscape:window-height="689"
     id="namedview16"
     showgrid="true"
     inkscape:zoom="15.8125"
     inkscape:cx="15.573123"
     inkscape:cy="12.994193"
     inkscape:window-x="0"
     inkscape:window-y="0"
     inkscape:window-maximized="1"
     inkscape:current-layer="svg14"
     inkscape:document-rotation="0">
    <inkscape:grid
       type="xygrid"
       id="grid835" />
  </sodipodi:namedview>
  <g
     id="g857">
    <g
       id="g921">
      <g
         id="g913">
        <g
           transform="translate(-512 -220)"
           fill="#808080"
           id="g10"
           style="fill:#111111;fill-opacity:1">
          <g
             shape-rendering="auto"
             id="g8"
             style="fill:#111111;fill-opacity:1">
            <path
               transform="translate(512,220)"
               d="M 4.9902,3.999975 C 3.732,4.014475 2.8113,3.969371 2.0586,4.384745 1.68223,4.592405 1.38537,4.944135 1.22071,5.382795 1.05604,5.821465 0.9961,6.342365 0.9961,6.999995 v 6.000025 c 0,0.65761 0.059899,1.1786 0.22461,1.6172 0.16468,0.43861 0.46153,0.78852 0.83789,0.99609 0.75272,0.41513 1.6735,0.37165 2.9316,0.38672 H 4.99215 9.99805 10 v -1 c -0.00157,1.9e-5 -0.00234,-1.8e-5 -0.00391,0 H 5.002 4.9961407 c -1.2586,-0.0152 -2.0891,-0.0599 -2.4551,-0.26172 -0.18342,-0.10116 -0.28723,-0.21286 -0.38477,-0.47266 -0.09755,-0.25979 -0.16016,-0.67326 -0.16016,-1.2656 V 7.000025 c 0,-0.59239 0.062596,-1.0057 0.16016,-1.2656 0.0976,-0.25991 0.20331,-0.37147 0.38672,-0.47266 0.36595,-0.20191 1.1946,-0.24702 2.4531,-0.26172 h 5 c 0.4043303,0.00488 0.6891503,0.023727 1.0039003,0.03893 v 0 l 1,0.086032 v 0 c 0.18546,0.035331 0.34419,0.077724 0.45117,0.13672 0.18342,0.10116 0.28722,0.21286 0.38477,0.47266 0.09741,0.25979 0.16016,0.67326 0.16016,1.2656 v 3.000025 h 1 V 6.999987 c 0,-0.65761 -0.0599,-1.1786 -0.22461,-1.6172 -0.16468,-0.43861 -0.46153,-0.78852 -0.83789,-0.99609 -0.75272,-0.41513 -1.6736,-0.37165 -2.9316,-0.38672 h -0.002 -5.0059003 -0.00391 z"
               style="font-variant-ligatures:normal;font-variant-position:normal;font-variant-caps:normal;font-variant-numeric:normal;font-variant-alternates:normal;font-feature-settings:normal;text-indent:0;text-decoration:none;text-decoration-line:none;text-decoration-style:solid;text-decoration-color:#000000;text-transform:none;text-orientation:mixed;white-space:normal;shape-padding:0;isolation:auto;mix-blend-mode:normal;fill:#111111;fill-opacity:1"
               id="path2"
               sodipodi:nodetypes="cccssccccccccccccssccccccccccsccsccccccc" />
          </g>
        </g>
        <path
           style="display:inline;fill:none;stroke:#111111;stroke-width:1;stroke-linecap:round;stroke-linejoin:miter;stroke-miterlimit:4;stroke-dasharray:none;stroke-opacity:1;enable-background:new"
           d="m 4.5000016,4 c 0,0 0,-2.5 3,-2.5 3.0000004,0 3.0000004,2.5 3.0000004,2.5"
           id="path24398-3-6-7"
           inkscape:connector-curvature="0"
           sodipodi:nodetypes="csc" />
      </g>
    </g>
    <path
       d="m 11.257,10.55 -0.707,0.707 0.353,0.354 4,4 0.354,0.353 0.707,-0.707 -4.354,-4.354 z"
       fill-rule="evenodd"
       overflow="visible"
       style="font-variant-ligatures:normal;font-variant-position:normal;font-variant-caps:normal;font-variant-numeric:normal;font-variant-alternates:normal;font-feature-settings:normal;text-indent:0;text-decoration:none;text-decoration-line:none;text-decoration-style:solid;text-decoration-color:#000000;text-transform:none;text-orientation:mixed;white-space:normal;shape-padding:0;isolation:auto;mix-blend-mode:normal"
       id="path26" />
    <path
       d="m 15.257,10.55 -4.707,4.707 0.707,0.707 0.354,-0.353 4,-4 0.353,-0.354 z"
       fill-rule="evenodd"
       overflow="visible"
       style="font-variant-ligatures:normal;font-variant-position:normal;font-variant-caps:normal;font-variant-numeric:normal;font-variant-alternates:normal;font-feature-settings:normal;text-indent:0;text-decoration:none;text-decoration-line:none;text-decoration-style:solid;text-decoration-color:#000000;text-transform:none;text-orientation:mixed;white-space:normal;shape-padding:0;isolation:auto;mix-blend-mode:normal"
       id="path28" />
  </g>
</svg>
