<?xml version="1.0" encoding="UTF-8" standalone="no"?>
<svg
   xmlns:dc="http://purl.org/dc/elements/1.1/"
   xmlns:cc="http://creativecommons.org/ns#"
   xmlns:rdf="http://www.w3.org/1999/02/22-rdf-syntax-ns#"
   xmlns:svg="http://www.w3.org/2000/svg"
   xmlns="http://www.w3.org/2000/svg"
   xmlns:sodipodi="http://sodipodi.sourceforge.net/DTD/sodipodi-0.dtd"
   xmlns:inkscape="http://www.inkscape.org/namespaces/inkscape"
   version="1.1"
   viewBox="0 0 16 16"
   id="svg14"
   sodipodi:docname="amarok_cart_view.svg"
   inkscape:version="1.0.2 (e86c870879, 2021-01-15)">
  <metadata
     id="metadata20">
    <rdf:RDF>
      <cc:Work
         rdf:about="">
        <dc:format>image/svg+xml</dc:format>
        <dc:type
           rdf:resource="http://purl.org/dc/dcmitype/StillImage" />
        <dc:title></dc:title>
      </cc:Work>
    </rdf:RDF>
  </metadata>
  <defs
     id="defs18" />
  <sodipodi:namedview
     pagecolor="#ffffff"
     bordercolor="#666666"
     borderopacity="1"
     objecttolerance="10"
     gridtolerance="10"
     guidetolerance="10"
     inkscape:pageopacity="0"
     inkscape:pageshadow="2"
     inkscape:window-width="1366"
     inkscape:window-height="689"
     id="namedview16"
     showgrid="true"
     inkscape:zoom="11.821942"
     inkscape:cx="10.124889"
     inkscape:cy="4.1719602"
     inkscape:window-x="0"
     inkscape:window-y="0"
     inkscape:window-maximized="1"
     inkscape:current-layer="svg14"
     inkscape:document-rotation="0">
    <inkscape:grid
       type="xygrid"
       id="grid835" />
  </sodipodi:namedview>
  <g
     id="g868">
    <g
       transform="translate(-512 -220)"
       fill="#808080"
       id="g12"
       style="fill:#111111;fill-opacity:1">
      <g
         shape-rendering="auto"
         id="g8"
         style="fill:#111111;fill-opacity:1">
        <path
           d="m 516.99,223.5 c -1.2582,0.0145 -2.1789,-0.0306 -2.9316,0.38477 -0.37637,0.20765 -0.67323,0.55937 -0.83789,0.99804 -0.16467,0.43867 -0.22461,0.95957 -0.22461,1.61719 v 6.50001 c 0,0.65761 0.0599,1.1786 0.22461,1.6172 0.16468,0.43861 0.46153,0.78852 0.83789,0.99609 0.75272,0.41513 1.6735,0.37165 2.9316,0.38672 h 0.002 5.0059 1.008 c 1.2582,-0.0145 2.1789,0.0306 2.9316,-0.38477 0.37637,-0.20766 0.67322,-0.55938 0.83789,-0.99804 0.16453,-0.43867 0.22447,-0.95958 0.22447,-1.6172 V 226.5 c 0,-0.65761 -0.0599,-1.17859 -0.22461,-1.61719 -0.16468,-0.43862 -0.46153,-0.78852 -0.83789,-0.9961 -0.75272,-0.41513 -2.6776,-0.37165 -3.9356,-0.38671 h 1.002 -6.0099 z m 0.006,1 H 523 c 1.2586,0.0152 2.0891,0.0599 2.4551,0.26171 0.18342,0.10116 0.28722,0.21287 0.38476,0.47266 0.0974,0.25979 0.16002,0.67323 0.16002,1.2656 v 6.50001 c 0,0.59239 -0.0626,1.0057 -0.16016,1.2656 -0.0976,0.25991 -0.20135,0.37147 -0.38476,0.47266 -0.36596,0.20192 -1.1966,0.24701 -2.4551,0.26172 h -5.9981 -0.006 c -1.2586,-0.0152 -2.0891,-0.0599 -2.4551,-0.26172 -0.18342,-0.10116 -0.28722,-0.21286 -0.38476,-0.47266 -0.0975,-0.25979 -0.16016,-0.67323 -0.16016,-1.2656 v -6.50001 c 0,-0.59239 0.0626,-1.00569 0.16016,-1.2656 0.0976,-0.25991 0.20331,-0.37147 0.38672,-0.47266 0.36595,-0.20191 1.1946,-0.24701 2.4531,-0.26171 z"
           color="#000000"
           color-rendering="auto"
           dominant-baseline="auto"
           image-rendering="auto"
           solid-color="#000000"
           style="font-variant-ligatures:normal;font-variant-position:normal;font-variant-caps:normal;font-variant-numeric:normal;font-variant-alternates:normal;font-feature-settings:normal;text-indent:0;text-decoration:none;text-decoration-line:none;text-decoration-style:solid;text-decoration-color:#000000;text-transform:none;text-orientation:mixed;white-space:normal;shape-padding:0;isolation:auto;mix-blend-mode:normal;fill:#111111;fill-opacity:1"
           id="path2"
           sodipodi:nodetypes="cccssccccccccssccccccccccsscccccccsscccc" />
      </g>
    </g>
    <path
       style="display:inline;fill:none;stroke:#111111;stroke-width:1;stroke-linecap:round;stroke-linejoin:miter;stroke-miterlimit:4;stroke-dasharray:none;stroke-opacity:1;enable-background:new"
       d="m 5.0000016,4 c 0,0 0,-2.5 3,-2.5 3.0000004,0 3.0000004,2.5 3.0000004,2.5"
       id="path24398-3-6-7"
       inkscape:connector-curvature="0"
       sodipodi:nodetypes="csc" />
  </g>
</svg>
