<?xml version="1.0" encoding="UTF-8" standalone="no"?>
<svg
   xmlns:dc="http://purl.org/dc/elements/1.1/"
   xmlns:cc="http://creativecommons.org/ns#"
   xmlns:rdf="http://www.w3.org/1999/02/22-rdf-syntax-ns#"
   xmlns:svg="http://www.w3.org/2000/svg"
   xmlns="http://www.w3.org/2000/svg"
   xmlns:sodipodi="http://sodipodi.sourceforge.net/DTD/sodipodi-0.dtd"
   xmlns:inkscape="http://www.inkscape.org/namespaces/inkscape"
   version="1.1"
   viewBox="0 0 16 16"
   id="svg10"
   sodipodi:docname="archive-insert.svg"
   inkscape:version="1.0.2 (e86c870879, 2021-01-15)">
  <metadata
     id="metadata16">
    <rdf:RDF>
      <cc:Work
         rdf:about="">
        <dc:format>image/svg+xml</dc:format>
        <dc:type
           rdf:resource="http://purl.org/dc/dcmitype/StillImage" />
        <dc:title></dc:title>
      </cc:Work>
    </rdf:RDF>
  </metadata>
  <defs
     id="defs14" />
  <sodipodi:namedview
     pagecolor="#ffffff"
     bordercolor="#666666"
     borderopacity="1"
     objecttolerance="10"
     gridtolerance="10"
     guidetolerance="10"
     inkscape:pageopacity="0"
     inkscape:pageshadow="2"
     inkscape:window-width="1366"
     inkscape:window-height="689"
     id="namedview12"
     showgrid="true"
     inkscape:zoom="11.821942"
     inkscape:cx="12.535847"
     inkscape:cy="4.0750457"
     inkscape:window-x="0"
     inkscape:window-y="0"
     inkscape:window-maximized="1"
     inkscape:current-layer="svg10"
     inkscape:document-rotation="0">
    <inkscape:grid
       type="xygrid"
       id="grid833" />
  </sodipodi:namedview>
  <g
     id="g854">
    <g
       transform="translate(-592 -240)"
       fill="#808080"
       id="g8">
      <path
         d="m598.25 246c-0.1385 0-0.25 0.1115-0.25 0.25v5.5002c0 0.1385 0.1115 0.25 0.25 0.25h2.5005c0.1385 0 0.25-0.1115 0.25-0.25v-5.5002c0-0.1385-0.1115-0.25-0.25-0.25zm0.875 3.9998h0.7505c0.0693 0 0.125 0.0557 0.125 0.125v0.7505c0 0.0693-0.0557 0.125-0.125 0.125h-0.7505c-0.0693 0-0.125-0.0557-0.125-0.125v-0.7505c0-0.0693 0.0557-0.125 0.125-0.125z"
         id="path4"
         style="fill:#111111;fill-opacity:1" />
      <path
         d="m599 242v1h1v-1zm0 2v1h1v-1z"
         id="path6"
         style="fill:#111111;fill-opacity:1" />
    </g>
    <path
       d="M 4.9941,0 C 3.7359,0.0145 2.8152,-0.030604 2.0625,0.38477 1.68613,0.59243 1.38927,0.94416 1.22461,1.38282 1.05994,1.82149 1,2.34239 1,3.00002 v 10 c 0,0.65761 0.059899,1.1786 0.22461,1.6172 0.16468,0.43861 0.46153,0.78852 0.83789,0.99609 0.75272,0.41513 1.6735,0.37165 2.9316,0.38672 h 0.00195 5.0059 0.002 v -1 c -0.0016,1.9e-5 -0.0023,-1.8e-5 -0.0039,0 H 5.0059 5.0000407 c -1.2586,-0.0152 -2.0891,-0.0599 -2.4551,-0.26172 -0.18342,-0.10116 -0.28723,-0.21286 -0.38477,-0.47266 -0.09755,-0.25979 -0.16016,-0.67326 -0.16016,-1.2656 v -10 c 0,-0.59239 0.062596,-1.0057 0.16016,-1.2656 0.0976,-0.25991 0.20331,-0.37147 0.38672,-0.47266 0.36595,-0.20191 1.1946,-0.24702 2.4531,-0.26172 H 9.999991 c 0.40433,0.00488 0.68915,0.023727 1.0039,0.03893 v 0 l 1,0.086 v 0 c 0.18546,0.035331 0.34419,0.077756 0.45117,0.136752 0.18342,0.10116 0.28722,0.21286 0.38477,0.47266 0.09741,0.25979 0.16016,0.67326 0.16016,1.2656 v 7 h 1 v -7 c 0,-0.65761 -0.0599,-1.1786 -0.22461,-1.6172 -0.16468,-0.43861 -0.46153,-0.78852 -0.83789,-0.99609 -0.75272,-0.41513 -1.6736,-0.37165 -2.9316,-0.38672 h -0.002 -5.0059003 -0.00391 z"
       style="font-variant-ligatures:normal;font-variant-position:normal;font-variant-caps:normal;font-variant-numeric:normal;font-variant-alternates:normal;font-feature-settings:normal;text-indent:0;text-decoration:none;text-decoration-line:none;text-decoration-style:solid;text-decoration-color:#000000;text-transform:none;text-orientation:mixed;white-space:normal;shape-padding:0;isolation:auto;mix-blend-mode:normal;fill:#111111;fill-opacity:1"
       id="path2"
       sodipodi:nodetypes="cccssccccccccccccssccccccccccsccsccccccc" />
    <path
       d="m 13.003896,11 v 2 h -2 v 1 h 2 v 2 h 1 v -2 h 2 v -1 h -2 v -2 z"
       stroke-linejoin="round"
       id="path12"
       style="fill:#111111;fill-opacity:1" />
  </g>
</svg>
