<?xml version="1.0" encoding="UTF-8" standalone="no"?>
<svg
   xmlns:dc="http://purl.org/dc/elements/1.1/"
   xmlns:cc="http://creativecommons.org/ns#"
   xmlns:rdf="http://www.w3.org/1999/02/22-rdf-syntax-ns#"
   xmlns:svg="http://www.w3.org/2000/svg"
   xmlns="http://www.w3.org/2000/svg"
   xmlns:sodipodi="http://sodipodi.sourceforge.net/DTD/sodipodi-0.dtd"
   xmlns:inkscape="http://www.inkscape.org/namespaces/inkscape"
   viewBox="0 0 16 16"
   version="1.1"
   id="svg12"
   sodipodi:docname="chronometer-lap.svg"
   inkscape:version="1.0.2 (e86c870879, 2021-01-15)">
  <metadata
     id="metadata18">
    <rdf:RDF>
      <cc:Work
         rdf:about="">
        <dc:format>image/svg+xml</dc:format>
        <dc:type
           rdf:resource="http://purl.org/dc/dcmitype/StillImage" />
        <dc:title></dc:title>
      </cc:Work>
    </rdf:RDF>
  </metadata>
  <defs
     id="defs16" />
  <sodipodi:namedview
     pagecolor="#ffffff"
     bordercolor="#666666"
     borderopacity="1"
     objecttolerance="10"
     gridtolerance="10"
     guidetolerance="10"
     inkscape:pageopacity="0"
     inkscape:pageshadow="2"
     inkscape:window-width="1366"
     inkscape:window-height="704"
     id="namedview14"
     showgrid="true"
     inkscape:zoom="16.71875"
     inkscape:cx="9.3806936"
     inkscape:cy="9.3239333"
     inkscape:window-x="0"
     inkscape:window-y="27"
     inkscape:window-maximized="1"
     inkscape:current-layer="svg12"
     inkscape:document-rotation="0">
    <inkscape:grid
       type="xygrid"
       id="grid843" />
  </sodipodi:namedview>
  <g
     id="g925">
    <g
       transform="translate(-152.00001,-516)"
       fill="#808080"
       id="g10"
       style="fill:#111111;fill-opacity:1">
      <rect
         x="157"
         y="516"
         width="5"
         height="2"
         rx="1"
         ry="1"
         id="rect2"
         style="fill:#111111;fill-opacity:1" />
      <path
         d="m 163.53,519 a 1.5,1.5 0 0 0 -0.10547,0.002 1.5,1.5 0 0 0 -1.1426,0.62696 6.5,6.5 0 0 0 -3.1133,-0.6211 6.5,6.5 0 0 0 -6.1602,6.8223 6.5,6.5 0 0 0 6.8223,6.1621 6.5,6.5 0 0 0 6.1621,-6.8203 v -0.004 a 6.5,6.5 0 0 0 -1.377,-3.666 1.5,1.5 0 0 0 0.38282,-1.0781 1.5,1.5 0 0 0 -1.4688,-1.4238 z m -3.7598,1.0059 a 5.5,5.5 0 0 1 5.2227,5.2129 v 0.004 a 5.5,5.5 0 0 1 -5.2129,5.7695 5.5,5.5 0 0 1 -5.7715,-5.2129 5.5,5.5 0 0 1 5.2109,-5.7715 5.5,5.5 0 0 1 0.55078,-0.002 z"
         id="path4"
         style="fill:#111111;fill-opacity:1" />
    </g>
    <path
       id="path4-3"
       style="fill:currentColor;fill-opacity:1;stroke:none;stroke-width:1.66667"
       d="m 7,5 v 3.3333339 a 1.6666667,1.6666667 0 0 1 1.6666667,1.666666 H 12 A 5.0000002,5.0000002 0 0 0 7,5 Z" />
  </g>
</svg>
