<?xml version="1.0" encoding="UTF-8" standalone="no"?>
<svg
   xmlns:dc="http://purl.org/dc/elements/1.1/"
   xmlns:cc="http://creativecommons.org/ns#"
   xmlns:rdf="http://www.w3.org/1999/02/22-rdf-syntax-ns#"
   xmlns:svg="http://www.w3.org/2000/svg"
   xmlns="http://www.w3.org/2000/svg"
   xmlns:sodipodi="http://sodipodi.sourceforge.net/DTD/sodipodi-0.dtd"
   xmlns:inkscape="http://www.inkscape.org/namespaces/inkscape"
   version="1.1"
   viewBox="0 0 16 16"
   id="svg6"
   sodipodi:docname="document-scan.svg"
   inkscape:version="1.0.2 (e86c870879, 2021-01-15)">
  <metadata
     id="metadata12">
    <rdf:RDF>
      <cc:Work
         rdf:about="">
        <dc:format>image/svg+xml</dc:format>
        <dc:type
           rdf:resource="http://purl.org/dc/dcmitype/StillImage" />
        <dc:title></dc:title>
      </cc:Work>
    </rdf:RDF>
  </metadata>
  <defs
     id="defs10" />
  <sodipodi:namedview
     pagecolor="#ffffff"
     bordercolor="#666666"
     borderopacity="1"
     objecttolerance="10"
     gridtolerance="10"
     guidetolerance="10"
     inkscape:pageopacity="0"
     inkscape:pageshadow="2"
     inkscape:window-width="1366"
     inkscape:window-height="689"
     id="namedview8"
     showgrid="true"
     inkscape:zoom="33.4375"
     inkscape:cx="8"
     inkscape:cy="8.0299065"
     inkscape:window-x="0"
     inkscape:window-y="0"
     inkscape:window-maximized="1"
     inkscape:current-layer="svg6"
     inkscape:document-rotation="0">
    <inkscape:grid
       type="xygrid"
       id="grid859" />
  </sodipodi:namedview>
  <g
     id="g926">
    <g
       transform="translate(-372 -40)"
       id="g4">
      <path
         id="path2"
         style="fill:#111111;fill-opacity:1"
         transform="translate(372,40)"
         d="M 4.9902344,0 C 3.7321344,0.01507 2.8113137,-0.02842125 2.0585938,0.38671875 1.6822332,0.59427875 1.3853831,0.9442025 1.2207031,1.3828125 1.0559931,1.8214125 0.99609375,2.34239 0.99609375,3 V 7 C 1.3294233,6.9952721 1.6627655,7.0012671 1.9960938,7 V 3 C 1.9960938,2.40763 2.05865,1.994175 2.15625,1.734375 2.25379,1.474575 2.3575956,1.3628788 2.5410156,1.2617188 2.9070156,1.0598787 3.7374912,1.01523 4.9960938,1 h 0.00586 4.9941407 v 4 h 2.0000005 2 v 2 h 1 V 5 4.25 L 10.746094,0 H 9.9960938 4.9921875 Z m 9.0058596,9 v 4 c 0,0.59237 -0.06261,1.005825 -0.160156,1.265625 -0.09754,0.2598 -0.201346,0.371496 -0.384766,0.472656 -0.366,0.20184 -1.196478,0.246489 -2.455078,0.261719 H 4.9960938 C 3.7375937,14.9853 2.9069756,14.940191 2.5410156,14.738281 2.3576056,14.637081 2.25385,14.525535 2.15625,14.265625 2.05869,14.005725 1.9960938,13.59239 1.9960938,13 V 9 C 1.6627326,9.00142 1.3293413,8.995 0.99609375,9 v 4 c 0,0.65762 0.0599394,1.178514 0.22460935,1.617188 0.16466,0.43867 0.4615206,0.790386 0.8378907,0.998046 C 2.8112937,16.030564 3.7320344,15.98547 4.9902344,16 H 4.9941406 11 11.002 c 1.258,-0.01507 2.178921,0.02841 2.931641,-0.386719 0.37636,-0.20756 0.67321,-0.557485 0.83789,-0.996093 0.16471,-0.4386 0.22461,-0.959578 0.22461,-1.617188 V 9 Z"
         sodipodi:nodetypes="cccsccscccccccccccccccccsccccccsccsccccccscscc" />
    </g>
    <rect
       style="fill:#111111"
       id="rect903"
       width="16"
       height="1"
       x="0"
       y="7"
       ry="0" />
  </g>
</svg>
