<?xml version="1.0" encoding="UTF-8" standalone="no"?>
<svg
   xmlns:dc="http://purl.org/dc/elements/1.1/"
   xmlns:cc="http://creativecommons.org/ns#"
   xmlns:rdf="http://www.w3.org/1999/02/22-rdf-syntax-ns#"
   xmlns:svg="http://www.w3.org/2000/svg"
   xmlns="http://www.w3.org/2000/svg"
   xmlns:sodipodi="http://sodipodi.sourceforge.net/DTD/sodipodi-0.dtd"
   xmlns:inkscape="http://www.inkscape.org/namespaces/inkscape"
   version="1.1"
   viewBox="0 0 16 16"
   id="svg6"
   sodipodi:docname="document-edit-sign-encrypt.svg"
   inkscape:version="1.0.2 (e86c870879, 2021-01-15)">
  <metadata
     id="metadata12">
    <rdf:RDF>
      <cc:Work
         rdf:about="">
        <dc:format>image/svg+xml</dc:format>
        <dc:type
           rdf:resource="http://purl.org/dc/dcmitype/StillImage" />
        <dc:title></dc:title>
      </cc:Work>
    </rdf:RDF>
  </metadata>
  <defs
     id="defs10" />
  <sodipodi:namedview
     pagecolor="#ffffff"
     bordercolor="#666666"
     borderopacity="1"
     objecttolerance="10"
     gridtolerance="10"
     guidetolerance="10"
     inkscape:pageopacity="0"
     inkscape:pageshadow="2"
     inkscape:window-width="1366"
     inkscape:window-height="689"
     id="namedview8"
     showgrid="true"
     inkscape:zoom="16.718751"
     inkscape:cx="8.2908129"
     inkscape:cy="10.207182"
     inkscape:window-x="0"
     inkscape:window-y="0"
     inkscape:window-maximized="1"
     inkscape:current-layer="svg6"
     inkscape:document-rotation="0">
    <inkscape:grid
       type="xygrid"
       id="grid865" />
  </sodipodi:namedview>
  <g
     id="g872">
    <g
       transform="translate(-151.99999,-179.99864)"
       id="g4"
       style="fill:#111111;fill-opacity:1">
      <path
         id="path2"
         style="text-indent:0;text-decoration:none;text-decoration-line:none;text-decoration-style:solid;text-decoration-color:#000000;text-transform:none;white-space:normal;isolation:auto;mix-blend-mode:normal;fill:#111111;fill-opacity:1"
         transform="translate(151.99999,179.99864)"
         d="m 5,0.00195313 c -1.25,0 -2.1747875,-0.04440001 -2.9296875,0.37499999 -0.37746,0.2097 -0.6753869,0.56341619 -0.8417969,1.00390628 C 1.0620956,1.8213594 1,2.3436131 1,3.0019531 v 9.9999999 c 0,0.65833 0.062096,1.180594 0.2285156,1.621094 0.16641,0.4405 0.4643369,0.794216 0.8417969,1.003906 0.75493,0.4194 1.6796875,0.375 2.9296875,0.375 L 9,16 v -1 l -4,0.002 c -1.2499999,6.1e-4 -2.0752125,-0.0444 -2.4453125,-0.25 -0.18504,-0.1028 -0.2933681,-0.217839 -0.3925781,-0.480469 C 2.0629094,14.008864 2,13.593593 2,13.001953 V 3.0019531 c 0,-0.59167 0.062899,-1.0069312 0.1621094,-1.2695312 0.0992,-0.26263 0.2075381,-0.3776688 0.3925781,-0.4804688 0.37007,-0.2056 1.1953125,-0.25 2.4453125,-0.25 h 5 v 4 h 4 V 8 h 1 V 4.2519531 L 10.75,0.00195313 Z"
         sodipodi:nodetypes="sccssccsccsccssccscccccccs" />
    </g>
    <path
       d="m 13,8.937 c -1.09,0 -2,0.879 -2,1.969 V 12 h -0.97 v 4.062 H 16 v -4.063 h -1.032 v -1.093 c 0,-1.09 -0.88,-1.969 -1.968,-1.969 z m 0,1 c 0.546,0 0.968,0.417 0.968,0.969 V 12 H 12 v -1.094 c 0,-0.552 0.453,-0.969 1,-0.969 z"
       overflow="visible"
       style="text-indent:0;text-decoration:none;text-decoration-line:none;text-transform:none;fill:#111111;fill-opacity:1"
       id="path10" />
  </g>
</svg>
