<?xml version="1.0" encoding="UTF-8" standalone="no"?>
<svg
   xmlns:dc="http://purl.org/dc/elements/1.1/"
   xmlns:cc="http://creativecommons.org/ns#"
   xmlns:rdf="http://www.w3.org/1999/02/22-rdf-syntax-ns#"
   xmlns:svg="http://www.w3.org/2000/svg"
   xmlns="http://www.w3.org/2000/svg"
   xmlns:sodipodi="http://sodipodi.sourceforge.net/DTD/sodipodi-0.dtd"
   xmlns:inkscape="http://www.inkscape.org/namespaces/inkscape"
   version="1.1"
   viewBox="0 0 16 16"
   id="svg6"
   sodipodi:docname="document-import.svg"
   inkscape:version="1.0.2 (e86c870879, 2021-01-15)">
  <metadata
     id="metadata12">
    <rdf:RDF>
      <cc:Work
         rdf:about="">
        <dc:format>image/svg+xml</dc:format>
        <dc:type
           rdf:resource="http://purl.org/dc/dcmitype/StillImage" />
        <dc:title />
      </cc:Work>
    </rdf:RDF>
  </metadata>
  <defs
     id="defs10" />
  <sodipodi:namedview
     pagecolor="#ffffff"
     bordercolor="#666666"
     borderopacity="1"
     objecttolerance="10"
     gridtolerance="10"
     guidetolerance="10"
     inkscape:pageopacity="0"
     inkscape:pageshadow="2"
     inkscape:window-width="1366"
     inkscape:window-height="689"
     id="namedview8"
     showgrid="true"
     inkscape:zoom="11.821942"
     inkscape:cx="7.9936065"
     inkscape:cy="8.2211602"
     inkscape:window-x="0"
     inkscape:window-y="0"
     inkscape:window-maximized="1"
     inkscape:current-layer="svg6"
     inkscape:document-rotation="0">
    <inkscape:grid
       type="xygrid"
       id="grid8" />
  </sodipodi:namedview>
  <g
     id="g973">
    <g
       transform="translate(-372 -40)"
       id="g4">
      <path
         id="path2"
         style="fill:#111111;fill-opacity:1"
         d="m 377.99414,40 c -1.2581,0.01507 -2.17892,-0.02842 -2.93164,0.386719 -0.37636,0.20756 -0.67321,0.557484 -0.83789,0.996093 C 374.0599,41.821412 374,42.34239 374,43 v 4.5 c 0.2194,0.0026 0.43877,0.0027 0.6582,0 0.11386,-0.0014 0.22783,0.0035 0.3418,0 V 43 c 0,-0.59237 0.0626,-1.005825 0.16016,-1.265625 0.0975,-0.2598 0.20134,-0.371496 0.38476,-0.472656 C 375.91092,41.059879 376.7414,41.01523 378,41 h 0.006 4.994 v 4 h 2 2 v 8 c 0,0.59237 -0.0626,1.005825 -0.16015,1.265625 -0.0975,0.2598 -0.20135,0.371496 -0.38477,0.472656 C 386.08908,54.940121 385.2586,54.98477 384,55 h -6 c -1.2585,-0.0147 -2.08912,-0.05981 -2.45508,-0.261719 -0.18341,-0.1012 -0.28716,-0.212746 -0.38476,-0.472656 C 375.0626,54.005725 375,53.59239 375,53 v -2.5 c -0.11654,0.003 -0.23302,-0.0014 -0.34961,0 -0.21679,0.0026 -0.43359,0.0021 -0.65039,0 V 53 c 0,0.65762 0.0599,1.178514 0.22461,1.617188 0.16466,0.43867 0.46152,0.790386 0.83789,0.998046 0.7527,0.41533 1.67344,0.370236 2.93164,0.384766 h 0.004 6.00586 0.002 c 1.258,-0.01507 2.17892,0.02841 2.93164,-0.386719 0.37636,-0.20756 0.67321,-0.557485 0.83789,-0.996093 0.16471,-0.4386 0.22461,-0.959578 0.22461,-1.617188 V 45 44.25 L 383.75,40 H 383 377.99609 Z"
         sodipodi:nodetypes="cccscscsccccccccsccccccscccsccccccscscccccc" />
    </g>
    <g
       id="g14">
      <path
         d="m 6,6.5 0.001,5 c 0.76,-0.348 1.535,-0.737 2.323,-1.166 A 44.09,44.09 0 0 0 10.583,9 51.555,51.555 0 0 0 8.323,7.68 43.088,43.088 0 0 0 6,6.5 Z"
         overflow="visible"
         id="path2-3" />
      <rect
         style="fill:#111111;fill-opacity:1"
         id="rect57"
         width="9"
         height="1"
         x="0"
         y="8.5"
         ry="0" />
    </g>
  </g>
</svg>
