<?xml version="1.0" encoding="UTF-8" standalone="no"?>
<svg
   xmlns:dc="http://purl.org/dc/elements/1.1/"
   xmlns:cc="http://creativecommons.org/ns#"
   xmlns:rdf="http://www.w3.org/1999/02/22-rdf-syntax-ns#"
   xmlns:svg="http://www.w3.org/2000/svg"
   xmlns="http://www.w3.org/2000/svg"
   xmlns:sodipodi="http://sodipodi.sourceforge.net/DTD/sodipodi-0.dtd"
   xmlns:inkscape="http://www.inkscape.org/namespaces/inkscape"
   viewBox="0 0 16 16"
   version="1.1"
   id="svg6"
   sodipodi:docname="document-save-as.svg"
   inkscape:version="1.0.2 (e86c870879, 2021-01-15)">
  <metadata
     id="metadata12">
    <rdf:RDF>
      <cc:Work
         rdf:about="">
        <dc:format>image/svg+xml</dc:format>
        <dc:type
           rdf:resource="http://purl.org/dc/dcmitype/StillImage" />
        <dc:title></dc:title>
      </cc:Work>
    </rdf:RDF>
  </metadata>
  <defs
     id="defs10" />
  <sodipodi:namedview
     pagecolor="#ffffff"
     bordercolor="#666666"
     borderopacity="1"
     objecttolerance="10"
     gridtolerance="10"
     guidetolerance="10"
     inkscape:pageopacity="0"
     inkscape:pageshadow="2"
     inkscape:window-width="1366"
     inkscape:window-height="689"
     id="namedview8"
     showgrid="true"
     inkscape:zoom="11.821942"
     inkscape:cx="9.703498"
     inkscape:cy="10.813643"
     inkscape:window-x="0"
     inkscape:window-y="0"
     inkscape:window-maximized="1"
     inkscape:current-layer="svg6"
     inkscape:document-rotation="0">
    <inkscape:grid
       type="xygrid"
       id="grid831" />
  </sodipodi:namedview>
  <g
     id="g936">
    <g
       fill="#808080"
       id="g6"
       transform="rotate(180,8,8)">
      <path
         id="path2"
         style="font-variant-ligatures:normal;font-variant-position:normal;font-variant-caps:normal;font-variant-numeric:normal;font-variant-alternates:normal;font-feature-settings:normal;text-indent:0;text-decoration:none;text-decoration-line:none;text-decoration-style:solid;text-decoration-color:#000000;text-transform:none;text-orientation:mixed;shape-padding:0;isolation:auto;mix-blend-mode:normal;fill:#111111;fill-opacity:1"
         transform="rotate(180,8,8)"
         d="M 3.9941406,0 C 2.7361406,0.015 1.8155,-0.03023438 1.0625,0.38476562 0.67314739,0.6069147 0.3759864,0.9608757 0.22460938,1.3828125 0.06060938,1.8208125 0,2.343 0,3 v 8 c 0,0.658 0.05960938,1.178186 0.22460938,1.617188 C 0.37598658,13.039124 0.67314755,13.393085 1.0625,13.615234 1.8155,14.031234 2.7361406,13.985 3.9941406,14 H 7.6025391 C 7.8719092,13.67018 8.1330217,13.333793 8.397461,13 H 4 C 2.741,12.985 1.9099219,12.940281 1.5449219,12.738281 1.3609219,12.637281 1.2581562,12.524625 1.1601562,12.265625 1.0631563,12.005625 1,11.592 1,11 V 3 C 1,2.408 1.063156,1.994375 1.1601562,1.734375 c 0.098,-0.26 0.2007657,-0.3716564 0.3847657,-0.4726562 C 1.9119219,1.0587188 2.7428594,1.015 4.0058594,1 H 10.794922 L 13,3.2070312 V 7 H 13.255859 14 V 2.7929688 L 13.853516,2.6464844 11.207031,0 Z"
         sodipodi:nodetypes="cccssccccccccsscccccccccccc" />
      <path
         d="m 5,10 v 5 h 2 v -4 h 2 v 4 h 4 v -5 z"
         id="path4"
         style="fill:#111111;fill-opacity:1" />
    </g>
    <path
       d="m 14.363951,8 -0.198176,0.2012872 -5.028669,5.0936518 -0.01683,0.02475 c -0.03552,0.05441 -0.155721,0.247816 -0.339396,0.597437 -0.183668,0.349616 -0.411822,0.826356 -0.60263,1.360756 L 8,15.778185 8.500293,15.599936 c 0.53483,-0.190865 1.01119,-0.419002 1.360757,-0.60263 0.349582,-0.18364 0.541816,-0.30303 0.597435,-0.339397 l 0.02475,-0.01683 5.294892,-5.2268969 z m -4.714814,5.504894 0.624117,0.624117 -0.09955,0.09854 c 0.0039,-0.0029 -0.208459,0.130946 -0.527662,0.298625 -0.117394,0.06167 -0.292495,0.132262 -0.455341,0.201308 L 9.050679,14.587462 c 0.06904,-0.162836 0.13962,-0.337915 0.201307,-0.455342 0.16773,-0.319269 0.300804,-0.530409 0.298626,-0.527662 z"
       id="path2-3"
       style="fill:#111111;fill-opacity:1;stroke-width:0.535666" />
  </g>
</svg>
