<?xml version="1.0" encoding="UTF-8" standalone="no"?>
<svg
   xmlns:dc="http://purl.org/dc/elements/1.1/"
   xmlns:cc="http://creativecommons.org/ns#"
   xmlns:rdf="http://www.w3.org/1999/02/22-rdf-syntax-ns#"
   xmlns:svg="http://www.w3.org/2000/svg"
   xmlns="http://www.w3.org/2000/svg"
   xmlns:sodipodi="http://sodipodi.sourceforge.net/DTD/sodipodi-0.dtd"
   xmlns:inkscape="http://www.inkscape.org/namespaces/inkscape"
   version="1.1"
   viewBox="0 0 16 16"
   id="svg6"
   sodipodi:docname="document-edit-sign.svg"
   inkscape:version="1.0.2 (e86c870879, 2021-01-15)">
  <metadata
     id="metadata12">
    <rdf:RDF>
      <cc:Work
         rdf:about="">
        <dc:format>image/svg+xml</dc:format>
        <dc:type
           rdf:resource="http://purl.org/dc/dcmitype/StillImage" />
        <dc:title></dc:title>
      </cc:Work>
    </rdf:RDF>
  </metadata>
  <defs
     id="defs10" />
  <sodipodi:namedview
     pagecolor="#ffffff"
     bordercolor="#666666"
     borderopacity="1"
     objecttolerance="10"
     gridtolerance="10"
     guidetolerance="10"
     inkscape:pageopacity="0"
     inkscape:pageshadow="2"
     inkscape:window-width="1366"
     inkscape:window-height="689"
     id="namedview8"
     showgrid="true"
     inkscape:zoom="8.3593755"
     inkscape:cx="13.267749"
     inkscape:cy="10.207182"
     inkscape:window-x="0"
     inkscape:window-y="0"
     inkscape:window-maximized="1"
     inkscape:current-layer="svg6"
     inkscape:document-rotation="0">
    <inkscape:grid
       type="xygrid"
       id="grid865" />
  </sodipodi:namedview>
  <g
     id="g847">
    <g
       id="g872">
      <g
         transform="translate(-151.99999,-179.99864)"
         id="g4"
         style="fill:#111111;fill-opacity:1">
        <path
           id="path2"
           style="text-indent:0;text-decoration:none;text-decoration-line:none;text-decoration-style:solid;text-decoration-color:#000000;text-transform:none;white-space:normal;isolation:auto;mix-blend-mode:normal;fill:#111111;fill-opacity:1"
           transform="translate(151.99999,179.99864)"
           d="m 5,0.00195313 c -1.25,0 -2.1747875,-0.04440001 -2.9296875,0.37499999 -0.37746,0.2097 -0.6753869,0.56341619 -0.8417969,1.00390628 C 1.0620956,1.8213594 1,2.3436131 1,3.0019531 v 9.9999999 c 0,0.65833 0.062096,1.180594 0.2285156,1.621094 0.16641,0.4405 0.4643369,0.794216 0.8417969,1.003906 0.75493,0.4194 1.6796875,0.375 2.9296875,0.375 L 7,16 V 15 L 5,15.002 C 3.7500005,15.00325 2.9247875,14.9576 2.5546875,14.752 2.3696475,14.6492 2.2613194,14.534161 2.1621094,14.271531 2.0629094,14.008864 2,13.593593 2,13.001953 V 3.0019531 c 0,-0.59167 0.062899,-1.0069312 0.1621094,-1.2695312 0.0992,-0.26263 0.2075381,-0.3776688 0.3925781,-0.4804688 0.37007,-0.2056 1.1953125,-0.25 2.4453125,-0.25 h 5 v 4 h 4 V 7 h 1 V 4.2519531 L 10.75,0.00195313 Z"
           sodipodi:nodetypes="sccssccsccsccssccscccccccs" />
      </g>
    </g>
    <path
       d="m 14.363951,8 -0.198176,0.2012872 -5.028669,5.0936518 -0.01683,0.02475 c -0.03552,0.05441 -0.155721,0.247816 -0.339396,0.597437 -0.183668,0.349616 -0.411822,0.826356 -0.60263,1.360756 L 8,15.778185 8.500293,15.599936 c 0.53483,-0.190865 1.01119,-0.419002 1.360757,-0.60263 0.349582,-0.18364 0.541816,-0.30303 0.597435,-0.339397 l 0.02475,-0.01683 5.294892,-5.2268969 z m -4.714814,5.504894 0.624117,0.624117 -0.09955,0.09854 c 0.0039,-0.0029 -0.208459,0.130946 -0.527662,0.298625 -0.117394,0.06167 -0.292495,0.132262 -0.455341,0.201308 L 9.050679,14.587462 c 0.06904,-0.162836 0.13962,-0.337915 0.201307,-0.455342 0.16773,-0.319269 0.300804,-0.530409 0.298626,-0.527662 z"
       id="path2-3"
       style="fill:#111111;fill-opacity:1;stroke-width:0.535666" />
  </g>
</svg>
