<?xml version="1.0" encoding="UTF-8" standalone="no"?>
<svg
   xmlns:dc="http://purl.org/dc/elements/1.1/"
   xmlns:cc="http://creativecommons.org/ns#"
   xmlns:rdf="http://www.w3.org/1999/02/22-rdf-syntax-ns#"
   xmlns:svg="http://www.w3.org/2000/svg"
   xmlns="http://www.w3.org/2000/svg"
   xmlns:sodipodi="http://sodipodi.sourceforge.net/DTD/sodipodi-0.dtd"
   xmlns:inkscape="http://www.inkscape.org/namespaces/inkscape"
   version="1.1"
   viewBox="0 0 16 16"
   id="svg6"
   sodipodi:docname="document-print-preview.svg"
   inkscape:version="1.0.2 (e86c870879, 2021-01-15)">
  <metadata
     id="metadata12">
    <rdf:RDF>
      <cc:Work
         rdf:about="">
        <dc:format>image/svg+xml</dc:format>
        <dc:type
           rdf:resource="http://purl.org/dc/dcmitype/StillImage" />
        <dc:title></dc:title>
      </cc:Work>
    </rdf:RDF>
  </metadata>
  <defs
     id="defs10" />
  <sodipodi:namedview
     pagecolor="#ffffff"
     bordercolor="#666666"
     borderopacity="1"
     objecttolerance="10"
     gridtolerance="10"
     guidetolerance="10"
     inkscape:pageopacity="0"
     inkscape:pageshadow="2"
     inkscape:window-width="1366"
     inkscape:window-height="689"
     id="namedview8"
     showgrid="false"
     inkscape:zoom="33.4375"
     inkscape:cx="8"
     inkscape:cy="8"
     inkscape:window-x="0"
     inkscape:window-y="0"
     inkscape:window-maximized="1"
     inkscape:current-layer="svg6" />
  <path
     d="m3 0v4.0254c-0.75 0.018-1.4105 0.069375-1.9375 0.35938-0.38935 0.22215-0.68651 0.57611-0.83789 0.99805-0.165 0.439-0.22461 0.96019-0.22461 1.6172v3c0 0.658 0.059609 1.1792 0.22461 1.6172 0.164 0.439 0.46089 0.79005 0.83789 0.99805 0.282 0.156 0.5995 0.23411 0.9375 0.28711v-1.0254c-0.15767-0.02368-0.311-0.0704-0.45508-0.13867-0.183-0.1-0.28677-0.21266-0.38477-0.47266-0.097-0.26-0.16016-0.67362-0.16016-1.2656v-3c0-0.592 0.063156-1.0056 0.16016-1.2656 0.098-0.26 0.20177-0.37166 0.38477-0.47266 0.365-0.202 1.1951-0.24672 2.4551-0.26172h8c1.259 0.015 2.0871 0.059719 2.4531 0.26172 0.184 0.101 0.28972 0.21366 0.38672 0.47266 0.097 0.26 0.16016 0.67362 0.16016 1.2656v3h1v-3c0-0.658-0.05961-1.1782-0.22461-1.6172-0.15138-0.42194-0.44854-0.7759-0.83789-0.99805-0.527-0.29-1.1875-0.34138-1.9375-0.35938v-4.0254zm1 1h8v3h-8zm9.5 5c-0.27614 0-0.5 0.22386-0.5 0.5s0.22386 0.5 0.5 0.5 0.5-0.22386 0.5-0.5-0.22386-0.5-0.5-0.5zm-10.5 4v6h9v-1h-8v-5zm2 1v1h2.1445c-0.084508-0.3218-0.14453-0.65309-0.14453-1zm0 2v1h3.3887c-0.32825-0.28642-0.60459-0.62249-0.82617-1z"
     style="font-feature-settings:normal;font-variant-alternates:normal;font-variant-caps:normal;font-variant-ligatures:normal;font-variant-numeric:normal;font-variant-position:normal;isolation:auto;mix-blend-mode:normal;shape-padding:0;text-decoration-color:#000000;text-decoration-line:none;text-decoration-style:solid;text-indent:0;text-orientation:mixed;text-transform:none;fill:#111111;fill-opacity:1"
     id="path2" />
  <path
     d="m11 8c-1.6509 0-3 1.3491-3 3 0 1.6509 1.3491 3 3 3 0.67614 0 1.2939-0.2346 1.7969-0.61523a0.66843 0.66843 0 0 0 0.19141 0.54883l1.6719 1.6719a0.66843 0.66843 0 0 0 0.94531 0 0.66843 0.66843 0 0 0 0-0.94531l-1.6719-1.6719a0.66843 0.66843 0 0 0-0.49609-0.19531 0.66843 0.66843 0 0 0-0.052734 0.003906c0.38063-0.50294 0.61523-1.1207 0.61523-1.7969 0-1.6509-1.3491-3-3-3zm0 1c1.1105 0 2 0.88951 2 2 0 1.1105-0.88951 2-2 2-1.1105 0-2-0.88951-2-2 0-1.1105 0.88951-2 2-2z"
     style="font-feature-settings:normal;font-variant-alternates:normal;font-variant-caps:normal;font-variant-east-asian:normal;font-variant-ligatures:normal;font-variant-numeric:normal;font-variant-position:normal;font-variation-settings:normal;inline-size:0;isolation:auto;mix-blend-mode:normal;shape-margin:0;shape-padding:0;text-decoration-color:#000000;text-decoration-line:none;text-decoration-style:solid;text-indent:0;text-orientation:mixed;text-transform:none;white-space:normal;fill:#111111;fill-opacity:1"
     id="path4" />
</svg>
