<?xml version="1.0" encoding="UTF-8" standalone="no"?>
<svg
   xmlns:dc="http://purl.org/dc/elements/1.1/"
   xmlns:cc="http://creativecommons.org/ns#"
   xmlns:rdf="http://www.w3.org/1999/02/22-rdf-syntax-ns#"
   xmlns:svg="http://www.w3.org/2000/svg"
   xmlns="http://www.w3.org/2000/svg"
   xmlns:sodipodi="http://sodipodi.sourceforge.net/DTD/sodipodi-0.dtd"
   xmlns:inkscape="http://www.inkscape.org/namespaces/inkscape"
   version="1.1"
   viewBox="0 0 16 16.003"
   id="svg6"
   sodipodi:docname="document-new-from-template.svg"
   inkscape:version="1.0.2 (e86c870879, 2021-01-15)">
  <metadata
     id="metadata12">
    <rdf:RDF>
      <cc:Work
         rdf:about="">
        <dc:format>image/svg+xml</dc:format>
        <dc:type
           rdf:resource="http://purl.org/dc/dcmitype/StillImage" />
        <dc:title></dc:title>
      </cc:Work>
    </rdf:RDF>
  </metadata>
  <defs
     id="defs10" />
  <sodipodi:namedview
     pagecolor="#ffffff"
     bordercolor="#666666"
     borderopacity="1"
     objecttolerance="10"
     gridtolerance="10"
     guidetolerance="10"
     inkscape:pageopacity="0"
     inkscape:pageshadow="2"
     inkscape:window-width="1366"
     inkscape:window-height="689"
     id="namedview8"
     showgrid="true"
     inkscape:zoom="23.63945"
     inkscape:cx="11.37196"
     inkscape:cy="9.6478855"
     inkscape:window-x="0"
     inkscape:window-y="0"
     inkscape:window-maximized="1"
     inkscape:current-layer="svg6"
     inkscape:document-rotation="0">
    <inkscape:grid
       type="xygrid"
       id="grid14" />
  </sodipodi:namedview>
  <g
     id="g858">
    <g
       transform="translate(-152 -180)"
       id="g4">
      <path
         id="path2"
         style="isolation:auto;mix-blend-mode:normal;text-decoration-color:#000000;text-decoration-line:none;text-decoration-style:solid;text-indent:0;text-transform:none;white-space:normal;fill:#111111;fill-opacity:1"
         transform="translate(152,180)"
         d="M 5,0 C 3.75,0 2.8252125,-0.0444 2.0703125,0.375 1.6928525,0.5847 1.3949256,0.93841635 1.2285156,1.3789062 1.0620956,1.8194062 1,2.34166 1,3 v 10 c 0,0.65833 0.062096,1.180594 0.2285156,1.621094 0.16641,0.4405 0.4643369,0.794216 0.8417969,1.003906 C 2.8252425,16.0444 3.75,16 5,16 h 5 V 15 H 5 C 3.75,15 2.9247875,14.9556 2.5546875,14.75 2.3696475,14.6472 2.2613194,14.532161 2.1621094,14.269531 2.0628994,14.006911 2,13.59164 2,13 V 3 C 2,2.40833 2.0628994,1.9930686 2.1621094,1.7304688 2.2613094,1.4678387 2.3696475,1.3528 2.5546875,1.25 2.9247575,1.0444 3.75,1 5,1 h 5 v 4 h 4 v 5 h 1 V 4.25 L 10.75,0 Z m 8.734375,15.972656 C 13.720337,15.98328 13.7037,15.989624 13.689453,16 h 0.07031 c -0.008,-0.009 -0.017,-0.01824 -0.02539,-0.02734 z" />
    </g>
    <circle
       style="fill:#111111;stroke-width:1.99384"
       id="path853"
       cx="13.5"
       cy="13.5"
       r="2.5" />
  </g>
</svg>
