<?xml version="1.0" encoding="UTF-8" standalone="no"?>
<svg
   xmlns:dc="http://purl.org/dc/elements/1.1/"
   xmlns:cc="http://creativecommons.org/ns#"
   xmlns:rdf="http://www.w3.org/1999/02/22-rdf-syntax-ns#"
   xmlns:svg="http://www.w3.org/2000/svg"
   xmlns="http://www.w3.org/2000/svg"
   xmlns:sodipodi="http://sodipodi.sourceforge.net/DTD/sodipodi-0.dtd"
   xmlns:inkscape="http://www.inkscape.org/namespaces/inkscape"
   version="1.1"
   viewBox="0 0 16 16"
   id="svg6"
   sodipodi:docname="edit-symbolic.svg"
   inkscape:version="1.0.2 (e86c870879, 2021-01-15)">
  <metadata
     id="metadata12">
    <rdf:RDF>
      <cc:Work
         rdf:about="">
        <dc:format>image/svg+xml</dc:format>
        <dc:type
           rdf:resource="http://purl.org/dc/dcmitype/StillImage" />
      </cc:Work>
    </rdf:RDF>
  </metadata>
  <defs
     id="defs10" />
  <sodipodi:namedview
     pagecolor="#ffffff"
     bordercolor="#666666"
     borderopacity="1"
     objecttolerance="10"
     gridtolerance="10"
     guidetolerance="10"
     inkscape:pageopacity="0"
     inkscape:pageshadow="2"
     inkscape:window-width="1366"
     inkscape:window-height="689"
     id="namedview8"
     showgrid="false"
     inkscape:zoom="33.4375"
     inkscape:cx="8"
     inkscape:cy="8"
     inkscape:window-x="0"
     inkscape:window-y="0"
     inkscape:window-maximized="1"
     inkscape:current-layer="svg6" />
  <g
     transform="translate(-32,-100)"
     id="g4"
     style="fill:#111111;fill-opacity:1">
    <path
       d="m44.238 101-0.35351 0.35938-8.9688 9.0957-0.0293 0.0449c-0.0618 0.0987-0.27016 0.45-0.58399 1.0879-0.31382 0.63789-0.70008 1.5096-1.0117 2.4922l-0.29102 0.91994 0.91992-0.29102c0.9834-0.31169 1.8544-0.69795 2.4922-1.0117 0.63783-0.31377 0.98702-0.52071 1.0879-0.58399l0.0449-0.0293 9.4551-9.3223zm-8.3477 9.8906 1.2188 1.2188-0.17774 0.17578c7e-3 -5e-3 -0.37854 0.22717-0.96094 0.51367-0.2142 0.10537-0.53547 0.22256-0.83398 0.33789l-0.27344-0.27344c0.11532-0.29849 0.23249-0.61973 0.33789-0.83398 0.28659-0.58252 0.51751-0.96589 0.51367-0.96094z"
       id="path2"
       style="fill:#111111;fill-opacity:1" />
  </g>
</svg>
