<?xml version="1.0" encoding="UTF-8" standalone="no"?>
<svg
   xmlns:dc="http://purl.org/dc/elements/1.1/"
   xmlns:cc="http://creativecommons.org/ns#"
   xmlns:rdf="http://www.w3.org/1999/02/22-rdf-syntax-ns#"
   xmlns:svg="http://www.w3.org/2000/svg"
   xmlns="http://www.w3.org/2000/svg"
   xmlns:sodipodi="http://sodipodi.sourceforge.net/DTD/sodipodi-0.dtd"
   xmlns:inkscape="http://www.inkscape.org/namespaces/inkscape"
   version="1.1"
   viewBox="0 0 16 16"
   id="svg6"
   sodipodi:docname="document-print-direct.svg"
   inkscape:version="1.0.2 (e86c870879, 2021-01-15)">
  <metadata
     id="metadata12">
    <rdf:RDF>
      <cc:Work
         rdf:about="">
        <dc:format>image/svg+xml</dc:format>
        <dc:type
           rdf:resource="http://purl.org/dc/dcmitype/StillImage" />
        <dc:title></dc:title>
      </cc:Work>
    </rdf:RDF>
  </metadata>
  <defs
     id="defs10" />
  <sodipodi:namedview
     pagecolor="#ffffff"
     bordercolor="#666666"
     borderopacity="1"
     objecttolerance="10"
     gridtolerance="10"
     guidetolerance="10"
     inkscape:pageopacity="0"
     inkscape:pageshadow="2"
     inkscape:window-width="1366"
     inkscape:window-height="689"
     id="namedview8"
     showgrid="true"
     inkscape:zoom="23.643883"
     inkscape:cx="8"
     inkscape:cy="10.869277"
     inkscape:window-x="0"
     inkscape:window-y="0"
     inkscape:window-maximized="1"
     inkscape:current-layer="svg6"
     inkscape:document-rotation="0">
    <inkscape:grid
       type="xygrid"
       id="grid831" />
  </sodipodi:namedview>
  <g
     id="g899">
    <path
       id="path2"
       style="font-variant-ligatures:normal;font-variant-position:normal;font-variant-caps:normal;font-variant-numeric:normal;font-variant-alternates:normal;font-feature-settings:normal;text-indent:0;text-decoration:none;text-decoration-line:none;text-decoration-style:solid;text-decoration-color:#000000;text-transform:none;text-orientation:mixed;shape-padding:0;isolation:auto;mix-blend-mode:normal;fill:#111111;fill-opacity:1"
       d="m 3,0 v 4.0253906 c -0.75,0.018 -1.4105,0.06937 -1.9375,0.359375 C 0.67315,4.6069156 0.37598937,4.9608725 0.22460938,5.3828125 0.05960938,5.8218125 0,6.34299 0,7 v 3 c 0,0.658 0.05960837,1.179187 0.22460938,1.617188 0.164,0.439 0.46089062,0.790046 0.83789062,0.998046 0.282,0.156 0.5995,0.23411 0.9375,0.28711 v -1.025391 c -0.15767,-0.02368 -0.3109981,-0.0704 -0.4550781,-0.138672 -0.183,-0.1 -0.2867657,-0.212656 -0.3847657,-0.472656 C 1.0631563,11.005625 1,10.59198 1,10 V 7 c 0,-0.592 0.063152,-1.005625 0.1601562,-1.265625 0.098,-0.26 0.2017657,-0.3716563 0.3847657,-0.4726562 C 1.9099219,5.0597188 2.74,5.015 4,5 h 8 c 1.259,0.015 2.087125,0.059718 2.453125,0.2617188 0.184,0.1009999 0.289719,0.2136562 0.386719,0.4726562 C 14.936844,5.994375 15,6.40802 15,7 v 3 h 1 V 7 C 16,6.342 15.940391,5.8218125 15.775391,5.3828125 15.624011,4.9608725 15.32685,4.6069156 14.9375,4.3847656 14.4105,4.0947656 13.75,4.0433906 13,4.0253906 V 0 Z m 1,1 h 8 V 4 H 4 Z m 9.5,5 C 13.22386,6 13,6.22386 13,6.5 13,6.77614 13.22386,7 13.5,7 13.77614,7 14,6.77614 14,6.5 14,6.22386 13.77614,6 13.5,6 Z M 3,10 v 6 h 7 V 15 H 4 v -5 z m 4.2285156,3.177734 c -0.00456,1.48e-4 -0.00825,0.0038 -0.011719,0.0039 0,0 -0.00195,0 -0.00195,0 0,0 0,0.002 0,0.002 0,0 -0.00195,0.002 -0.00195,0.002 0.00562,-2.24e-4 0.010617,3.38e-4 0.015625,-0.002 0.032646,-0.0149 -0.074152,0.008 0,-0.0059 z m -0.015625,0.238282 c 0.00352,0.0084 0.00625,0.01698 0.00977,0.02539 -4.169e-4,-0.0019 4.348e-4,-0.004 0,-0.0059 -0.00126,-0.0024 -5.553e-4,-0.0055 -0.00195,-0.0078 -0.00454,-0.0074 -0.00368,-0.0049 -0.00781,-0.01172 z m 1.1699219,0.578125 c -0.00125,0.0024 -0.00459,0.0035 -0.00586,0.0059 h 0.011719 c -0.00209,-0.0018 -0.00377,-0.004 -0.00586,-0.0059 z" />
    <path
       d="m 11.5,11 10e-4,5 c 0.76,-0.348 1.535,-0.737 2.323,-1.166 A 44.09,44.09 0 0 0 16.083,13.5 51.555,51.555 0 0 0 13.823,12.18 43.088,43.088 0 0 0 11.5,11 Z"
       overflow="visible"
       id="path2-3" />
    <rect
       style="fill:#111111;stroke-width:0.999996"
       id="rect855"
       width="4"
       height="1"
       x="5"
       y="11"
       ry="0" />
    <rect
       style="fill:#111111;stroke-width:0.999996"
       id="rect855-3"
       width="4"
       height="1"
       x="5"
       y="13"
       ry="0" />
  </g>
</svg>
