<?xml version="1.0" encoding="UTF-8" standalone="no"?>
<svg
   xmlns:dc="http://purl.org/dc/elements/1.1/"
   xmlns:cc="http://creativecommons.org/ns#"
   xmlns:rdf="http://www.w3.org/1999/02/22-rdf-syntax-ns#"
   xmlns:svg="http://www.w3.org/2000/svg"
   xmlns="http://www.w3.org/2000/svg"
   xmlns:sodipodi="http://sodipodi.sourceforge.net/DTD/sodipodi-0.dtd"
   xmlns:inkscape="http://www.inkscape.org/namespaces/inkscape"
   viewBox="0 0 16 16"
   version="1.1"
   id="svg6"
   sodipodi:docname="document-save.svg"
   inkscape:version="1.0.2 (e86c870879, 2021-01-15)">
  <metadata
     id="metadata12">
    <rdf:RDF>
      <cc:Work
         rdf:about="">
        <dc:format>image/svg+xml</dc:format>
        <dc:type
           rdf:resource="http://purl.org/dc/dcmitype/StillImage" />
        <dc:title></dc:title>
      </cc:Work>
    </rdf:RDF>
  </metadata>
  <defs
     id="defs10" />
  <sodipodi:namedview
     pagecolor="#ffffff"
     bordercolor="#666666"
     borderopacity="1"
     objecttolerance="10"
     gridtolerance="10"
     guidetolerance="10"
     inkscape:pageopacity="0"
     inkscape:pageshadow="2"
     inkscape:window-width="1366"
     inkscape:window-height="689"
     id="namedview8"
     showgrid="true"
     inkscape:zoom="23.643883"
     inkscape:cx="8"
     inkscape:cy="8"
     inkscape:window-x="0"
     inkscape:window-y="0"
     inkscape:window-maximized="1"
     inkscape:current-layer="svg6"
     inkscape:document-rotation="0">
    <inkscape:grid
       type="xygrid"
       id="grid831" />
  </sodipodi:namedview>
  <g
     fill="#808080"
     id="g6"
     transform="rotate(180,8,8)">
    <path
       d="M 4.994,1 C 3.736,1.015 2.815,0.97 2.063,1.385 A 1.88,1.88 0 0 0 1.225,2.383 C 1.06,2.822 1,3.343 1,4 v 8.207 L 1.147,12.354 3.793,15 h 7.213 c 1.258,-0.015 2.179,0.03 2.932,-0.385 a 1.88,1.88 0 0 0 0.838,-0.998 C 14.94,13.179 15,12.657 15,12 V 4 C 15,3.342 14.94,2.822 14.775,2.383 A 1.88,1.88 0 0 0 13.938,1.385 C 13.185,0.969 12.264,1.015 11.006,1 H 4.998 Z M 5,2 h 6 c 1.259,0.015 2.09,0.06 2.455,0.262 0.184,0.101 0.287,0.213 0.385,0.472 C 13.937,2.994 14,3.408 14,4 v 8 c 0,0.592 -0.063,1.006 -0.16,1.266 -0.098,0.26 -0.201,0.371 -0.385,0.472 -0.367,0.203 -1.197,0.247 -2.46,0.262 H 4.206 L 2,11.793 V 4 C 2,3.408 2.063,2.994 2.16,2.734 2.258,2.474 2.364,2.363 2.547,2.262 2.913,2.06 3.742,2.015 5,2 Z"
       font-family="sans-serif"
       font-weight="400"
       overflow="visible"
       style="font-variant-ligatures:normal;font-variant-position:normal;font-variant-caps:normal;font-variant-numeric:normal;font-variant-alternates:normal;font-feature-settings:normal;text-indent:0;text-decoration:none;text-decoration-line:none;text-decoration-style:solid;text-decoration-color:#000000;text-transform:none;text-orientation:mixed;shape-padding:0;isolation:auto;mix-blend-mode:normal;fill:#111111;fill-opacity:1"
       white-space="normal"
       id="path2" />
    <path
       d="m 4,9 v 5 h 2 v -4 h 2 v 4 h 4 V 9 Z"
       id="path4"
       style="fill:#111111;fill-opacity:1" />
  </g>
</svg>
