<?xml version="1.0" encoding="UTF-8" standalone="no"?>
<svg
   xmlns:dc="http://purl.org/dc/elements/1.1/"
   xmlns:cc="http://creativecommons.org/ns#"
   xmlns:rdf="http://www.w3.org/1999/02/22-rdf-syntax-ns#"
   xmlns:svg="http://www.w3.org/2000/svg"
   xmlns="http://www.w3.org/2000/svg"
   xmlns:sodipodi="http://sodipodi.sourceforge.net/DTD/sodipodi-0.dtd"
   xmlns:inkscape="http://www.inkscape.org/namespaces/inkscape"
   version="1.1"
   viewBox="0 0 16 16.003"
   id="svg6"
   sodipodi:docname="document-new-symbolic.svg"
   inkscape:version="1.0.2 (e86c870879, 2021-01-15)">
  <metadata
     id="metadata12">
    <rdf:RDF>
      <cc:Work
         rdf:about="">
        <dc:format>image/svg+xml</dc:format>
        <dc:type
           rdf:resource="http://purl.org/dc/dcmitype/StillImage" />
      </cc:Work>
    </rdf:RDF>
  </metadata>
  <defs
     id="defs10" />
  <sodipodi:namedview
     pagecolor="#ffffff"
     bordercolor="#666666"
     borderopacity="1"
     objecttolerance="10"
     gridtolerance="10"
     guidetolerance="10"
     inkscape:pageopacity="0"
     inkscape:pageshadow="2"
     inkscape:window-width="1366"
     inkscape:window-height="689"
     id="namedview8"
     showgrid="true"
     inkscape:zoom="23.63945"
     inkscape:cx="1.1681998"
     inkscape:cy="8.0015001"
     inkscape:window-x="0"
     inkscape:window-y="0"
     inkscape:window-maximized="1"
     inkscape:current-layer="svg6">
    <inkscape:grid
       type="xygrid"
       id="grid14" />
  </sodipodi:namedview>
  <g
     transform="translate(-152 -180)"
     id="g4">
    <path
       d="m157 180c-1.25 0-2.1748-0.0444-2.9297 0.375-0.37746 0.2097-0.67538 0.56341-0.84179 1.0039-0.16642 0.4405-0.22852 0.96276-0.22852 1.6211v10c0 0.65833 0.0621 1.1806 0.22852 1.6211 0.16641 0.4405 0.46433 0.79421 0.84179 1.0039 0.75493 0.4194 1.6797 0.375 2.9297 0.375h5v-1h-5c-1.25 0-2.0752-0.0444-2.4453-0.25-0.18504-0.1028-0.29337-0.21784-0.39258-0.48047-0.09921-0.26262-0.16211-0.67786-0.16211-1.2695v-10c0-0.59167 0.0629-1.0069 0.16211-1.2695 0.0992-0.26263 0.20754-0.37767 0.39258-0.48047 0.37007-0.2056 1.1953-0.25 2.4453-0.25h5v4h4v5h1v-5.75l-4.25-4.25zm8 11v2h-2v1h2v2h1v-2h2v-1h-2v-2z"
       style="isolation:auto;mix-blend-mode:normal;text-decoration-color:#000000;text-decoration-line:none;text-decoration-style:solid;text-indent:0;text-transform:none;white-space:normal;fill:#111111;fill-opacity:1"
       id="path2" />
  </g>
</svg>
