<?xml version="1.0" encoding="UTF-8" standalone="no"?>
<svg
   xmlns:dc="http://purl.org/dc/elements/1.1/"
   xmlns:cc="http://creativecommons.org/ns#"
   xmlns:rdf="http://www.w3.org/1999/02/22-rdf-syntax-ns#"
   xmlns:svg="http://www.w3.org/2000/svg"
   xmlns="http://www.w3.org/2000/svg"
   xmlns:sodipodi="http://sodipodi.sourceforge.net/DTD/sodipodi-0.dtd"
   xmlns:inkscape="http://www.inkscape.org/namespaces/inkscape"
   viewBox="0 0 16 16"
   version="1.1"
   id="svg4"
   sodipodi:docname="edit-undo.svg"
   inkscape:version="1.0.2 (e86c870879, 2021-01-15)">
  <metadata
     id="metadata10">
    <rdf:RDF>
      <cc:Work
         rdf:about="">
        <dc:format>image/svg+xml</dc:format>
        <dc:type
           rdf:resource="http://purl.org/dc/dcmitype/StillImage" />
        <dc:title></dc:title>
      </cc:Work>
    </rdf:RDF>
  </metadata>
  <defs
     id="defs8" />
  <sodipodi:namedview
     pagecolor="#ffffff"
     bordercolor="#666666"
     borderopacity="1"
     objecttolerance="10"
     gridtolerance="10"
     guidetolerance="10"
     inkscape:pageopacity="0"
     inkscape:pageshadow="2"
     inkscape:window-width="1366"
     inkscape:window-height="689"
     id="namedview6"
     showgrid="true"
     inkscape:zoom="11.821942"
     inkscape:cx="10.944661"
     inkscape:cy="14.04799"
     inkscape:window-x="0"
     inkscape:window-y="0"
     inkscape:window-maximized="1"
     inkscape:current-layer="svg4"
     inkscape:document-rotation="0">
    <inkscape:grid
       type="xygrid"
       id="grid837" />
  </sodipodi:namedview>
  <g
     id="g893">
    <g
       transform="matrix(-0.70710678,0.70710678,0.70710678,0.70710678,-167.58002,-279.5879)"
       fill="#808080"
       id="g6">
      <path
         d="m 73.307,322.09 3.3062,3.3041 c 0.27285,-0.73247 0.52745,-1.5013 0.76438,-2.3064 0.23135,-0.80088 0.4355,-1.5924 0.6118,-2.3746 -0.77612,0.18236 -1.5649,0.38932 -2.3657,0.62067 -0.80553,0.23708 -1.5776,0.48909 -2.3164,0.75607 z"
         color="#000000"
         id="path2"
         style="fill:#111111;fill-opacity:1" />
      <path
         id="path4"
         style="font-variant-ligatures:normal;font-variant-position:normal;font-variant-caps:normal;font-variant-numeric:normal;font-variant-alternates:normal;font-feature-settings:normal;text-indent:0;text-decoration:none;text-decoration-line:none;text-decoration-style:solid;text-decoration-color:#000000;text-transform:none;text-orientation:mixed;white-space:normal;shape-padding:0;isolation:auto;mix-blend-mode:normal;fill:#111111;fill-opacity:1"
         transform="matrix(-0.70710678,0.70710678,0.70710678,0.70710678,79.201532,316.19547)"
         d="M 7.4121094,1.921875 C 7.1315048,1.936817 6.8502387,1.969831 6.5683594,2.019531 L 6.0761719,2.1054688 6.25,3.0917969 6.7421875,3.0058594 c 2.5808761,-0.4550303 5.1551345,0.8121335 6.3652345,3.1367187 1.210072,2.3246136 0.773108,5.1604869 -1.080078,7.0136719 -1.337523,1.337521 -3.1743712,1.923536 -5.0273444,1.695312 0,0.317026 0,0.583071 0,0.88086 -0.0036,0.03391 0.00357,0.06766 0,0.101562 2.1364182,0.256847 4.1816944,-0.418021 5.7343754,-1.970703 2.158868,-2.158867 2.669539,-5.4735063 1.259766,-8.1816404 C 13.641733,5.0046428 13.189349,4.4041911 12.662109,3.8925781 11.278098,2.5496498 9.3763415,1.8172838 7.4121094,1.921875 Z"
         sodipodi:nodetypes="scccccscccsccs" />
    </g>
  </g>
</svg>
