<?xml version="1.0" encoding="UTF-8" standalone="no"?>
<svg
   xmlns:dc="http://purl.org/dc/elements/1.1/"
   xmlns:cc="http://creativecommons.org/ns#"
   xmlns:rdf="http://www.w3.org/1999/02/22-rdf-syntax-ns#"
   xmlns:svg="http://www.w3.org/2000/svg"
   xmlns="http://www.w3.org/2000/svg"
   xmlns:sodipodi="http://sodipodi.sourceforge.net/DTD/sodipodi-0.dtd"
   xmlns:inkscape="http://www.inkscape.org/namespaces/inkscape"
   version="1.1"
   viewBox="0 0 16 16"
   id="svg4"
   sodipodi:docname="application-rss+xml-symbolic.svg"
   inkscape:version="1.0.2 (e86c870879, 2021-01-15)">
  <metadata
     id="metadata10">
    <rdf:RDF>
      <cc:Work
         rdf:about="">
        <dc:format>image/svg+xml</dc:format>
        <dc:type
           rdf:resource="http://purl.org/dc/dcmitype/StillImage" />
      </cc:Work>
    </rdf:RDF>
  </metadata>
  <defs
     id="defs8" />
  <sodipodi:namedview
     pagecolor="#ffffff"
     bordercolor="#666666"
     borderopacity="1"
     objecttolerance="10"
     gridtolerance="10"
     guidetolerance="10"
     inkscape:pageopacity="0"
     inkscape:pageshadow="2"
     inkscape:window-width="1366"
     inkscape:window-height="689"
     id="namedview6"
     showgrid="false"
     inkscape:zoom="33.4375"
     inkscape:cx="8"
     inkscape:cy="8"
     inkscape:window-x="0"
     inkscape:window-y="0"
     inkscape:window-maximized="1"
     inkscape:current-layer="svg4" />
  <path
     d="m1.09 13.463c0-0.43114 0.14803-0.79349 0.447-1.0845a1.4812 1.4812 0 0 1 1.0871-0.44435c0.42054 0 0.77497 0.14818 1.0659 0.44435 0.29623 0.29097 0.44437 0.65331 0.44437 1.0845a1.4653 1.4653 0 0 1-0.44437 1.0739 1.4495 1.4495 0 0 1-1.0659 0.43642 1.4944 1.4944 0 0 1-1.0871-0.43642 1.4495 1.4495 0 0 1-0.447-1.0739m-0.08733-6.9035v2.5445c3.2481 0 5.8851 2.6423 5.8851 5.8957h2.5498c0-4.6605-3.7823-8.4375-8.4375-8.4375zm0.0031-5.5598v2.8116a11.186 11.186 0 0 1 11.172 11.188h2.8196a14.003 14.003 0 0 0-13.992-14z"
     id="path2"
     style="fill:#111111;fill-opacity:1" />
</svg>
