<?xml version="1.0" encoding="UTF-8" standalone="no"?>
<svg
   xmlns:dc="http://purl.org/dc/elements/1.1/"
   xmlns:cc="http://creativecommons.org/ns#"
   xmlns:rdf="http://www.w3.org/1999/02/22-rdf-syntax-ns#"
   xmlns:svg="http://www.w3.org/2000/svg"
   xmlns="http://www.w3.org/2000/svg"
   xmlns:sodipodi="http://sodipodi.sourceforge.net/DTD/sodipodi-0.dtd"
   xmlns:inkscape="http://www.inkscape.org/namespaces/inkscape"
   version="1.1"
   viewBox="0 0 16 16"
   id="svg6"
   sodipodi:docname="filename-group-length.svg"
   inkscape:version="1.0.2 (e86c870879, 2021-01-15)">
  <metadata
     id="metadata12">
    <rdf:RDF>
      <cc:Work
         rdf:about="">
        <dc:format>image/svg+xml</dc:format>
        <dc:type
           rdf:resource="http://purl.org/dc/dcmitype/StillImage" />
        <dc:title></dc:title>
      </cc:Work>
    </rdf:RDF>
  </metadata>
  <defs
     id="defs10" />
  <sodipodi:namedview
     pagecolor="#ffffff"
     bordercolor="#666666"
     borderopacity="1"
     objecttolerance="10"
     gridtolerance="10"
     guidetolerance="10"
     inkscape:pageopacity="0"
     inkscape:pageshadow="2"
     inkscape:window-width="1366"
     inkscape:window-height="689"
     id="namedview8"
     showgrid="true"
     inkscape:zoom="8.359375"
     inkscape:cx="12.445638"
     inkscape:cy="8.4697483"
     inkscape:window-x="0"
     inkscape:window-y="0"
     inkscape:window-maximized="1"
     inkscape:current-layer="svg6"
     inkscape:document-rotation="0">
    <inkscape:grid
       type="xygrid"
       id="grid869" />
  </sodipodi:namedview>
  <g
     id="g947">
    <g
       transform="translate(-373,-40)"
       id="g4">
      <path
         id="path2"
         style="fill:#111111;fill-opacity:1"
         d="m 377.99414,40 c -1.2581,0.01507 -2.17892,-0.02842 -2.93164,0.386719 -0.37636,0.20756 -0.67321,0.557484 -0.83789,0.996093 C 374.0599,41.821412 374,42.34239 374,43 v 10 c 0,0.65762 0.0599,1.178514 0.22461,1.617188 0.16466,0.43867 0.46152,0.790386 0.83789,0.998046 0.7527,0.41533 1.67344,0.370236 2.93164,0.384766 h 0.004 6.00586 0.002 c 1.258,-0.01507 2.17892,0.02841 2.93164,-0.386719 0.37636,-0.20756 0.67321,-0.557485 0.83789,-0.996093 0.16471,-0.4386 0.22461,-0.959578 0.22461,-1.617188 V 45 44.25 L 383.75,40 H 383 377.99609 Z M 378,41 h 0.006 4.994 v 4 h 2 2 v 8 c 0,0.59237 -0.0626,1.005825 -0.16015,1.265625 -0.0975,0.2598 -0.20135,0.371496 -0.38477,0.472656 C 386.08908,54.940121 385.2586,54.98477 384,55 h -6 c -1.2585,-0.0147 -2.08912,-0.05981 -2.45508,-0.261719 -0.18341,-0.1012 -0.28716,-0.212746 -0.38476,-0.472656 C 375.0626,54.005725 375,53.59239 375,53 V 43 c 0,-0.59237 0.0626,-1.005825 0.16016,-1.265625 0.0975,-0.2598 0.20134,-0.371496 0.38476,-0.472656 C 375.91092,41.059879 376.7414,41.01523 378,41 Z m 6.36523,5.330078 c 0.0199,0.04336 0.0418,0.08678 0.0645,0.128906 -3e-5,-0.003 -0.002,-0.0089 -0.002,-0.01172 -0.0207,-0.03879 -0.0808,-0.157127 -0.0625,-0.117186 z M 385,50.992188 c -0.002,0.0024 -0.002,0.0054 -0.004,0.0078 H 385 Z" />
    </g>
    <path
       d="m 8,6 c -2.204,0 -4,1.796 -4,4 0,2.204 1.796,4 4,4 2.204,0 4,-1.796 4,-4 C 12,7.796 10.204,6 8,6 Z M 8,6.832 A 3.1632,3.1632 0 0 1 11.168,10 3.1632,3.1632 0 0 1 8,13.168 3.1632,3.1632 0 0 1 4.832,10 3.1632,3.1632 0 0 1 8,6.832 Z"
       overflow="visible"
       style="font-variant-ligatures:normal;font-variant-position:normal;font-variant-caps:normal;font-variant-numeric:normal;font-variant-alternates:normal;font-feature-settings:normal;text-indent:0;text-decoration:none;text-decoration-line:none;text-decoration-style:solid;text-decoration-color:#000000;text-transform:none;text-orientation:mixed;shape-padding:0;isolation:auto;mix-blend-mode:normal;stroke-width:0.8"
       id="path4" />
    <rect
       style="fill:#111111;fill-opacity:1;stroke:none;stroke-width:0.092;stroke-miterlimit:4;stroke-dasharray:none;stroke-opacity:1"
       id="rect920"
       width="1"
       height="2"
       x="7.5"
       y="8"
       ry="0" />
    <rect
       style="fill:#111111;fill-opacity:1;stroke:none;stroke-width:0.092;stroke-miterlimit:4;stroke-dasharray:none;stroke-opacity:1"
       id="rect920-7"
       width="1"
       height="2"
       x="-1.7727925"
       y="12.379394"
       ry="0"
       transform="rotate(-45)" />
  </g>
</svg>
