<?xml version="1.0" encoding="UTF-8" standalone="no"?>
<svg
   xmlns:dc="http://purl.org/dc/elements/1.1/"
   xmlns:cc="http://creativecommons.org/ns#"
   xmlns:rdf="http://www.w3.org/1999/02/22-rdf-syntax-ns#"
   xmlns:svg="http://www.w3.org/2000/svg"
   xmlns="http://www.w3.org/2000/svg"
   xmlns:sodipodi="http://sodipodi.sourceforge.net/DTD/sodipodi-0.dtd"
   xmlns:inkscape="http://www.inkscape.org/namespaces/inkscape"
   viewBox="0 0 16 16"
   version="1.1"
   id="svg8"
   sodipodi:docname="folder-open-recent.svg"
   inkscape:version="1.0.2 (e86c870879, 2021-01-15)">
  <metadata
     id="metadata14">
    <rdf:RDF>
      <cc:Work
         rdf:about="">
        <dc:format>image/svg+xml</dc:format>
        <dc:type
           rdf:resource="http://purl.org/dc/dcmitype/StillImage" />
        <dc:title />
      </cc:Work>
    </rdf:RDF>
  </metadata>
  <defs
     id="defs12" />
  <sodipodi:namedview
     pagecolor="#ffffff"
     bordercolor="#666666"
     borderopacity="1"
     objecttolerance="10"
     gridtolerance="10"
     guidetolerance="10"
     inkscape:pageopacity="0"
     inkscape:pageshadow="2"
     inkscape:window-width="1366"
     inkscape:window-height="689"
     id="namedview10"
     showgrid="true"
     inkscape:zoom="16.718751"
     inkscape:cx="19.018578"
     inkscape:cy="12.011378"
     inkscape:window-x="0"
     inkscape:window-y="0"
     inkscape:window-maximized="1"
     inkscape:current-layer="svg8"
     inkscape:document-rotation="0">
    <inkscape:grid
       type="xygrid"
       id="grid879" />
  </sodipodi:namedview>
  <g
     id="g842">
    <g
       fill="gray"
       font-family="sans-serif"
       font-weight="400"
       white-space="normal"
       id="g6"
       style="fill:#111111;fill-opacity:1">
      <path
         d="M 3.994,1 C 2.736,1.015 1.815,0.971 1.062,1.387 0.67211348,1.60812 0.37416981,1.961396 0.222,2.383 0.059,2.82 0,3.343 0,4 v 8 c 0,0.658 0.058,1.179 0.223,1.617 0.164,0.439 0.463,0.79 0.84,0.998 0.752,0.416 1.673,0.37 2.931,0.385 H 7 V 14 H 4 C 2.74,13.985 1.913,13.94 1.547,13.738 1.364,13.638 1.257,13.526 1.16,13.266 1.063,13.006 1,12.592 1,12 V 8 C 1,7.408 1.064,6.994 1.162,6.734 1.26,6.474 1.365,6.363 1.549,6.262 1.916,6.059 2.744,6.015 4.008,6 H 7.443 L 9.465,4 h 2.527 c 1.264,0.015 2.092,0.06 2.46,0.262 0.183,0.1 0.288,0.212 0.386,0.472 C 14.936,4.994 15,5.408 15,6 v 1 h 1 V 6 C 16,5.342 15.942,4.821 15.777,4.383 15.757,4.328 15.729,4.279 15.703,4.229 L 15.676,4.172 C 15.514266,3.8417474 15.257189,3.5676008 14.938,3.385 14.185,2.969 13.264,3.015 12.006,3 H 8.967 L 6.945,1 H 3.996 Z m 0.012,1 h 2.53 L 8.3,3.746 7.033,5 H 3.994 C 2.736,5.014 1.815,4.97 1.062,5.385 1.04,5.397 1.022,5.415 1,5.428 V 4 C 1,3.408 1.062,2.994 1.16,2.734 1.258,2.474 1.363,2.363 1.547,2.262 1.913,2.059 2.742,2.015 4.006,2 Z"
         overflow="visible"
         style="font-variant-ligatures:none;font-variant-position:normal;font-variant-caps:normal;font-variant-numeric:normal;font-variant-alternates:normal;font-feature-settings:normal;text-indent:0;text-decoration:none;text-decoration-line:none;text-decoration-style:solid;text-decoration-color:#000000;text-transform:none;shape-padding:0;isolation:auto;mix-blend-mode:normal;fill:#111111;fill-opacity:1"
         id="path2"
         sodipodi:nodetypes="cccsscccccccssssccccccssccsccccccccccccccccsscc" />
    </g>
    <path
       id="path13"
       style="fill:#111111;stroke-width:0.0796743"
       d="m 11.514316,7 a 4.5,4.5 0 0 0 -4.5,4.5 4.5,4.5 0 0 0 4.5,4.5 4.5,4.5 0 0 0 4.5,-4.5 4.5,4.5 0 0 0 -4.5,-4.5 z m 0,1 a 3.5,3.5 0 0 1 3.5,3.5 3.5,3.5 0 0 1 -3.5,3.5 3.5,3.5 0 0 1 -3.5,-3.5 3.5,3.5 0 0 1 3.5,-3.5 z" />
    <path
       id="rect920-3"
       style="fill:#111111;fill-opacity:1;stroke:none;stroke-width:0.075118;stroke-miterlimit:4;stroke-dasharray:none;stroke-opacity:1"
       transform="rotate(-60)"
       d="m -4.8923049,15.526279 h 1 v 2 h -1 z m 2.5980763,-1.5 0.5,0.866026 -2.5980762,1.5 -0.5,-0.866026 z" />
  </g>
</svg>
