<?xml version="1.0" encoding="UTF-8" standalone="no"?>
<svg
   xmlns:dc="http://purl.org/dc/elements/1.1/"
   xmlns:cc="http://creativecommons.org/ns#"
   xmlns:rdf="http://www.w3.org/1999/02/22-rdf-syntax-ns#"
   xmlns:svg="http://www.w3.org/2000/svg"
   xmlns="http://www.w3.org/2000/svg"
   xmlns:sodipodi="http://sodipodi.sourceforge.net/DTD/sodipodi-0.dtd"
   xmlns:inkscape="http://www.inkscape.org/namespaces/inkscape"
   viewBox="0 0 16 16"
   version="1.1"
   id="svg8"
   sodipodi:docname="folder-sync.svg"
   inkscape:version="1.0.2 (e86c870879, 2021-01-15)">
  <metadata
     id="metadata14">
    <rdf:RDF>
      <cc:Work
         rdf:about="">
        <dc:format>image/svg+xml</dc:format>
        <dc:type
           rdf:resource="http://purl.org/dc/dcmitype/StillImage" />
        <dc:title />
      </cc:Work>
    </rdf:RDF>
  </metadata>
  <defs
     id="defs12" />
  <sodipodi:namedview
     pagecolor="#ffffff"
     bordercolor="#666666"
     borderopacity="1"
     objecttolerance="10"
     gridtolerance="10"
     guidetolerance="10"
     inkscape:pageopacity="0"
     inkscape:pageshadow="2"
     inkscape:window-width="1366"
     inkscape:window-height="704"
     id="namedview10"
     showgrid="true"
     inkscape:zoom="16.71875"
     inkscape:cx="21.028339"
     inkscape:cy="13.319868"
     inkscape:window-x="0"
     inkscape:window-y="27"
     inkscape:window-maximized="1"
     inkscape:current-layer="svg8"
     inkscape:document-rotation="0">
    <inkscape:grid
       type="xygrid"
       id="grid879" />
  </sodipodi:namedview>
  <g
     id="g982">
    <g
       fill="gray"
       font-family="sans-serif"
       font-weight="400"
       white-space="normal"
       id="g6"
       style="fill:#111111;fill-opacity:1">
      <path
         d="M 3.994,1 C 2.736,1.015 1.815,0.971 1.062,1.387 0.67211348,1.60812 0.37416981,1.961396 0.222,2.383 0.059,2.82 0,3.343 0,4 v 8 c 0,0.658 0.058,1.179 0.223,1.617 0.164,0.439 0.463,0.79 0.84,0.998 0.752,0.416 1.673,0.37 2.931,0.385 H 7 V 14 H 4 C 2.74,13.985 1.913,13.94 1.547,13.738 1.364,13.638 1.257,13.526 1.16,13.266 1.063,13.006 1,12.592 1,12 V 8 C 1,7.408 1.064,6.994 1.162,6.734 1.26,6.474 1.365,6.363 1.549,6.262 1.916,6.059 2.744,6.015 4.008,6 H 7.443 L 9.465,4 h 2.527 c 1.264,0.015 2.092,0.06 2.46,0.262 0.183,0.1 0.288,0.212 0.386,0.472 C 14.936,4.994 15,5.408 15,6 v 1 h 1 V 6 C 16,5.342 15.942,4.821 15.777,4.383 15.757,4.328 15.729,4.279 15.703,4.229 L 15.676,4.172 C 15.514266,3.8417474 15.257189,3.5676008 14.938,3.385 14.185,2.969 13.264,3.015 12.006,3 H 8.967 L 6.945,1 H 3.996 Z m 0.012,1 h 2.53 L 8.3,3.746 7.033,5 H 3.994 C 2.736,5.014 1.815,4.97 1.062,5.385 1.04,5.397 1.022,5.415 1,5.428 V 4 C 1,3.408 1.062,2.994 1.16,2.734 1.258,2.474 1.363,2.363 1.547,2.262 1.913,2.059 2.742,2.015 4.006,2 Z"
         overflow="visible"
         style="font-variant-ligatures:none;font-variant-position:normal;font-variant-caps:normal;font-variant-numeric:normal;font-variant-alternates:normal;font-feature-settings:normal;text-indent:0;text-decoration:none;text-decoration-line:none;text-decoration-style:solid;text-decoration-color:#000000;text-transform:none;shape-padding:0;isolation:auto;mix-blend-mode:normal;fill:#111111;fill-opacity:1"
         id="path2"
         sodipodi:nodetypes="cccsscccccccssssccccccssccsccccccccccccccccsscc" />
    </g>
    <path
       id="path928"
       style="opacity:1;fill:#111111;fill-opacity:1;fill-rule:evenodd;stroke-width:1.77972;stroke-linejoin:round"
       d="M 12.183594 8.0058594 C 12.006487 7.9974115 11.830186 8.0003443 11.652344 8.015625 C 11.632224 8.017235 11.611887 8.0195744 11.591797 8.0214844 C 9.4175385 8.2449183 7.8248781 10.17224 8.015625 12.349609 C 8.077459 13.061218 8.3276114 13.742552 8.7421875 14.324219 L 9.6503906 13.890625 C 9.423737 13.505007 9.0501077 12.707364 9.0117188 12.261719 C 8.8687913 10.630745 10.059155 9.1859057 11.6875 9.015625 C 11.70435 9.014005 11.721401 9.0130486 11.738281 9.0117188 C 12.16604 8.9751753 12.595918 9.0357127 13 9.1796875 L 13 8.1308594 C 12.733035 8.061689 12.459536 8.0190217 12.183594 8.0058594 z M 15.253906 9.6777344 L 14.4375 10.216797 C 14.664812 10.602202 14.949272 11.29254 14.988281 11.738281 C 15.132685 13.38883 13.912268 14.843877 12.261719 14.988281 C 11.834168 15.025953 11.4043 14.966993 11 14.824219 L 11 15.863281 C 11.438975 15.976826 11.892249 16.024334 12.347656 15.984375 C 14.548389 15.791836 16.176914 13.853077 15.984375 11.652344 C 15.921045 10.941169 15.669426 10.258359 15.253906 9.6777344 z " />
    <path
       d="m 15.995364,9.3836139 -2.165065,1.2500001 c -0.03956,-0.416523 -0.06462,-0.8489261 -0.07611,-1.2978221 -0.0084,-0.4455006 -0.0042,-0.8832408 0.01289,-1.3116763 0.375672,0.2016869 0.7547,0.4181738 1.13659,0.6485885 0.383192,0.2337178 0.747119,0.4710478 1.091707,0.7108838 z"
       overflow="visible"
       id="path12"
       style="stroke-width:0.5" />
    <path
       d="m 8.000012,14.6 2.165065,-1.25 c 0.03956,0.416523 0.06462,0.848926 0.07611,1.297822 0.0084,0.445501 0.0042,0.883241 -0.01289,1.311676 C 9.852625,15.757811 9.473597,15.541324 9.091707,15.310909 8.708515,15.077192 8.344588,14.839862 8,14.600026 Z"
       overflow="visible"
       id="path12-6"
       style="stroke-width:0.5" />
  </g>
</svg>
