<?xml version="1.0" encoding="UTF-8" standalone="no"?>
<svg
   xmlns:dc="http://purl.org/dc/elements/1.1/"
   xmlns:cc="http://creativecommons.org/ns#"
   xmlns:rdf="http://www.w3.org/1999/02/22-rdf-syntax-ns#"
   xmlns:svg="http://www.w3.org/2000/svg"
   xmlns="http://www.w3.org/2000/svg"
   xmlns:sodipodi="http://sodipodi.sourceforge.net/DTD/sodipodi-0.dtd"
   xmlns:inkscape="http://www.inkscape.org/namespaces/inkscape"
   version="1.1"
   viewBox="0 0 16 16"
   id="svg8"
   sodipodi:docname="games-achievements.svg"
   inkscape:version="1.0.2 (e86c870879, 2021-01-15)">
  <metadata
     id="metadata14">
    <rdf:RDF>
      <cc:Work
         rdf:about="">
        <dc:format>image/svg+xml</dc:format>
        <dc:type
           rdf:resource="http://purl.org/dc/dcmitype/StillImage" />
        <dc:title></dc:title>
      </cc:Work>
    </rdf:RDF>
  </metadata>
  <defs
     id="defs12" />
  <sodipodi:namedview
     pagecolor="#ffffff"
     bordercolor="#666666"
     borderopacity="1"
     objecttolerance="10"
     gridtolerance="10"
     guidetolerance="10"
     inkscape:pageopacity="0"
     inkscape:pageshadow="2"
     inkscape:window-width="1366"
     inkscape:window-height="689"
     id="namedview10"
     showgrid="true"
     inkscape:zoom="23.643883"
     inkscape:cx="8"
     inkscape:cy="8"
     inkscape:window-x="0"
     inkscape:window-y="0"
     inkscape:window-maximized="1"
     inkscape:current-layer="svg8"
     inkscape:document-rotation="0">
    <inkscape:grid
       type="xygrid"
       id="grid9" />
  </sodipodi:namedview>
  <path
     d="M 7.106648,0 6.330486,1.001615 5.097511,0.7209745 4.7628704,1.9409899 3.5158017,2.154724 3.6742286,3.409992 2.6033602,4.085167 3.2315746,5.184235 2.5,6.217584 3.4992817,6.992625 3.2210012,8.22672 4.4410432,8.560214 4.6547369,9.80723 5.1432044,9.74506 v 6.254944 l 2.6901376,-2.015203 2.666671,2.015203 V 9.745327 l 0.466668,0.06133 0.0938,-0.922695 1.247015,-0.214867 -0.1596,-1.255268 L 13.218765,6.739892 12.591697,5.639597 13.322071,4.607435 12.32279,3.831301 12.602257,2.598325 11.382228,2.26367 11.168494,1.0177617 9.913212,1.1761886 9.238051,0.1052935 8.138969,0.7323879 Z m 0.726694,2.589204 c 1.660136,-2e-6 3.083739,1.345869 3.083739,3.006005 -7e-6,1.660136 -1.423603,3.006005 -3.083739,3.006005 C 6.173206,8.601216 4.9049373,7.255345 4.9049373,5.595209 4.9049445,3.935073 6.173126,2.589204 7.833342,2.589204 Z"
     color="#4d4d4d"
     color-rendering="auto"
     enable-background="new"
     fill-rule="evenodd"
     image-rendering="auto"
     shape-rendering="auto"
     solid-color="#000000"
     stroke-width="0.601214"
     style="isolation:auto;mix-blend-mode:normal"
     id="path4" />
</svg>
