<?xml version="1.0" encoding="UTF-8" standalone="no"?>
<svg
   xmlns:dc="http://purl.org/dc/elements/1.1/"
   xmlns:cc="http://creativecommons.org/ns#"
   xmlns:rdf="http://www.w3.org/1999/02/22-rdf-syntax-ns#"
   xmlns:svg="http://www.w3.org/2000/svg"
   xmlns="http://www.w3.org/2000/svg"
   xmlns:sodipodi="http://sodipodi.sourceforge.net/DTD/sodipodi-0.dtd"
   xmlns:inkscape="http://www.inkscape.org/namespaces/inkscape"
   version="1.1"
   viewBox="0 0 16.015 16"
   id="svg10"
   sodipodi:docname="system-run.svg"
   inkscape:version="1.0.2 (e86c870879, 2021-01-15)">
  <metadata
     id="metadata16">
    <rdf:RDF>
      <cc:Work
         rdf:about="">
        <dc:format>image/svg+xml</dc:format>
        <dc:type
           rdf:resource="http://purl.org/dc/dcmitype/StillImage" />
        <dc:title />
      </cc:Work>
    </rdf:RDF>
  </metadata>
  <defs
     id="defs14" />
  <sodipodi:namedview
     pagecolor="#ffffff"
     bordercolor="#666666"
     borderopacity="1"
     objecttolerance="10"
     gridtolerance="10"
     guidetolerance="10"
     inkscape:pageopacity="0"
     inkscape:pageshadow="2"
     inkscape:window-width="1366"
     inkscape:window-height="690"
     id="namedview12"
     showgrid="true"
     inkscape:zoom="23.643883"
     inkscape:cx="8.2150396"
     inkscape:cy="8.8496803"
     inkscape:window-x="0"
     inkscape:window-y="0"
     inkscape:window-maximized="1"
     inkscape:current-layer="svg10"
     inkscape:document-rotation="0">
    <inkscape:grid
       type="xygrid"
       id="grid841" />
  </sodipodi:namedview>
  <path
     inkscape:connector-curvature="0"
     id="path4205"
     d="m 6,5 v 6 C 6,11 8.719912,9.666222 11,8 8.719912,6.333778 6,5 6,5 Z"
     style="color:#000000;fill:#111111;fill-opacity:1;stroke-width:0.521592"
     sodipodi:nodetypes="cccc" />
  <path
     style="color:#000000;solid-opacity:1;fill:#111111;fill-opacity:1;stroke-width:0.695593"
     d="M 14.389089,6.2905358 C 13.44577,2.7709218 9.8181172,0.67704685 6.2977232,1.6200918 c -3.520393,0.943045 -5.61515504,4.569844 -4.671836,8.089457 0.943319,3.5196112 4.5713,5.6133982 8.091694,4.6703532 3.5203938,-0.943045 5.6148268,-4.5697552 4.6715078,-8.0893662 z m -0.671903,0.179989 c 0.845978,3.15642 -1.02233,6.3917042 -4.1796808,7.2374972 -3.157351,0.845794 -6.393738,-1.022044 -7.239715,-4.1784632 -0.845977,-3.156423 1.022658,-6.391794 4.180009,-7.237587 3.157352,-0.845793 6.3934098,1.022131 7.2393868,4.178553 z"
     id="circle4169"
     inkscape:connector-curvature="0" />
  <path
     id="path4181"
     d="M 8.0020662,-1.9589453e-7 C 7.3306112,-1.9589453e-7 7.1020642,0.0123398 7.0082652,0.5984548 l -0.03566,0.207183 c -0.08862,0.409293 -0.146349,0.59819 -0.714953,0.827036 l 0.577397,-0.02785 h 1.16702 1.167021 l 0.577396,0.02785 c -0.568602,-0.228846 -0.625991,-0.417744 -0.714613,-0.827036 l -0.036,-0.207183 C 8.9020732,0.0123398 8.6735272,-1.9589453e-7 8.0020712,-1.9589453e-7 Z M 6.2685182,14.367326 c 0.568602,0.228847 0.625991,0.417744 0.714613,0.827036 l 0.036,0.207183 C 7.1129312,15.987661 7.3414772,16 8.0129332,16 c 0.671455,0 0.900002,-0.01235 0.993801,-0.598455 l 0.03566,-0.207183 c 0.08862,-0.409292 0.146349,-0.598189 0.714953,-0.827036 l -0.577397,0.02785 h -1.16702 -1.167021 z"
     style="color:#000000;fill:#111111;fill-opacity:1;stroke-width:2.78237"
     inkscape:connector-curvature="0" />
  <path
     inkscape:connector-curvature="0"
     style="color:#000000;fill:#111111;fill-opacity:1;stroke-width:2.78237"
     d="m 12.705385,1.5246711 c -0.543218,-0.394672 -0.73537,-0.519025 -1.155765,-0.09998 l -0.150631,0.146653 c -0.312274,0.279034 -0.470006,0.397923 -1.064529,0.248847 l 0.483495,0.316853 0.944139,0.685958 0.944139,0.685958 0.450754,0.361917 c -0.325497,-0.519357 -0.260894,-0.705911 -0.09201,-1.089126 l 0.09265,-0.188776 c 0.268624,-0.529311 0.09098,-0.673631 -0.45224,-1.068302 z M 2.8580122,12.129127 c 0.325497,0.519358 0.260895,0.70591 0.09201,1.089127 l -0.09265,0.188775 c -0.268624,0.529311 -0.09098,0.673631 0.45224,1.068302 0.543219,0.394671 0.735374,0.51902 1.155765,0.09998 l 0.150631,-0.146654 c 0.312273,-0.279033 0.470006,-0.397922 1.064529,-0.248846 l -0.483494,-0.316855 -0.94414,-0.685958 -0.944139,-0.685957 z"
     id="path4231" />
  <path
     id="path4233"
     d="m 15.614273,5.5226965 c -0.207491,-0.638591 -0.289852,-0.85214 -0.876266,-0.76023 l -0.208064,0.03011 c -0.416646,0.04219 -0.614136,0.04566 -1.00749,-0.424393 l 0.204913,0.540531 0.36063,1.109902 0.360628,1.109903 0.151938,0.557744 c 0.04194,-0.611491 0.203856,-0.724445 0.56573,-0.935206 l 0.185918,-0.09826 c 0.528443,-0.270326 0.469554,-0.491501 0.262063,-1.130093 z M 1.4144381,8.3137405 c -0.04194,0.611491 -0.203856,0.724443 -0.56573103,0.935208 l -0.185917,0.09826 c -0.528444,0.270328 -0.469555,0.491504 -0.262063,1.1300955 0.207491,0.638591 0.289858,0.852138 0.87626503,0.76023 l 0.208064,-0.03011 c 0.416646,-0.04219 0.614136,-0.04566 1.00749,0.424393 l -0.204912,-0.54053 -0.360629,-1.1099025 -0.360629,-1.109903 z"
     style="color:#000000;fill:#111111;fill-opacity:1;stroke-width:2.78237"
     inkscape:connector-curvature="0" />
  <path
     inkscape:connector-curvature="0"
     style="color:#000000;fill:#111111;stroke-width:2.78237;fill-opacity:1"
     d="M 15.61763,10.466968 C 15.825121,9.828377 15.884011,9.607201 15.355568,9.336873 L 15.169545,9.238933 C 14.80767,9.02817 14.645857,8.914896 14.60392,8.303404 l -0.151938,0.557744 -0.360629,1.109902 -0.360629,1.109902 -0.204914,0.540532 c 0.393354,-0.470056 0.590741,-0.466265 1.007386,-0.42407 l 0.208169,0.02978 c 0.586413,0.09191 0.668774,-0.121635 0.876265,-0.760228 z M 2.4891879,4.378516 c -0.393354,0.470056 -0.59074,0.466263 -1.007387,0.424072 L 1.2736339,4.772798 C 0.68721888,4.680888 0.60485688,4.894436 0.39736688,5.533027 c -0.20749,0.638591 -0.266374,0.859769 0.262062,1.130095 l 0.186024,0.09794 C 1.2073269,6.971825 1.3691399,7.085099 1.4110769,7.696591 l 0.151939,-0.557744 0.360629,-1.109902 0.360629,-1.109902 z"
     id="path4235" />
  <path
     id="path4237"
     d="m 12.714177,14.468941 c 0.543218,-0.394671 0.720865,-0.538991 0.452241,-1.068302 l -0.09293,-0.188577 c -0.168879,-0.383215 -0.233208,-0.569967 0.09229,-1.089325 l -0.450754,0.361917 -0.94414,0.685957 -0.944139,0.685958 -0.483495,0.316855 c 0.594521,-0.149076 0.751983,-0.02999 1.064254,0.249046 l 0.150907,0.146452 c 0.420394,0.419045 0.612545,0.294692 1.155764,-0.09998 z M 5.6717458,1.8265762 c -0.594522,0.149075 -0.751981,0.02999 -1.064256,-0.249046 l -0.150903,-0.146454 c -0.420396,-0.419043 -0.612549,-0.29469 -1.155766,0.09998 -0.543218,0.394671 -0.720861,0.538997 -0.452241,1.068303 l 0.09293,0.188576 c 0.168879,0.383216 0.233207,0.569967 -0.09229,1.089325 l 0.450755,-0.361917 0.944139,-0.685957 0.94414,-0.685957 z"
     style="color:#000000;fill:#111111;fill-opacity:1;stroke-width:2.78237"
     inkscape:connector-curvature="0" />
</svg>
