<?xml version="1.0" encoding="UTF-8" standalone="no"?>
<svg
   xmlns:dc="http://purl.org/dc/elements/1.1/"
   xmlns:cc="http://creativecommons.org/ns#"
   xmlns:rdf="http://www.w3.org/1999/02/22-rdf-syntax-ns#"
   xmlns:svg="http://www.w3.org/2000/svg"
   xmlns="http://www.w3.org/2000/svg"
   xmlns:sodipodi="http://sodipodi.sourceforge.net/DTD/sodipodi-0.dtd"
   xmlns:inkscape="http://www.inkscape.org/namespaces/inkscape"
   version="1.1"
   viewBox="0 0 16 16"
   id="svg8"
   sodipodi:docname="system-reboot-symbolic.svg"
   inkscape:version="1.0.2 (e86c870879, 2021-01-15)">
  <metadata
     id="metadata14">
    <rdf:RDF>
      <cc:Work
         rdf:about="">
        <dc:format>image/svg+xml</dc:format>
        <dc:type
           rdf:resource="http://purl.org/dc/dcmitype/StillImage" />
      </cc:Work>
    </rdf:RDF>
  </metadata>
  <defs
     id="defs12" />
  <sodipodi:namedview
     pagecolor="#ffffff"
     bordercolor="#666666"
     borderopacity="1"
     objecttolerance="10"
     gridtolerance="10"
     guidetolerance="10"
     inkscape:pageopacity="0"
     inkscape:pageshadow="2"
     inkscape:window-width="1366"
     inkscape:window-height="689"
     id="namedview10"
     showgrid="false"
     inkscape:zoom="33.4375"
     inkscape:cx="8"
     inkscape:cy="8"
     inkscape:window-x="0"
     inkscape:window-y="0"
     inkscape:window-maximized="1"
     inkscape:current-layer="svg8" />
  <g
     transform="translate(-72 -320)"
     fill="#808080"
     id="g6">
    <path
       d="m73.307 322.09 3.3062 3.3041c0.27285-0.73247 0.52745-1.5013 0.76438-2.3064 0.23135-0.80088 0.4355-1.5924 0.6118-2.3746-0.77612 0.18236-1.5649 0.38932-2.3657 0.62067-0.80553 0.23708-1.5776 0.48909-2.3164 0.75607z"
       color="#000000"
       id="path2"
       style="fill:#111111;fill-opacity:1" />
    <path
       d="m73 327.9c-0.01105 0.73458 0.0947 1.4791 0.32422 2.207 0.91808 2.9118 3.6227 4.8945 6.6758 4.8945s5.7577-1.9828 6.6758-4.8945-0.15923-6.0887-2.6602-7.8398l-0.41016-0.2871-0.57422 0.82031 0.41016 0.28711c2.1468 1.5032 3.0693 4.2193 2.2812 6.7188-0.78806 2.4994-3.1019 4.1953-5.7227 4.1953s-4.9346-1.6959-5.7227-4.1953c-0.78806-2.4994 0.13449-5.2156 2.2812-6.7188l0.41016-0.28711-0.57422-0.82031-0.41016 0.2871c-1.8757 1.3134-2.9512 3.4291-2.9844 5.6328z"
       color="#000000"
       color-rendering="auto"
       dominant-baseline="auto"
       image-rendering="auto"
       shape-rendering="auto"
       solid-color="#000000"
       style="font-feature-settings:normal;font-variant-alternates:normal;font-variant-caps:normal;font-variant-ligatures:normal;font-variant-numeric:normal;font-variant-position:normal;isolation:auto;mix-blend-mode:normal;shape-padding:0;text-decoration-color:#000000;text-decoration-line:none;text-decoration-style:solid;text-indent:0;text-orientation:mixed;text-transform:none;white-space:normal;fill:#111111;fill-opacity:1"
       id="path4" />
  </g>
</svg>
