<?xml version="1.0" encoding="UTF-8" standalone="no"?>
<svg
   xmlns:dc="http://purl.org/dc/elements/1.1/"
   xmlns:cc="http://creativecommons.org/ns#"
   xmlns:rdf="http://www.w3.org/1999/02/22-rdf-syntax-ns#"
   xmlns:svg="http://www.w3.org/2000/svg"
   xmlns="http://www.w3.org/2000/svg"
   xmlns:sodipodi="http://sodipodi.sourceforge.net/DTD/sodipodi-0.dtd"
   xmlns:inkscape="http://www.inkscape.org/namespaces/inkscape"
   viewBox="0 0 16 16"
   version="1.1"
   id="svg4"
   sodipodi:docname="folder-games.svg"
   inkscape:version="1.0.2 (e86c870879, 2021-01-15)">
  <metadata
     id="metadata10">
    <rdf:RDF>
      <cc:Work
         rdf:about="">
        <dc:format>image/svg+xml</dc:format>
        <dc:type
           rdf:resource="http://purl.org/dc/dcmitype/StillImage" />
        <dc:title></dc:title>
      </cc:Work>
    </rdf:RDF>
  </metadata>
  <defs
     id="defs8" />
  <sodipodi:namedview
     pagecolor="#ffffff"
     bordercolor="#666666"
     borderopacity="1"
     objecttolerance="10"
     gridtolerance="10"
     guidetolerance="10"
     inkscape:pageopacity="0"
     inkscape:pageshadow="2"
     inkscape:window-width="1366"
     inkscape:window-height="689"
     id="namedview6"
     showgrid="true"
     inkscape:zoom="23.643883"
     inkscape:cx="8"
     inkscape:cy="8"
     inkscape:window-x="0"
     inkscape:window-y="0"
     inkscape:window-maximized="1"
     inkscape:current-layer="svg4">
    <inkscape:grid
       type="xygrid"
       id="grid835" />
  </sodipodi:namedview>
  <path
     id="path2"
     style="font-variant-ligatures:normal;font-variant-position:normal;font-variant-caps:normal;font-variant-numeric:normal;font-variant-alternates:normal;font-feature-settings:normal;text-indent:0;text-decoration:none;text-decoration-line:none;text-decoration-style:solid;text-decoration-color:#000000;text-transform:none;text-orientation:mixed;shape-padding:0;isolation:auto;mix-blend-mode:normal;stroke-width:1.06672"
     d="m 3.733126,4.5001328 c -0.035754,-7.825e-4 -0.07108,0.00188 -0.1062548,0.00833 -1.6472584,0.046583 -3.07048759,1.1675594 -3.50017076,2.7584713 -0.43557355,1.6319334 0.27799819,3.3537699 1.73966806,4.2002049 1.4499248,0.834923 3.2785086,0.60469 4.4752177,-0.564612 h 3.3168281 c 1.1967077,1.169302 3.0252927,1.399535 4.4752177,0.564611 1.46167,-0.846434 2.175241,-2.5682705 1.739667,-4.2002039 -0.430365,-1.5931289 -1.856766,-2.7146732 -3.50642,-2.7584675 -0.03306,-0.00615 -0.06638,-0.00881 -0.100005,-0.00833 H 8.5333596 7.466641 Z m 0,1.0667186 h 8.533748 c 1.209659,0 2.264661,0.8080559 2.577209,1.9771791 0.313284,1.166215 -0.197196,2.3978155 -1.243811,3.0001475 -0.98191,0.565517 -2.214458,0.446307 -3.068899,-0.297931 C 10.3927,10.10864 10.254943,9.829459 10.004264,9.833726 H 5.9936526 C 5.7440405,9.830526 5.5752489,10.119357 5.4707105,10.244163 4.6173357,10.983398 3.3886259,11.115939 2.3976444,10.544178 1.3515497,9.941458 0.84394284,8.7097725 1.1580007,7.5440305 1.4683593,6.3765473 2.5250957,5.5650379 3.733126,5.5668514 Z M 3.1997667,6.63357 V 7.7002885 H 2.1330481 v 1.066719 H 3.1997667 V 9.833726 H 4.2664853 V 8.7670075 H 5.3332038 V 7.7002885 H 4.2664853 V 6.63357 Z m 9.0671073,0 c -0.711145,0 -0.711145,1.0667185 0,1.0667185 0.711145,0 0.711145,-1.0667185 0,-1.0667185 z m -1.066718,1.0667185 c -0.711146,0 -0.711146,1.066719 0,1.066719 0.711145,0 0.711145,-1.066719 0,-1.066719 z m 2.133437,0 c -0.711145,0 -0.711145,1.066719 0,1.066719 0.711145,0 0.711145,-1.066719 0,-1.066719 z m -1.066719,1.066719 c -0.711145,0 -0.711145,1.0667185 0,1.0667185 0.711145,0 0.711145,-1.0667185 0,-1.0667185 z" />
</svg>
