<?xml version="1.0" encoding="UTF-8" standalone="no"?>
<svg
   xmlns:dc="http://purl.org/dc/elements/1.1/"
   xmlns:cc="http://creativecommons.org/ns#"
   xmlns:rdf="http://www.w3.org/1999/02/22-rdf-syntax-ns#"
   xmlns:svg="http://www.w3.org/2000/svg"
   xmlns="http://www.w3.org/2000/svg"
   xmlns:sodipodi="http://sodipodi.sourceforge.net/DTD/sodipodi-0.dtd"
   xmlns:inkscape="http://www.inkscape.org/namespaces/inkscape"
   viewBox="0 0 16 16"
   version="1.1"
   id="svg4"
   sodipodi:docname="folder-cloud.svg"
   inkscape:version="1.0.2 (e86c870879, 2021-01-15)">
  <metadata
     id="metadata10">
    <rdf:RDF>
      <cc:Work
         rdf:about="">
        <dc:format>image/svg+xml</dc:format>
        <dc:type
           rdf:resource="http://purl.org/dc/dcmitype/StillImage" />
      </cc:Work>
    </rdf:RDF>
  </metadata>
  <defs
     id="defs8" />
  <sodipodi:namedview
     pagecolor="#ffffff"
     bordercolor="#666666"
     borderopacity="1"
     objecttolerance="10"
     gridtolerance="10"
     guidetolerance="10"
     inkscape:pageopacity="0"
     inkscape:pageshadow="2"
     inkscape:window-width="1366"
     inkscape:window-height="689"
     id="namedview6"
     showgrid="false"
     inkscape:zoom="33.4375"
     inkscape:cx="8"
     inkscape:cy="8"
     inkscape:window-x="0"
     inkscape:window-y="0"
     inkscape:window-maximized="1"
     inkscape:current-layer="svg4"
     inkscape:document-rotation="0" />
  <path
     d="M8.64 1.668C6.482 1.67 4.648 2.999 3.772 4.9l-.061.13-.139.01C1.578 5.184 0 6.91 0 9.008 0 11.201 1.716 13 3.838 13h9.284C14.714 13 16 11.65 16 10.012a2.958 2.958 0 0 0-1.805-2.735l-.137-.058-.01-.149c-.135-2.993-2.487-5.4-5.404-5.402zm0 1c2.368.002 4.292 1.952 4.405 4.447v.01l.051.776.703.297a1.944 1.944 0 0 1 1.195 1.814c.01 1.114-.845 1.988-1.87 1.988H3.837C2.281 12 .999 10.68.999 9.008c0-1.597 1.185-2.866 2.645-2.973l.723-.05.31-.662v-.004c.728-1.58 2.213-2.65 3.961-2.65z"
     overflow="visible"
     style="text-decoration-line:none;text-indent:0;text-transform:none;fill:#111111;fill-opacity:1"
     id="path2" />
</svg>
