<?xml version="1.0" encoding="UTF-8" standalone="no"?>
<svg
   xmlns:dc="http://purl.org/dc/elements/1.1/"
   xmlns:cc="http://creativecommons.org/ns#"
   xmlns:rdf="http://www.w3.org/1999/02/22-rdf-syntax-ns#"
   xmlns:svg="http://www.w3.org/2000/svg"
   xmlns="http://www.w3.org/2000/svg"
   xmlns:sodipodi="http://sodipodi.sourceforge.net/DTD/sodipodi-0.dtd"
   xmlns:inkscape="http://www.inkscape.org/namespaces/inkscape"
   viewBox="0 0 16 16"
   version="1.1"
   id="svg4"
   sodipodi:docname="printer-symbolic.svg"
   inkscape:version="1.0.2 (e86c870879, 2021-01-15)">
  <metadata
     id="metadata10">
    <rdf:RDF>
      <cc:Work
         rdf:about="">
        <dc:format>image/svg+xml</dc:format>
        <dc:type
           rdf:resource="http://purl.org/dc/dcmitype/StillImage" />
      </cc:Work>
    </rdf:RDF>
  </metadata>
  <defs
     id="defs8" />
  <sodipodi:namedview
     pagecolor="#ffffff"
     bordercolor="#666666"
     borderopacity="1"
     objecttolerance="10"
     gridtolerance="10"
     guidetolerance="10"
     inkscape:pageopacity="0"
     inkscape:pageshadow="2"
     inkscape:window-width="1366"
     inkscape:window-height="689"
     id="namedview6"
     showgrid="false"
     inkscape:zoom="33.4375"
     inkscape:cx="8"
     inkscape:cy="8"
     inkscape:window-x="0"
     inkscape:window-y="0"
     inkscape:window-maximized="1"
     inkscape:current-layer="svg4" />
  <path
     d="M3 0v4.025c-.75.018-1.41.07-1.937.36a1.88 1.88 0 0 0-.838.998C.06 5.822 0 6.343 0 7v3c0 .658.06 1.179.225 1.617.164.439.461.79.838.998.282.156.599.234.937.287v-1.025a1.627 1.627 0 0 1-.455-.139c-.183-.1-.287-.212-.385-.472C1.063 11.006 1 10.592 1 10V7c0-.592.063-1.006.16-1.266.098-.26.202-.371.385-.472C1.91 5.06 2.74 5.015 4 5h8c1.259.015 2.087.06 2.453.262.184.101.29.213.387.472.097.26.16.674.16 1.266v3c0 .592-.063 1.006-.16 1.266-.098.26-.203.371-.387.472-.107.06-.267.104-.453.139v1.025c.338-.053.655-.13.938-.287a1.88 1.88 0 0 0 .837-.998c.165-.438.225-.96.225-1.617V7c0-.658-.06-1.178-.225-1.617a1.88 1.88 0 0 0-.837-.998c-.527-.29-1.188-.342-1.938-.36V0zm1 1h8v3H4zm9.5 5a.5.5 0 0 0-.5.5.5.5 0 0 0 .5.5.5.5 0 0 0 .5-.5.5.5 0 0 0-.5-.5zM3 10v6h10v-6h-1v5H4v-5zm2 1v1h6v-1zm0 2v1h6v-1z"
     overflow="visible"
     style="font-feature-settings:normal;font-variant-alternates:normal;font-variant-caps:normal;font-variant-ligatures:normal;font-variant-numeric:normal;font-variant-position:normal;isolation:auto;mix-blend-mode:normal;shape-padding:0;text-decoration-color:#000;text-decoration-line:none;text-decoration-style:solid;text-indent:0;text-orientation:mixed;text-transform:none;fill:#111111;fill-opacity:1"
     white-space="normal"
     id="path2" />
</svg>
