<?xml version="1.0" encoding="UTF-8" standalone="no"?>
<svg
   xmlns:dc="http://purl.org/dc/elements/1.1/"
   xmlns:cc="http://creativecommons.org/ns#"
   xmlns:rdf="http://www.w3.org/1999/02/22-rdf-syntax-ns#"
   xmlns:svg="http://www.w3.org/2000/svg"
   xmlns="http://www.w3.org/2000/svg"
   xmlns:sodipodi="http://sodipodi.sourceforge.net/DTD/sodipodi-0.dtd"
   xmlns:inkscape="http://www.inkscape.org/namespaces/inkscape"
   viewBox="0 0 16 16"
   version="1.1"
   id="svg4"
   sodipodi:docname="folder-videos.svg"
   inkscape:version="1.0.2 (e86c870879, 2021-01-15)">
  <metadata
     id="metadata10">
    <rdf:RDF>
      <cc:Work
         rdf:about="">
        <dc:format>image/svg+xml</dc:format>
        <dc:type
           rdf:resource="http://purl.org/dc/dcmitype/StillImage" />
      </cc:Work>
    </rdf:RDF>
  </metadata>
  <defs
     id="defs8" />
  <sodipodi:namedview
     pagecolor="#ffffff"
     bordercolor="#666666"
     borderopacity="1"
     objecttolerance="10"
     gridtolerance="10"
     guidetolerance="10"
     inkscape:pageopacity="0"
     inkscape:pageshadow="2"
     inkscape:window-width="1366"
     inkscape:window-height="689"
     id="namedview6"
     showgrid="true"
     inkscape:zoom="16.71875"
     inkscape:cx="8"
     inkscape:cy="5.4420125"
     inkscape:window-x="0"
     inkscape:window-y="0"
     inkscape:window-maximized="1"
     inkscape:current-layer="svg4"
     inkscape:document-rotation="0">
    <inkscape:grid
       type="xygrid"
       id="grid835" />
  </sodipodi:namedview>
  <path
     d="m 0,2 v 13 h 1 v -1 h 1 v 1 h 11 v -1 h 1 v 1 h 1 V 2 H 14 V 3 H 13 V 2 H 2 V 3 H 1 V 2 Z m 3,1 h 9 V 8 H 3 Z M 1,4 H 2 V 5 H 1 Z m 12,0 h 1 V 5 H 13 Z M 1,6 H 2 V 7 H 1 Z m 12,0 h 1 V 7 H 13 Z M 1,8 H 2 V 9 H 1 Z m 12,0 h 1 V 9 H 13 Z M 3,9 h 9 v 5 H 3 Z m -2,1 h 1 v 1 H 1 Z m 12,0 h 1 v 1 H 13 Z M 1,12 h 1 v 1 H 1 Z m 12,0 h 1 v 1 h -1 z"
     id="path2"
     style="fill:#111111;fill-opacity:1" />
</svg>
