<?xml version="1.0" encoding="UTF-8" standalone="no"?>
<svg
   xmlns:dc="http://purl.org/dc/elements/1.1/"
   xmlns:cc="http://creativecommons.org/ns#"
   xmlns:rdf="http://www.w3.org/1999/02/22-rdf-syntax-ns#"
   xmlns:svg="http://www.w3.org/2000/svg"
   xmlns="http://www.w3.org/2000/svg"
   xmlns:sodipodi="http://sodipodi.sourceforge.net/DTD/sodipodi-0.dtd"
   xmlns:inkscape="http://www.inkscape.org/namespaces/inkscape"
   viewBox="0 0 16 16"
   version="1.1"
   id="svg4"
   sodipodi:docname="folder-music-symbolic.svg"
   inkscape:version="1.0.2 (e86c870879, 2021-01-15)">
  <metadata
     id="metadata10">
    <rdf:RDF>
      <cc:Work
         rdf:about="">
        <dc:format>image/svg+xml</dc:format>
        <dc:type
           rdf:resource="http://purl.org/dc/dcmitype/StillImage" />
      </cc:Work>
    </rdf:RDF>
  </metadata>
  <defs
     id="defs8" />
  <sodipodi:namedview
     pagecolor="#ffffff"
     bordercolor="#666666"
     borderopacity="1"
     objecttolerance="10"
     gridtolerance="10"
     guidetolerance="10"
     inkscape:pageopacity="0"
     inkscape:pageshadow="2"
     inkscape:window-width="1366"
     inkscape:window-height="689"
     id="namedview6"
     showgrid="false"
     inkscape:zoom="33.4375"
     inkscape:cx="8"
     inkscape:cy="8"
     inkscape:window-x="0"
     inkscape:window-y="0"
     inkscape:window-maximized="1"
     inkscape:current-layer="svg4" />
  <path
     d="M13.514.041a2.748 2.748 0 0 0-.41.016l-7.21 1.125c-.813.082-.901.462-.894.935v9.52c-.413-.272-.856-.465-1.445-.465-.76 0-1.213.29-1.487.674-.274.383-.365.865-.365 1.238 0 .45.155.93.488 1.295.334.366.846.623 1.582.623.832 0 1.416-.232 1.747-.686.26-.357.405-.835.457-1.423.007-.072.01-.146.015-.221.004-.06.003-.102.004-.172H6V4.797c.022-.62.584-.711.584-.711l5.854-.914c.561-.172.562.523.562.523v6.942c-.413-.272-.856-.465-1.445-.465-.76 0-1.213.29-1.487.674-.274.383-.365.865-.365 1.238 0 .45.155.93.488 1.295.334.366.846.623 1.582.623.832 0 1.416-.232 1.747-.686.26-.357.405-.835.457-1.423.007-.072.01-.146.015-.221.004-.06.003-.102.004-.172H14V.932c.012-.686-.14-.867-.486-.891z"
     overflow="visible"
     style="font-feature-settings:normal;font-variant-alternates:normal;font-variant-caps:normal;font-variant-ligatures:normal;font-variant-numeric:normal;font-variant-position:normal;isolation:auto;mix-blend-mode:normal;shape-padding:0;text-decoration-color:#000;text-decoration-line:none;text-decoration-style:solid;text-indent:0;text-orientation:mixed;text-transform:none;fill:#111111;fill-opacity:1"
     white-space="normal"
     id="path2" />
</svg>
