<?xml version="1.0" encoding="UTF-8" standalone="no"?>
<svg
   xmlns:dc="http://purl.org/dc/elements/1.1/"
   xmlns:cc="http://creativecommons.org/ns#"
   xmlns:rdf="http://www.w3.org/1999/02/22-rdf-syntax-ns#"
   xmlns:svg="http://www.w3.org/2000/svg"
   xmlns="http://www.w3.org/2000/svg"
   xmlns:sodipodi="http://sodipodi.sourceforge.net/DTD/sodipodi-0.dtd"
   xmlns:inkscape="http://www.inkscape.org/namespaces/inkscape"
   viewBox="0 0 16 16"
   version="1.1"
   id="svg8"
   sodipodi:docname="folder-templates-symbolic.svg"
   inkscape:version="1.0.2 (e86c870879, 2021-01-15)">
  <metadata
     id="metadata14">
    <rdf:RDF>
      <cc:Work
         rdf:about="">
        <dc:format>image/svg+xml</dc:format>
        <dc:type
           rdf:resource="http://purl.org/dc/dcmitype/StillImage" />
      </cc:Work>
    </rdf:RDF>
  </metadata>
  <defs
     id="defs12" />
  <sodipodi:namedview
     pagecolor="#ffffff"
     bordercolor="#666666"
     borderopacity="1"
     objecttolerance="10"
     gridtolerance="10"
     guidetolerance="10"
     inkscape:pageopacity="0"
     inkscape:pageshadow="2"
     inkscape:window-width="1366"
     inkscape:window-height="689"
     id="namedview10"
     showgrid="false"
     inkscape:zoom="33.4375"
     inkscape:cx="8"
     inkscape:cy="8"
     inkscape:window-x="0"
     inkscape:window-y="0"
     inkscape:window-maximized="1"
     inkscape:current-layer="svg8" />
  <g
     fill="gray"
     font-weight="400"
     id="g6"
     style="fill:#111111;fill-opacity:1">
    <path
       d="M11 16l-.479-.922a19.554 19.554 0 0 1-1.126-2.666 14.225 14.225 0 0 1-.383-1.271L9 11.084V1s0-1 1-1h2s1 0 1 1v10.084l-.012.057c-.028.122-.136.547-.383 1.271a19.588 19.588 0 0 1-1.126 2.666zm-.209-3.043h.416c.14-.315.294-.65.377-.893.225-.66.417-1.07.416-1.064h-2c-.002-.009.189.403.414 1.064.083.244.238.578.377.893zM10 3h2V1h-2z"
       font-family="Ubuntu"
       font-size="15"
       letter-spacing="0"
       text-anchor="middle"
       word-spacing="0"
       id="path2"
       style="fill:#111111;fill-opacity:1" />
    <path
       d="M3 0v15h5V0zm1 1h3v1H6v1h1v1H6v1h1v1H6v1h1v1H6v1h1v1H6v1h1v1H6v1h1v1H4z"
       font-family="sans-serif"
       overflow="visible"
       style="font-feature-settings:normal;font-variant-alternates:normal;font-variant-caps:normal;font-variant-ligatures:normal;font-variant-numeric:normal;font-variant-position:normal;isolation:auto;mix-blend-mode:normal;shape-padding:0;text-decoration-color:#000;text-decoration-line:none;text-decoration-style:solid;text-indent:0;text-orientation:mixed;text-transform:none;fill:#111111;fill-opacity:1"
       white-space="normal"
       id="path4" />
  </g>
</svg>
