<?xml version="1.0" encoding="UTF-8" standalone="no"?>
<svg
   xmlns:dc="http://purl.org/dc/elements/1.1/"
   xmlns:cc="http://creativecommons.org/ns#"
   xmlns:rdf="http://www.w3.org/1999/02/22-rdf-syntax-ns#"
   xmlns:svg="http://www.w3.org/2000/svg"
   xmlns="http://www.w3.org/2000/svg"
   xmlns:sodipodi="http://sodipodi.sourceforge.net/DTD/sodipodi-0.dtd"
   xmlns:inkscape="http://www.inkscape.org/namespaces/inkscape"
   version="1.1"
   viewBox="0 0 16 16"
   id="svg6"
   sodipodi:docname="folder-development.svg"
   inkscape:version="1.0.2 (e86c870879, 2021-01-15)">
  <metadata
     id="metadata12">
    <rdf:RDF>
      <cc:Work
         rdf:about="">
        <dc:format>image/svg+xml</dc:format>
        <dc:type
           rdf:resource="http://purl.org/dc/dcmitype/StillImage" />
        <dc:title></dc:title>
      </cc:Work>
    </rdf:RDF>
  </metadata>
  <defs
     id="defs10" />
  <sodipodi:namedview
     pagecolor="#ffffff"
     bordercolor="#666666"
     borderopacity="1"
     objecttolerance="10"
     gridtolerance="10"
     guidetolerance="10"
     inkscape:pageopacity="0"
     inkscape:pageshadow="2"
     inkscape:window-width="1366"
     inkscape:window-height="689"
     id="namedview8"
     showgrid="true"
     inkscape:zoom="33.4375"
     inkscape:cx="8"
     inkscape:cy="8"
     inkscape:window-x="0"
     inkscape:window-y="0"
     inkscape:window-maximized="1"
     inkscape:current-layer="svg6">
    <inkscape:grid
       type="xygrid"
       id="grid837" />
  </sodipodi:namedview>
  <g
     transform="translate(-632 -240)"
     id="g4"
     style="fill:#111111;fill-opacity:1">
    <path
       d="m635.99 242c-1.2582 0.0145-2.1789-0.0306-2.9316 0.38477-0.37637 0.20766-0.67323 0.55938-0.83789 0.99804-0.16467 0.43867-0.22461 0.95958-0.22461 1.6172v7c0 0.65761 0.0599 1.1785 0.22461 1.6172 0.16467 0.43866 0.46152 0.79039 0.83789 0.99804 0.75275 0.41532 1.6734 0.3702 2.9316 0.38477h4e-3 8.0039 4e-3c1.2582-0.0145 2.1789 0.0306 2.9316-0.38477 0.37637-0.20766 0.67322-0.55938 0.83789-0.99804 0.16449-0.43867 0.22443-0.95958 0.22443-1.6172v-7c0-0.65761-0.0599-1.1785-0.22461-1.6172-0.16466-0.43866-0.46152-0.79038-0.83789-0.99804-0.75275-0.41534-1.6734-0.37025-2.9316-0.38477h-4e-3 -8.0039zm6e-3 1h8c1.2585 0.0147 2.0872 0.0598 2.4531 0.26172 0.18341 0.1012 0.28916 0.21274 0.38672 0.47266 0.0974 0.25991 0.16002 0.67323 0.16002 1.2656v7h-4.947-3.0936-5.9594v-7c0-0.59239 0.0626-1.0057 0.16016-1.2656 0.0976-0.25991 0.20135-0.37147 0.38476-0.47266 0.36596-0.20191 1.1966-0.24701 2.4551-0.26172z"
       style="font-feature-settings:normal;font-variant-alternates:normal;font-variant-caps:normal;font-variant-ligatures:normal;font-variant-numeric:normal;font-variant-position:normal;isolation:auto;mix-blend-mode:normal;shape-padding:0;text-decoration-color:#000000;text-decoration-line:none;text-decoration-style:solid;text-indent:0;text-orientation:mixed;text-transform:none;white-space:normal;fill:#111111;fill-opacity:1"
       id="path2" />
  </g>
  <path
     id="path2-3"
     style="font-variant-ligatures:normal;font-variant-position:normal;font-variant-caps:normal;font-variant-numeric:normal;font-variant-alternates:normal;font-feature-settings:normal;text-indent:0;text-decoration:none;text-decoration-line:none;text-decoration-style:solid;text-decoration-color:#000000;text-transform:none;text-orientation:mixed;white-space:normal;shape-padding:0;isolation:auto;mix-blend-mode:normal;fill:#111111;fill-opacity:1"
     d="m 3.4812918,5.000455 c -0.47384,0.0193 -0.6572075,0.6256969 -0.2734375,0.9042969 L 4.6746512,7.0043613 3.2078543,8.1039706 c -0.53385,0.4010401 0.067692,1.2018013 0.6015625,0.8007813 l 2,-1.5 c 0.26732,-0.2 0.26732,-0.6007812 0,-0.8007813 l -2,-1.5 c -0.0937,-0.0722 -0.209945,-0.1085156 -0.328125,-0.1035156 z m 2.5273438,4.0039063 v 0.9999997 h 3 V 9.0043613 Z" />
</svg>
