<?xml version="1.0" encoding="UTF-8" standalone="no"?>
<svg
   xmlns:dc="http://purl.org/dc/elements/1.1/"
   xmlns:cc="http://creativecommons.org/ns#"
   xmlns:rdf="http://www.w3.org/1999/02/22-rdf-syntax-ns#"
   xmlns:svg="http://www.w3.org/2000/svg"
   xmlns="http://www.w3.org/2000/svg"
   xmlns:sodipodi="http://sodipodi.sourceforge.net/DTD/sodipodi-0.dtd"
   xmlns:inkscape="http://www.inkscape.org/namespaces/inkscape"
   version="1.1"
   viewBox="0 0 16.001 16"
   id="svg6"
   sodipodi:docname="mail-sent-symbolic.svg"
   inkscape:version="1.0.2 (e86c870879, 2021-01-15)">
  <metadata
     id="metadata12">
    <rdf:RDF>
      <cc:Work
         rdf:about="">
        <dc:format>image/svg+xml</dc:format>
        <dc:type
           rdf:resource="http://purl.org/dc/dcmitype/StillImage" />
      </cc:Work>
    </rdf:RDF>
  </metadata>
  <defs
     id="defs10" />
  <sodipodi:namedview
     pagecolor="#ffffff"
     bordercolor="#666666"
     borderopacity="1"
     objecttolerance="10"
     gridtolerance="10"
     guidetolerance="10"
     inkscape:pageopacity="0"
     inkscape:pageshadow="2"
     inkscape:window-width="1366"
     inkscape:window-height="689"
     id="namedview8"
     showgrid="false"
     inkscape:zoom="33.4375"
     inkscape:cx="8.0004997"
     inkscape:cy="8"
     inkscape:window-x="0"
     inkscape:window-y="0"
     inkscape:window-maximized="1"
     inkscape:current-layer="svg6" />
  <g
     transform="translate(-392 -479.96)"
     id="g4"
     style="fill:#111111;fill-opacity:1">
    <path
       d="m407.5 482.5 2e-3 2e-3c-0.0118 2.5e-4 -0.0235 8.7e-4 -0.0352 2e-3 -0.0164 1e-3 -0.0326 3e-3 -0.0488 6e-3 -5e-3 5.8e-4 -0.0104 9.6e-4 -0.0156 2e-3 -5e-3 1e-3 -0.0104 3e-3 -0.0156 4e-3 -0.0111 2e-3 -0.0222 5e-3 -0.0332 8e-3l-14.967 3.4922c-0.42558 0.0998-0.52727 0.65915-0.16406 0.90235l2.7773 1.8516v3.7324c1.7e-4 0.44533 0.53852 0.6683 0.85352 0.35352l2.2012-2.2012 3.1543 2.2539c0.23341 0.16686 0.55906 0.10352 0.7129-0.13867l5.9805-9.4707c7e-3 -0.01 0.0134-0.0193 0.0195-0.0293 3e-3 -4e-3 5e-3 -8e-3 8e-3 -0.0117 6e-3 -0.0108 0.0122-0.0219 0.0176-0.0332 2e-3 -4e-3 4e-3 -8e-3 6e-3 -0.0117 5e-3 -0.0109 0.01-0.022 0.0137-0.0332 2e-3 -5e-3 4e-3 -9e-3 6e-3 -0.0137 4e-3 -0.011 7e-3 -0.022 0.01-0.0332 1e-3 -5e-3 5e-3 -9e-3 6e-3 -0.0137 6.9e-4 -3e-3 9.5e-4 -5e-3 2e-3 -8e-3 3e-3 -0.0136 5e-3 -0.0273 6e-3 -0.041 2e-3 -9e-3 3e-3 -0.0182 4e-3 -0.0273 3e-5 -3e-3 3e-5 -7e-3 0-0.01 5.6e-4 -0.0105 1e-4 -0.0208 0-0.0312-3e-4 -0.0111-9.2e-4 -0.0222-2e-3 -0.0332-1e-3 -0.0164-3e-3 -0.0326-6e-3 -0.0488-2e-3 -0.0118-4e-3 -0.0235-6e-3 -0.0352-1e-3 -5e-3 -3e-3 -9e-3 -4e-3 -0.0137-4e-3 -0.0159-0.01-0.0315-0.0156-0.0469-4e-3 -0.0112-9e-3 -0.0223-0.0137-0.0332-2e-3 -5e-3 -4e-3 -9e-3 -6e-3 -0.0137-5e-3 -0.0106-0.0114-0.0211-0.0176-0.0312-3e-3 -4e-3 -5e-3 -8e-3 -8e-3 -0.0117-6e-3 -0.01-0.0127-0.0198-0.0195-0.0293-3e-3 -4e-3 -9e-3 -8e-3 -0.0117-0.0117-0.0104-0.0129-0.0195-0.0253-0.0312-0.0371-8e-3 -9e-3 -0.0186-0.0172-0.0274-0.0254l-0.01-0.01c-0.0113-0.01-0.0231-0.0187-0.0352-0.0273-1e-3 -6.7e-4 -3e-3 -9.6e-4 -4e-3 -2e-3 -0.0102-7e-3 -0.0207-0.0134-0.0312-0.0195-4e-3 -3e-3 -8e-3 -5e-3 -0.0117-8e-3 -0.0102-6e-3 -0.0206-0.0108-0.0312-0.0156-5e-3 -2e-3 -9e-3 -4e-3 -0.0137-6e-3 -0.0109-5e-3 -0.022-0.01-0.0332-0.0137-5e-3 -1e-3 -9e-3 -3e-3 -0.0137-4e-3 -0.0116-4e-3 -0.0233-7e-3 -0.0352-0.01-0.01-2e-3 -0.0195-4e-3 -0.0293-6e-3 -0.0258-5e-3 -0.0519-9e-3 -0.0781-0.01-2e-3 -1e-5 -4e-3 -1e-5 -6e-3 0zm-1.5 1.502-8.2969 5.5977c-8e-3 6e-3 -0.0117 0.015-0.0195 0.0215-0.0123 0.0109-0.0251 0.0149-0.0371 0.0273l-1.6465 1.6465v-2.4785z"
       style="font-feature-settings:normal;font-variant-alternates:normal;font-variant-caps:normal;font-variant-ligatures:normal;font-variant-numeric:normal;font-variant-position:normal;isolation:auto;mix-blend-mode:normal;shape-padding:0;text-decoration-color:#000000;text-decoration-line:none;text-decoration-style:solid;text-indent:0;text-orientation:mixed;text-transform:none;white-space:normal;fill:#111111;fill-opacity:1"
       id="path2" />
  </g>
</svg>
