<?xml version="1.0" encoding="UTF-8" standalone="no"?>
<svg
   xmlns:dc="http://purl.org/dc/elements/1.1/"
   xmlns:cc="http://creativecommons.org/ns#"
   xmlns:rdf="http://www.w3.org/1999/02/22-rdf-syntax-ns#"
   xmlns:svg="http://www.w3.org/2000/svg"
   xmlns="http://www.w3.org/2000/svg"
   xmlns:sodipodi="http://sodipodi.sourceforge.net/DTD/sodipodi-0.dtd"
   xmlns:inkscape="http://www.inkscape.org/namespaces/inkscape"
   viewBox="0 0 16 16.001"
   version="1.1"
   id="svg4"
   sodipodi:docname="user-trash-full.svg"
   inkscape:version="1.0.2 (e86c870879, 2021-01-15)">
  <metadata
     id="metadata10">
    <rdf:RDF>
      <cc:Work
         rdf:about="">
        <dc:format>image/svg+xml</dc:format>
        <dc:type
           rdf:resource="http://purl.org/dc/dcmitype/StillImage" />
        <dc:title />
      </cc:Work>
    </rdf:RDF>
  </metadata>
  <defs
     id="defs8" />
  <sodipodi:namedview
     pagecolor="#ffffff"
     bordercolor="#666666"
     borderopacity="1"
     objecttolerance="10"
     gridtolerance="10"
     guidetolerance="10"
     inkscape:pageopacity="0"
     inkscape:pageshadow="2"
     inkscape:window-width="1366"
     inkscape:window-height="689"
     id="namedview6"
     showgrid="true"
     inkscape:zoom="33.435412"
     inkscape:cx="8.4737309"
     inkscape:cy="8.1493867"
     inkscape:window-x="0"
     inkscape:window-y="0"
     inkscape:window-maximized="1"
     inkscape:current-layer="svg4"
     inkscape:document-rotation="0">
    <inkscape:grid
       type="xygrid"
       id="grid835" />
  </sodipodi:namedview>
  <g
     id="g835">
    <path
       id="path2"
       style="fill:#111111;fill-opacity:1"
       d="M 7.5,0 C 6.4,0 5.3554688,0.3203125 5.3554688,0.3203125 L 5,0.42773438 V 2.1113281 C 3.9703672,2.2936769 2.9646375,2.5917922 2.0019531,3 L 2,4 H 1 v 1 h 1 l 0.00391,9 c 0,0.439 0.040391,0.788031 0.1503907,1.082031 0.111,0.294 0.3105,0.527969 0.5625,0.667969 0.503,0.28 1.120125,0.25 1.953125,0.25 h 5.6640623 c 0.833,0 1.450125,0.03 1.953125,-0.25 0.252,-0.14 0.450547,-0.373969 0.560547,-0.667969 C 12.957644,14.788031 13,14.439 13,14 L 12.998,6 H 3 v 8 c 0,0.376 0.048,0.874 0,1 -0.034,0.09 8.85661,-0.017 8.824605,0 -0.351982,0 -0.63362,0 -1.49062,0 H 4.6699219 c -0.857,0 -1.29475,-0.028 -1.46875,-0.125 -0.054026,-0.03375 -0.094204,-0.08571 -0.1132813,-0.146484 v -0.002 C 3.0418906,14.604703 3.0039063,14.379 3.0039062,14 V 13.998 L 3,5 H 14 V 4 H 12.998047 L 13,3 C 12.036763,2.5914498 11.030347,2.2933253 10,2.1113281 V 0.44921875 L 9.6699219,0.33007812 c 0,0 -0.9129219,-0.32812499 -2.1699219,-0.32812499 z m 0,1 C 8.39,1 8.79,1.1557031 9,1.2207031 V 1.9589844 C 8.5025033,1.9043278 8.0024415,1.8762931 7.5019531,1.875 6.9999531,1.875 6.499,1.9069375 6,1.9609375 V 1.2265625 C 6.266,1.1565625 6.772,1 7.5,1 Z"
       sodipodi:nodetypes="ccccccccccccssccccccccsscccscccccccccccscccccs" />
    <rect
       style="fill:#111111"
       id="rect831"
       width="1"
       height="3"
       x="12"
       y="4" />
  </g>
</svg>
