<?xml version="1.0" encoding="UTF-8" standalone="no"?>
<svg
   xmlns:dc="http://purl.org/dc/elements/1.1/"
   xmlns:cc="http://creativecommons.org/ns#"
   xmlns:rdf="http://www.w3.org/1999/02/22-rdf-syntax-ns#"
   xmlns:svg="http://www.w3.org/2000/svg"
   xmlns="http://www.w3.org/2000/svg"
   xmlns:sodipodi="http://sodipodi.sourceforge.net/DTD/sodipodi-0.dtd"
   xmlns:inkscape="http://www.inkscape.org/namespaces/inkscape"
   version="1.1"
   viewBox="0 0 16 16"
   id="svg6"
   sodipodi:docname="desktop.svg"
   inkscape:version="1.0.2 (e86c870879, 2021-01-15)">
  <metadata
     id="metadata12">
    <rdf:RDF>
      <cc:Work
         rdf:about="">
        <dc:format>image/svg+xml</dc:format>
        <dc:type
           rdf:resource="http://purl.org/dc/dcmitype/StillImage" />
      </cc:Work>
    </rdf:RDF>
  </metadata>
  <defs
     id="defs10" />
  <sodipodi:namedview
     pagecolor="#ffffff"
     bordercolor="#666666"
     borderopacity="1"
     objecttolerance="10"
     gridtolerance="10"
     guidetolerance="10"
     inkscape:pageopacity="0"
     inkscape:pageshadow="2"
     inkscape:window-width="1366"
     inkscape:window-height="704"
     id="namedview8"
     showgrid="true"
     inkscape:zoom="23.643883"
     inkscape:cx="9.5037438"
     inkscape:cy="6.6332582"
     inkscape:window-x="0"
     inkscape:window-y="27"
     inkscape:window-maximized="1"
     inkscape:current-layer="svg6"
     inkscape:document-rotation="0">
    <inkscape:grid
       type="xygrid"
       id="grid8" />
  </sodipodi:namedview>
  <g
     transform="translate(-331.9959,-260)"
     fill="#808080"
     id="g8">
    <path
       d="m 335.99,261 c -1.2582,0.0145 -2.1789,-0.0306 -2.9316,0.38477 -0.37637,0.20766 -0.67323,0.55938 -0.83789,0.99804 -0.16467,0.43867 -0.22461,0.95958 -0.22461,1.6172 v 4 4 c 0,0.65761 0.0599,1.1785 0.22461,1.6172 0.16467,0.43865 0.46152,0.79039 0.83789,0.99804 0.75275,0.41532 1.6734,0.3702 2.9316,0.38477 h 0.004 2.002 4.125 2.002 0.004 c 1.2582,-0.0146 2.1789,0.0306 2.9316,-0.38477 0.37637,-0.20765 0.67322,-0.55939 0.83789,-0.99804 0.16453,-0.43866 0.0994,-0.92757 0.0994,-1.61721 l 1e-5,-3.99999 -0.003,-4 c -5.6e-4,-0.65761 -0.0599,-1.1785 -0.22461,-1.6172 -0.16466,-0.43866 -0.46152,-0.79038 -0.83789,-0.99804 -0.75275,-0.41537 -1.54498,-0.37027 -2.80318,-0.38477 h -0.004 -2.0019 -4.125 -2.002 z m 2.0059,1 h 4.125 c 2,0 3.35749,-0.0156 4.09959,0.22461 0.98348,0.44721 0.77371,1.7754 0.77344,2.7754 -5.8e-4,2.1232 0.002,4.66435 0.002,7 h -4.875 -4.125 L 332.9959,272 c 0,-2.33778 8.9e-4,-4.87679 4e-5,-6.99999 0,-1 -0.21004,-2.3282 0.77344,-2.7754 0.74219,-0.24023 2.2266,-0.22461 4.2266,-0.22461 z"
       color="#000000"
       id="path4"
       sodipodi:nodetypes="cccscsccccccccccccscccccccccscscccccccc"
       style="fill:#111111;fill-opacity:1" />
  </g>
</svg>
