<?xml version="1.0" encoding="UTF-8" standalone="no"?>
<svg
   xmlns:dc="http://purl.org/dc/elements/1.1/"
   xmlns:cc="http://creativecommons.org/ns#"
   xmlns:rdf="http://www.w3.org/1999/02/22-rdf-syntax-ns#"
   xmlns:svg="http://www.w3.org/2000/svg"
   xmlns="http://www.w3.org/2000/svg"
   xmlns:xlink="http://www.w3.org/1999/xlink"
   xmlns:sodipodi="http://sodipodi.sourceforge.net/DTD/sodipodi-0.dtd"
   xmlns:inkscape="http://www.inkscape.org/namespaces/inkscape"
   viewBox="0 0 48 48"
   version="1.1"
   id="svg27"
   sodipodi:docname="folder-development.svg"
   inkscape:version="1.0.2 (e86c870879, 2021-01-15)">
  <metadata
     id="metadata33">
    <rdf:RDF>
      <cc:Work
         rdf:about="">
        <dc:format>image/svg+xml</dc:format>
        <dc:type
           rdf:resource="http://purl.org/dc/dcmitype/StillImage" />
        <dc:title></dc:title>
      </cc:Work>
    </rdf:RDF>
  </metadata>
  <defs
     id="defs31">
    <linearGradient
       inkscape:collect="always"
       xlink:href="#linearGradient36441"
       id="linearGradient5220"
       gradientUnits="userSpaceOnUse"
       gradientTransform="translate(-320.0644,-59.998261)"
       x1="321"
       y1="106"
       x2="367"
       y2="63" />
    <linearGradient
       inkscape:collect="always"
       id="linearGradient36441">
      <stop
         style="stop-color:#2c001e;stop-opacity:1"
         offset="0"
         id="stop36437" />
      <stop
         id="stop36445"
         offset="0.10864977"
         style="stop-color:#2c001e;stop-opacity:1" />
      <stop
         style="stop-color:#370626;stop-opacity:1"
         offset="0.18689813"
         id="stop36449" />
      <stop
         id="stop36451"
         offset="0.2980746"
         style="stop-color:#55163b;stop-opacity:1" />
      <stop
         style="stop-color:#772953;stop-opacity:1"
         offset="0.37246177"
         id="stop36453" />
      <stop
         style="stop-color:#7c2b51;stop-opacity:1"
         offset="0.44700962"
         id="stop36447" />
      <stop
         id="stop36455"
         offset="0.52428877"
         style="stop-color:#8b314b;stop-opacity:1" />
      <stop
         style="stop-color:#8b314b;stop-opacity:1"
         offset="0.59614229"
         id="stop36457" />
      <stop
         id="stop36459"
         offset="0.66876179"
         style="stop-color:#a33a41;stop-opacity:1" />
      <stop
         style="stop-color:#c44732;stop-opacity:1"
         offset="0.79755175"
         id="stop36461" />
      <stop
         id="stop36463"
         offset="0.91251218"
         style="stop-color:#e65524;stop-opacity:1" />
      <stop
         style="stop-color:#e65524;stop-opacity:1"
         offset="1"
         id="stop36439" />
    </linearGradient>
    <linearGradient
       inkscape:collect="always"
       xlink:href="#linearGradient3388"
       id="linearGradient5230"
       gradientUnits="userSpaceOnUse"
       gradientTransform="translate(-320.0644,-59.998261)"
       x1="321"
       y1="70"
       x2="367"
       y2="105" />
    <linearGradient
       inkscape:collect="always"
       id="linearGradient3388">
      <stop
         style="stop-color:#666666;stop-opacity:1;"
         offset="0"
         id="stop3384" />
      <stop
         style="stop-color:#7a7a7a;stop-opacity:1"
         offset="1"
         id="stop3386" />
    </linearGradient>
  </defs>
  <sodipodi:namedview
     pagecolor="#ffffff"
     bordercolor="#666666"
     borderopacity="1"
     objecttolerance="10"
     gridtolerance="10"
     guidetolerance="10"
     inkscape:pageopacity="0"
     inkscape:pageshadow="2"
     inkscape:window-width="1366"
     inkscape:window-height="689"
     id="namedview29"
     showgrid="true"
     inkscape:zoom="5.5729166"
     inkscape:cx="58.943612"
     inkscape:cy="28.535703"
     inkscape:window-x="0"
     inkscape:window-y="0"
     inkscape:window-maximized="1"
     inkscape:current-layer="g1578"
     inkscape:document-rotation="0">
    <inkscape:grid
       type="xygrid"
       id="grid858" />
  </sodipodi:namedview>
  <linearGradient
     id="a"
     x2="0"
     y1="541.79797"
     y2="499.78421"
     gradientTransform="matrix(0.69229859,0,0,0.69207328,120.25629,150.83367)"
     gradientUnits="userSpaceOnUse">
    <stop
       stop-color="#3daee9"
       offset="0"
       id="stop2" />
    <stop
       stop-color="#6cc1ef"
       offset="1"
       id="stop4" />
  </linearGradient>
  <g
     id="g1578">
    <g
       id="g999">
      <path
         sodipodi:nodetypes="sccsccscccssccccssccccccsccs"
         inkscape:connector-curvature="0"
         id="path3461-24"
         d="m 9.7481,4.0017394 c -2.9004,0 -5.051,-0.095 -6.6562,1.11914 -0.8135,0.61532 -1.3536,1.54216 -1.6641,2.7168 C 1.1185,9.0076194 1,10.451439 1,12.325959 v 9.40625 3.26953 12.26953 c 0,1.95222 0.053,3.44137 0.2676,4.64453 0.2154,1.20586 0.6222,2.18455 1.3868,2.86524 0.7626,0.67895 1.7527,0.95992 2.8945,1.09179 1.1408,0.13175 2.4963,0.12891 4.1992,0.12891 H 38.252 c 1.6708,0 3.0101,0.002 4.1445,-0.12891 v 0 c 1.1353,-0.13187 2.1255,-0.41132 2.8946,-1.08593 0.7708,-0.67622 1.1929,-1.653 1.4199,-2.86133 0.2265,-1.20563 0.2871,-2.69921 0.2871,-4.6543 v -18.53906 c 0,-0.25826 -0.012,-0.42611 -0.014,-0.60547 v -0.0117 l 0.014,-1.875 c 0.013,-1.81021 0.019,-3.25112 -0.1152,-4.45508 -0.134,-1.20424 -0.4167,-2.2303796 -1.0957,-3.0273396 -0.682,-0.80032 -1.6746,-1.24023 -2.8907,-1.4707 -1.2123,-0.22969 -2.7045,-0.28516 -4.6465,-0.28516 H 22.3477 l -3,-3 z"
         style="color:#000000;font-style:normal;font-variant:normal;font-weight:normal;font-stretch:normal;font-size:medium;line-height:normal;font-family:sans-serif;font-variant-ligatures:normal;font-variant-position:normal;font-variant-caps:normal;font-variant-numeric:normal;font-variant-alternates:normal;font-feature-settings:normal;text-indent:0;text-align:start;text-decoration:none;text-decoration-line:none;text-decoration-style:solid;text-decoration-color:#000000;letter-spacing:normal;word-spacing:normal;text-transform:none;writing-mode:lr-tb;direction:ltr;text-orientation:mixed;dominant-baseline:auto;baseline-shift:baseline;text-anchor:start;white-space:normal;shape-padding:0;clip-rule:nonzero;display:inline;overflow:visible;visibility:visible;opacity:0.1;isolation:auto;mix-blend-mode:normal;color-interpolation:sRGB;color-interpolation-filters:linearRGB;solid-color:#000000;solid-opacity:1;vector-effect:none;fill:#000000;fill-opacity:1;fill-rule:nonzero;stroke:none;stroke-width:1;stroke-linecap:butt;stroke-linejoin:miter;stroke-miterlimit:4;stroke-dasharray:none;stroke-dashoffset:0;stroke-opacity:1;marker:none;color-rendering:auto;image-rendering:auto;shape-rendering:auto;text-rendering:auto;enable-background:accumulate" />
      <path
         inkscape:connector-curvature="0"
         id="path3463-0"
         d="m 9.7481,3.0017394 c -2.9004,0 -5.051,-0.095 -6.6562,1.11914 -0.8135,0.61532 -1.3536,1.54216 -1.6641,2.7168 C 1.1185,8.0076194 1,9.4514394 1,11.325959 v 8.67578 h 46 v -2.26953 c 0,-0.25826 -0.012,-0.42611 -0.014,-0.60547 v -0.0117 l 0.014,-1.875 c 0.013,-1.81021 0.019,-3.25112 -0.1152,-4.45508 -0.134,-1.2042396 -0.4166,-2.2303796 -1.0957,-3.0273396 -0.6819,-0.80032 -1.6746,-1.24023 -2.8906,-1.4707 -1.2124,-0.22968 -2.7045,-0.28516 -4.6465,-0.28516 H 22.3497 l -3,-3 z"
         style="color:#000000;font-style:normal;font-variant:normal;font-weight:normal;font-stretch:normal;font-size:medium;line-height:normal;font-family:sans-serif;font-variant-ligatures:normal;font-variant-position:normal;font-variant-caps:normal;font-variant-numeric:normal;font-variant-alternates:normal;font-feature-settings:normal;text-indent:0;text-align:start;text-decoration:none;text-decoration-line:none;text-decoration-style:solid;text-decoration-color:#000000;letter-spacing:normal;word-spacing:normal;text-transform:none;writing-mode:lr-tb;direction:ltr;text-orientation:mixed;dominant-baseline:auto;baseline-shift:baseline;text-anchor:start;white-space:normal;shape-padding:0;clip-rule:nonzero;display:inline;overflow:visible;visibility:visible;isolation:auto;mix-blend-mode:normal;color-interpolation:sRGB;color-interpolation-filters:linearRGB;solid-color:#000000;solid-opacity:1;vector-effect:none;fill:url(#linearGradient5220);fill-opacity:1;fill-rule:nonzero;stroke:none;stroke-width:1;stroke-linecap:butt;stroke-linejoin:miter;stroke-miterlimit:4;stroke-dasharray:none;stroke-dashoffset:0;stroke-opacity:1;marker:none;color-rendering:auto;image-rendering:auto;shape-rendering:auto;text-rendering:auto;enable-background:accumulate" />
      <path
         inkscape:connector-curvature="0"
         id="path3485-4"
         d="m 22.9376,10.001739 -3.002,3 H 9.7481 c -6.8128,0 -7.748,-2.1e-4 -7.748,7.73047 v 1 c 0,-7.73068 0.9352,-7.73047 7.748,-7.73047 h 10.1875 l 3.002,-3 H 38.252 c 6.6839,0 7.7481,-2.1e-4 7.7481,7.73047 v -1 c 0,-7.73068 -1.0642,-7.73047 -7.7481,-7.73047 z"
         style="color:#000000;display:inline;overflow:visible;visibility:visible;opacity:0.3;fill:#ffffff;fill-opacity:1;fill-rule:nonzero;stroke:none;stroke-width:1;marker:none;enable-background:accumulate" />
      <path
         sodipodi:nodetypes="sccsccscccssccccssccccccsccs"
         inkscape:connector-curvature="0"
         style="color:#000000;font-style:normal;font-variant:normal;font-weight:normal;font-stretch:normal;font-size:medium;line-height:normal;font-family:sans-serif;font-variant-ligatures:normal;font-variant-position:normal;font-variant-caps:normal;font-variant-numeric:normal;font-variant-alternates:normal;font-feature-settings:normal;text-indent:0;text-align:start;text-decoration:none;text-decoration-line:none;text-decoration-style:solid;text-decoration-color:#000000;letter-spacing:normal;word-spacing:normal;text-transform:none;writing-mode:lr-tb;direction:ltr;text-orientation:mixed;dominant-baseline:auto;baseline-shift:baseline;text-anchor:start;white-space:normal;shape-padding:0;clip-rule:nonzero;display:inline;overflow:visible;visibility:visible;isolation:auto;mix-blend-mode:normal;color-interpolation:sRGB;color-interpolation-filters:linearRGB;solid-color:#000000;solid-opacity:1;vector-effect:none;fill:url(#linearGradient5230);fill-opacity:1;fill-rule:nonzero;stroke:none;stroke-width:1;stroke-linecap:butt;stroke-linejoin:miter;stroke-miterlimit:4;stroke-dasharray:none;stroke-dashoffset:0;stroke-opacity:1;marker:none;color-rendering:auto;image-rendering:auto;shape-rendering:auto;text-rendering:auto;enable-background:accumulate"
         d="m 38.2585,10.001739 c 2.9004,0 5.051,-0.095 6.6562,1.11914 0.8135,0.61532 1.3536,1.54216 1.6641,2.7168 0.3092,1.16994 0.4277,2.61376 0.4277,4.48828 v 9.40625 4.26953 4.26953 c 0,1.95222 -0.053,3.44138 -0.2676,4.64453 -0.2153,1.20586 -0.6221,2.18455 -1.3867,2.86524 -0.7627,0.67895 -1.7527,0.95992 -2.8945,1.09179 -1.1408,0.13175 -2.4963,0.12891 -4.1992,0.12891 H 9.7545 c -1.6707,0 -3.0101,0.002 -4.1445,-0.12891 v 0 c -1.1352,-0.13187 -2.1255,-0.41132 -2.8945,-1.08593 -0.7709,-0.67622 -1.193,-1.653 -1.4199,-2.86133 -0.2265,-1.20563 -0.2871,-2.69921 -0.2871,-4.6543 v -11.53906 c 0,-0.25826 0.012,-0.42611 0.014,-0.60547 v -0.0117 l -0.014,-1.875 c -0.013,-1.81021 -0.019,-3.25112 0.1152,-4.45508 0.134,-1.20424 0.4166,-2.23038 1.0957,-3.02734 0.6819,-0.80032 1.6746,-1.24023 2.8906,-1.4707 1.2125,-0.22968 2.7144,-0.48029 4.6466,-0.28516 h 9.9023 l 3,-3 z"
         id="path3523-2" />
      <path
         sodipodi:nodetypes="ccssc"
         inkscape:connector-curvature="0"
         style="color:#000000;display:inline;overflow:visible;visibility:visible;opacity:0.05;fill:#ffffff;fill-opacity:1;fill-rule:nonzero;stroke:none;stroke-width:1;marker:none;enable-background:accumulate"
         d="m 46.9356,32.001739 -12,12 h 4.6886 c 6.6316,0 7.3114,-0.67952 7.3114,-7.29786 z"
         id="path3525-8" />
      <path
         inkscape:connector-curvature="0"
         id="path3527-29"
         d="m 1.0001,35.271269 v 1 c 0,1.95222 0.053,3.44137 0.2675,4.64453 0.2154,1.20586 0.6222,2.18455 1.3868,2.86524 0.7626,0.67895 1.7527,0.95992 2.8945,1.09179 1.1408,0.13175 2.4963,0.12891 4.1992,0.12891 H 38.252 c 1.6708,0 3.0101,0.002 4.1445,-0.12891 v 0 c 1.1353,-0.13187 2.1255,-0.41132 2.8946,-1.08593 0.7708,-0.67622 1.1929,-1.653 1.4199,-2.86133 0.2265,-1.20563 0.2871,-2.69921 0.2871,-4.6543 v -1 c 0,1.95509 -0.061,3.44867 -0.2871,4.6543 -0.227,1.20833 -0.6491,2.18511 -1.4199,2.86133 -0.7691,0.67461 -1.7593,0.95406 -2.8946,1.08593 v 0 c -1.1344,0.13091 -2.4737,0.12891 -4.1445,0.12891 H 9.7481 c -1.7029,0 -3.0584,0.003 -4.1992,-0.12891 C 4.4071,43.740959 3.417,43.459989 2.6544,42.781039 1.8898,42.100349 1.483,41.121659 1.2676,39.915799 1.0529,38.712639 1,37.223489 1.0001,35.271269 Z"
         style="color:#000000;font-style:normal;font-variant:normal;font-weight:normal;font-stretch:normal;font-size:medium;line-height:normal;font-family:sans-serif;font-variant-ligatures:normal;font-variant-position:normal;font-variant-caps:normal;font-variant-numeric:normal;font-variant-alternates:normal;font-feature-settings:normal;text-indent:0;text-align:start;text-decoration:none;text-decoration-line:none;text-decoration-style:solid;text-decoration-color:#000000;letter-spacing:normal;word-spacing:normal;text-transform:none;writing-mode:lr-tb;direction:ltr;text-orientation:mixed;dominant-baseline:auto;baseline-shift:baseline;text-anchor:start;white-space:normal;shape-padding:0;clip-rule:nonzero;display:inline;overflow:visible;visibility:visible;opacity:0.2;isolation:auto;mix-blend-mode:normal;color-interpolation:sRGB;color-interpolation-filters:linearRGB;solid-color:#000000;solid-opacity:1;vector-effect:none;fill:#000000;fill-opacity:1;fill-rule:nonzero;stroke:none;stroke-width:1;stroke-linecap:butt;stroke-linejoin:miter;stroke-miterlimit:4;stroke-dasharray:none;stroke-dashoffset:0;stroke-opacity:1;marker:none;color-rendering:auto;image-rendering:auto;shape-rendering:auto;text-rendering:auto;enable-background:accumulate" />
      <path
         inkscape:connector-curvature="0"
         id="path3529-9"
         d="m 22.6563,10.001739 -3,3 H 9.754 c -1.9322,-0.19513 -3.4341,0.0555 -4.6465,0.28516 -1.216,0.23047 -2.2087,0.67039 -2.8906,1.4707 -0.6791,0.79696 -0.9618,1.8231 -1.0957,3.02734 -0.073,0.65514 -0.1018,1.40002 -0.1133,2.2168 h 0.039 c 0.017,-0.42337 0.034,-0.85058 0.074,-1.2168 0.134,-1.20424 0.4166,-2.23038 1.0957,-3.02734 0.6819,-0.80031 1.6746,-1.24023 2.8906,-1.4707 1.2124,-0.22968 2.7143,-0.48029 4.6465,-0.28516 h 9.9023 l 3,-3 h 15.6016 c 2.9004,0 5.051,-0.095 6.6562,1.11914 0.8135,0.61532 1.3536,1.54216 1.6641,2.7168 0.3092,1.16994 0.4277,2.61376 0.4277,4.48828 v -1 c 0,-1.87452 -0.1185,-3.31834 -0.4277,-4.48828 -0.3105,-1.17464 -0.8506,-2.10148 -1.6641,-2.7168 -1.6052,-1.2141796 -3.7558,-1.11914 -6.6562,-1.11914 z"
         style="color:#000000;font-style:normal;font-variant:normal;font-weight:normal;font-stretch:normal;font-size:medium;line-height:normal;font-family:sans-serif;font-variant-ligatures:normal;font-variant-position:normal;font-variant-caps:normal;font-variant-numeric:normal;font-variant-alternates:normal;font-feature-settings:normal;text-indent:0;text-align:start;text-decoration:none;text-decoration-line:none;text-decoration-style:solid;text-decoration-color:#000000;letter-spacing:normal;word-spacing:normal;text-transform:none;writing-mode:lr-tb;direction:ltr;text-orientation:mixed;dominant-baseline:auto;baseline-shift:baseline;text-anchor:start;white-space:normal;shape-padding:0;clip-rule:nonzero;display:inline;overflow:visible;visibility:visible;opacity:0.2;isolation:auto;mix-blend-mode:normal;color-interpolation:sRGB;color-interpolation-filters:linearRGB;solid-color:#000000;solid-opacity:1;vector-effect:none;fill:#ffffff;fill-opacity:1;fill-rule:nonzero;stroke:none;stroke-width:1;stroke-linecap:butt;stroke-linejoin:miter;stroke-miterlimit:4;stroke-dasharray:none;stroke-dashoffset:0;stroke-opacity:1;marker:none;color-rendering:auto;image-rendering:auto;shape-rendering:auto;text-rendering:auto;enable-background:accumulate" />
      <path
         inkscape:connector-curvature="0"
         style="color:#000000;font-style:normal;font-variant:normal;font-weight:normal;font-stretch:normal;font-size:medium;line-height:normal;font-family:sans-serif;font-variant-ligatures:normal;font-variant-position:normal;font-variant-caps:normal;font-variant-numeric:normal;font-variant-alternates:normal;font-feature-settings:normal;text-indent:0;text-align:start;text-decoration:none;text-decoration-line:none;text-decoration-style:solid;text-decoration-color:#000000;letter-spacing:normal;word-spacing:normal;text-transform:none;writing-mode:lr-tb;direction:ltr;text-orientation:mixed;dominant-baseline:auto;baseline-shift:baseline;text-anchor:start;white-space:normal;shape-padding:0;clip-rule:nonzero;display:inline;overflow:visible;visibility:visible;opacity:0.1;isolation:auto;mix-blend-mode:normal;color-interpolation:sRGB;color-interpolation-filters:linearRGB;solid-color:#000000;solid-opacity:1;vector-effect:none;fill:#732206;fill-opacity:1;fill-rule:nonzero;stroke:none;stroke-width:1;stroke-linecap:butt;stroke-linejoin:miter;stroke-miterlimit:4;stroke-dasharray:none;stroke-dashoffset:0;stroke-opacity:1;marker:none;color-rendering:auto;image-rendering:auto;shape-rendering:auto;text-rendering:auto;enable-background:accumulate"
         d="m 22.6563,9.0017394 -3,2.9999996 H 9.754 c -1.9322,-0.19513 -3.4341,0.0555 -4.6465,0.28516 -1.216,0.23047 -2.2087,0.67039 -2.8906,1.4707 -0.6791,0.79696 -0.9618,1.8231 -1.0957,3.02734 -0.073,0.65514 -0.1018,1.40002 -0.1133,2.2168 h 0.039 c 0.017,-0.42337 0.034,-0.85058 0.074,-1.2168 0.134,-1.20424 0.4166,-2.23038 1.0957,-3.02734 0.6819,-0.80031 1.6746,-1.24023 2.8906,-1.4707 1.2124,-0.22968 2.7143,-0.48029 4.6465,-0.28516 h 9.9023 l 3,-3 h 15.6016 c 2.9004,0 5.051,-0.095 6.6562,1.11914 0.8135,0.61532 1.3536,1.54216 1.6641,2.7168 0.3092,1.16994 0.4277,2.61376 0.4277,4.48828 v -1 c 0,-1.87452 -0.1185,-3.31834 -0.4277,-4.48828 -0.3105,-1.17464 -0.8506,-2.10148 -1.6641,-2.7168 C 43.3086,8.9066994 41.158,9.0017394 38.2576,9.0017394 Z"
         id="path3531-6" />
      <path
         inkscape:connector-curvature="0"
         id="path3533-02"
         d="m 9.7481,3.0017394 c -2.9004,0 -5.051,-0.095 -6.6562,1.11914 -0.8135,0.61532 -1.3536,1.54216 -1.6641,2.7168 C 1.1185,8.0076194 1,9.4514394 1,11.325959 v 1 c 0,-1.87452 0.1185,-3.3183396 0.4278,-4.4882796 0.3105,-1.17464 0.8505,-2.10148 1.6641,-2.7168 1.6052,-1.21418 3.7558,-1.11914 6.6562,-1.11914 h 9.6016 l 3,3 H 38.252 c 1.942,0 3.4341,0.0555 4.6465,0.28516 1.216,0.23047 2.2087,0.67039 2.8906,1.4707 0.6791,0.79696 0.9617,1.8230996 1.0957,3.0273396 0.067,0.60198 0.1,1.263 0.1133,2 0,-1.12793 -0.019,-2.15282 -0.1133,-3 -0.134,-1.2042396 -0.4166,-2.2303796 -1.0957,-3.0273396 -0.6819,-0.80031 -1.6746,-1.24023 -2.8906,-1.4707 -1.2124,-0.22968 -2.7045,-0.28516 -4.6465,-0.28516 H 22.3497 l -3,-3 z m 37.2441,14.3671896 -0.01,0.74609 v 0.0117 c 0,0.17936 0.014,0.34721 0.014,0.60547 v -1 c 0,-0.15495 0,-0.25141 -0.01,-0.36328 z"
         style="color:#000000;font-style:normal;font-variant:normal;font-weight:normal;font-stretch:normal;font-size:medium;line-height:normal;font-family:sans-serif;font-variant-ligatures:normal;font-variant-position:normal;font-variant-caps:normal;font-variant-numeric:normal;font-variant-alternates:normal;font-feature-settings:normal;text-indent:0;text-align:start;text-decoration:none;text-decoration-line:none;text-decoration-style:solid;text-decoration-color:#000000;letter-spacing:normal;word-spacing:normal;text-transform:none;writing-mode:lr-tb;direction:ltr;text-orientation:mixed;dominant-baseline:auto;baseline-shift:baseline;text-anchor:start;white-space:normal;shape-padding:0;clip-rule:nonzero;display:inline;overflow:visible;visibility:visible;opacity:0.2;isolation:auto;mix-blend-mode:normal;color-interpolation:sRGB;color-interpolation-filters:linearRGB;solid-color:#000000;solid-opacity:1;vector-effect:none;fill:#ffffff;fill-opacity:1;fill-rule:nonzero;stroke:none;stroke-width:1;stroke-linecap:butt;stroke-linejoin:miter;stroke-miterlimit:4;stroke-dasharray:none;stroke-dashoffset:0;stroke-opacity:1;marker:none;color-rendering:auto;image-rendering:auto;shape-rendering:auto;text-rendering:auto;enable-background:accumulate" />
      <g
         id="g967"
         transform="translate(-34.064,-0.999)"
         style="fill:#ffffff">
        <path
           id="path4527-2"
           style="color:#000000;display:inline;overflow:visible;visibility:visible;opacity:0.75;fill:#ffffff;fill-opacity:1;fill-rule:nonzero;stroke:none;stroke-width:5.99881;marker:none;enable-background:accumulate"
           d="m 53.994141,22 c -1.2582,0.0145 -2.178841,-0.0306 -2.931641,0.384766 -0.3764,0.20766 -0.673191,0.559388 -0.837891,0.998046 C 50.059909,23.821494 50.1596,24.36204 50,25 v 4 4 c 0,0.65761 0.06001,1.178527 0.224609,1.617188 0.1647,0.438656 0.461491,0.790396 0.837891,0.998046 0.7528,0.41532 1.673541,0.370196 2.931641,0.384766 h 2.001953 4.125 2.001953 c 1.2582,-0.01457 2.17884,0.03055 2.931641,-0.384766 0.3764,-0.20765 0.67319,-0.55939 0.83789,-0.998046 0.1645,-0.438663 0.224599,-0.959578 0.22461,-1.617188 v -4 -4 c 0,-0.65761 -0.06001,-1.178517 -0.22461,-1.617188 -0.1647,-0.438659 -0.461491,-0.790386 -0.83789,-0.998046 C 64.309888,21.9694 63.389059,22.0145 62.130859,22 h -2.001953 -4.125 -2.001953 z M 56,23 h 4.125 c 2,0 3.484462,-0.01562 4.226562,0.224609 C 65.334964,23.671819 65.125,25 65.125,26 65.1242,28.123172 65.089,30.676961 65,33 H 60.125 56 51.125 C 51.036,30.676961 51.0009,28.123172 51,26 51,25 50.790033,23.671819 51.773438,23.224609 52.515636,22.984376 54,23 56,23 Z" />
        <path
           id="path2-3"
           style="font-variant-ligatures:normal;font-variant-position:normal;font-variant-caps:normal;font-variant-numeric:normal;font-variant-alternates:normal;font-feature-settings:normal;text-indent:0;text-decoration:none;text-decoration-line:none;text-decoration-style:solid;text-decoration-color:#000000;text-transform:none;text-orientation:mixed;white-space:normal;shape-padding:0;opacity:0.75;isolation:auto;mix-blend-mode:normal;fill:#ffffff;fill-opacity:1"
           d="m 53.481293,24.996094 c -0.47384,0.0193 -0.657208,0.625697 -0.273438,0.904297 L 54.674652,27 53.207855,28.09961 c -0.53385,0.40104 0.06769,1.201801 0.601563,0.800781 l 2,-1.5 c 0.26732,-0.2 0.26732,-0.600781 0,-0.800781 l -2,-1.5 c -0.0937,-0.0722 -0.209945,-0.108516 -0.328125,-0.103516 z M 56.008637,29 v 1 h 3 v -1 z" />
      </g>
    </g>
  </g>
</svg>
