<?xml version="1.0" encoding="UTF-8" standalone="no"?>
<svg
   xmlns:dc="http://purl.org/dc/elements/1.1/"
   xmlns:cc="http://creativecommons.org/ns#"
   xmlns:rdf="http://www.w3.org/1999/02/22-rdf-syntax-ns#"
   xmlns:svg="http://www.w3.org/2000/svg"
   xmlns="http://www.w3.org/2000/svg"
   xmlns:xlink="http://www.w3.org/1999/xlink"
   xmlns:sodipodi="http://sodipodi.sourceforge.net/DTD/sodipodi-0.dtd"
   xmlns:inkscape="http://www.inkscape.org/namespaces/inkscape"
   viewBox="0 0 48 48"
   version="1.1"
   id="svg27"
   sodipodi:docname="user-desktop.svg"
   inkscape:version="1.0.2 (e86c870879, 2021-01-15)">
  <metadata
     id="metadata33">
    <rdf:RDF>
      <cc:Work
         rdf:about="">
        <dc:format>image/svg+xml</dc:format>
        <dc:type
           rdf:resource="http://purl.org/dc/dcmitype/StillImage" />
        <dc:title />
      </cc:Work>
    </rdf:RDF>
  </metadata>
  <defs
     id="defs31">
    <linearGradient
       inkscape:collect="always"
       xlink:href="#linearGradient1674"
       id="linearGradient962"
       gradientUnits="userSpaceOnUse"
       gradientTransform="matrix(0.11328125,0,0,0.11327801,-3.99996,-10.488546)"
       x1="512"
       y1="397.99393"
       x2="-1.0000001e-06"
       y2="125.99394" />
    <linearGradient
       inkscape:collect="always"
       id="linearGradient1674">
      <stop
         id="stop1670"
         offset="0"
         style="stop-color:#fb7c38;stop-opacity:1" />
      <stop
         id="stop1672"
         offset="1"
         style="stop-color:#9b33ae;stop-opacity:1" />
    </linearGradient>
    <linearGradient
       inkscape:collect="always"
       xlink:href="#linearGradient927-3-6"
       id="linearGradient945"
       x1="348"
       y1="65"
       x2="348"
       y2="105"
       gradientUnits="userSpaceOnUse"
       gradientTransform="translate(-319.99928,-60.999313)" />
    <linearGradient
       inkscape:collect="always"
       id="linearGradient927-3-6">
      <stop
         style="stop-color:#ffffff;stop-opacity:1;"
         offset="0"
         id="stop923-3" />
      <stop
         id="stop933-6"
         offset="0.125"
         style="stop-color:#ffffff;stop-opacity:0.09803922" />
      <stop
         id="stop931-7"
         offset="0.92500001"
         style="stop-color:#ffffff;stop-opacity:0.09803922" />
      <stop
         style="stop-color:#000000;stop-opacity:0.49803922"
         offset="1"
         id="stop925-5" />
    </linearGradient>
  </defs>
  <sodipodi:namedview
     pagecolor="#ffffff"
     bordercolor="#666666"
     borderopacity="1"
     objecttolerance="10"
     gridtolerance="10"
     guidetolerance="10"
     inkscape:pageopacity="0"
     inkscape:pageshadow="2"
     inkscape:window-width="1366"
     inkscape:window-height="689"
     id="namedview29"
     showgrid="true"
     inkscape:zoom="5.5729166"
     inkscape:cx="21.152349"
     inkscape:cy="35.18612"
     inkscape:window-x="0"
     inkscape:window-y="0"
     inkscape:window-maximized="1"
     inkscape:current-layer="svg27"
     inkscape:document-rotation="0">
    <inkscape:grid
       type="xygrid"
       id="grid858" />
  </sodipodi:namedview>
  <linearGradient
     id="a"
     x2="0"
     y1="541.79797"
     y2="499.78421"
     gradientTransform="matrix(0.69229859,0,0,0.69207328,120.25629,150.83367)"
     gradientUnits="userSpaceOnUse">
    <stop
       stop-color="#3daee9"
       offset="0"
       id="stop2" />
    <stop
       stop-color="#6cc1ef"
       offset="1"
       id="stop4" />
  </linearGradient>
  <g
     id="g860">
    <path
       style="color:#000000;font-style:normal;font-variant:normal;font-weight:normal;font-stretch:normal;font-size:medium;line-height:normal;font-family:sans-serif;font-variant-ligatures:normal;font-variant-position:normal;font-variant-caps:normal;font-variant-numeric:normal;font-variant-alternates:normal;font-feature-settings:normal;text-indent:0;text-align:start;text-decoration:none;text-decoration-line:none;text-decoration-style:solid;text-decoration-color:#000000;letter-spacing:normal;word-spacing:normal;text-transform:none;writing-mode:lr-tb;direction:ltr;text-orientation:mixed;dominant-baseline:auto;baseline-shift:baseline;text-anchor:start;white-space:normal;shape-padding:0;clip-rule:nonzero;display:inline;overflow:visible;visibility:visible;opacity:0.1;isolation:auto;mix-blend-mode:normal;color-interpolation:sRGB;color-interpolation-filters:linearRGB;solid-color:#000000;solid-opacity:1;vector-effect:none;fill:#000000;fill-opacity:1;fill-rule:nonzero;stroke:none;stroke-width:2;stroke-linecap:butt;stroke-linejoin:miter;stroke-miterlimit:4;stroke-dasharray:none;stroke-dashoffset:0;stroke-opacity:1;marker:none;color-rendering:auto;image-rendering:auto;shape-rendering:auto;text-rendering:auto;enable-background:accumulate"
       d="m 1,34.269494 c 0,2.22316 0.0512,3.97368 0.29297,5.414063 0.24178,1.44039 0.69529,2.61905 1.55664,3.48243 0.86134,0.86337 2.03947,1.31906 3.48046,1.55859 1.441,0.23953 3.19535,0.28629 5.42383,0.27539 H 24 36.25195 c 2.22506,0.0108 3.97852,-0.0361 5.41797,-0.27539 1.441,-0.23953 2.61913,-0.69522 3.48047,-1.55859 0.86134,-0.86338 1.31486,-2.04204 1.55664,-3.48243 C 46.94882,38.243164 47,36.492654 47,34.269494 v -16.53906 c 0,-2.22316 -0.0511,-3.97276 -0.29297,-5.41016 -0.24189,-1.4374 -0.69694,-2.61246 -1.55859,-3.47265 -0.86165,-0.8602 -2.03894,-1.3132 -3.47852,-1.55469 -1.43957,-0.24149 -3.19036,-0.29297 -5.41797,-0.29297 H 24 11.74804 c -2.22761,0 -3.97839,0.0515 -5.41797,0.29297 -1.43957,0.24149 -2.61686,0.69449 -3.47851,1.55469 -0.86165,0.86019 -1.31671,2.03525 -1.55859,3.47265 C 1.05108,13.757674 1,15.507274 1,17.730434 Z"
       id="path1020"
       inkscape:connector-curvature="0"
       sodipodi:nodetypes="sccsccccccsscccscsccsss" />
    <path
       style="color:#000000;display:inline;overflow:visible;visibility:visible;fill:url(#linearGradient962);fill-opacity:1;fill-rule:nonzero;stroke:none;stroke-width:1;marker:none;enable-background:accumulate"
       d="m 11.74877,4.000687 c -2.22703,0 -3.98101,0.04964 -5.41993,0.291016 C 4.88858,4.533306 3.71446,4.985664 2.85228,5.84639 1.9898,6.707413 1.53568,7.883041 1.29369,9.320999 1.20755,9.832873 1.15221,10.401781 1.10814,11.000687 1.02856,12.08235 1.00072,13.300484 1.00072,14.731156 v 18.539062 c 0,2.222843 0.0514,3.974746 0.29297,5.414063 0.24191,1.441106 0.69492,2.616716 1.55664,3.480466 0.86187,0.86391 2.03884,1.31896 3.48047,1.5586 1.43916,0.23922 3.19276,0.2882 5.41992,0.27734 h 12.25 12.24805 c 2.22714,0.0108 3.98268,-0.0381 5.42187,-0.27734 1.44163,-0.23964 2.61664,-0.69468 3.47852,-1.5586 0.86171,-0.86375 1.31473,-2.03935 1.55664,-3.480466 0.24161,-1.439342 0.29492,-3.191227 0.29492,-5.414063 V 14.731156 c 0,-1.430636 -0.0273,-2.648824 -0.10742,-3.730469 C 46.8489,10.401751 46.79194,9.832897 46.7058,9.320999 46.46382,7.883039 46.01165,6.707413 45.14916,5.84639 44.28698,4.985664 43.11092,4.533306 41.67064,4.291703 40.24071,4.051824 38.71032,4.000687 36.25267,4.000687 H 24.00072 Z"
       id="path958"
       inkscape:export-xdpi="95.996666"
       inkscape:export-ydpi="95.996666" />
    <path
       id="path901"
       d="m 1.50003,33.26953 c 0,2.21461 0.0547,3.94722 0.28711,5.33203 0.23246,1.384807 0.65434,2.445507 1.41797,3.210937 0.76363,0.76543 1.82234,1.1878 3.20703,1.41797 1.38469,0.23017 3.1184,0.28039 5.33789,0.26953 h 12.25 12.25196 c 2.21833,0.0108 3.95175,-0.0394 5.33593,-0.26953 1.38469,-0.23017 2.4434,-0.65253 3.20703,-1.41797 0.76363,-0.76544 1.18551,-1.82612 1.41797,-3.210937 0.23246,-1.38481 0.28711,-3.11742 0.28711,-5.33203 V 14.73047 c 0,-2.2146 -0.0546,-3.94454 -0.28711,-5.32617 C 45.98042,8.02267 45.55874,6.96366 44.79495,6.20117 44.03117,5.43868 42.9719,5.01732 41.58792,4.78516 40.20394,4.55299 38.70243,4.5 36.25199,4.5 H 24.00003 11.74808 C 9.52901,4.5 7.79612,4.553 6.41214,4.78516 5.02816,5.01732 3.96889,5.43868 3.20511,6.20117 2.44133,6.96366 2.01965,8.02267 1.78714,9.4043 1.55464,10.78593 1.50003,12.51587 1.50003,14.73047 Z"
       style="color:#000000;display:inline;overflow:visible;visibility:visible;opacity:0.3;fill:none;fill-opacity:1;fill-rule:nonzero;stroke:url(#linearGradient945);stroke-width:1;stroke-opacity:1;marker:none;enable-background:accumulate"
       inkscape:connector-curvature="0"
       sodipodi:nodetypes="scssccccsssscccscssscss" />
    <path
       style="color:#000000;display:inline;overflow:visible;visibility:visible;opacity:0.3;fill:#000000;fill-opacity:1;fill-rule:nonzero;stroke:none;stroke-width:1;marker:none;enable-background:accumulate"
       d="m 1.0013959,33.752 v 0 C 0.96969592,43.403127 2.8480358,44 12.859196,44 H 34.256585 C 44.265245,44 47,44 47,33.796813 V 33.752 Z"
       id="path964-1"
       inkscape:connector-curvature="0"
       sodipodi:nodetypes="ccssscc" />
  </g>
</svg>
