<?xml version="1.0" encoding="UTF-8" standalone="no"?>
<svg
   xmlns:dc="http://purl.org/dc/elements/1.1/"
   xmlns:cc="http://creativecommons.org/ns#"
   xmlns:rdf="http://www.w3.org/1999/02/22-rdf-syntax-ns#"
   xmlns:svg="http://www.w3.org/2000/svg"
   xmlns="http://www.w3.org/2000/svg"
   xmlns:xlink="http://www.w3.org/1999/xlink"
   xmlns:sodipodi="http://sodipodi.sourceforge.net/DTD/sodipodi-0.dtd"
   xmlns:inkscape="http://www.inkscape.org/namespaces/inkscape"
   width="64"
   version="1.1"
   height="64"
   id="svg17"
   sodipodi:docname="folder-pictures.svg"
   inkscape:version="1.0.2 (e86c870879, 2021-01-15)">
  <sodipodi:namedview
     pagecolor="#ffffff"
     bordercolor="#666666"
     borderopacity="1"
     objecttolerance="10"
     gridtolerance="10"
     guidetolerance="10"
     inkscape:pageopacity="0"
     inkscape:pageshadow="2"
     inkscape:window-width="1366"
     inkscape:window-height="689"
     id="namedview19"
     showgrid="true"
     inkscape:zoom="4.1796875"
     inkscape:cx="32"
     inkscape:cy="32"
     inkscape:window-x="0"
     inkscape:window-y="0"
     inkscape:window-maximized="1"
     inkscape:current-layer="layer1"
     inkscape:document-rotation="0">
    <inkscape:grid
       type="xygrid"
       id="grid844" />
  </sodipodi:namedview>
  <defs
     id="defs5455">
    <clipPath
       clipPathUnits="userSpaceOnUse"
       id="clipPath977">
      <path
         id="path979"
         d="M 78.994141,52 C 43.625611,52 40,53.999146 40,89.296875 V 140 H 264 V 108.92188 C 264,73.624145 260.37439,68 225.00586,68 H 138 L 122,52 Z"
         style="color:#000000;display:inline;overflow:visible;visibility:visible;fill:#f6531e;fill-opacity:1;fill-rule:nonzero;stroke:none;stroke-width:1;marker:none;enable-background:accumulate"
         inkscape:connector-curvature="0" />
    </clipPath>
    <clipPath
       clipPathUnits="userSpaceOnUse"
       id="clipPath977-5">
      <path
         id="path979-7"
         d="M 78.994141,52 C 43.625611,52 40,53.999146 40,89.296875 V 140 H 264 V 108.92188 C 264,73.624145 260.37439,68 225.00586,68 H 138 L 122,52 Z"
         style="color:#000000;display:inline;overflow:visible;visibility:visible;fill:#f6531e;fill-opacity:1;fill-rule:nonzero;stroke:none;stroke-width:1;marker:none;enable-background:accumulate"
         inkscape:connector-curvature="0" />
    </clipPath>
    <clipPath
       clipPathUnits="userSpaceOnUse"
       id="clipPath977-3">
      <path
         id="path979-6"
         d="M 78.994141,52 C 43.625611,52 40,53.999146 40,89.296875 V 140 H 264 V 108.92188 C 264,73.624145 260.37439,68 225.00586,68 H 138 L 122,52 Z"
         style="color:#000000;display:inline;overflow:visible;visibility:visible;fill:#f6531e;fill-opacity:1;fill-rule:nonzero;stroke:none;stroke-width:1;marker:none;enable-background:accumulate"
         inkscape:connector-curvature="0" />
    </clipPath>
    <clipPath
       clipPathUnits="userSpaceOnUse"
       id="clipPath977-1">
      <path
         id="path979-3"
         d="M 78.994141,52 C 43.625611,52 40,53.999146 40,89.296875 V 140 H 264 V 108.92188 C 264,73.624145 260.37439,68 225.00586,68 H 138 L 122,52 Z"
         style="color:#000000;display:inline;overflow:visible;visibility:visible;fill:#f6531e;fill-opacity:1;fill-rule:nonzero;stroke:none;stroke-width:1;marker:none;enable-background:accumulate"
         inkscape:connector-curvature="0" />
    </clipPath>
    <clipPath
       clipPathUnits="userSpaceOnUse"
       id="clipPath977-64">
      <path
         id="path979-6-7"
         d="M 78.994141,52 C 43.625611,52 40,53.999146 40,89.296875 V 140 H 264 V 108.92188 C 264,73.624145 260.37439,68 225.00586,68 H 138 L 122,52 Z"
         style="color:#000000;display:inline;overflow:visible;visibility:visible;fill:#f6531e;fill-opacity:1;fill-rule:nonzero;stroke:none;stroke-width:1;marker:none;enable-background:accumulate"
         inkscape:connector-curvature="0" />
    </clipPath>
    <clipPath
       clipPathUnits="userSpaceOnUse"
       id="clipPath977-65">
      <path
         id="path979-2"
         d="M 78.994141,52 C 43.625611,52 40,53.999146 40,89.296875 V 140 H 264 V 108.92188 C 264,73.624145 260.37439,68 225.00586,68 H 138 L 122,52 Z"
         style="color:#000000;display:inline;overflow:visible;visibility:visible;fill:#f6531e;fill-opacity:1;fill-rule:nonzero;stroke:none;stroke-width:1;marker:none;enable-background:accumulate"
         inkscape:connector-curvature="0" />
    </clipPath>
    <linearGradient
       inkscape:collect="always"
       xlink:href="#linearGradient1055"
       id="linearGradient3007"
       gradientUnits="userSpaceOnUse"
       x1="264"
       y1="252"
       x2="48"
       y2="52"
       gradientTransform="translate(259.5714,343.798)" />
    <linearGradient
       inkscape:collect="always"
       id="linearGradient1055">
      <stop
         style="stop-color:#000000;stop-opacity:1;"
         offset="0"
         id="stop1051" />
      <stop
         id="stop1059"
         offset="0.1589853"
         style="stop-color:#000000;stop-opacity:0.43290043" />
      <stop
         style="stop-color:#000000;stop-opacity:0.0995671"
         offset="0.19443204"
         id="stop1061" />
      <stop
         style="stop-color:#000000;stop-opacity:0;"
         offset="1"
         id="stop1053" />
    </linearGradient>
    <filter
       inkscape:collect="always"
       style="color-interpolation-filters:sRGB"
       id="filter1067"
       x="-0.056785714"
       width="1.1135714"
       y="-0.063600004"
       height="1.1272">
      <feGaussianBlur
         inkscape:collect="always"
         stdDeviation="5.3"
         id="feGaussianBlur1069" />
    </filter>
    <filter
       inkscape:collect="always"
       style="color-interpolation-filters:sRGB"
       id="filter1344-2"
       x="-0.011357143"
       width="1.0227143"
       y="-0.01272"
       height="1.02544">
      <feGaussianBlur
         inkscape:collect="always"
         stdDeviation="1.06"
         id="feGaussianBlur1346-8" />
    </filter>
    <filter
       inkscape:collect="always"
       style="color-interpolation-filters:sRGB"
       id="filter959-9"
       x="-0.011357143"
       width="1.0227143"
       y="-0.01272"
       height="1.02544">
      <feGaussianBlur
         inkscape:collect="always"
         stdDeviation="1.06"
         id="feGaussianBlur961-3" />
    </filter>
    <linearGradient
       inkscape:collect="always"
       xlink:href="#linearGradient36441"
       id="linearGradient5222"
       gradientUnits="userSpaceOnUse"
       gradientTransform="matrix(0.25657473,0,0,0.25657473,377.57207,475.85035)"
       x1="40"
       y1="260"
       x2="264"
       y2="52" />
    <linearGradient
       inkscape:collect="always"
       id="linearGradient36441">
      <stop
         style="stop-color:#2c001e;stop-opacity:1"
         offset="0"
         id="stop36437" />
      <stop
         id="stop36445"
         offset="0.10864977"
         style="stop-color:#2c001e;stop-opacity:1" />
      <stop
         style="stop-color:#370626;stop-opacity:1"
         offset="0.18689813"
         id="stop36449" />
      <stop
         id="stop36451"
         offset="0.2980746"
         style="stop-color:#55163b;stop-opacity:1" />
      <stop
         style="stop-color:#772953;stop-opacity:1"
         offset="0.37246177"
         id="stop36453" />
      <stop
         style="stop-color:#7c2b51;stop-opacity:1"
         offset="0.44700962"
         id="stop36447" />
      <stop
         id="stop36455"
         offset="0.52428877"
         style="stop-color:#8b314b;stop-opacity:1" />
      <stop
         style="stop-color:#8b314b;stop-opacity:1"
         offset="0.59614229"
         id="stop36457" />
      <stop
         id="stop36459"
         offset="0.66876179"
         style="stop-color:#a33a41;stop-opacity:1" />
      <stop
         style="stop-color:#c44732;stop-opacity:1"
         offset="0.79755175"
         id="stop36461" />
      <stop
         id="stop36463"
         offset="0.91251218"
         style="stop-color:#e65524;stop-opacity:1" />
      <stop
         style="stop-color:#e65524;stop-opacity:1"
         offset="1"
         id="stop36439" />
    </linearGradient>
    <clipPath
       clipPathUnits="userSpaceOnUse"
       id="clipPath977-68">
      <path
         id="path979-02"
         d="M 78.994141,52 C 43.625611,52 40,53.999146 40,89.296875 V 140 H 264 V 108.92188 C 264,73.624145 260.37439,68 225.00586,68 H 138 L 122,52 Z"
         style="color:#000000;display:inline;overflow:visible;visibility:visible;fill:#f6531e;fill-opacity:1;fill-rule:nonzero;stroke:none;stroke-width:1;marker:none;enable-background:accumulate"
         inkscape:connector-curvature="0" />
    </clipPath>
    <filter
       inkscape:collect="always"
       style="color-interpolation-filters:sRGB"
       id="filter989-1"
       x="-0.053571429"
       width="1.1071429"
       y="-0.06818182"
       height="1.1363636">
      <feGaussianBlur
         inkscape:collect="always"
         stdDeviation="5"
         id="feGaussianBlur991-05" />
    </filter>
    <linearGradient
       inkscape:collect="always"
       xlink:href="#linearGradient3388"
       id="linearGradient5224"
       gradientUnits="userSpaceOnUse"
       gradientTransform="matrix(0.25657473,0,0,0.25657473,377.57207,475.85035)"
       x1="40"
       y1="84"
       x2="264"
       y2="260" />
    <linearGradient
       inkscape:collect="always"
       id="linearGradient3388">
      <stop
         style="stop-color:#666666;stop-opacity:1;"
         offset="0"
         id="stop3384" />
      <stop
         style="stop-color:#7a7a7a;stop-opacity:1"
         offset="1"
         id="stop3386" />
    </linearGradient>
    <radialGradient
       inkscape:collect="always"
       xlink:href="#linearGradient1361"
       id="radialGradient3541-08"
       gradientUnits="userSpaceOnUse"
       gradientTransform="matrix(0.25657473,0,0,0.06749047,377.57207,491.25333)"
       cx="152"
       cy="-0.12591045"
       fx="152"
       fy="-0.12591045"
       r="112" />
    <linearGradient
       inkscape:collect="always"
       id="linearGradient1361">
      <stop
         style="stop-color:#ffffff;stop-opacity:1;"
         offset="0"
         id="stop1357" />
      <stop
         style="stop-color:#ffffff;stop-opacity:0.20392157"
         offset="1"
         id="stop1359" />
    </linearGradient>
    <radialGradient
       inkscape:collect="always"
       xlink:href="#linearGradient1361"
       id="radialGradient3543-64"
       gradientUnits="userSpaceOnUse"
       gradientTransform="matrix(0.25657473,0,0,0.06519963,377.57207,497.89417)"
       cx="148"
       cy="39.683556"
       fx="148"
       fy="39.683556"
       r="112" />
  </defs>
  <metadata
     id="metadata5458">
    <rdf:RDF>
      <cc:Work
         rdf:about="">
        <dc:format>image/svg+xml</dc:format>
        <dc:type
           rdf:resource="http://purl.org/dc/dcmitype/StillImage" />
        <dc:title />
      </cc:Work>
    </rdf:RDF>
  </metadata>
  <g
     inkscape:label="Capa 1"
     inkscape:groupmode="layer"
     id="layer1"
     transform="matrix(1 0 0 1 -384.57143 -483.798)">
    <g
       id="g916">
      <g
         id="g1822">
        <path
           inkscape:connector-curvature="0"
           id="path2937"
           d="m 338.5655,395.798 c -35.3685,0 -38.9941,1.99915 -38.9941,37.29687 v 41.62501 9.07812 81.07812 c 0,35.29774 3.6256,38.92188 38.9941,38.92188 h 146.0118 c 35.3685,0 38.9941,-3.62414 38.9941,-38.92188 v -81.07812 -25.07812 -6 c 0,-35.29774 -3.6256,-40.92188 -38.9941,-40.92188 h -87.0059 l -16,-16 z"
           style="color:#000000;display:inline;overflow:visible;visibility:visible;opacity:0.4;fill:url(#linearGradient3007);fill-opacity:1;fill-rule:nonzero;stroke:none;stroke-width:1;marker:none;filter:url(#filter1067);enable-background:accumulate"
           sodipodi:nodetypes="ssccssssccssccs"
           transform="matrix(0.25657473,0,0,0.25657473,310.97261,387.64041)" />
        <path
           inkscape:connector-curvature="0"
           id="path3459-7"
           d="m 338.5655,397.79824 c -35.3685,0 -38.9941,1.99915 -38.9941,37.29688 v 41.625 9.07812 73.07812 c 0,35.29774 3.6256,38.92188 38.9941,38.92188 h 146.0118 c 35.3685,0 38.9941,-3.62414 38.9941,-38.92188 v -73.07812 -25.07812 -6 c 0,-35.29774 -3.6256,-40.92188 -38.9941,-40.92188 h -87.0059 l -16,-16 z"
           style="color:#000000;display:inline;overflow:visible;visibility:visible;opacity:0.1;fill:#000000;fill-opacity:1;fill-rule:nonzero;stroke:none;stroke-width:1;marker:none;filter:url(#filter1344-2);enable-background:accumulate"
           transform="matrix(0.25657473,0,0,0.25657473,310.97261,387.64041)" />
        <path
           sodipodi:nodetypes="ssccssssccssccs"
           inkscape:connector-curvature="0"
           id="path3465-6"
           d="m 338.5655,396.79824 c -35.3685,0 -38.9941,1.99915 -38.9941,37.29688 v 41.625 60.65624 29.5 c 0,35.29774 3.6256,38.92188 38.9941,38.92188 h 146.0118 c 35.3685,0 38.9941,-3.62414 38.9941,-38.92188 v -29.5 -76.65624 -6 c 0,-35.29773 -3.6256,-40.92188 -38.9941,-40.92188 h -87.0059 l -16,-16 z"
           style="color:#000000;display:inline;overflow:visible;visibility:visible;opacity:0.1;fill:#000000;fill-opacity:1;fill-rule:nonzero;stroke:none;stroke-width:1;marker:none;filter:url(#filter959-9);enable-background:accumulate"
           transform="matrix(0.25657473,0,0,0.25657473,310.97261,387.64041)" />
        <path
           sodipodi:nodetypes="ssccssccs"
           inkscape:connector-curvature="0"
           id="path3469-2"
           d="m 397.83996,489.19224 c -9.07466,0 -10.0049,0.51293 -10.0049,9.56943 v 13.00914 h 57.47274 v -7.97386 c 0,-9.0565 -0.93024,-10.49952 -10.0049,-10.49952 h -22.32352 l -4.10519,-4.10519 z"
           style="color:#000000;display:inline;overflow:visible;visibility:visible;fill:url(#linearGradient5222);fill-opacity:1;fill-rule:nonzero;stroke:none;stroke-width:0.256575;marker:none;enable-background:accumulate" />
        <path
           transform="matrix(0.25657473,0,0,0.25657473,377.57207,477.90295)"
           clip-path="url(#clipPath977-68)"
           inkscape:connector-curvature="0"
           id="path3471-99"
           d="M 78.99353,92 C 43.625,92 40,95.625 40,130.92273 v 82.15454 C 40,248.375 43.625,252 78.99353,252 H 225.00647 C 260.375,252 264,248.375 264,213.07727 V 114.92273 C 264,79.625 260.375,76 225.00647,76 H 143.75 l -16.00782,16 z"
           style="color:#000000;display:inline;overflow:visible;visibility:visible;opacity:0.5;fill:#903906;fill-opacity:1;fill-rule:nonzero;stroke:none;stroke-width:1;marker:none;filter:url(#filter989-1);enable-background:accumulate"
           sodipodi:nodetypes="ssssssssccs" />
        <path
           sodipodi:nodetypes="ssssssssccs"
           style="color:#000000;display:inline;overflow:visible;visibility:visible;fill:url(#linearGradient5224);fill-opacity:1;fill-rule:nonzero;stroke:none;stroke-width:0.256575;marker:none;enable-background:accumulate"
           d="m 397.83981,501.50782 c -9.07467,0 -10.00475,0.93009 -10.00475,9.98659 v 21.07878 c 0,9.05651 0.93008,9.98659 10.00475,9.98659 h 37.46324 c 9.07467,0 10.00475,-0.93008 10.00475,-9.98659 v -25.18397 c 0,-9.05651 -0.93008,-9.98659 -10.00475,-9.98659 h -20.84836 l -4.1072,4.10519 z"
           id="path3473-0"
           inkscape:connector-curvature="0" />
        <path
           sodipodi:nodetypes="sscsccscssccs"
           inkscape:connector-curvature="0"
           id="path3475-8"
           d="m 397.83996,489.19224 c -9.07466,0 -10.0049,0.51293 -10.0049,9.56943 v 0.51315 c 0,-9.0565 0.93024,-9.56943 10.0049,-9.56943 h 11.03423 l 4.10519,4.10519 h 22.32352 c 9.07466,0 10.0049,1.44301 10.0049,10.49952 v -0.51315 c 0,-9.05651 -0.93024,-10.49952 -10.0049,-10.49952 h -22.32352 l -4.10519,-4.10519 z"
           style="color:#000000;display:inline;overflow:visible;visibility:visible;opacity:0.4;fill:url(#radialGradient3541-08);fill-opacity:1;fill-rule:nonzero;stroke:none;stroke-width:0.256575;marker:none;enable-background:accumulate" />
        <path
           sodipodi:nodetypes="ccsscsccscssc"
           inkscape:connector-curvature="0"
           id="path3477-1"
           d="m 414.45469,497.40263 -4.1072,4.10519 h -12.50753 c -9.07466,0 -10.0049,0.92987 -10.0049,9.98637 v 0.51315 c 0,-9.0565 0.93024,-9.98637 10.0049,-9.98637 h 12.50753 l 4.1072,-4.10519 h 20.84821 c 9.07466,0 10.0049,0.92986 10.0049,9.98637 V 507.389 c 0,-9.05651 -0.93024,-9.98637 -10.0049,-9.98637 z"
           style="color:#000000;display:inline;overflow:visible;visibility:visible;opacity:0.4;fill:url(#radialGradient3543-64);fill-opacity:1;fill-rule:nonzero;stroke:none;stroke-width:0.256575;marker:none;enable-background:accumulate" />
        <path
           sodipodi:nodetypes="ccssc"
           inkscape:connector-curvature="0"
           id="path3479-3"
           d="m 445.3078,525.62585 -16.42078,16.42078 h 6.41588 c 9.07466,0 10.0049,-0.92986 10.0049,-9.98637 z"
           style="color:#000000;display:inline;overflow:visible;visibility:visible;opacity:0.05;fill:#ffffff;fill-opacity:1;fill-rule:nonzero;stroke:none;stroke-width:0.256575;marker:none;enable-background:accumulate" />
        <path
           inkscape:connector-curvature="0"
           id="path3487-0"
           d="m 387.83506,532.06026 v 0.51315 c 0,9.05651 0.93024,9.98637 10.0049,9.98637 h 37.46294 c 9.07466,0 10.0049,-0.92986 10.0049,-9.98637 v -0.51315 c 0,9.05651 -0.93024,9.98637 -10.0049,9.98637 h -37.46294 c -9.07466,0 -10.0049,-0.92986 -10.0049,-9.98637 z"
           style="color:#000000;display:inline;overflow:visible;visibility:visible;opacity:0.2;fill:#491706;fill-opacity:1;fill-rule:nonzero;stroke:none;stroke-width:0.256575;marker:none;enable-background:accumulate" />
      </g>
      <path
         style="color:#000000;display:inline;overflow:visible;visibility:visible;opacity:0.75;fill:#ffffff;fill-opacity:1;fill-rule:nonzero;stroke:none;stroke-width:10.1144;marker:none;enable-background:accumulate"
         d="m 410.04277,508.692 c -2.12142,0.0245 -3.67361,-0.0516 -4.94289,0.64873 -0.63464,0.35015 -1.13506,0.94317 -1.41276,1.68279 -0.27769,0.73963 -0.10959,1.65105 -0.37869,2.72669 v 6.74429 6.74429 c 0,1.10877 0.10116,1.98708 0.37869,2.72669 0.2777,0.7396 0.77812,1.33266 1.41276,1.68277 1.26928,0.70026 2.82164,0.62418 4.94289,0.64875 h 3.37551 6.95505 3.37534 c 2.12142,-0.0246 3.67378,0.0516 4.94306,-0.64875 0.63464,-0.35011 1.13506,-0.94317 1.41276,-1.68277 0.27736,-0.73961 0.37869,-1.61792 0.37869,-2.72669 v -6.74429 -6.74429 c 0,-1.10877 -0.10116,-1.98706 -0.37869,-2.72669 -0.2777,-0.73962 -0.77812,-1.33264 -1.41276,-1.68279 -1.25579,-0.70032 -2.80832,-0.62428 -4.92974,-0.64873 h -3.37551 -6.95505 -3.37534 z m 3.38209,1.68607 h 6.95504 c 3.37215,0 5.87512,-0.0263 7.12635,0.37871 1.65809,0.75403 1.30401,2.99343 1.30401,4.67951 -0.001,3.57981 -0.0607,7.88568 -0.21076,11.8025 h -8.2196 -6.95504 -8.2196 c -0.15006,-3.91682 -0.20924,-8.22269 -0.21076,-11.8025 0,-1.68608 -0.35407,-3.92548 1.30401,-4.67951 1.2514,-0.40505 3.75421,-0.37871 7.12635,-0.37871 z m 9.27272,1.68607 c -1.39674,0 -2.52911,1.13232 -2.52911,2.52911 0,1.39679 1.13237,2.52911 2.52911,2.52911 1.39674,0 2.5291,-1.13232 2.5291,-2.52911 0,-1.39679 -1.13236,-2.52911 -2.5291,-2.52911 z m -9.2734,4.21518 -5.05821,9.27339 h 4.58409 8.90448 l -4.21518,-7.58732 -1.68607,2.52911 z"
         id="path4527-2"
         inkscape:connector-curvature="0"
         sodipodi:nodetypes="cccscsccccccccscscccccccssccccccccssssssccccccc" />
    </g>
    <g
       id="g942">
      <g
         id="g938">
        <path
           inkscape:connector-curvature="0"
           id="path918"
           d="m 338.5655,395.798 c -35.3685,0 -38.9941,1.99915 -38.9941,37.29687 v 41.62501 9.07812 81.07812 c 0,35.29774 3.6256,38.92188 38.9941,38.92188 h 146.0118 c 35.3685,0 38.9941,-3.62414 38.9941,-38.92188 v -81.07812 -25.07812 -6 c 0,-35.29774 -3.6256,-40.92188 -38.9941,-40.92188 h -87.0059 l -16,-16 z"
           style="color:#000000;display:inline;overflow:visible;visibility:visible;opacity:0.4;fill:url(#linearGradient3007);fill-opacity:1;fill-rule:nonzero;stroke:none;stroke-width:1;marker:none;filter:url(#filter1067);enable-background:accumulate"
           sodipodi:nodetypes="ssccssssccssccs"
           transform="matrix(0.25657473,0,0,0.25657473,310.97261,387.64041)" />
        <path
           inkscape:connector-curvature="0"
           id="path920"
           d="m 338.5655,397.79824 c -35.3685,0 -38.9941,1.99915 -38.9941,37.29688 v 41.625 9.07812 73.07812 c 0,35.29774 3.6256,38.92188 38.9941,38.92188 h 146.0118 c 35.3685,0 38.9941,-3.62414 38.9941,-38.92188 v -73.07812 -25.07812 -6 c 0,-35.29774 -3.6256,-40.92188 -38.9941,-40.92188 h -87.0059 l -16,-16 z"
           style="color:#000000;display:inline;overflow:visible;visibility:visible;opacity:0.1;fill:#000000;fill-opacity:1;fill-rule:nonzero;stroke:none;stroke-width:1;marker:none;filter:url(#filter1344-2);enable-background:accumulate"
           transform="matrix(0.25657473,0,0,0.25657473,310.97261,387.64041)" />
        <path
           sodipodi:nodetypes="ssccssssccssccs"
           inkscape:connector-curvature="0"
           id="path922"
           d="m 338.5655,396.79824 c -35.3685,0 -38.9941,1.99915 -38.9941,37.29688 v 41.625 60.65624 29.5 c 0,35.29774 3.6256,38.92188 38.9941,38.92188 h 146.0118 c 35.3685,0 38.9941,-3.62414 38.9941,-38.92188 v -29.5 -76.65624 -6 c 0,-35.29773 -3.6256,-40.92188 -38.9941,-40.92188 h -87.0059 l -16,-16 z"
           style="color:#000000;display:inline;overflow:visible;visibility:visible;opacity:0.1;fill:#000000;fill-opacity:1;fill-rule:nonzero;stroke:none;stroke-width:1;marker:none;filter:url(#filter959-9);enable-background:accumulate"
           transform="matrix(0.25657473,0,0,0.25657473,310.97261,387.64041)" />
        <path
           sodipodi:nodetypes="ssccssccs"
           inkscape:connector-curvature="0"
           id="path924"
           d="m 397.83996,489.19224 c -9.07466,0 -10.0049,0.51293 -10.0049,9.56943 v 13.00914 h 57.47274 v -7.97386 c 0,-9.0565 -0.93024,-10.49952 -10.0049,-10.49952 h -22.32352 l -4.10519,-4.10519 z"
           style="color:#000000;display:inline;overflow:visible;visibility:visible;fill:url(#linearGradient5222);fill-opacity:1;fill-rule:nonzero;stroke:none;stroke-width:0.256575;marker:none;enable-background:accumulate" />
        <path
           transform="matrix(0.25657473,0,0,0.25657473,377.57207,477.90295)"
           clip-path="url(#clipPath977-68)"
           inkscape:connector-curvature="0"
           id="path926"
           d="M 78.99353,92 C 43.625,92 40,95.625 40,130.92273 v 82.15454 C 40,248.375 43.625,252 78.99353,252 H 225.00647 C 260.375,252 264,248.375 264,213.07727 V 114.92273 C 264,79.625 260.375,76 225.00647,76 H 143.75 l -16.00782,16 z"
           style="color:#000000;display:inline;overflow:visible;visibility:visible;opacity:0.5;fill:#903906;fill-opacity:1;fill-rule:nonzero;stroke:none;stroke-width:1;marker:none;filter:url(#filter989-1);enable-background:accumulate"
           sodipodi:nodetypes="ssssssssccs" />
        <path
           sodipodi:nodetypes="ssssssssccs"
           style="color:#000000;display:inline;overflow:visible;visibility:visible;fill:url(#linearGradient5224);fill-opacity:1;fill-rule:nonzero;stroke:none;stroke-width:0.256575;marker:none;enable-background:accumulate"
           d="m 397.83981,501.50782 c -9.07467,0 -10.00475,0.93009 -10.00475,9.98659 v 21.07878 c 0,9.05651 0.93008,9.98659 10.00475,9.98659 h 37.46324 c 9.07467,0 10.00475,-0.93008 10.00475,-9.98659 v -25.18397 c 0,-9.05651 -0.93008,-9.98659 -10.00475,-9.98659 h -20.84836 l -4.1072,4.10519 z"
           id="path928"
           inkscape:connector-curvature="0" />
        <path
           sodipodi:nodetypes="sscsccscssccs"
           inkscape:connector-curvature="0"
           id="path930"
           d="m 397.83996,489.19224 c -9.07466,0 -10.0049,0.51293 -10.0049,9.56943 v 0.51315 c 0,-9.0565 0.93024,-9.56943 10.0049,-9.56943 h 11.03423 l 4.10519,4.10519 h 22.32352 c 9.07466,0 10.0049,1.44301 10.0049,10.49952 v -0.51315 c 0,-9.05651 -0.93024,-10.49952 -10.0049,-10.49952 h -22.32352 l -4.10519,-4.10519 z"
           style="color:#000000;display:inline;overflow:visible;visibility:visible;opacity:0.4;fill:url(#radialGradient3541-08);fill-opacity:1;fill-rule:nonzero;stroke:none;stroke-width:0.256575;marker:none;enable-background:accumulate" />
        <path
           sodipodi:nodetypes="ccsscsccscssc"
           inkscape:connector-curvature="0"
           id="path932"
           d="m 414.45469,497.40263 -4.1072,4.10519 h -12.50753 c -9.07466,0 -10.0049,0.92987 -10.0049,9.98637 v 0.51315 c 0,-9.0565 0.93024,-9.98637 10.0049,-9.98637 h 12.50753 l 4.1072,-4.10519 h 20.84821 c 9.07466,0 10.0049,0.92986 10.0049,9.98637 V 507.389 c 0,-9.05651 -0.93024,-9.98637 -10.0049,-9.98637 z"
           style="color:#000000;display:inline;overflow:visible;visibility:visible;opacity:0.4;fill:url(#radialGradient3543-64);fill-opacity:1;fill-rule:nonzero;stroke:none;stroke-width:0.256575;marker:none;enable-background:accumulate" />
        <path
           sodipodi:nodetypes="ccssc"
           inkscape:connector-curvature="0"
           id="path934"
           d="m 445.3078,525.62585 -16.42078,16.42078 h 6.41588 c 9.07466,0 10.0049,-0.92986 10.0049,-9.98637 z"
           style="color:#000000;display:inline;overflow:visible;visibility:visible;opacity:0.05;fill:#ffffff;fill-opacity:1;fill-rule:nonzero;stroke:none;stroke-width:0.256575;marker:none;enable-background:accumulate" />
        <path
           inkscape:connector-curvature="0"
           id="path936"
           d="m 387.83506,532.06026 v 0.51315 c 0,9.05651 0.93024,9.98637 10.0049,9.98637 h 37.46294 c 9.07466,0 10.0049,-0.92986 10.0049,-9.98637 v -0.51315 c 0,9.05651 -0.93024,9.98637 -10.0049,9.98637 h -37.46294 c -9.07466,0 -10.0049,-0.92986 -10.0049,-9.98637 z"
           style="color:#000000;display:inline;overflow:visible;visibility:visible;opacity:0.2;fill:#491706;fill-opacity:1;fill-rule:nonzero;stroke:none;stroke-width:0.256575;marker:none;enable-background:accumulate" />
      </g>
      <path
         style="color:#000000;display:inline;overflow:visible;visibility:visible;opacity:0.75;fill:#ffffff;fill-opacity:1;fill-rule:nonzero;stroke:none;stroke-width:10.1144;marker:none;enable-background:accumulate"
         d="m 410.04277,508.692 c -2.12142,0.0245 -3.67361,-0.0516 -4.94289,0.64873 -0.63464,0.35015 -1.13506,0.94317 -1.41276,1.68279 -0.27769,0.73963 -0.10959,1.65105 -0.37869,2.72669 v 6.74429 6.74429 c 0,1.10877 0.10116,1.98708 0.37869,2.72669 0.2777,0.7396 0.77812,1.33266 1.41276,1.68277 1.26928,0.70026 2.82164,0.62418 4.94289,0.64875 h 3.37551 6.95505 3.37534 c 2.12142,-0.0246 3.67378,0.0516 4.94306,-0.64875 0.63464,-0.35011 1.13506,-0.94317 1.41276,-1.68277 0.27736,-0.73961 0.37869,-1.61792 0.37869,-2.72669 v -6.74429 -6.74429 c 0,-1.10877 -0.10116,-1.98706 -0.37869,-2.72669 -0.2777,-0.73962 -0.77812,-1.33264 -1.41276,-1.68279 -1.25579,-0.70032 -2.80832,-0.62428 -4.92974,-0.64873 h -3.37551 -6.95505 -3.37534 z m 3.38209,1.68607 h 6.95504 c 3.37215,0 5.87512,-0.0263 7.12635,0.37871 1.65809,0.75403 1.30401,2.99343 1.30401,4.67951 -0.001,3.57981 -0.0607,7.88568 -0.21076,11.8025 h -8.2196 -6.95504 -8.2196 c -0.15006,-3.91682 -0.20924,-8.22269 -0.21076,-11.8025 0,-1.68608 -0.35407,-3.92548 1.30401,-4.67951 1.2514,-0.40505 3.75421,-0.37871 7.12635,-0.37871 z m 9.27272,1.68607 c -1.39674,0 -2.52911,1.13232 -2.52911,2.52911 0,1.39679 1.13237,2.52911 2.52911,2.52911 1.39674,0 2.5291,-1.13232 2.5291,-2.52911 0,-1.39679 -1.13236,-2.52911 -2.5291,-2.52911 z m -9.2734,4.21518 -5.05821,9.27339 h 4.58409 8.90448 l -4.21518,-7.58732 -1.68607,2.52911 z"
         id="path940"
         inkscape:connector-curvature="0"
         sodipodi:nodetypes="cccscsccccccccscscccccccssccccccccssssssccccccc" />
    </g>
    <g
       id="g968">
      <g
         id="g964">
        <path
           inkscape:connector-curvature="0"
           id="path944"
           d="m 338.5655,395.798 c -35.3685,0 -38.9941,1.99915 -38.9941,37.29687 v 41.62501 9.07812 81.07812 c 0,35.29774 3.6256,38.92188 38.9941,38.92188 h 146.0118 c 35.3685,0 38.9941,-3.62414 38.9941,-38.92188 v -81.07812 -25.07812 -6 c 0,-35.29774 -3.6256,-40.92188 -38.9941,-40.92188 h -87.0059 l -16,-16 z"
           style="color:#000000;display:inline;overflow:visible;visibility:visible;opacity:0.4;fill:url(#linearGradient3007);fill-opacity:1;fill-rule:nonzero;stroke:none;stroke-width:1;marker:none;filter:url(#filter1067);enable-background:accumulate"
           sodipodi:nodetypes="ssccssssccssccs"
           transform="matrix(0.25657473,0,0,0.25657473,310.97261,387.64041)" />
        <path
           inkscape:connector-curvature="0"
           id="path946"
           d="m 338.5655,397.79824 c -35.3685,0 -38.9941,1.99915 -38.9941,37.29688 v 41.625 9.07812 73.07812 c 0,35.29774 3.6256,38.92188 38.9941,38.92188 h 146.0118 c 35.3685,0 38.9941,-3.62414 38.9941,-38.92188 v -73.07812 -25.07812 -6 c 0,-35.29774 -3.6256,-40.92188 -38.9941,-40.92188 h -87.0059 l -16,-16 z"
           style="color:#000000;display:inline;overflow:visible;visibility:visible;opacity:0.1;fill:#000000;fill-opacity:1;fill-rule:nonzero;stroke:none;stroke-width:1;marker:none;filter:url(#filter1344-2);enable-background:accumulate"
           transform="matrix(0.25657473,0,0,0.25657473,310.97261,387.64041)" />
        <path
           sodipodi:nodetypes="ssccssssccssccs"
           inkscape:connector-curvature="0"
           id="path948"
           d="m 338.5655,396.79824 c -35.3685,0 -38.9941,1.99915 -38.9941,37.29688 v 41.625 60.65624 29.5 c 0,35.29774 3.6256,38.92188 38.9941,38.92188 h 146.0118 c 35.3685,0 38.9941,-3.62414 38.9941,-38.92188 v -29.5 -76.65624 -6 c 0,-35.29773 -3.6256,-40.92188 -38.9941,-40.92188 h -87.0059 l -16,-16 z"
           style="color:#000000;display:inline;overflow:visible;visibility:visible;opacity:0.1;fill:#000000;fill-opacity:1;fill-rule:nonzero;stroke:none;stroke-width:1;marker:none;filter:url(#filter959-9);enable-background:accumulate"
           transform="matrix(0.25657473,0,0,0.25657473,310.97261,387.64041)" />
        <path
           sodipodi:nodetypes="ssccssccs"
           inkscape:connector-curvature="0"
           id="path950"
           d="m 397.83996,489.19224 c -9.07466,0 -10.0049,0.51293 -10.0049,9.56943 v 13.00914 h 57.47274 v -7.97386 c 0,-9.0565 -0.93024,-10.49952 -10.0049,-10.49952 h -22.32352 l -4.10519,-4.10519 z"
           style="color:#000000;display:inline;overflow:visible;visibility:visible;fill:url(#linearGradient5222);fill-opacity:1;fill-rule:nonzero;stroke:none;stroke-width:0.256575;marker:none;enable-background:accumulate" />
        <path
           transform="matrix(0.25657473,0,0,0.25657473,377.57207,477.90295)"
           clip-path="url(#clipPath977-68)"
           inkscape:connector-curvature="0"
           id="path952"
           d="M 78.99353,92 C 43.625,92 40,95.625 40,130.92273 v 82.15454 C 40,248.375 43.625,252 78.99353,252 H 225.00647 C 260.375,252 264,248.375 264,213.07727 V 114.92273 C 264,79.625 260.375,76 225.00647,76 H 143.75 l -16.00782,16 z"
           style="color:#000000;display:inline;overflow:visible;visibility:visible;opacity:0.5;fill:#903906;fill-opacity:1;fill-rule:nonzero;stroke:none;stroke-width:1;marker:none;filter:url(#filter989-1);enable-background:accumulate"
           sodipodi:nodetypes="ssssssssccs" />
        <path
           sodipodi:nodetypes="ssssssssccs"
           style="color:#000000;display:inline;overflow:visible;visibility:visible;fill:url(#linearGradient5224);fill-opacity:1;fill-rule:nonzero;stroke:none;stroke-width:0.256575;marker:none;enable-background:accumulate"
           d="m 397.83981,501.50782 c -9.07467,0 -10.00475,0.93009 -10.00475,9.98659 v 21.07878 c 0,9.05651 0.93008,9.98659 10.00475,9.98659 h 37.46324 c 9.07467,0 10.00475,-0.93008 10.00475,-9.98659 v -25.18397 c 0,-9.05651 -0.93008,-9.98659 -10.00475,-9.98659 h -20.84836 l -4.1072,4.10519 z"
           id="path954"
           inkscape:connector-curvature="0" />
        <path
           sodipodi:nodetypes="sscsccscssccs"
           inkscape:connector-curvature="0"
           id="path956"
           d="m 397.83996,489.19224 c -9.07466,0 -10.0049,0.51293 -10.0049,9.56943 v 0.51315 c 0,-9.0565 0.93024,-9.56943 10.0049,-9.56943 h 11.03423 l 4.10519,4.10519 h 22.32352 c 9.07466,0 10.0049,1.44301 10.0049,10.49952 v -0.51315 c 0,-9.05651 -0.93024,-10.49952 -10.0049,-10.49952 h -22.32352 l -4.10519,-4.10519 z"
           style="color:#000000;display:inline;overflow:visible;visibility:visible;opacity:0.4;fill:url(#radialGradient3541-08);fill-opacity:1;fill-rule:nonzero;stroke:none;stroke-width:0.256575;marker:none;enable-background:accumulate" />
        <path
           sodipodi:nodetypes="ccsscsccscssc"
           inkscape:connector-curvature="0"
           id="path958"
           d="m 414.45469,497.40263 -4.1072,4.10519 h -12.50753 c -9.07466,0 -10.0049,0.92987 -10.0049,9.98637 v 0.51315 c 0,-9.0565 0.93024,-9.98637 10.0049,-9.98637 h 12.50753 l 4.1072,-4.10519 h 20.84821 c 9.07466,0 10.0049,0.92986 10.0049,9.98637 V 507.389 c 0,-9.05651 -0.93024,-9.98637 -10.0049,-9.98637 z"
           style="color:#000000;display:inline;overflow:visible;visibility:visible;opacity:0.4;fill:url(#radialGradient3543-64);fill-opacity:1;fill-rule:nonzero;stroke:none;stroke-width:0.256575;marker:none;enable-background:accumulate" />
        <path
           sodipodi:nodetypes="ccssc"
           inkscape:connector-curvature="0"
           id="path960"
           d="m 445.3078,525.62585 -16.42078,16.42078 h 6.41588 c 9.07466,0 10.0049,-0.92986 10.0049,-9.98637 z"
           style="color:#000000;display:inline;overflow:visible;visibility:visible;opacity:0.05;fill:#ffffff;fill-opacity:1;fill-rule:nonzero;stroke:none;stroke-width:0.256575;marker:none;enable-background:accumulate" />
        <path
           inkscape:connector-curvature="0"
           id="path962"
           d="m 387.83506,532.06026 v 0.51315 c 0,9.05651 0.93024,9.98637 10.0049,9.98637 h 37.46294 c 9.07466,0 10.0049,-0.92986 10.0049,-9.98637 v -0.51315 c 0,9.05651 -0.93024,9.98637 -10.0049,9.98637 h -37.46294 c -9.07466,0 -10.0049,-0.92986 -10.0049,-9.98637 z"
           style="color:#000000;display:inline;overflow:visible;visibility:visible;opacity:0.2;fill:#491706;fill-opacity:1;fill-rule:nonzero;stroke:none;stroke-width:0.256575;marker:none;enable-background:accumulate" />
      </g>
      <path
         style="color:#000000;display:inline;overflow:visible;visibility:visible;opacity:0.75;fill:#ffffff;fill-opacity:1;fill-rule:nonzero;stroke:none;stroke-width:10.1144;marker:none;enable-background:accumulate"
         d="m 410.04277,508.692 c -2.12142,0.0245 -3.67361,-0.0516 -4.94289,0.64873 -0.63464,0.35015 -1.13506,0.94317 -1.41276,1.68279 -0.27769,0.73963 -0.10959,1.65105 -0.37869,2.72669 v 6.74429 6.74429 c 0,1.10877 0.10116,1.98708 0.37869,2.72669 0.2777,0.7396 0.77812,1.33266 1.41276,1.68277 1.26928,0.70026 2.82164,0.62418 4.94289,0.64875 h 3.37551 6.95505 3.37534 c 2.12142,-0.0246 3.67378,0.0516 4.94306,-0.64875 0.63464,-0.35011 1.13506,-0.94317 1.41276,-1.68277 0.27736,-0.73961 0.37869,-1.61792 0.37869,-2.72669 v -6.74429 -6.74429 c 0,-1.10877 -0.10116,-1.98706 -0.37869,-2.72669 -0.2777,-0.73962 -0.77812,-1.33264 -1.41276,-1.68279 -1.25579,-0.70032 -2.80832,-0.62428 -4.92974,-0.64873 h -3.37551 -6.95505 -3.37534 z m 3.38209,1.68607 h 6.95504 c 3.37215,0 5.87512,-0.0263 7.12635,0.37871 1.65809,0.75403 1.30401,2.99343 1.30401,4.67951 -0.001,3.57981 -0.0607,7.88568 -0.21076,11.8025 h -8.2196 -6.95504 -8.2196 c -0.15006,-3.91682 -0.20924,-8.22269 -0.21076,-11.8025 0,-1.68608 -0.35407,-3.92548 1.30401,-4.67951 1.2514,-0.40505 3.75421,-0.37871 7.12635,-0.37871 z m 9.27272,1.68607 c -1.39674,0 -2.52911,1.13232 -2.52911,2.52911 0,1.39679 1.13237,2.52911 2.52911,2.52911 1.39674,0 2.5291,-1.13232 2.5291,-2.52911 0,-1.39679 -1.13236,-2.52911 -2.5291,-2.52911 z m -9.2734,4.21518 -5.05821,9.27339 h 4.58409 8.90448 l -4.21518,-7.58732 -1.68607,2.52911 z"
         id="path966"
         inkscape:connector-curvature="0"
         sodipodi:nodetypes="cccscsccccccccscscccccccssccccccccssssssccccccc" />
    </g>
  </g>
</svg>
