<?xml version="1.0" encoding="UTF-8" standalone="no"?>
<svg
   xmlns:dc="http://purl.org/dc/elements/1.1/"
   xmlns:cc="http://creativecommons.org/ns#"
   xmlns:rdf="http://www.w3.org/1999/02/22-rdf-syntax-ns#"
   xmlns:svg="http://www.w3.org/2000/svg"
   xmlns="http://www.w3.org/2000/svg"
   xmlns:xlink="http://www.w3.org/1999/xlink"
   xmlns:sodipodi="http://sodipodi.sourceforge.net/DTD/sodipodi-0.dtd"
   xmlns:inkscape="http://www.inkscape.org/namespaces/inkscape"
   width="64"
   version="1.1"
   height="64"
   id="svg17"
   sodipodi:docname="user-home.svg"
   inkscape:version="1.0.2 (e86c870879, 2021-01-15)">
  <sodipodi:namedview
     pagecolor="#ffffff"
     bordercolor="#666666"
     borderopacity="1"
     objecttolerance="10"
     gridtolerance="10"
     guidetolerance="10"
     inkscape:pageopacity="0"
     inkscape:pageshadow="2"
     inkscape:window-width="1366"
     inkscape:window-height="689"
     id="namedview19"
     showgrid="true"
     inkscape:zoom="4.1796875"
     inkscape:cx="32"
     inkscape:cy="32"
     inkscape:window-x="0"
     inkscape:window-y="0"
     inkscape:window-maximized="1"
     inkscape:current-layer="layer1"
     inkscape:document-rotation="0">
    <inkscape:grid
       type="xygrid"
       id="grid844" />
  </sodipodi:namedview>
  <defs
     id="defs5455">
    <clipPath
       clipPathUnits="userSpaceOnUse"
       id="clipPath977">
      <path
         id="path979"
         d="M 78.994141,52 C 43.625611,52 40,53.999146 40,89.296875 V 140 H 264 V 108.92188 C 264,73.624145 260.37439,68 225.00586,68 H 138 L 122,52 Z"
         style="color:#000000;display:inline;overflow:visible;visibility:visible;fill:#f6531e;fill-opacity:1;fill-rule:nonzero;stroke:none;stroke-width:1;marker:none;enable-background:accumulate"
         inkscape:connector-curvature="0" />
    </clipPath>
    <clipPath
       clipPathUnits="userSpaceOnUse"
       id="clipPath977-5">
      <path
         id="path979-7"
         d="M 78.994141,52 C 43.625611,52 40,53.999146 40,89.296875 V 140 H 264 V 108.92188 C 264,73.624145 260.37439,68 225.00586,68 H 138 L 122,52 Z"
         style="color:#000000;display:inline;overflow:visible;visibility:visible;fill:#f6531e;fill-opacity:1;fill-rule:nonzero;stroke:none;stroke-width:1;marker:none;enable-background:accumulate"
         inkscape:connector-curvature="0" />
    </clipPath>
    <linearGradient
       inkscape:collect="always"
       xlink:href="#linearGradient1055"
       id="linearGradient3537"
       gradientUnits="userSpaceOnUse"
       x1="264"
       y1="252"
       x2="48"
       y2="52"
       gradientTransform="translate(329.57143,338.798)" />
    <linearGradient
       inkscape:collect="always"
       id="linearGradient1055">
      <stop
         style="stop-color:#000000;stop-opacity:1;"
         offset="0"
         id="stop1051" />
      <stop
         id="stop1059"
         offset="0.1589853"
         style="stop-color:#000000;stop-opacity:0.43290043" />
      <stop
         style="stop-color:#000000;stop-opacity:0.0995671"
         offset="0.19443204"
         id="stop1061" />
      <stop
         style="stop-color:#000000;stop-opacity:0;"
         offset="1"
         id="stop1053" />
    </linearGradient>
    <filter
       inkscape:collect="always"
       style="color-interpolation-filters:sRGB"
       id="filter1067"
       x="-0.056785714"
       width="1.1135714"
       y="-0.063600004"
       height="1.1272">
      <feGaussianBlur
         inkscape:collect="always"
         stdDeviation="5.3"
         id="feGaussianBlur1069" />
    </filter>
    <filter
       inkscape:collect="always"
       style="color-interpolation-filters:sRGB"
       id="filter1344"
       x="-0.011357143"
       width="1.0227143"
       y="-0.01272"
       height="1.02544">
      <feGaussianBlur
         inkscape:collect="always"
         stdDeviation="1.06"
         id="feGaussianBlur1346" />
    </filter>
    <filter
       inkscape:collect="always"
       style="color-interpolation-filters:sRGB"
       id="filter959"
       x="-0.011357143"
       width="1.0227143"
       y="-0.01272"
       height="1.02544">
      <feGaussianBlur
         inkscape:collect="always"
         stdDeviation="1.06"
         id="feGaussianBlur961" />
    </filter>
    <linearGradient
       inkscape:collect="always"
       xlink:href="#linearGradient36441"
       id="linearGradient36615"
       x1="40"
       y1="260"
       x2="264"
       y2="52"
       gradientUnits="userSpaceOnUse"
       gradientTransform="matrix(0.25657473,0,0,0.25657473,377.57207,475.85029)" />
    <linearGradient
       inkscape:collect="always"
       id="linearGradient36441">
      <stop
         style="stop-color:#2c001e;stop-opacity:1"
         offset="0"
         id="stop36437" />
      <stop
         id="stop36445"
         offset="0.10864977"
         style="stop-color:#2c001e;stop-opacity:1" />
      <stop
         style="stop-color:#370626;stop-opacity:1"
         offset="0.18689813"
         id="stop36449" />
      <stop
         id="stop36451"
         offset="0.2980746"
         style="stop-color:#55163b;stop-opacity:1" />
      <stop
         style="stop-color:#772953;stop-opacity:1"
         offset="0.37246177"
         id="stop36453" />
      <stop
         style="stop-color:#7c2b51;stop-opacity:1"
         offset="0.44700962"
         id="stop36447" />
      <stop
         id="stop36455"
         offset="0.52428877"
         style="stop-color:#8b314b;stop-opacity:1" />
      <stop
         style="stop-color:#8b314b;stop-opacity:1"
         offset="0.59614229"
         id="stop36457" />
      <stop
         id="stop36459"
         offset="0.66876179"
         style="stop-color:#a33a41;stop-opacity:1" />
      <stop
         style="stop-color:#c44732;stop-opacity:1"
         offset="0.79755175"
         id="stop36461" />
      <stop
         id="stop36463"
         offset="0.91251218"
         style="stop-color:#e65524;stop-opacity:1" />
      <stop
         style="stop-color:#e65524;stop-opacity:1"
         offset="1"
         id="stop36439" />
    </linearGradient>
    <clipPath
       clipPathUnits="userSpaceOnUse"
       id="clipPath977-3">
      <path
         id="path979-6"
         d="M 78.994141,52 C 43.625611,52 40,53.999146 40,89.296875 V 140 H 264 V 108.92188 C 264,73.624145 260.37439,68 225.00586,68 H 138 L 122,52 Z"
         style="color:#000000;display:inline;overflow:visible;visibility:visible;fill:#f6531e;fill-opacity:1;fill-rule:nonzero;stroke:none;stroke-width:1;marker:none;enable-background:accumulate"
         inkscape:connector-curvature="0" />
    </clipPath>
    <filter
       inkscape:collect="always"
       style="color-interpolation-filters:sRGB"
       id="filter989"
       x="-0.053571429"
       width="1.1071429"
       y="-0.06818182"
       height="1.1363636">
      <feGaussianBlur
         inkscape:collect="always"
         stdDeviation="5"
         id="feGaussianBlur991" />
    </filter>
    <linearGradient
       inkscape:collect="always"
       xlink:href="#linearGradient3388"
       id="linearGradient3390"
       x1="40"
       y1="84"
       x2="264"
       y2="260"
       gradientUnits="userSpaceOnUse"
       gradientTransform="matrix(0.25657473,0,0,0.25657473,377.57207,475.85029)" />
    <linearGradient
       inkscape:collect="always"
       id="linearGradient3388">
      <stop
         style="stop-color:#666666;stop-opacity:1;"
         offset="0"
         id="stop3384" />
      <stop
         style="stop-color:#7a7a7a;stop-opacity:1"
         offset="1"
         id="stop3386" />
    </linearGradient>
    <radialGradient
       inkscape:collect="always"
       xlink:href="#linearGradient1361"
       id="radialGradient3541"
       gradientUnits="userSpaceOnUse"
       gradientTransform="matrix(0.25657473,0,0,0.06749047,377.57207,491.25327)"
       cx="152"
       cy="-0.12591045"
       fx="152"
       fy="-0.12591045"
       r="112" />
    <linearGradient
       inkscape:collect="always"
       id="linearGradient1361">
      <stop
         style="stop-color:#ffffff;stop-opacity:1;"
         offset="0"
         id="stop1357" />
      <stop
         style="stop-color:#ffffff;stop-opacity:0.20392157"
         offset="1"
         id="stop1359" />
    </linearGradient>
    <radialGradient
       inkscape:collect="always"
       xlink:href="#linearGradient1361"
       id="radialGradient3543"
       gradientUnits="userSpaceOnUse"
       gradientTransform="matrix(0.25657473,0,0,0.06519963,377.57207,497.89411)"
       cx="148"
       cy="39.683556"
       fx="148"
       fy="39.683556"
       r="112" />
  </defs>
  <metadata
     id="metadata5458">
    <rdf:RDF>
      <cc:Work
         rdf:about="">
        <dc:format>image/svg+xml</dc:format>
        <dc:type
           rdf:resource="http://purl.org/dc/dcmitype/StillImage" />
        <dc:title></dc:title>
      </cc:Work>
    </rdf:RDF>
  </metadata>
  <g
     inkscape:label="Capa 1"
     inkscape:groupmode="layer"
     id="layer1"
     transform="matrix(1 0 0 1 -384.57143 -483.798)">
    <g
       id="g1184">
      <path
         inkscape:connector-curvature="0"
         id="path3467"
         d="m 408.56557,390.798 c -35.36853,0 -38.99414,1.99915 -38.99414,37.29688 v 41.625 9.07812 81.07812 c 0,35.29774 3.62561,38.92188 38.99414,38.92188 h 146.01176 c 35.3685,0 38.9941,-3.62414 38.9941,-38.92188 v -81.07812 -25.07812 -6 c 0,-35.29774 -3.6256,-40.92188 -38.9941,-40.92188 h -87.0059 l -16,-16 z"
         style="color:#000000;display:inline;overflow:visible;visibility:visible;opacity:0.4;fill:url(#linearGradient3537);fill-opacity:1;fill-rule:nonzero;stroke:none;stroke-width:1;marker:none;filter:url(#filter1067);enable-background:accumulate"
         sodipodi:nodetypes="ssccssssccssccs"
         transform="matrix(0.25657473,0,0,0.25657473,293.01237,388.92328)" />
      <path
         inkscape:connector-curvature="0"
         id="path3459"
         d="m 408.56557,392.798 c -35.36853,0 -38.99414,1.99915 -38.99414,37.29688 v 41.625 9.07812 73.07812 c 0,35.29774 3.62561,38.92188 38.99414,38.92188 h 146.01176 c 35.3685,0 38.9941,-3.62414 38.9941,-38.92188 v -73.07812 -25.07812 -6 c 0,-35.29774 -3.6256,-40.92188 -38.9941,-40.92188 h -87.0059 l -16,-16 z"
         style="color:#000000;display:inline;overflow:visible;visibility:visible;opacity:0.1;fill:#000000;fill-opacity:1;fill-rule:nonzero;stroke:none;stroke-width:1;marker:none;filter:url(#filter1344);enable-background:accumulate"
         transform="matrix(0.25657473,0,0,0.25657473,293.01237,388.92328)" />
      <path
         sodipodi:nodetypes="ssccssssccssccs"
         inkscape:connector-curvature="0"
         id="path3465"
         d="m 408.56557,391.798 c -35.36853,0 -38.99414,1.99915 -38.99414,37.29688 v 41.625 60.65624 29.5 c 0,35.29774 3.62561,38.92188 38.99414,38.92188 h 146.01176 c 35.3685,0 38.9941,-3.62414 38.9941,-38.92188 v -29.5 -76.65624 -6 c 0,-35.29773 -3.6256,-40.92188 -38.9941,-40.92188 h -87.0059 l -16,-16 z"
         style="color:#000000;display:inline;overflow:visible;visibility:visible;opacity:0.1;fill:#000000;fill-opacity:1;fill-rule:nonzero;stroke:none;stroke-width:1;marker:none;filter:url(#filter959);enable-background:accumulate"
         transform="matrix(0.25657473,0,0,0.25657473,293.01237,388.92328)" />
      <path
         sodipodi:nodetypes="ssccssccs"
         inkscape:connector-curvature="0"
         id="path3469"
         d="m 397.83997,489.19218 c -9.07467,0 -10.00491,0.51293 -10.00491,9.56943 v 13.00914 h 57.47274 v -7.97386 c 0,-9.0565 -0.93024,-10.49952 -10.0049,-10.49952 h -22.32352 l -4.10519,-4.10519 z"
         style="color:#000000;display:inline;overflow:visible;visibility:visible;fill:url(#linearGradient36615);fill-opacity:1;fill-rule:nonzero;stroke:none;stroke-width:0.256575;marker:none;enable-background:accumulate" />
      <path
         transform="matrix(0.25657473,0,0,0.25657473,377.57207,477.90289)"
         clip-path="url(#clipPath977-3)"
         inkscape:connector-curvature="0"
         id="path3471"
         d="M 78.99353,92 C 43.625,92 40,95.625 40,130.92273 v 82.15454 C 40,248.375 43.625,252 78.99353,252 H 225.00647 C 260.375,252 264,248.375 264,213.07727 V 114.92273 C 264,79.625 260.375,76 225.00647,76 H 143.75 l -16.00782,16 z"
         style="color:#000000;display:inline;overflow:visible;visibility:visible;opacity:0.5;fill:#903906;fill-opacity:1;fill-rule:nonzero;stroke:none;stroke-width:1;marker:none;filter:url(#filter989);enable-background:accumulate"
         sodipodi:nodetypes="ssssssssccs" />
      <path
         sodipodi:nodetypes="ssssssssccs"
         style="color:#000000;display:inline;overflow:visible;visibility:visible;fill:url(#linearGradient3390);fill-opacity:1;fill-rule:nonzero;stroke:none;stroke-width:0.256575;marker:none;enable-background:accumulate"
         d="m 397.83982,501.50776 c -9.07468,0 -10.00476,0.93009 -10.00476,9.98659 v 21.07878 c 0,9.05651 0.93008,9.98659 10.00476,9.98659 h 37.46323 c 9.07467,0 10.00475,-0.93008 10.00475,-9.98659 v -25.18397 c 0,-9.05651 -0.93008,-9.98659 -10.00475,-9.98659 h -20.84836 l -4.1072,4.10519 z"
         id="path3473"
         inkscape:connector-curvature="0" />
      <path
         sodipodi:nodetypes="sscsccscssccs"
         inkscape:connector-curvature="0"
         id="path3475"
         d="m 397.83997,489.19218 c -9.07467,0 -10.00491,0.51293 -10.00491,9.56943 v 0.51315 c 0,-9.0565 0.93024,-9.56944 10.00491,-9.56944 h 11.03422 l 4.10519,4.1052 h 22.32352 c 9.07466,0 10.0049,1.44301 10.0049,10.49952 v -0.51315 c 0,-9.05651 -0.93024,-10.49952 -10.0049,-10.49952 h -22.32352 l -4.10519,-4.10519 z"
         style="color:#000000;display:inline;overflow:visible;visibility:visible;opacity:0.4;fill:url(#radialGradient3541);fill-opacity:1;fill-rule:nonzero;stroke:none;stroke-width:0.256575;marker:none;enable-background:accumulate" />
      <path
         sodipodi:nodetypes="ccsscsccscssc"
         inkscape:connector-curvature="0"
         id="path3477"
         d="m 414.45469,497.40257 -4.1072,4.10519 h -12.50752 c -9.07467,0 -10.00491,0.92987 -10.00491,9.98637 v 0.51315 c 0,-9.0565 0.93024,-9.98637 10.00491,-9.98637 h 12.50752 l 4.1072,-4.10519 h 20.84821 c 9.07466,0 10.0049,0.92986 10.0049,9.98637 v -0.51315 c 0,-9.05651 -0.93024,-9.98637 -10.0049,-9.98637 z"
         style="color:#000000;display:inline;overflow:visible;visibility:visible;opacity:0.4;fill:url(#radialGradient3543);fill-opacity:1;fill-rule:nonzero;stroke:none;stroke-width:0.256575;marker:none;enable-background:accumulate" />
      <path
         sodipodi:nodetypes="ccssc"
         inkscape:connector-curvature="0"
         id="path3479"
         d="m 445.3078,525.62579 -16.42078,16.42078 h 6.41588 c 9.07466,0 10.0049,-0.92986 10.0049,-9.98637 z"
         style="color:#000000;display:inline;overflow:visible;visibility:visible;opacity:0.05;fill:#ffffff;fill-opacity:1;fill-rule:nonzero;stroke:none;stroke-width:0.256575;marker:none;enable-background:accumulate" />
      <path
         inkscape:connector-curvature="0"
         id="path3487"
         d="m 387.83506,532.0602 v 0.51315 c 0,9.05651 0.93024,9.98637 10.00491,9.98637 h 37.46293 c 9.07466,0 10.0049,-0.92986 10.0049,-9.98637 v -0.51315 c 0,9.05651 -0.93024,9.98637 -10.0049,9.98637 h -37.46293 c -9.07467,0 -10.00491,-0.92986 -10.00491,-9.98637 z"
         style="color:#000000;display:inline;overflow:visible;visibility:visible;opacity:0.2;fill:#491706;fill-opacity:1;fill-rule:nonzero;stroke:none;stroke-width:0.256575;marker:none;enable-background:accumulate" />
      <path
         inkscape:transform-center-y="-5.0970445"
         inkscape:transform-center-x="-6.6709792"
         style="color:#000000;display:inline;overflow:visible;visibility:visible;opacity:0.6;fill:#ffffff;fill-opacity:1;fill-rule:nonzero;stroke:none;stroke-width:12.3132;marker:none;enable-background:accumulate"
         d="m 426.83442,514.84965 v -3.0789 h -3.08166 z"
         id="path4667"
         inkscape:connector-curvature="0"
         sodipodi:nodetypes="cccc" />
      <path
         sodipodi:nodetypes="cccccccccccc"
         inkscape:connector-curvature="0"
         id="path4658"
         d="m 406.30844,518.44169 v 13.85504 l 13.34188,4e-5 v -1.0263 l -12.31257,-4e-5 -0.003,-13.85503 z m 19.49968,-1.02629 v 14.88137 h 1.0293 l -0.003,-13.85507 z"
         style="font-style:normal;font-variant:normal;font-weight:normal;font-stretch:normal;font-size:15px;line-height:125%;font-family:Ubuntu;-inkscape-font-specification:Ubuntu;text-align:center;letter-spacing:0px;word-spacing:0px;writing-mode:lr-tb;text-anchor:middle;display:inline;opacity:0.6;fill:#ffffff;fill-opacity:1;stroke:none;stroke-width:0.256575;enable-background:new" />
      <path
         inkscape:connector-curvature="0"
         id="path4158"
         d="m 429.76722,520.64888 -0.73416,0.71683 -12.46191,-12.70926 -12.46141,12.70926 -0.73415,-0.71683 13.19606,-13.46115 z"
         style="color:#000000;font-style:normal;font-variant:normal;font-weight:normal;font-stretch:normal;font-size:medium;line-height:normal;font-family:sans-serif;font-variant-ligatures:none;font-variant-position:normal;font-variant-caps:normal;font-variant-numeric:normal;font-variant-alternates:normal;font-feature-settings:normal;text-indent:0;text-align:start;text-decoration:none;text-decoration-line:none;text-decoration-style:solid;text-decoration-color:#000000;letter-spacing:normal;word-spacing:normal;text-transform:none;writing-mode:lr-tb;direction:ltr;baseline-shift:baseline;text-anchor:start;white-space:normal;shape-padding:0;clip-rule:nonzero;display:inline;overflow:visible;visibility:visible;opacity:0.6;isolation:auto;mix-blend-mode:normal;color-interpolation:sRGB;color-interpolation-filters:linearRGB;solid-color:#000000;solid-opacity:1;fill:#ffffff;fill-opacity:1;fill-rule:nonzero;stroke:none;stroke-width:1.0263;stroke-linecap:butt;stroke-linejoin:miter;stroke-miterlimit:4;stroke-dasharray:none;stroke-dashoffset:0;stroke-opacity:1;marker:none;color-rendering:auto;image-rendering:auto;shape-rendering:auto;text-rendering:auto;enable-background:accumulate"
         sodipodi:nodetypes="ccccccc" />
      <path
         sodipodi:nodetypes="ccsccssccc"
         d="m 415.54514,522.3514 c 0.26064,-0.0651 0.60682,-0.13436 1.03851,-0.2077 0.4317,-0.0733 0.92856,-0.10992 1.49058,-0.10992 0.505,0 0.92448,0.0733 1.25843,0.21992 0.33395,0.13847 0.59868,0.33803 0.79416,0.59868 0.20364,0.2525 0.34617,0.55795 0.42763,0.91634 0.0815,0.35839 0.12217,0.75343 0.12217,1.18512 v 7.34294 l -5.13149,-5e-5 z"
         style="font-style:normal;font-variant:normal;font-weight:normal;font-stretch:normal;font-size:medium;line-height:125%;font-family:Ubuntu;-inkscape-font-specification:Ubuntu;text-align:end;letter-spacing:0px;word-spacing:0px;writing-mode:lr-tb;text-anchor:end;display:inline;opacity:0.6;fill:#ffffff;fill-opacity:1;stroke:none;stroke-width:0.256524px;stroke-linecap:butt;stroke-linejoin:miter;stroke-opacity:1;enable-background:new"
         id="path4165"
         inkscape:connector-curvature="0" />
    </g>
  </g>
</svg>
