<?xml version="1.0" encoding="UTF-8" standalone="no"?>
<svg
   xmlns:dc="http://purl.org/dc/elements/1.1/"
   xmlns:cc="http://creativecommons.org/ns#"
   xmlns:rdf="http://www.w3.org/1999/02/22-rdf-syntax-ns#"
   xmlns:svg="http://www.w3.org/2000/svg"
   xmlns="http://www.w3.org/2000/svg"
   xmlns:sodipodi="http://sodipodi.sourceforge.net/DTD/sodipodi-0.dtd"
   xmlns:inkscape="http://www.inkscape.org/namespaces/inkscape"
   viewBox="0 0 16 16"
   version="1.1"
   id="svg5"
   sodipodi:docname="car.svg"
   inkscape:version="1.0.2 (e86c870879, 2021-01-15)">
  <metadata
     id="metadata11">
    <rdf:RDF>
      <cc:Work
         rdf:about="">
        <dc:format>image/svg+xml</dc:format>
        <dc:type
           rdf:resource="http://purl.org/dc/dcmitype/StillImage" />
      </cc:Work>
    </rdf:RDF>
  </metadata>
  <defs
     id="defs9" />
  <sodipodi:namedview
     pagecolor="#ffffff"
     bordercolor="#666666"
     borderopacity="1"
     objecttolerance="10"
     gridtolerance="10"
     guidetolerance="10"
     inkscape:pageopacity="0"
     inkscape:pageshadow="2"
     inkscape:window-width="1366"
     inkscape:window-height="689"
     id="namedview7"
     showgrid="true"
     inkscape:zoom="11.821942"
     inkscape:cx="24.438496"
     inkscape:cy="7.5915464"
     inkscape:window-x="0"
     inkscape:window-y="0"
     inkscape:window-maximized="1"
     inkscape:current-layer="svg5">
    <inkscape:grid
       type="xygrid"
       id="grid13" />
  </sodipodi:namedview>
  <style
     type="text/css"
     id="current-color-scheme">
        .ColorScheme-Text {
        color:#232629;
    }
    </style>
  <g
     id="g886">
    <path
       style="color:#000000;font-style:normal;font-variant:normal;font-weight:normal;font-stretch:normal;font-size:medium;line-height:normal;font-family:sans-serif;text-indent:0;text-align:start;text-decoration:none;text-decoration-line:none;text-decoration-style:solid;text-decoration-color:#000000;letter-spacing:normal;word-spacing:normal;text-transform:none;writing-mode:lr-tb;direction:ltr;baseline-shift:baseline;text-anchor:start;clip-rule:nonzero;display:inline;overflow:visible;visibility:visible;isolation:auto;color-interpolation:sRGB;color-interpolation-filters:linearRGB;fill:#111111;fill-opacity:1;fill-rule:nonzero;stroke:none;stroke-width:1.79231;stroke-linecap:butt;stroke-linejoin:miter;stroke-miterlimit:4;stroke-dasharray:none;stroke-dashoffset:0;stroke-opacity:1;marker:none;color-rendering:auto;image-rendering:auto;shape-rendering:auto;text-rendering:auto;enable-background:accumulate"
       d="M 7.955151,4 C 7.0153495,4 6.170923,4.299274 5.4824241,4.8437373 L 5.2628489,5.0218409 C 4.7927718,5.404435 4.2526595,5.7156186 3.6386429,5.9533014 3.0258938,6.1873666 2.3652121,6.3041926 1.6539751,6.3041926 c -0.4489706,0 -0.8773723,-0.052165 -1.2908592,-0.146208 L 0.2323256,6.1282104 0.202029,6.2590007 C 0.0708468,6.8327643 0,7.4300123 0,8.0442985 0,8.6556626 0.069887,9.2503035 0.1999026,9.8216212 l 0.030298,0.130789 0.1307896,-0.02977 c 0.4093057,-0.09196 0.8333875,-0.142631 1.2770354,-0.143008 1.2394853,0.07686 2.647631,0.2708298 3.4334291,1.1393378 0.7981141,0.882124 1.1421865,2.29602 1.1494381,3.439276 -8.17e-5,0.444807 -0.051937,0.869898 -0.1440854,1.280227 l -0.029234,0.130784 0.1307894,0.02977 C 6.7495202,15.929025 7.3436438,16 7.9551551,16 8.569707,16 9.166747,15.92812 9.740452,15.796907 l 0.130791,-0.02977 -0.02923,-0.13131 c -0.0936,-0.411815 -0.145833,-0.838612 -0.146208,-1.285542 0.07626,-1.236768 0.271161,-2.641752 1.138805,-3.425454 0.88099,-0.795765 2.29257,-1.1382948 3.433429,-1.1457158 0.445437,0 0.87047,0.05125 1.28129,0.143545 l 0.130784,0.02977 0.0303,-0.130789 c 0.12999,-0.5712345 0.200436,-1.1658779 0.200436,-1.7773222 0,-0.6143597 -0.07136,-1.2116078 -0.202561,-1.7852979 l -0.0303,-0.1307895 -0.130785,0.029773 c -0.413482,0.094043 -0.841888,0.146208 -1.290855,0.146208 -0.71124,0 -1.37136,-0.1168092 -1.984137,-0.350891 h -0.0011 C 11.657291,5.7156514 11.117393,5.4043305 10.647465,5.0218589 L 10.427889,4.8437553 C 9.739395,4.2992886 8.894964,4.000018 7.9551624,4.000018 Z m 0,1.0500193 c 1.675786,0 2.99428,1.3184871 2.99428,2.9942807 0,1.6757972 -1.318494,2.994281 -2.99428,2.994281 -1.6757854,0 -2.9942808,-1.3184848 -2.9942808,-2.994281 0,-1.6757936 1.3184954,-2.9942807 2.9942808,-2.9942807 z"
       id="path4211" />
    <path
       id="path48"
       style="fill:#111111;stroke-width:0.150235"
       d="M 8,0 A 8,8 0 0 0 0,8 8,8 0 0 0 8,16 8,8 0 0 0 16,8 8,8 0 0 0 8,0 Z M 7.90625,1 A 7,7 0 0 1 8,1 7,7 0 0 1 15,8 7,7 0 0 1 8,15 7,7 0 0 1 1,8 7,7 0 0 1 7.90625,1 Z" />
  </g>
</svg>
