<?xml version="1.0" encoding="UTF-8" standalone="no"?>
<svg
   xmlns:dc="http://purl.org/dc/elements/1.1/"
   xmlns:cc="http://creativecommons.org/ns#"
   xmlns:rdf="http://www.w3.org/1999/02/22-rdf-syntax-ns#"
   xmlns:svg="http://www.w3.org/2000/svg"
   xmlns="http://www.w3.org/2000/svg"
   xmlns:sodipodi="http://sodipodi.sourceforge.net/DTD/sodipodi-0.dtd"
   xmlns:inkscape="http://www.inkscape.org/namespaces/inkscape"
   viewBox="0 0 22 22"
   version="1.1"
   id="svg4"
   sodipodi:docname="folder-remote.svg"
   inkscape:version="1.0.2 (e86c870879, 2021-01-15)"
   width="22"
   height="22">
  <metadata
     id="metadata10">
    <rdf:RDF>
      <cc:Work
         rdf:about="">
        <dc:format>image/svg+xml</dc:format>
        <dc:type
           rdf:resource="http://purl.org/dc/dcmitype/StillImage" />
        <dc:title></dc:title>
      </cc:Work>
    </rdf:RDF>
  </metadata>
  <defs
     id="defs8" />
  <sodipodi:namedview
     pagecolor="#ffffff"
     bordercolor="#666666"
     borderopacity="1"
     objecttolerance="10"
     gridtolerance="10"
     guidetolerance="10"
     inkscape:pageopacity="0"
     inkscape:pageshadow="2"
     inkscape:window-width="1366"
     inkscape:window-height="689"
     id="namedview6"
     showgrid="true"
     inkscape:zoom="16.71875"
     inkscape:cx="12.980632"
     inkscape:cy="8"
     inkscape:window-x="0"
     inkscape:window-y="0"
     inkscape:window-maximized="1"
     inkscape:current-layer="svg4"
     inkscape:document-rotation="0">
    <inkscape:grid
       type="xygrid"
       id="grid830" />
  </sodipodi:namedview>
  <path
     d="M 6.994,3 C 5.736,3.015 4.815,2.971 4.062,3.387 A 1.878,1.878 0 0 0 3.222,4.383 C 3.058,4.821 3,5.343 3,6 v 7 c 0,0.658 0.058,1.179 0.223,1.617 0.164,0.439 0.463,0.79 0.84,0.998 0.752,0.416 1.673,0.37 2.931,0.385 H 10 v 1 h 2 v -1 h 3.006 c 1.258,-0.015 2.179,0.03 2.932,-0.385 0.376,-0.207 0.675,-0.56 0.84,-0.998 C 18.942,14.179 19,13.657 19,13 V 8 C 19,7.342 18.942,6.821 18.777,6.383 18.757,6.328 18.729,6.279 18.703,6.229 L 18.676,6.172 A 1.838,1.838 0 0 0 17.938,5.385 C 17.185,4.969 16.264,5.015 15.006,5 H 11.967 L 9.945,3 H 6.996 Z m 0.012,1 h 2.53 L 11.301,5.746 10.033,7 H 6.994 C 5.736,7.015 4.815,6.97 4.062,7.385 4.04,7.397 4.022,7.415 4,7.428 V 6 C 4,5.408 4.062,4.994 4.16,4.734 4.258,4.474 4.363,4.363 4.547,4.262 4.913,4.059 5.742,4.015 7.006,4 Z m 5.459,2 h 2.527 c 1.264,0.015 2.092,0.06 2.46,0.262 0.183,0.1 0.288,0.212 0.386,0.472 C 17.936,6.994 18,7.408 18,8 v 5 c 0,0.592 -0.063,1.006 -0.16,1.266 -0.098,0.26 -0.203,0.371 -0.387,0.472 C 17.087,14.94 16.26,14.985 15,15 H 7 C 5.74,14.985 4.913,14.94 4.547,14.738 4.363,14.638 4.257,14.526 4.16,14.266 4.063,14.006 4,13.592 4,13 V 10 C 4,9.408 4.064,8.994 4.162,8.734 4.26,8.474 4.365,8.363 4.549,8.262 4.916,8.059 5.744,8.015 7.008,8 h 3.435 z M 4,18 v 1 h 14 v -1 z"
     overflow="visible"
     style="font-variant-ligatures:none;font-variant-position:normal;font-variant-caps:normal;font-variant-numeric:normal;font-variant-alternates:normal;font-feature-settings:normal;text-indent:0;text-decoration:none;text-decoration-line:none;text-decoration-style:solid;text-decoration-color:#000000;text-transform:none;shape-padding:0;isolation:auto;mix-blend-mode:normal;fill:#111111;fill-opacity:1"
     white-space="normal"
     id="path2" />
</svg>
