<?xml version="1.0" encoding="UTF-8" standalone="no"?>
<svg
   xmlns:dc="http://purl.org/dc/elements/1.1/"
   xmlns:cc="http://creativecommons.org/ns#"
   xmlns:rdf="http://www.w3.org/1999/02/22-rdf-syntax-ns#"
   xmlns:svg="http://www.w3.org/2000/svg"
   xmlns="http://www.w3.org/2000/svg"
   xmlns:sodipodi="http://sodipodi.sourceforge.net/DTD/sodipodi-0.dtd"
   xmlns:inkscape="http://www.inkscape.org/namespaces/inkscape"
   viewBox="0 0 22 22"
   version="1.1"
   id="svg4"
   sodipodi:docname="folder-mail.svg"
   inkscape:version="1.0.2 (e86c870879, 2021-01-15)"
   width="22"
   height="22">
  <metadata
     id="metadata10">
    <rdf:RDF>
      <cc:Work
         rdf:about="">
        <dc:format>image/svg+xml</dc:format>
        <dc:type
           rdf:resource="http://purl.org/dc/dcmitype/StillImage" />
        <dc:title></dc:title>
      </cc:Work>
    </rdf:RDF>
  </metadata>
  <defs
     id="defs8" />
  <sodipodi:namedview
     pagecolor="#ffffff"
     bordercolor="#666666"
     borderopacity="1"
     objecttolerance="10"
     gridtolerance="10"
     guidetolerance="10"
     inkscape:pageopacity="0"
     inkscape:pageshadow="2"
     inkscape:window-width="1366"
     inkscape:window-height="689"
     id="namedview6"
     showgrid="true"
     inkscape:zoom="16.71875"
     inkscape:cx="11.464417"
     inkscape:cy="11.177311"
     inkscape:window-x="0"
     inkscape:window-y="0"
     inkscape:window-maximized="1"
     inkscape:current-layer="svg4"
     inkscape:document-rotation="0">
    <inkscape:grid
       type="xygrid"
       id="grid830" />
  </sodipodi:namedview>
  <path
     d="M 5,5 C 4.562,5 4.214,5.039 3.922,5.148 3.63,5.258 3.396,5.458 3.258,5.709 2.981,6.211 3.01,6.823 3,7.662 v 6.676 c 0.01,0.839 -0.019,1.451 0.258,1.953 0.138,0.251 0.372,0.45 0.664,0.56 C 4.214,16.961 4.562,17 5,17 h 12 c 0.439,0 0.786,-0.039 1.078,-0.148 0.293,-0.11 0.528,-0.31 0.666,-0.561 C 19.021,15.789 18.99,15.177 19,14.338 V 7.662 C 18.99,6.823 19.021,6.211 18.744,5.709 A 1.258,1.258 0 0 0 18.078,5.149 C 17.786,5.039 17.438,5 17,5 Z m 0,1 h 12 c 0.38,0 0.606,0.039 0.727,0.084 0.083,0.031 0.127,0.08 0.142,0.107 0.095,0.172 0.12,0.615 0.131,1.473 v 6.674 c -0.01,0.855 -0.036,1.299 -0.13,1.47 a 0.27,0.27 0 0 1 -0.143,0.108 C 17.606,15.961 17.38,16 17,16 H 5 C 4.62,16 4.394,15.961 4.274,15.916 A 0.257,0.257 0 0 1 4.133,15.809 C 4.037,15.635 4.01,15.192 4,14.338 V 7.664 C 4.01,6.808 4.037,6.365 4.133,6.191 A 0.257,0.257 0 0 1 4.273,6.084 C 4.394,6.039 4.621,6 5,6 Z M 5.537,7.578 5.252,8.016 11.125,12.236 17,8 16.715,7.578 l -5.59,3.373 z"
     id="path2"
     style="fill:#111111;fill-opacity:1" />
</svg>
