<?xml version="1.0" encoding="UTF-8" standalone="no"?>
<svg
   xmlns:dc="http://purl.org/dc/elements/1.1/"
   xmlns:cc="http://creativecommons.org/ns#"
   xmlns:rdf="http://www.w3.org/1999/02/22-rdf-syntax-ns#"
   xmlns:svg="http://www.w3.org/2000/svg"
   xmlns="http://www.w3.org/2000/svg"
   xmlns:sodipodi="http://sodipodi.sourceforge.net/DTD/sodipodi-0.dtd"
   xmlns:inkscape="http://www.inkscape.org/namespaces/inkscape"
   version="1.1"
   viewBox="0 0 22 22"
   id="svg6"
   sodipodi:docname="folder_html.svg"
   inkscape:version="1.0.2 (e86c870879, 2021-01-15)"
   width="22"
   height="22">
  <metadata
     id="metadata12">
    <rdf:RDF>
      <cc:Work
         rdf:about="">
        <dc:format>image/svg+xml</dc:format>
        <dc:type
           rdf:resource="http://purl.org/dc/dcmitype/StillImage" />
        <dc:title></dc:title>
      </cc:Work>
    </rdf:RDF>
  </metadata>
  <defs
     id="defs10" />
  <sodipodi:namedview
     pagecolor="#ffffff"
     bordercolor="#666666"
     borderopacity="1"
     objecttolerance="10"
     gridtolerance="10"
     guidetolerance="10"
     inkscape:pageopacity="0"
     inkscape:pageshadow="2"
     inkscape:window-width="1366"
     inkscape:window-height="689"
     id="namedview8"
     showgrid="true"
     inkscape:zoom="16.71875"
     inkscape:cx="8"
     inkscape:cy="8"
     inkscape:window-x="0"
     inkscape:window-y="0"
     inkscape:window-maximized="1"
     inkscape:current-layer="svg6"
     inkscape:document-rotation="0">
    <inkscape:grid
       type="xygrid"
       id="grid831" />
  </sodipodi:namedview>
  <g
     transform="translate(-609,-317)"
     id="g4"
     style="fill:#111111;fill-opacity:1">
    <path
       d="m 620,320 c -4.4138,0 -8,3.5865 -8,8 0,4.4135 3.5862,8 8,8 4.4138,0 8,-3.5865 8,-8 0,-4.4135 -3.5862,-8 -8,-8 z m -0.0391,1.002 -0.0215,0.61719 0.91602,0.13672 0.61719,-0.59766 c 0.61182,0.13138 1.1912,0.34493 1.7324,0.625 l -0.21485,0.34571 0.60938,0.54101 -0.60938,0.50977 0.23829,0.60937 1.3555,-0.64453 0.84766,0.64453 0.0449,-0.13867 c 0.184,0.23127 0.34988,0.47679 0.50391,0.73047 l -0.85547,0.1543 -0.50781,-0.54297 -1.5586,0.10156 -0.94921,1.4922 0.64453,1.5918 2.1016,0.64454 0.40625,2.4746 0.50781,1.2871 0.35742,-0.20312 c -1.1938,2.1559 -3.4911,3.6191 -6.1269,3.6191 -3.862,0 -7,-3.1382 -7,-7 0,-0.8121 0.14531,-1.5888 0.40039,-2.3144 l 0.0332,0.13672 1.084,0.30468 1.4238,1.0508 0.0332,1.5254 0.91601,1.2539 0.54102,3.3906 0.98242,0.60937 -0.26953,-1.2539 1.6602,-2.3047 0.71093,-1.5586 -1.6602,-1.5605 -1.7969,-0.84571 -0.74414,0.43946 -0.88281,-1.3223 -0.50781,0.23828 -0.43945,-0.74609 0.77929,-0.40625 0.74414,0.43945 1.2891,-1.5918 1.8633,-1.1524 -0.50782,-0.94922 -1.5254,0.54297 -0.18945,-0.21094 c 0.91545,-0.44771 1.9383,-0.70687 3.0234,-0.71289 z"
       style="font-variant-ligatures:normal;font-variant-position:normal;font-variant-caps:normal;font-variant-numeric:normal;font-variant-alternates:normal;font-feature-settings:normal;text-indent:0;text-decoration:none;text-decoration-line:none;text-decoration-style:solid;text-decoration-color:#000000;text-transform:none;white-space:normal;shape-padding:0;isolation:auto;mix-blend-mode:normal;fill:#111111;fill-opacity:1"
       id="path2" />
  </g>
</svg>
