<?xml version="1.0" encoding="UTF-8" standalone="no"?>
<svg
   xmlns:dc="http://purl.org/dc/elements/1.1/"
   xmlns:cc="http://creativecommons.org/ns#"
   xmlns:rdf="http://www.w3.org/1999/02/22-rdf-syntax-ns#"
   xmlns:svg="http://www.w3.org/2000/svg"
   xmlns="http://www.w3.org/2000/svg"
   xmlns:sodipodi="http://sodipodi.sourceforge.net/DTD/sodipodi-0.dtd"
   xmlns:inkscape="http://www.inkscape.org/namespaces/inkscape"
   viewBox="0 0 22 22"
   version="1.1"
   id="svg4"
   sodipodi:docname="folder-publicshare.svg"
   inkscape:version="1.0.2 (e86c870879, 2021-01-15)"
   width="22"
   height="22">
  <metadata
     id="metadata10">
    <rdf:RDF>
      <cc:Work
         rdf:about="">
        <dc:format>image/svg+xml</dc:format>
        <dc:type
           rdf:resource="http://purl.org/dc/dcmitype/StillImage" />
        <dc:title></dc:title>
      </cc:Work>
    </rdf:RDF>
  </metadata>
  <defs
     id="defs8" />
  <sodipodi:namedview
     pagecolor="#ffffff"
     bordercolor="#666666"
     borderopacity="1"
     objecttolerance="10"
     gridtolerance="10"
     guidetolerance="10"
     inkscape:pageopacity="0"
     inkscape:pageshadow="2"
     inkscape:window-width="1366"
     inkscape:window-height="689"
     id="namedview6"
     showgrid="true"
     inkscape:zoom="16.71875"
     inkscape:cx="10.315992"
     inkscape:cy="9.5312341"
     inkscape:window-x="0"
     inkscape:window-y="0"
     inkscape:window-maximized="1"
     inkscape:current-layer="svg4"
     inkscape:document-rotation="0">
    <inkscape:grid
       type="xygrid"
       id="grid830" />
  </sodipodi:namedview>
  <path
     d="M 18,6 C 18,4.625 16.875,3.5 15.5,3.5 A 2.508,2.508 0 0 0 13,6 c 0,1.375 1.125,2.5 2.5,2.5 C 16.875,8.5 18,7.375 18,6 Z m 0,10 c 0,-1.375 -1.125,-2.5 -2.5,-2.5 A 2.508,2.508 0 0 0 13,16 c 0,1.375 1.125,2.5 2.5,2.5 1.375,0 2.5,-1.125 2.5,-2.5 z M 17,6 C 17,6.834 16.334,7.5 15.5,7.5 14.666,7.5 14,6.834 14,6 14,5.166 14.666,4.5 15.5,4.5 16.334,4.5 17,5.166 17,6 Z m 0,10 c 0,0.834 -0.666,1.5 -1.5,1.5 -0.834,0 -1.5,-0.666 -1.5,-1.5 0,-0.834 0.666,-1.5 1.5,-1.5 0.834,0 1.5,0.666 1.5,1.5 z M 12.734,8.11 A 3.495,3.495 0 0 1 12.24,7.238 L 8.387,9.381 A 2.487,2.487 0 0 0 6.5,8.5 2.508,2.508 0 0 0 4,11 c 0,1.375 1.125,2.5 2.5,2.5 0.755,0 1.427,-0.347 1.887,-0.88 l 3.853,2.142 c 0.122,-0.316 0.29,-0.606 0.494,-0.871 L 8.873,11.746 C 8.948,11.51 9,11.261 9,11 9,10.739 8.948,10.491 8.873,10.254 Z M 8,11 C 8,11.834 7.334,12.5 6.5,12.5 5.666,12.5 5,11.834 5,11 5,10.166 5.666,9.5 6.5,9.5 7.334,9.5 8,10.166 8,11 Z"
     overflow="visible"
     style="font-variant-ligatures:normal;font-variant-position:normal;font-variant-caps:normal;font-variant-numeric:normal;font-variant-alternates:normal;font-feature-settings:normal;text-indent:0;text-decoration:none;text-decoration-line:none;text-decoration-style:solid;text-decoration-color:#000000;text-transform:none;text-orientation:mixed;shape-padding:0;isolation:auto;mix-blend-mode:normal;fill:#111111;fill-opacity:1"
     white-space="normal"
     id="path2" />
</svg>
