<?xml version="1.0" encoding="UTF-8" standalone="no"?>
<svg
   xmlns:dc="http://purl.org/dc/elements/1.1/"
   xmlns:cc="http://creativecommons.org/ns#"
   xmlns:rdf="http://www.w3.org/1999/02/22-rdf-syntax-ns#"
   xmlns:svg="http://www.w3.org/2000/svg"
   xmlns="http://www.w3.org/2000/svg"
   xmlns:sodipodi="http://sodipodi.sourceforge.net/DTD/sodipodi-0.dtd"
   xmlns:inkscape="http://www.inkscape.org/namespaces/inkscape"
   viewBox="0 0 22 22"
   version="1.1"
   id="svg4"
   sodipodi:docname="folder-open.svg"
   inkscape:version="1.0.2 (e86c870879, 2021-01-15)"
   width="22"
   height="22">
  <metadata
     id="metadata10">
    <rdf:RDF>
      <cc:Work
         rdf:about="">
        <dc:format>image/svg+xml</dc:format>
        <dc:type
           rdf:resource="http://purl.org/dc/dcmitype/StillImage" />
        <dc:title></dc:title>
      </cc:Work>
    </rdf:RDF>
  </metadata>
  <defs
     id="defs8" />
  <sodipodi:namedview
     pagecolor="#ffffff"
     bordercolor="#666666"
     borderopacity="1"
     objecttolerance="10"
     gridtolerance="10"
     guidetolerance="10"
     inkscape:pageopacity="0"
     inkscape:pageshadow="2"
     inkscape:window-width="1366"
     inkscape:window-height="689"
     id="namedview6"
     showgrid="true"
     inkscape:zoom="11.313709"
     inkscape:cx="5.1132275"
     inkscape:cy="8.2784439"
     inkscape:window-x="0"
     inkscape:window-y="0"
     inkscape:window-maximized="1"
     inkscape:current-layer="svg4"
     inkscape:document-rotation="0">
    <inkscape:grid
       type="xygrid"
       id="grid930" />
  </sodipodi:namedview>
  <path
     d="M 6.992,4 C 5.735,4.014 4.815,3.972 4.062,4.387 A 1.878,1.878 0 0 0 3.222,5.383 C 3.059,5.82 3,6.343 3,7 v 8 c 0,0.658 0.058,1.179 0.223,1.617 0.164,0.439 0.463,0.79 0.84,0.998 0.752,0.416 1.673,0.37 2.931,0.385 h 8.02 c 1.258,-0.015 2.179,0.03 2.932,-0.385 0.376,-0.207 0.675,-0.56 0.84,-0.998 C 18.941,16.179 19,15.657 19,15 V 9 C 19,8.342 18.942,7.821 18.777,7.383 18.757,7.328 18.729,7.279 18.703,7.229 L 18.676,7.172 A 1.838,1.838 0 0 0 17.938,6.385 C 17.185,5.969 16.265,6.015 15.006,6 H 11.963 L 9.942,4 H 6.994 Z m 0,1 h 2.54 l 2.021,2 H 15 c 1.282,0.015 2.032,0.026 2.455,0.26 a 0.847,0.847 0 0 1 0.33,0.367 c -0.016,-0.03 0,0.01 0.031,0.064 0.01,0.017 0,0.002 0.01,0.012 v 0.002 c 0.011,0.022 0.025,0.053 0.018,0.03 0.1,0.266 0.158,0.666 0.158,1.265 v 3 H 4 V 7 C 4,6.401 4.058,6.002 4.158,5.734 A 0.877,0.877 0 0 1 4.545,5.262 C 4.968,5.028 5.718,5.015 6.995,5 Z"
     overflow="visible"
     style="font-variant-ligatures:none;font-variant-position:normal;font-variant-caps:normal;font-variant-numeric:normal;font-variant-alternates:normal;font-feature-settings:normal;text-indent:0;text-decoration:none;text-decoration-line:none;text-decoration-style:solid;text-decoration-color:#000000;text-transform:none;shape-padding:0;isolation:auto;mix-blend-mode:normal;fill:#111111;fill-opacity:1"
     white-space="normal"
     id="path2" />
</svg>
