<?xml version="1.0" encoding="UTF-8" standalone="no"?>
<svg
   xmlns:dc="http://purl.org/dc/elements/1.1/"
   xmlns:cc="http://creativecommons.org/ns#"
   xmlns:rdf="http://www.w3.org/1999/02/22-rdf-syntax-ns#"
   xmlns:svg="http://www.w3.org/2000/svg"
   xmlns="http://www.w3.org/2000/svg"
   xmlns:sodipodi="http://sodipodi.sourceforge.net/DTD/sodipodi-0.dtd"
   xmlns:inkscape="http://www.inkscape.org/namespaces/inkscape"
   viewBox="0 0 22 22"
   version="1.1"
   id="svg4"
   sodipodi:docname="folder-temp.svg"
   inkscape:version="1.0.2 (e86c870879, 2021-01-15)"
   width="22"
   height="22">
  <metadata
     id="metadata10">
    <rdf:RDF>
      <cc:Work
         rdf:about="">
        <dc:format>image/svg+xml</dc:format>
        <dc:type
           rdf:resource="http://purl.org/dc/dcmitype/StillImage" />
        <dc:title></dc:title>
      </cc:Work>
    </rdf:RDF>
  </metadata>
  <defs
     id="defs8" />
  <sodipodi:namedview
     pagecolor="#ffffff"
     bordercolor="#666666"
     borderopacity="1"
     objecttolerance="10"
     gridtolerance="10"
     guidetolerance="10"
     inkscape:pageopacity="0"
     inkscape:pageshadow="2"
     inkscape:window-width="1366"
     inkscape:window-height="689"
     id="namedview6"
     showgrid="true"
     inkscape:zoom="16.71875"
     inkscape:cx="8"
     inkscape:cy="8"
     inkscape:window-x="0"
     inkscape:window-y="0"
     inkscape:window-maximized="1"
     inkscape:current-layer="svg4"
     inkscape:document-rotation="0">
    <inkscape:grid
       type="xygrid"
       id="grid830" />
  </sodipodi:namedview>
  <path
     d="m 10.975,3.5 c -1.978,0 -3.77,0.769 -5.11,2.018 L 4.84,4.492 A 34.471,34.471 0 0 0 4.194,6.475 41.553,41.553 0 0 0 3.663,8.5 C 4.332,8.35 5.008,8.175 5.693,7.977 6.383,7.774 7.042,7.556 7.668,7.322 L 6.575,6.227 a 6.466,6.466 0 0 1 4.4,-1.727 c 3.594,0 6.5,2.906 6.5,6.5 0,3.594 -2.906,6.5 -6.5,6.5 A 6.49,6.49 0 0 1 4.5,11.5 h -1 a 7.488,7.488 0 0 0 7.475,7 c 4.147,0 7.5,-3.353 7.5,-7.5 0,-4.147 -3.353,-7.5 -7.5,-7.5 z m -0.5,3 v 5.207 l 2.396,2.397 0.708,-0.708 -2.104,-2.103 V 6.5 Z m 6.1,10.97 0.027,0.036 -0.014,-0.022 -0.013,-0.013 z M 4.365,17.475 C 4.362,17.48 4.355,17.484 4.352,17.488 L 4.338,17.51 Z"
     id="path2"
     style="fill:#111111;fill-opacity:1" />
</svg>
