<?xml version="1.0" encoding="UTF-8" standalone="no"?>
<svg
   viewBox="0 0 22 22"
   version="1.1"
   id="svg4"
   sodipodi:docname="folder-music.svg"
   inkscape:version="1.1 (c68e22c387, 2021-05-23)"
   width="22"
   height="22"
   xmlns:inkscape="http://www.inkscape.org/namespaces/inkscape"
   xmlns:sodipodi="http://sodipodi.sourceforge.net/DTD/sodipodi-0.dtd"
   xmlns="http://www.w3.org/2000/svg"
   xmlns:svg="http://www.w3.org/2000/svg"
   xmlns:rdf="http://www.w3.org/1999/02/22-rdf-syntax-ns#"
   xmlns:cc="http://creativecommons.org/ns#"
   xmlns:dc="http://purl.org/dc/elements/1.1/">
  <metadata
     id="metadata10">
    <rdf:RDF>
      <cc:Work
         rdf:about="">
        <dc:format>image/svg+xml</dc:format>
        <dc:type
           rdf:resource="http://purl.org/dc/dcmitype/StillImage" />
        <dc:title />
      </cc:Work>
    </rdf:RDF>
  </metadata>
  <defs
     id="defs8" />
  <sodipodi:namedview
     pagecolor="#ffffff"
     bordercolor="#666666"
     borderopacity="1"
     objecttolerance="10"
     gridtolerance="10"
     guidetolerance="10"
     inkscape:pageopacity="0"
     inkscape:pageshadow="2"
     inkscape:window-width="1366"
     inkscape:window-height="689"
     id="namedview6"
     showgrid="true"
     inkscape:zoom="11.313709"
     inkscape:cx="11.22532"
     inkscape:cy="17.810252"
     inkscape:window-x="0"
     inkscape:window-y="0"
     inkscape:window-maximized="1"
     inkscape:current-layer="svg4"
     inkscape:document-rotation="0"
     inkscape:pagecheckerboard="0">
    <inkscape:grid
       type="xygrid"
       id="grid830" />
  </sodipodi:namedview>
  <path
     d="m 17.389915,3.0019874 c -0.155172,-0.00555 -0.310541,5.18e-4 -0.464809,0.018139 L 9.0067558,4.2955182 C 8.0850724,4.3884802 7.9853084,4.8192792 7.9932442,5.3555106 V 16.148161 C 7.5250336,15.839799 6.7673171,15.620999 6.0995786,15.620999 c -0.8615981,0 -1.375156,0.328768 -1.6857847,0.764101 C 4.1031651,16.819301 4,17.365735 4,17.788598 c 0,0.510158 0.1757207,1.054324 0.5532367,1.468118 0.3786497,0.414928 1.0750188,0.706284 1.9094085,0.706284 0.9432233,0 1.6052934,-0.263014 1.9805421,-0.777706 0.2947572,-0.404724 0.459141,-0.946624 0.5180925,-1.613229 0.00793,-0.08163 0.011336,-0.165517 0.017005,-0.250543 0.00454,-0.06802 0.00258,-0.115636 0.00372,-0.194994 H 8.98735 L 8.978965,8.3937778 C 9.0039057,7.690895 9.6410351,7.5877301 9.6410351,7.5877301 L 16.362871,6.4070844 C 16.998866,6.2120911 17,7 17,7 v 8 c -0.468211,-0.308361 -1.163229,-0.512683 -1.830967,-0.512683 -0.861598,0 -1.375156,0.328768 -1.685785,0.764102 -0.310629,0.4342 -0.413794,0.980634 -0.413794,1.403498 0,0.510157 0.175721,1.054323 0.553236,1.468118 0.37865,0.414927 0.959096,0.706283 1.793485,0.706283 0.943224,0 1.661425,-0.263013 2.036674,-0.777705 0.294758,-0.404725 0.45914,-0.946625 0.518093,-1.61323 0.008,-0.08163 0.01133,-0.165517 0.01701,-0.250543 0.0046,-0.06802 0.0034,-0.115636 0.0046,-0.194993 h 0.0046 L 18,4.0120978 C 18.013525,3.2343921 17.782223,3.0291957 17.389969,3.0019874 Z"
     overflow="visible"
     style="font-variant-ligatures:normal;font-variant-position:normal;font-variant-caps:normal;font-variant-numeric:normal;font-variant-alternates:normal;font-feature-settings:normal;text-indent:0;text-decoration:none;text-decoration-line:none;text-decoration-style:solid;text-decoration-color:#000000;text-transform:none;text-orientation:mixed;shape-padding:0;isolation:auto;mix-blend-mode:normal;fill:#111111;fill-opacity:1;stroke-width:1.13368"
     white-space="normal"
     id="path2"
     sodipodi:nodetypes="sccccscscsccccccccccscscscccccccs" />
</svg>
