<?xml version="1.0" encoding="UTF-8" standalone="no"?>
<svg
   xmlns:dc="http://purl.org/dc/elements/1.1/"
   xmlns:cc="http://creativecommons.org/ns#"
   xmlns:rdf="http://www.w3.org/1999/02/22-rdf-syntax-ns#"
   xmlns:svg="http://www.w3.org/2000/svg"
   xmlns="http://www.w3.org/2000/svg"
   xmlns:sodipodi="http://sodipodi.sourceforge.net/DTD/sodipodi-0.dtd"
   xmlns:inkscape="http://www.inkscape.org/namespaces/inkscape"
   version="1.1"
   viewBox="0 0 22 22"
   id="svg10"
   sodipodi:docname="folder-tar.svg"
   inkscape:version="1.0.2 (e86c870879, 2021-01-15)"
   width="22"
   height="22">
  <metadata
     id="metadata16">
    <rdf:RDF>
      <cc:Work
         rdf:about="">
        <dc:format>image/svg+xml</dc:format>
        <dc:type
           rdf:resource="http://purl.org/dc/dcmitype/StillImage" />
        <dc:title></dc:title>
      </cc:Work>
    </rdf:RDF>
  </metadata>
  <defs
     id="defs14" />
  <sodipodi:namedview
     pagecolor="#ffffff"
     bordercolor="#666666"
     borderopacity="1"
     objecttolerance="10"
     gridtolerance="10"
     guidetolerance="10"
     inkscape:pageopacity="0"
     inkscape:pageshadow="2"
     inkscape:window-width="1366"
     inkscape:window-height="689"
     id="namedview12"
     showgrid="true"
     inkscape:zoom="23.643883"
     inkscape:cx="12.01949"
     inkscape:cy="9.7800597"
     inkscape:window-x="0"
     inkscape:window-y="0"
     inkscape:window-maximized="1"
     inkscape:current-layer="svg10"
     inkscape:document-rotation="0">
    <inkscape:grid
       type="xygrid"
       id="grid833" />
  </sodipodi:namedview>
  <g
     transform="translate(-588.4959,-237)"
     fill="#808080"
     id="g8"
     style="fill:#111111;fill-opacity:1">
    <path
       d="m 596.99,240 c -1.2582,0.0145 -2.1789,-0.0306 -2.9316,0.38477 -0.37637,0.20766 -0.67323,0.55938 -0.83789,0.99804 -0.16467,0.43867 -0.22461,0.95958 -0.22461,1.6172 v 10 c 0,0.65761 0.0599,1.1785 0.22461,1.6172 0.16467,0.43866 0.46152,0.79039 0.83789,0.99804 0.75275,0.41532 1.6734,0.3702 2.9316,0.38477 h 0.004 5.0039 0.004 c 1.2582,-0.0145 2.1789,0.0306 2.9316,-0.38477 0.37637,-0.20766 0.67322,-0.55938 0.83789,-0.99804 0.16449,-0.43867 0.22443,-0.95958 0.22443,-1.6172 v -10 c 0,-0.65761 -0.0599,-1.1785 -0.22461,-1.6172 -0.16466,-0.43866 -0.46152,-0.79038 -0.83789,-0.99804 -0.75275,-0.41534 -1.6734,-0.37025 -2.9316,-0.38477 h -0.004 -5.0039 z m 0.006,1 h 5 c 1.2585,0.0147 2.0872,0.0598 2.4531,0.26172 0.18341,0.1012 0.28916,0.21274 0.38672,0.47266 0.0974,0.25991 0.16002,0.67323 0.16002,1.2656 v 10 c 0,0.59239 -0.0626,1.0057 -0.16016,1.2656 -0.0976,0.25991 -0.20331,0.37147 -0.38672,0.47266 -0.36595,0.20191 -1.1946,0.24701 -2.4531,0.26172 h -4.9941 -0.006 c -1.2585,-0.0147 -2.0872,-0.0598 -2.4531,-0.26172 -0.18341,-0.10119 -0.28916,-0.21275 -0.38672,-0.47266 -0.0976,-0.2599 -0.16016,-0.67323 -0.16016,-1.2656 v -10 c 0,-0.59239 0.0626,-1.0057 0.16016,-1.2656 0.0976,-0.25991 0.20331,-0.37147 0.38672,-0.47266 0.36595,-0.20191 1.1946,-0.24701 2.4531,-0.26172 z"
       color="#000000"
       color-rendering="auto"
       dominant-baseline="auto"
       image-rendering="auto"
       shape-rendering="auto"
       solid-color="#000000"
       style="font-variant-ligatures:normal;font-variant-position:normal;font-variant-caps:normal;font-variant-numeric:normal;font-variant-alternates:normal;font-feature-settings:normal;text-indent:0;text-decoration:none;text-decoration-line:none;text-decoration-style:solid;text-decoration-color:#000000;text-transform:none;text-orientation:mixed;white-space:normal;shape-padding:0;isolation:auto;mix-blend-mode:normal;fill:#111111;fill-opacity:1"
       id="path2" />
    <path
       d="m 598.25,246 c -0.1385,0 -0.25,0.1115 -0.25,0.25 v 5.5002 c 0,0.1385 0.1115,0.25 0.25,0.25 h 2.5005 c 0.1385,0 0.25,-0.1115 0.25,-0.25 V 246.25 c 0,-0.1385 -0.1115,-0.25 -0.25,-0.25 z m 0.875,3.9998 h 0.7505 c 0.0693,0 0.125,0.0557 0.125,0.125 v 0.7505 c 0,0.0693 -0.0557,0.125 -0.125,0.125 h -0.7505 c -0.0693,0 -0.125,-0.0557 -0.125,-0.125 v -0.7505 c 0,-0.0693 0.0557,-0.125 0.125,-0.125 z"
       id="path4"
       style="fill:#111111;fill-opacity:1" />
    <path
       d="m 599,242 v 1 h 1 v -1 z m 0,2 v 1 h 1 v -1 z"
       id="path6"
       style="fill:#111111;fill-opacity:1" />
  </g>
</svg>
