<?xml version="1.0" encoding="UTF-8" standalone="no"?>
<svg
   viewBox="0 0 22 22"
   version="1.1"
   id="svg4"
   sodipodi:docname="folder-videos.svg"
   inkscape:version="1.1 (c68e22c387, 2021-05-23)"
   width="22"
   height="22"
   xmlns:inkscape="http://www.inkscape.org/namespaces/inkscape"
   xmlns:sodipodi="http://sodipodi.sourceforge.net/DTD/sodipodi-0.dtd"
   xmlns="http://www.w3.org/2000/svg"
   xmlns:svg="http://www.w3.org/2000/svg"
   xmlns:rdf="http://www.w3.org/1999/02/22-rdf-syntax-ns#"
   xmlns:cc="http://creativecommons.org/ns#"
   xmlns:dc="http://purl.org/dc/elements/1.1/">
  <metadata
     id="metadata10">
    <rdf:RDF>
      <cc:Work
         rdf:about="">
        <dc:format>image/svg+xml</dc:format>
        <dc:type
           rdf:resource="http://purl.org/dc/dcmitype/StillImage" />
        <dc:title />
      </cc:Work>
    </rdf:RDF>
  </metadata>
  <defs
     id="defs8" />
  <sodipodi:namedview
     pagecolor="#ffffff"
     bordercolor="#666666"
     borderopacity="1"
     objecttolerance="10"
     gridtolerance="10"
     guidetolerance="10"
     inkscape:pageopacity="0"
     inkscape:pageshadow="2"
     inkscape:window-width="1366"
     inkscape:window-height="689"
     id="namedview6"
     showgrid="true"
     inkscape:zoom="11.821942"
     inkscape:cx="21.400883"
     inkscape:cy="11.715503"
     inkscape:window-x="0"
     inkscape:window-y="0"
     inkscape:window-maximized="1"
     inkscape:current-layer="svg4"
     inkscape:document-rotation="0"
     inkscape:pagecheckerboard="0">
    <inkscape:grid
       type="xygrid"
       id="grid835" />
  </sodipodi:namedview>
  <path
     id="rect1029"
     style="fill:#111111;stroke-width:1.11804"
     d="m 3,3 v 15 h 1 v -1 h 1 v 1 h 13 v -1 h 1 v 1 h 1 V 3 H 19 V 4 H 18 V 3 H 5 V 4 H 4 V 3 Z m 3,1 h 11 v 6 H 6 Z M 4,5 H 5 V 6 H 4 Z m 14,0 h 1 V 6 H 18 Z M 4,7 H 5 V 8 H 4 Z m 14,0 h 1 V 8 H 18 Z M 4,9 h 1 v 1 H 4 Z m 14,0 h 1 v 1 H 18 Z M 4,11 h 1 v 1 H 4 Z m 2,0 h 11 v 6 H 6 Z m 12,0 h 1 v 1 H 18 Z M 4,13 h 1 v 1 H 4 Z m 14,0 h 1 v 1 H 18 Z M 4,15 h 1 v 1 H 4 Z m 14,0 h 1 v 1 h -1 z" />
</svg>
