<?xml version="1.0" encoding="UTF-8" standalone="no"?>
<svg
   xmlns:dc="http://purl.org/dc/elements/1.1/"
   xmlns:cc="http://creativecommons.org/ns#"
   xmlns:rdf="http://www.w3.org/1999/02/22-rdf-syntax-ns#"
   xmlns:svg="http://www.w3.org/2000/svg"
   xmlns="http://www.w3.org/2000/svg"
   xmlns:sodipodi="http://sodipodi.sourceforge.net/DTD/sodipodi-0.dtd"
   xmlns:inkscape="http://www.inkscape.org/namespaces/inkscape"
   viewBox="0 0 22 22"
   version="1.1"
   id="svg4"
   sodipodi:docname="folder-blue.svg"
   inkscape:version="1.0.2 (e86c870879, 2021-01-15)"
   width="22"
   height="22">
  <metadata
     id="metadata10">
    <rdf:RDF>
      <cc:Work
         rdf:about="">
        <dc:format>image/svg+xml</dc:format>
        <dc:type
           rdf:resource="http://purl.org/dc/dcmitype/StillImage" />
        <dc:title></dc:title>
      </cc:Work>
    </rdf:RDF>
  </metadata>
  <defs
     id="defs8" />
  <sodipodi:namedview
     pagecolor="#ffffff"
     bordercolor="#666666"
     borderopacity="1"
     objecttolerance="10"
     gridtolerance="10"
     guidetolerance="10"
     inkscape:pageopacity="0"
     inkscape:pageshadow="2"
     inkscape:window-width="1366"
     inkscape:window-height="689"
     id="namedview6"
     showgrid="true"
     inkscape:zoom="16.71875"
     inkscape:cx="8"
     inkscape:cy="8"
     inkscape:window-x="0"
     inkscape:window-y="0"
     inkscape:window-maximized="1"
     inkscape:current-layer="svg4"
     inkscape:document-rotation="0">
    <inkscape:grid
       type="xygrid"
       id="grid830" />
  </sodipodi:namedview>
  <path
     d="M 6.994,4 C 5.736,4.015 4.815,3.971 4.062,4.387 A 1.878,1.878 0 0 0 3.222,5.383 C 3.058,5.821 3,6.343 3,7 v 8 c 0,0.658 0.058,1.179 0.223,1.617 0.164,0.439 0.463,0.79 0.84,0.998 0.752,0.416 1.673,0.37 2.931,0.385 h 8.012 c 1.258,-0.015 2.179,0.03 2.932,-0.385 0.376,-0.207 0.675,-0.56 0.84,-0.998 C 18.942,16.179 19,15.657 19,15 V 9 C 19,8.342 18.942,7.821 18.777,7.383 18.757,7.328 18.729,7.279 18.703,7.229 L 18.676,7.172 A 1.838,1.838 0 0 0 17.938,6.385 C 17.185,5.969 16.264,6.015 15.006,6 H 11.967 L 9.945,4 H 6.996 Z m 0.012,1 h 2.53 L 11.301,6.746 10.033,8 H 6.994 C 5.736,8.015 4.815,7.97 4.062,8.385 4.04,8.397 4.022,8.415 4,8.428 V 7 C 4,6.408 4.062,5.994 4.16,5.734 4.258,5.474 4.363,5.363 4.547,5.262 4.913,5.059 5.742,5.015 7.006,5 Z m 5.459,2 h 2.527 c 1.264,0.015 2.092,0.06 2.46,0.262 0.183,0.1 0.288,0.212 0.386,0.472 C 17.936,7.994 18,8.408 18,9 v 6 c 0,0.592 -0.063,1.006 -0.16,1.266 -0.098,0.26 -0.203,0.371 -0.387,0.472 C 17.087,16.94 16.26,16.985 15,17 H 7 C 5.74,16.985 4.913,16.94 4.547,16.738 4.363,16.638 4.257,16.526 4.16,16.266 4.063,16.006 4,15.592 4,15 V 11 C 4,10.408 4.064,9.994 4.162,9.734 4.26,9.474 4.365,9.363 4.549,9.262 4.916,9.059 5.744,9.015 7.008,9 h 3.435 z"
     overflow="visible"
     style="font-variant-ligatures:none;font-variant-position:normal;font-variant-caps:normal;font-variant-numeric:normal;font-variant-alternates:normal;font-feature-settings:normal;text-indent:0;text-decoration:none;text-decoration-line:none;text-decoration-style:solid;text-decoration-color:#000000;text-transform:none;shape-padding:0;isolation:auto;mix-blend-mode:normal;fill:#19b6ee;fill-opacity:1"
     white-space="normal"
     id="path2" />
</svg>
