<?xml version="1.0" encoding="UTF-8" standalone="no"?>
<svg
   xmlns:dc="http://purl.org/dc/elements/1.1/"
   xmlns:cc="http://creativecommons.org/ns#"
   xmlns:rdf="http://www.w3.org/1999/02/22-rdf-syntax-ns#"
   xmlns:svg="http://www.w3.org/2000/svg"
   xmlns="http://www.w3.org/2000/svg"
   xmlns:sodipodi="http://sodipodi.sourceforge.net/DTD/sodipodi-0.dtd"
   xmlns:inkscape="http://www.inkscape.org/namespaces/inkscape"
   viewBox="0 0 22 22"
   version="1.1"
   id="svg8"
   sodipodi:docname="folder-important.svg"
   inkscape:version="1.0.2 (e86c870879, 2021-01-15)"
   width="22"
   height="22">
  <metadata
     id="metadata14">
    <rdf:RDF>
      <cc:Work
         rdf:about="">
        <dc:format>image/svg+xml</dc:format>
        <dc:type
           rdf:resource="http://purl.org/dc/dcmitype/StillImage" />
        <dc:title></dc:title>
      </cc:Work>
    </rdf:RDF>
  </metadata>
  <defs
     id="defs12" />
  <sodipodi:namedview
     pagecolor="#ffffff"
     bordercolor="#666666"
     borderopacity="1"
     objecttolerance="10"
     gridtolerance="10"
     guidetolerance="10"
     inkscape:pageopacity="0"
     inkscape:pageshadow="2"
     inkscape:window-width="1366"
     inkscape:window-height="689"
     id="namedview10"
     showgrid="true"
     inkscape:zoom="16.71875"
     inkscape:cx="8"
     inkscape:cy="8"
     inkscape:window-x="0"
     inkscape:window-y="0"
     inkscape:window-maximized="1"
     inkscape:current-layer="svg8"
     inkscape:document-rotation="0">
    <inkscape:grid
       type="xygrid"
       id="grid832" />
  </sodipodi:namedview>
  <g
     fill="gray"
     id="g6"
     style="fill:#ed3146;fill-opacity:1"
     transform="translate(3,3)">
    <path
       d="M 8,0 A 8,8 0 0 0 0,8 8,8 0 0 0 8,16 8,8 0 0 0 16,8 8,8 0 0 0 8,0 Z M 8,1 A 7,7 0 0 1 15,8 7,7 0 0 1 8,15 7,7 0 0 1 1,8 7,7 0 0 1 8,1 Z"
       id="path2"
       style="fill:#ed3146;fill-opacity:1" />
    <path
       d="m 8.708,5.663 q 0,1.19 -0.085,2.167 Q 8.538,8.793 8.411,9.756 H 7.589 Q 7.462,8.793 7.377,7.83 7.292,6.853 7.292,5.663 V 3 h 1.416 z m 0.241,6.388 q 0,0.382 -0.255,0.666 Q 8.44,13 8,13 7.56,13 7.306,12.717 7.051,12.433 7.051,12.051 q 0,-0.382 0.255,-0.666 0.255,-0.283 0.694,-0.283 0.44,0 0.694,0.283 0.255,0.284 0.255,0.666 z"
       font-family="Ubuntu"
       font-weight="400"
       letter-spacing="0"
       word-spacing="0"
       id="path4"
       style="fill:#ed3146;fill-opacity:1" />
  </g>
</svg>
