<?xml version="1.0" encoding="UTF-8" standalone="no"?>
<svg
   xmlns:dc="http://purl.org/dc/elements/1.1/"
   xmlns:cc="http://creativecommons.org/ns#"
   xmlns:rdf="http://www.w3.org/1999/02/22-rdf-syntax-ns#"
   xmlns:svg="http://www.w3.org/2000/svg"
   xmlns="http://www.w3.org/2000/svg"
   xmlns:sodipodi="http://sodipodi.sourceforge.net/DTD/sodipodi-0.dtd"
   xmlns:inkscape="http://www.inkscape.org/namespaces/inkscape"
   viewBox="0 0 22 22"
   version="1.1"
   id="svg8"
   sodipodi:docname="folder-templates.svg"
   inkscape:version="1.0.2 (e86c870879, 2021-01-15)"
   width="22"
   height="22">
  <metadata
     id="metadata14">
    <rdf:RDF>
      <cc:Work
         rdf:about="">
        <dc:format>image/svg+xml</dc:format>
        <dc:type
           rdf:resource="http://purl.org/dc/dcmitype/StillImage" />
        <dc:title></dc:title>
      </cc:Work>
    </rdf:RDF>
  </metadata>
  <defs
     id="defs12" />
  <sodipodi:namedview
     pagecolor="#ffffff"
     bordercolor="#666666"
     borderopacity="1"
     objecttolerance="10"
     gridtolerance="10"
     guidetolerance="10"
     inkscape:pageopacity="0"
     inkscape:pageshadow="2"
     inkscape:window-width="1366"
     inkscape:window-height="689"
     id="namedview10"
     showgrid="true"
     inkscape:zoom="16.71875"
     inkscape:cx="8"
     inkscape:cy="8"
     inkscape:window-x="0"
     inkscape:window-y="0"
     inkscape:window-maximized="1"
     inkscape:current-layer="svg8"
     inkscape:document-rotation="0">
    <inkscape:grid
       type="xygrid"
       id="grid832" />
  </sodipodi:namedview>
  <g
     fill="gray"
     font-weight="400"
     id="g6"
     style="fill:#111111;fill-opacity:1"
     transform="translate(3,3)">
    <path
       d="M 11,16 10.521,15.078 A 19.554,19.554 0 0 1 9.395,12.412 14.225,14.225 0 0 1 9.012,11.141 L 9,11.084 V 1 C 9,1 9,0 10,0 h 2 c 0,0 1,0 1,1 v 10.084 l -0.012,0.057 c -0.028,0.122 -0.136,0.547 -0.383,1.271 a 19.588,19.588 0 0 1 -1.126,2.666 z m -0.209,-3.043 h 0.416 c 0.14,-0.315 0.294,-0.65 0.377,-0.893 C 11.809,11.404 12.001,10.994 12,11 h -2 c -0.002,-0.009 0.189,0.403 0.414,1.064 0.083,0.244 0.238,0.578 0.377,0.893 z M 10,3 h 2 V 1 h -2 z"
       font-family="Ubuntu"
       font-size="15px"
       letter-spacing="0"
       text-anchor="middle"
       word-spacing="0"
       id="path2"
       style="fill:#111111;fill-opacity:1" />
    <path
       d="M 3,0 V 15 H 8 V 0 Z M 4,1 H 7 V 2 H 6 V 3 H 7 V 4 H 6 V 5 H 7 V 6 H 6 V 7 H 7 V 8 H 6 v 1 h 1 v 1 H 6 v 1 h 1 v 1 H 6 v 1 h 1 v 1 H 4 Z"
       font-family="sans-serif"
       overflow="visible"
       style="font-variant-ligatures:normal;font-variant-position:normal;font-variant-caps:normal;font-variant-numeric:normal;font-variant-alternates:normal;font-feature-settings:normal;text-indent:0;text-decoration:none;text-decoration-line:none;text-decoration-style:solid;text-decoration-color:#000000;text-transform:none;text-orientation:mixed;shape-padding:0;isolation:auto;mix-blend-mode:normal;fill:#111111;fill-opacity:1"
       white-space="normal"
       id="path4" />
  </g>
</svg>
