<?xml version="1.0" encoding="UTF-8" standalone="no"?>
<svg
   xmlns:dc="http://purl.org/dc/elements/1.1/"
   xmlns:cc="http://creativecommons.org/ns#"
   xmlns:rdf="http://www.w3.org/1999/02/22-rdf-syntax-ns#"
   xmlns:svg="http://www.w3.org/2000/svg"
   xmlns="http://www.w3.org/2000/svg"
   xmlns:sodipodi="http://sodipodi.sourceforge.net/DTD/sodipodi-0.dtd"
   xmlns:inkscape="http://www.inkscape.org/namespaces/inkscape"
   viewBox="0 0 22 22"
   version="1.1"
   id="svg4"
   sodipodi:docname="favorites.svg"
   inkscape:version="1.0.2 (e86c870879, 2021-01-15)"
   width="22"
   height="22">
  <metadata
     id="metadata10">
    <rdf:RDF>
      <cc:Work
         rdf:about="">
        <dc:format>image/svg+xml</dc:format>
        <dc:type
           rdf:resource="http://purl.org/dc/dcmitype/StillImage" />
        <dc:title></dc:title>
      </cc:Work>
    </rdf:RDF>
  </metadata>
  <defs
     id="defs8" />
  <sodipodi:namedview
     pagecolor="#ffffff"
     bordercolor="#666666"
     borderopacity="1"
     objecttolerance="10"
     gridtolerance="10"
     guidetolerance="10"
     inkscape:pageopacity="0"
     inkscape:pageshadow="2"
     inkscape:window-width="1366"
     inkscape:window-height="689"
     id="namedview6"
     showgrid="true"
     inkscape:zoom="23.643883"
     inkscape:cx="12.631983"
     inkscape:cy="5.6840084"
     inkscape:window-x="0"
     inkscape:window-y="0"
     inkscape:window-maximized="1"
     inkscape:current-layer="svg4"
     inkscape:document-rotation="0">
    <inkscape:grid
       type="xygrid"
       id="grid830" />
  </sodipodi:namedview>
  <path
     d="M 11.013,4.5 11.011,4.501 11.01,4.503 11.008,4.504 11.006,4.506 C 10.163,6.316 9.511,8.16 9.14,9.29 7.921,9.29 5.914,9.337 4,9.585 v 0.002 l 0.001,0.002 10e-4,0.002 0.001,0.001 c 1.46,1.362 3.014,2.551 3.975,3.253 -0.376,1.16 -0.953,3.084 -1.308,4.98 H 6.678 C 8.424,16.856 10.036,15.747 11,15.05 c 0.987,0.716 2.639,1.859 4.333,2.783 v -0.002 -0.002 -0.002 l 10e-4,-0.002 c -0.381,-1.96 -0.938,-3.836 -1.303,-4.968 0.986,-0.717 2.583,-1.935 3.985,-3.26 L 18.013,9.596 H 18.011 L 18.009,9.594 18.008,9.592 C 16.025,9.35 14.07,9.3 12.88,9.297 12.504,8.137 11.839,6.243 11.011,4.5 Z"
     overflow="visible"
     id="path2"
     style="fill:#111111;fill-opacity:1" />
</svg>
