<?xml version="1.0" encoding="UTF-8" standalone="no"?>
<svg
   xmlns:dc="http://purl.org/dc/elements/1.1/"
   xmlns:cc="http://creativecommons.org/ns#"
   xmlns:rdf="http://www.w3.org/1999/02/22-rdf-syntax-ns#"
   xmlns:svg="http://www.w3.org/2000/svg"
   xmlns="http://www.w3.org/2000/svg"
   xmlns:sodipodi="http://sodipodi.sourceforge.net/DTD/sodipodi-0.dtd"
   xmlns:inkscape="http://www.inkscape.org/namespaces/inkscape"
   viewBox="0 0 22 22"
   version="1.1"
   id="svg5"
   sodipodi:docname="folder-activities.svg"
   inkscape:version="1.0.2 (e86c870879, 2021-01-15)"
   width="22"
   height="22">
  <metadata
     id="metadata11">
    <rdf:RDF>
      <cc:Work
         rdf:about="">
        <dc:format>image/svg+xml</dc:format>
        <dc:type
           rdf:resource="http://purl.org/dc/dcmitype/StillImage" />
        <dc:title></dc:title>
      </cc:Work>
    </rdf:RDF>
  </metadata>
  <defs
     id="defs9" />
  <sodipodi:namedview
     pagecolor="#ffffff"
     bordercolor="#666666"
     borderopacity="1"
     objecttolerance="10"
     gridtolerance="10"
     guidetolerance="10"
     inkscape:pageopacity="0"
     inkscape:pageshadow="2"
     inkscape:window-width="1366"
     inkscape:window-height="689"
     id="namedview7"
     showgrid="true"
     inkscape:zoom="16.71875"
     inkscape:cx="8"
     inkscape:cy="8"
     inkscape:window-x="0"
     inkscape:window-y="0"
     inkscape:window-maximized="1"
     inkscape:current-layer="svg5"
     inkscape:document-rotation="0">
    <inkscape:grid
       type="xygrid"
       id="grid831" />
  </sodipodi:namedview>
  <style
     type="text/css"
     id="current-color-scheme">.ColorScheme-Text {color:#232629;}</style>
  <path
     d="M 8,5 A 1,1 0 0 0 7,6 1,1 0 0 0 8,7 1,1 0 0 0 9,6 1,1 0 0 0 8,5 Z M 13,5 11.5,6.5 14,9 11.5,11.5 13,13 17,9 Z M 6.25,9.5 A 1.25,1.25 0 0 0 5,10.75 1.25,1.25 0 0 0 6.25,12 1.25,1.25 0 0 0 7.5,10.75 1.25,1.25 0 0 0 6.25,9.5 Z M 9.5,14 A 1.5,1.5 0 0 0 8,15.5 1.5,1.5 0 0 0 9.5,17 1.5,1.5 0 0 0 11,15.5 1.5,1.5 0 0 0 9.5,14 Z"
     class="ColorScheme-Text"
     fill="currentColor"
     id="path3"
     style="fill:#111111;fill-opacity:1" />
</svg>
