<?xml version="1.0" encoding="UTF-8" standalone="no"?>
<svg
   xmlns:dc="http://purl.org/dc/elements/1.1/"
   xmlns:cc="http://creativecommons.org/ns#"
   xmlns:rdf="http://www.w3.org/1999/02/22-rdf-syntax-ns#"
   xmlns:svg="http://www.w3.org/2000/svg"
   xmlns="http://www.w3.org/2000/svg"
   xmlns:sodipodi="http://sodipodi.sourceforge.net/DTD/sodipodi-0.dtd"
   xmlns:inkscape="http://www.inkscape.org/namespaces/inkscape"
   viewBox="0 0 22 22"
   version="1.1"
   id="svg4"
   sodipodi:docname="folder-print.svg"
   inkscape:version="1.0.2 (e86c870879, 2021-01-15)"
   width="22"
   height="22">
  <metadata
     id="metadata10">
    <rdf:RDF>
      <cc:Work
         rdf:about="">
        <dc:format>image/svg+xml</dc:format>
        <dc:type
           rdf:resource="http://purl.org/dc/dcmitype/StillImage" />
        <dc:title></dc:title>
      </cc:Work>
    </rdf:RDF>
  </metadata>
  <defs
     id="defs8" />
  <sodipodi:namedview
     pagecolor="#ffffff"
     bordercolor="#666666"
     borderopacity="1"
     objecttolerance="10"
     gridtolerance="10"
     guidetolerance="10"
     inkscape:pageopacity="0"
     inkscape:pageshadow="2"
     inkscape:window-width="1366"
     inkscape:window-height="689"
     id="namedview6"
     showgrid="true"
     inkscape:zoom="16.71875"
     inkscape:cx="8"
     inkscape:cy="8"
     inkscape:window-x="0"
     inkscape:window-y="0"
     inkscape:window-maximized="1"
     inkscape:current-layer="svg4"
     inkscape:document-rotation="0">
    <inkscape:grid
       type="xygrid"
       id="grid830" />
  </sodipodi:namedview>
  <path
     d="M 6,3 V 7.025 C 5.25,7.043 4.59,7.095 4.063,7.385 A 1.88,1.88 0 0 0 3.225,8.383 C 3.06,8.822 3,9.343 3,10 v 3 c 0,0.658 0.06,1.179 0.225,1.617 0.164,0.439 0.461,0.79 0.838,0.998 0.282,0.156 0.599,0.234 0.937,0.287 V 14.877 A 1.627,1.627 0 0 1 4.545,14.738 C 4.362,14.638 4.258,14.526 4.16,14.266 4.063,14.006 4,13.592 4,13 V 10 C 4,9.408 4.063,8.994 4.16,8.734 4.258,8.474 4.362,8.363 4.545,8.262 4.91,8.06 5.74,8.015 7,8 h 8 c 1.259,0.015 2.087,0.06 2.453,0.262 0.184,0.101 0.29,0.213 0.387,0.472 C 17.937,8.994 18,9.408 18,10 v 3 c 0,0.592 -0.063,1.006 -0.16,1.266 -0.098,0.26 -0.203,0.371 -0.387,0.472 -0.107,0.06 -0.267,0.104 -0.453,0.139 v 1.025 c 0.338,-0.053 0.655,-0.13 0.938,-0.287 a 1.88,1.88 0 0 0 0.837,-0.998 C 18.94,14.179 19,13.657 19,13 V 10 C 19,9.342 18.94,8.822 18.775,8.383 A 1.88,1.88 0 0 0 17.938,7.385 C 17.411,7.095 16.75,7.043 16,7.025 V 3 Z m 1,1 h 8 V 7 H 7 Z m 9.5,5 A 0.5,0.5 0 0 0 16,9.5 0.5,0.5 0 0 0 16.5,10 0.5,0.5 0 0 0 17,9.5 0.5,0.5 0 0 0 16.5,9 Z M 6,13 v 6 h 10 v -6 h -1 v 5 H 7 v -5 z m 2,1 v 1 h 6 v -1 z m 0,2 v 1 h 6 v -1 z"
     overflow="visible"
     style="font-variant-ligatures:normal;font-variant-position:normal;font-variant-caps:normal;font-variant-numeric:normal;font-variant-alternates:normal;font-feature-settings:normal;text-indent:0;text-decoration:none;text-decoration-line:none;text-decoration-style:solid;text-decoration-color:#000000;text-transform:none;text-orientation:mixed;shape-padding:0;isolation:auto;mix-blend-mode:normal;fill:#111111;fill-opacity:1"
     white-space="normal"
     id="path2" />
</svg>
