<?xml version="1.0" encoding="UTF-8" standalone="no"?>
<svg
   xmlns:dc="http://purl.org/dc/elements/1.1/"
   xmlns:cc="http://creativecommons.org/ns#"
   xmlns:rdf="http://www.w3.org/1999/02/22-rdf-syntax-ns#"
   xmlns:svg="http://www.w3.org/2000/svg"
   xmlns="http://www.w3.org/2000/svg"
   xmlns:sodipodi="http://sodipodi.sourceforge.net/DTD/sodipodi-0.dtd"
   xmlns:inkscape="http://www.inkscape.org/namespaces/inkscape"
   version="1.1"
   viewBox="0 0 22.000001 22"
   id="svg6"
   sodipodi:docname="mail-folder-sent.svg"
   inkscape:version="1.0.2 (e86c870879, 2021-01-15)"
   width="22"
   height="22">
  <metadata
     id="metadata12">
    <rdf:RDF>
      <cc:Work
         rdf:about="">
        <dc:format>image/svg+xml</dc:format>
        <dc:type
           rdf:resource="http://purl.org/dc/dcmitype/StillImage" />
        <dc:title></dc:title>
      </cc:Work>
    </rdf:RDF>
  </metadata>
  <defs
     id="defs10" />
  <sodipodi:namedview
     pagecolor="#ffffff"
     bordercolor="#666666"
     borderopacity="1"
     objecttolerance="10"
     gridtolerance="10"
     guidetolerance="10"
     inkscape:pageopacity="0"
     inkscape:pageshadow="2"
     inkscape:window-width="1366"
     inkscape:window-height="689"
     id="namedview8"
     showgrid="true"
     inkscape:zoom="23.643883"
     inkscape:cx="11.292653"
     inkscape:cy="9.9906043"
     inkscape:window-x="0"
     inkscape:window-y="0"
     inkscape:window-maximized="1"
     inkscape:current-layer="svg6"
     inkscape:document-rotation="0">
    <inkscape:grid
       type="xygrid"
       id="grid831" />
  </sodipodi:namedview>
  <g
     transform="matrix(0.99994561,0,0,1,-388.97914,-476.49899)"
     id="g4"
     style="fill:#111111;fill-opacity:1">
    <path
       d="m 407.5,482.5 0.002,0.002 c -0.0118,2.5e-4 -0.0235,8.7e-4 -0.0352,0.002 -0.0164,10e-4 -0.0326,0.003 -0.0488,0.006 -0.005,5.8e-4 -0.0104,9.6e-4 -0.0156,0.002 -0.005,10e-4 -0.0104,0.003 -0.0156,0.004 -0.0111,0.002 -0.0222,0.005 -0.0332,0.008 l -14.967,3.4922 c -0.42558,0.0998 -0.52727,0.65915 -0.16406,0.90235 l 2.7773,1.8516 v 3.7324 c 1.7e-4,0.44533 0.53852,0.6683 0.85352,0.35352 l 2.2012,-2.2012 3.1543,2.2539 c 0.23341,0.16686 0.55906,0.10352 0.7129,-0.13867 l 5.9805,-9.4707 c 0.007,-0.01 0.0134,-0.0193 0.0195,-0.0293 0.003,-0.004 0.005,-0.008 0.008,-0.0117 0.006,-0.0108 0.0122,-0.0219 0.0176,-0.0332 0.002,-0.004 0.004,-0.008 0.006,-0.0117 0.005,-0.0109 0.01,-0.022 0.0137,-0.0332 0.002,-0.005 0.004,-0.009 0.006,-0.0137 0.004,-0.011 0.007,-0.022 0.01,-0.0332 10e-4,-0.005 0.005,-0.009 0.006,-0.0137 6.9e-4,-0.003 9.5e-4,-0.005 0.002,-0.008 0.003,-0.0136 0.005,-0.0273 0.006,-0.041 0.002,-0.009 0.003,-0.0182 0.004,-0.0273 3e-5,-0.003 3e-5,-0.007 0,-0.01 5.6e-4,-0.0105 1e-4,-0.0208 0,-0.0312 -3e-4,-0.0111 -9.2e-4,-0.0222 -0.002,-0.0332 -10e-4,-0.0164 -0.003,-0.0326 -0.006,-0.0488 -0.002,-0.0118 -0.004,-0.0235 -0.006,-0.0352 -10e-4,-0.005 -0.003,-0.009 -0.004,-0.0137 -0.004,-0.0159 -0.01,-0.0315 -0.0156,-0.0469 -0.004,-0.0112 -0.009,-0.0223 -0.0137,-0.0332 -0.002,-0.005 -0.004,-0.009 -0.006,-0.0137 -0.005,-0.0106 -0.0114,-0.0211 -0.0176,-0.0312 -0.003,-0.004 -0.005,-0.008 -0.008,-0.0117 -0.006,-0.01 -0.0127,-0.0198 -0.0195,-0.0293 -0.003,-0.004 -0.009,-0.008 -0.0117,-0.0117 -0.0104,-0.0129 -0.0195,-0.0253 -0.0312,-0.0371 -0.008,-0.009 -0.0186,-0.0172 -0.0274,-0.0254 l -0.01,-0.01 c -0.0113,-0.01 -0.0231,-0.0187 -0.0352,-0.0273 -10e-4,-6.7e-4 -0.003,-9.6e-4 -0.004,-0.002 -0.0102,-0.007 -0.0207,-0.0134 -0.0312,-0.0195 -0.004,-0.003 -0.008,-0.005 -0.0117,-0.008 -0.0102,-0.006 -0.0206,-0.0108 -0.0312,-0.0156 -0.005,-0.002 -0.009,-0.004 -0.0137,-0.006 -0.0109,-0.005 -0.022,-0.01 -0.0332,-0.0137 -0.005,-10e-4 -0.009,-0.003 -0.0137,-0.004 -0.0116,-0.004 -0.0233,-0.007 -0.0352,-0.01 -0.01,-0.002 -0.0195,-0.004 -0.0293,-0.006 -0.0258,-0.005 -0.0519,-0.009 -0.0781,-0.01 -0.002,-1e-5 -0.004,-1e-5 -0.006,0 z m -1.5,1.502 -8.2969,5.5977 c -0.008,0.006 -0.0117,0.015 -0.0195,0.0215 -0.0123,0.0109 -0.0251,0.0149 -0.0371,0.0273 L 396,491.295 v -2.4785 z"
       style="font-variant-ligatures:normal;font-variant-position:normal;font-variant-caps:normal;font-variant-numeric:normal;font-variant-alternates:normal;font-feature-settings:normal;text-indent:0;text-decoration:none;text-decoration-line:none;text-decoration-style:solid;text-decoration-color:#000000;text-transform:none;text-orientation:mixed;white-space:normal;shape-padding:0;isolation:auto;mix-blend-mode:normal;fill:#111111;fill-opacity:1"
       id="path2" />
  </g>
</svg>
