<?xml version="1.0" encoding="UTF-8" standalone="no"?>
<svg
   xmlns:dc="http://purl.org/dc/elements/1.1/"
   xmlns:cc="http://creativecommons.org/ns#"
   xmlns:rdf="http://www.w3.org/1999/02/22-rdf-syntax-ns#"
   xmlns:svg="http://www.w3.org/2000/svg"
   xmlns="http://www.w3.org/2000/svg"
   xmlns:sodipodi="http://sodipodi.sourceforge.net/DTD/sodipodi-0.dtd"
   xmlns:inkscape="http://www.inkscape.org/namespaces/inkscape"
   version="1.1"
   viewBox="0 0 22 22"
   id="svg6"
   sodipodi:docname="mail-message.svg"
   inkscape:version="1.0.2 (e86c870879, 2021-01-15)"
   width="22"
   height="22">
  <metadata
     id="metadata12">
    <rdf:RDF>
      <cc:Work
         rdf:about="">
        <dc:format>image/svg+xml</dc:format>
        <dc:type
           rdf:resource="http://purl.org/dc/dcmitype/StillImage" />
        <dc:title></dc:title>
      </cc:Work>
    </rdf:RDF>
  </metadata>
  <defs
     id="defs10" />
  <sodipodi:namedview
     pagecolor="#ffffff"
     bordercolor="#666666"
     borderopacity="1"
     objecttolerance="10"
     gridtolerance="10"
     guidetolerance="10"
     inkscape:pageopacity="0"
     inkscape:pageshadow="2"
     inkscape:window-width="1366"
     inkscape:window-height="689"
     id="namedview8"
     showgrid="true"
     inkscape:zoom="23.643883"
     inkscape:cx="11.57926"
     inkscape:cy="9.7800597"
     inkscape:window-x="0"
     inkscape:window-y="0"
     inkscape:window-maximized="1"
     inkscape:current-layer="svg6"
     inkscape:document-rotation="0">
    <inkscape:grid
       type="xygrid"
       id="grid831" />
  </sodipodi:namedview>
  <g
     transform="translate(-248.99996,-477)"
     id="g4"
     style="fill:#111111;fill-opacity:1">
    <path
       d="m 255.5,481 c -0.277,0 -0.5,0.223 -0.5,0.5 0,0.277 0.223,0.5 0.5,0.5 h 9 c 0.277,0 0.5,-0.223 0.5,-0.5 0,-0.277 -0.223,-0.5 -0.5,-0.5 z m -1,2 c -0.277,0 -0.5,0.223 -0.5,0.5 0,0.277 0.223,0.5 0.5,0.5 h 11 c 0.277,0 0.5,-0.223 0.5,-0.5 0,-0.277 -0.223,-0.5 -0.5,-0.5 z m 2,1.998 c -1,0 -1.7938,-0.0367 -2.4727,0.30273 -0.33944,0.16973 -0.63,0.46244 -0.79687,0.83789 -0.16687,0.37546 -0.23047,0.81771 -0.23047,1.3594 v 5 c 0,0.54167 0.0636,0.98391 0.23047,1.3594 0.16687,0.37545 0.45743,0.66816 0.79687,0.83789 0.67889,0.33944 1.4727,0.30274 2.4727,0.30274 h 7 c 1,0 1.7938,0.0367 2.4727,-0.30274 0.33944,-0.16973 0.63,-0.46244 0.79687,-0.83789 0.16687,-0.37546 0.23047,-0.8177 0.23047,-1.3594 v -5 c 0,-0.54167 -0.0636,-0.98392 -0.23047,-1.3594 -0.16687,-0.37545 -0.45743,-0.66816 -0.79687,-0.83789 C 265.29381,484.96129 264.5,484.998 263.5,484.998 Z m 0,1 h 7 c 1,0 1.7062,0.0367 2.0273,0.19726 0.16056,0.0803 0.245,0.16256 0.32813,0.34961 0.0225,0.0507 0.0381,0.13411 0.0566,0.20313 l -5.9121,3.1816 -5.9121,-3.1816 c 0.0186,-0.069 0.0341,-0.15244 0.0566,-0.20313 0.0831,-0.18705 0.16757,-0.26934 0.32813,-0.34961 0.32111,-0.16056 1.0273,-0.19726 2.0273,-0.19726 z m -2.5,1.8359 6,3.2324 6,-3.2324 v 4.6641 c 0,0.45833 -0.0614,0.76608 -0.14453,0.95312 -0.0831,0.18705 -0.16757,0.26934 -0.32813,0.34961 -0.32111,0.16056 -1.0273,0.19727 -2.0273,0.19727 h -7 c -1,0 -1.7062,-0.0367 -2.0273,-0.19727 -0.16056,-0.0803 -0.245,-0.16256 -0.32813,-0.34961 -0.0831,-0.18704 -0.14453,-0.49479 -0.14453,-0.95312 z"
       style="font-variant-ligatures:normal;font-variant-position:normal;font-variant-caps:normal;font-variant-numeric:normal;font-variant-alternates:normal;font-feature-settings:normal;text-indent:0;text-decoration:none;text-decoration-line:none;text-decoration-style:solid;text-decoration-color:#000000;text-transform:none;text-orientation:mixed;white-space:normal;shape-padding:0;isolation:auto;mix-blend-mode:normal;fill:#111111;fill-opacity:1"
       id="path2" />
  </g>
</svg>
