<?xml version="1.0" encoding="UTF-8" standalone="no"?>
<svg
   xmlns:dc="http://purl.org/dc/elements/1.1/"
   xmlns:cc="http://creativecommons.org/ns#"
   xmlns:rdf="http://www.w3.org/1999/02/22-rdf-syntax-ns#"
   xmlns:svg="http://www.w3.org/2000/svg"
   xmlns="http://www.w3.org/2000/svg"
   xmlns:sodipodi="http://sodipodi.sourceforge.net/DTD/sodipodi-0.dtd"
   xmlns:inkscape="http://www.inkscape.org/namespaces/inkscape"
   version="1.1"
   viewBox="0 0 22 22"
   id="svg16"
   sodipodi:docname="network-workgroup.svg"
   inkscape:version="1.0.2 (e86c870879, 2021-01-15)"
   width="22"
   height="22">
  <metadata
     id="metadata22">
    <rdf:RDF>
      <cc:Work
         rdf:about="">
        <dc:format>image/svg+xml</dc:format>
        <dc:type
           rdf:resource="http://purl.org/dc/dcmitype/StillImage" />
        <dc:title></dc:title>
      </cc:Work>
    </rdf:RDF>
  </metadata>
  <defs
     id="defs20" />
  <sodipodi:namedview
     pagecolor="#ffffff"
     bordercolor="#666666"
     borderopacity="1"
     objecttolerance="10"
     gridtolerance="10"
     guidetolerance="10"
     inkscape:pageopacity="0"
     inkscape:pageshadow="2"
     inkscape:window-width="1366"
     inkscape:window-height="689"
     id="namedview18"
     showgrid="true"
     inkscape:zoom="16.71875"
     inkscape:cx="8"
     inkscape:cy="8"
     inkscape:window-x="0"
     inkscape:window-y="0"
     inkscape:window-maximized="1"
     inkscape:current-layer="svg16"
     inkscape:document-rotation="0">
    <inkscape:grid
       type="xygrid"
       id="grid836" />
  </sodipodi:namedview>
  <g
     fill="#808080"
     id="g14"
     transform="translate(3.00008,3.0000029)">
    <path
       d="M 4,0 C 3.342,-4.8194e-4 2.8208,0.059609 2.3828,0.22461 1.96086,0.37599 1.6069,0.67315 1.38475,1.0625 0.96875,1.8145 1.01498,2.7361 0.99998,3.9941 v 0.93945 c 0.28633,-0.27571 0.62202,-0.4973 1,-0.63672 V 3.99995 c 0.015,-1.26 0.057766,-2.0871 0.25977,-2.4531 0.1,-0.184 0.21461,-0.28972 0.47461,-0.38672 0.26,-0.097 0.67363,-0.16059 1.2656,-0.16016 l 8,0.00586 c 0.592,4.336e-4 1.0056,0.063156 1.2656,0.16016 0.26,0.098 0.37361,0.20372 0.47461,0.38672 0.202,0.366 0.24477,1.1931 0.25977,2.4531 v 0.29492 c 0.37799,0.13929 0.7138,0.36089 1,0.63672 v -0.9375 c -0.015,-1.258 0.03023,-2.1786 -0.38477,-2.9316 C 14.39302,0.679 14.03906,0.38184 13.61712,0.23046 c -0.438,-0.164 -0.96019,-0.22413 -1.6172,-0.22461 z"
       solid-color="#000000"
       style="text-indent:0;text-decoration:none;text-decoration-line:none;text-decoration-style:solid;text-decoration-color:#000000;text-transform:none;white-space:normal;isolation:auto;mix-blend-mode:normal;fill:#111111;fill-opacity:1"
       id="path2" />
    <path
       d="M 3.9854,10 C 3.325,9.9995181 2.8019,10.05961 2.3623,10.22461 1.93883,10.37599 1.58358,10.67315 1.3606,11.0625 1.06839,11.58881 1.01775,12.2503 0.99992,13 c 0.017835,0.74966 0.068478,1.4112 0.36068,1.9375 0.22296,0.38935 0.57821,0.68651 1.0017,0.83789 0.4396,0.165 0.96268,0.22413 1.6231,0.22461 l 8.0291,0.0059 c 0.65939,4.82e-4 1.1835,-0.06061 1.6231,-0.22461 0.42347,-0.15138 0.77872,-0.44854 1.0017,-0.83789 C 14.9314,14.41521 14.98207,13.7515 14.99998,13 14.98167,12.25369 14.92992,11.5938 14.6393,11.0684 14.41634,10.67905 14.06109,10.38189 13.6376,10.23051 13.198,10.06647 12.67392,10.00638 12.0145,10.0059 Z m 0,1 8.0291,0.0059 c 0.59416,4.34e-4 1.0093,0.06316 1.2702,0.16016 0.26095,0.098 0.37497,0.20372 0.47634,0.38672 0.13748,0.24819 0.18986,0.78378 0.22151,1.4473 -0.03146,0.6694 -0.08327,1.2094 -0.22151,1.459 -0.10137,0.183 -0.21539,0.28872 -0.47634,0.38672 -0.26095,0.097 -0.67608,0.16059 -1.2702,0.16016 L 3.9854,15.00006 C 3.39124,14.999626 2.9761,14.9369 2.7152,14.8399 2.45425,14.7429 2.33923,14.63718 2.23886,14.45318 2.101,14.20433 2.04891,13.66649 2.01735,13.00008 c 0.031554,-0.66644 0.083653,-1.2042 0.22151,-1.4531 0.10036,-0.184 0.21539,-0.28972 0.47634,-0.38672 0.26095,-0.097 0.67608,-0.16059 1.2702,-0.16016 z"
       solid-color="#000000"
       stroke-width="1.0018"
       style="text-indent:0;text-decoration:none;text-decoration-line:none;text-decoration-style:solid;text-decoration-color:#000000;text-transform:none;white-space:normal;isolation:auto;mix-blend-mode:normal;fill:#111111;fill-opacity:1"
       id="path4" />
    <path
       d="M 4,5 C 3.342,4.999518 2.8208,5.059609 2.3828,5.22461 1.96086,5.37599 1.6069,5.67315 1.38475,6.0625 0.96875,6.8145 1.01498,7.7361 0.99998,8.9941 v 0.93945 c 0.28633,-0.27571 0.62202,-0.4973 1,-0.63672 V 8.99995 c 0.015,-1.26 0.057766,-2.0871 0.25977,-2.4531 0.1,-0.184 0.21461,-0.28972 0.47461,-0.38672 0.26,-0.097 0.67363,-0.16059 1.2656,-0.16016 l 8,0.00586 c 0.592,4.336e-4 1.0056,0.063156 1.2656,0.16016 0.26,0.098 0.37361,0.20372 0.47461,0.38672 0.202,0.366 0.24477,1.1931 0.25977,2.4531 v 0.29492 c 0.37799,0.13929 0.7138,0.36089 1,0.63672 v -0.9375 c -0.015,-1.258 0.03023,-2.1786 -0.38477,-2.9316 C 14.39302,5.679 14.03906,5.38184 13.61712,5.23046 c -0.438,-0.164 -0.96019,-0.22413 -1.6172,-0.22461 z"
       solid-color="#000000"
       style="text-indent:0;text-decoration:none;text-decoration-line:none;text-decoration-style:solid;text-decoration-color:#000000;text-transform:none;white-space:normal;isolation:auto;mix-blend-mode:normal;fill:#111111;fill-opacity:1"
       id="path6" />
    <rect
       x="11"
       y="3"
       width="2"
       height="1"
       id="rect8"
       style="fill:#111111;fill-opacity:1" />
    <rect
       x="11"
       y="8"
       width="2"
       height="1"
       id="rect10"
       style="fill:#111111;fill-opacity:1" />
    <rect
       x="11"
       y="13"
       width="2"
       height="1"
       id="rect12"
       style="fill:#111111;fill-opacity:1" />
  </g>
</svg>
