<?xml version="1.0" encoding="UTF-8" standalone="no"?>
<svg
   viewBox="0 0 22 22.000001"
   version="1.1"
   id="svg4"
   sodipodi:docname="user-trash.svg"
   inkscape:version="1.1 (c68e22c387, 2021-05-23)"
   width="22"
   height="22"
   xmlns:inkscape="http://www.inkscape.org/namespaces/inkscape"
   xmlns:sodipodi="http://sodipodi.sourceforge.net/DTD/sodipodi-0.dtd"
   xmlns="http://www.w3.org/2000/svg"
   xmlns:svg="http://www.w3.org/2000/svg"
   xmlns:rdf="http://www.w3.org/1999/02/22-rdf-syntax-ns#"
   xmlns:cc="http://creativecommons.org/ns#"
   xmlns:dc="http://purl.org/dc/elements/1.1/">
  <metadata
     id="metadata10">
    <rdf:RDF>
      <cc:Work
         rdf:about="">
        <dc:format>image/svg+xml</dc:format>
        <dc:type
           rdf:resource="http://purl.org/dc/dcmitype/StillImage" />
        <dc:title />
      </cc:Work>
    </rdf:RDF>
  </metadata>
  <defs
     id="defs8" />
  <sodipodi:namedview
     pagecolor="#ffffff"
     bordercolor="#666666"
     borderopacity="1"
     objecttolerance="10"
     gridtolerance="10"
     guidetolerance="10"
     inkscape:pageopacity="0"
     inkscape:pageshadow="2"
     inkscape:window-width="1366"
     inkscape:window-height="689"
     id="namedview6"
     showgrid="true"
     inkscape:zoom="32"
     inkscape:cx="11.09375"
     inkscape:cy="11.953125"
     inkscape:window-x="0"
     inkscape:window-y="0"
     inkscape:window-maximized="1"
     inkscape:current-layer="svg4"
     inkscape:document-rotation="0"
     inkscape:pagecheckerboard="0"
     showguides="false">
    <inkscape:grid
       type="xygrid"
       id="grid830" />
  </sodipodi:namedview>
  <g
     id="g835">
    <path
       id="path2"
       style="fill:#111111;fill-opacity:1;stroke-width:1.125"
       d="m 11.000002,1.9995 c -1.237496,0 -2.5963466,0.3603505 -2.5963466,0.3603505 L 8.0037541,2.4806998 V 4.3747374 C 6.8454204,4.5798792 6.0833909,4.9152579 5.000374,5.3744904 L 4.998174,7 H 3 v 1 h 1.9981768 l 0.00439,9.749455 c 0,0.493874 0.045439,0.886533 0.169189,1.217282 0.1248748,0.330749 0.3493115,0.593963 0.6328108,0.751463 0.5658734,0.314999 1.060484,0.281249 1.9976064,0.281249 h 6.195198 c 0.937123,0 1.631385,0.03375 2.197258,-0.281249 0.283499,-0.1575 0.506866,-0.420714 0.630614,-0.751463 0.12375,-0.330749 0.171386,-0.723408 0.171386,-1.217282 L 17,9.874478 v 0 V 8 h 2 V 7 H 17.18748 16.99443 L 17,5.3744904 C 15.916363,4.914873 15.154804,4.579484 13.995668,4.3747374 V 2.5048697 L 13.624332,2.3708368 c 0,0 -1.393965,-0.3691396 -2.808086,-0.3691396 z m 0.01453,1.0117758 c 1.001247,0 1.74322,0.1751655 1.979469,0.2482903 l -1.26e-4,0.8366524 c -0.559682,-0.061489 -1.434142,-0.093103 -1.99719,-0.094558 -0.564748,0 -1.4322468,0.03593 -1.9936197,0.096679 L 9.003,3.2660819 c 0.2992491,-0.07875 1.192535,-0.2548061 2.011531,-0.2548061 z M 6.0056716,8 H 16.002133 L 16,8.7494809 h -6.7e-5 l 0.0022,9.1241211 c 0,0.422999 -0.04488,0.677829 -0.09888,0.819579 -0.03825,0.101249 -0.08705,0.145669 -0.123047,0.164794 -0.194624,0.109124 -0.688217,0.140624 -1.652339,0.140624 H 7.8843284 c -0.9641222,0 -1.4565896,-0.0315 -1.652339,-0.140624 -0.060779,-0.03797 -0.1059794,-0.09862 -0.1274411,-0.166994 v 0 c -0.05175,-0.137248 -0.094482,-0.515153 -0.094482,-0.941527 v 0.121947 z M 8,9 v 7 H 9 V 9 Z m 2.5,0 v 7 h 1 V 9 Z M 13,9 v 7 h 1 V 9 Z"
       sodipodi:nodetypes="ccccccccccccsscsccccccccccccccccccccscccccccsscccscccccccccccccccccc" />
  </g>
</svg>
