<?xml version="1.0" encoding="UTF-8" standalone="no"?>
<svg
   version="1.1"
   viewBox="0 0 22 22"
   id="svg6"
   sodipodi:docname="user-desktop.svg"
   inkscape:version="1.1 (c68e22c387, 2021-05-23)"
   width="22"
   height="22"
   xmlns:inkscape="http://www.inkscape.org/namespaces/inkscape"
   xmlns:sodipodi="http://sodipodi.sourceforge.net/DTD/sodipodi-0.dtd"
   xmlns="http://www.w3.org/2000/svg"
   xmlns:svg="http://www.w3.org/2000/svg"
   xmlns:rdf="http://www.w3.org/1999/02/22-rdf-syntax-ns#"
   xmlns:cc="http://creativecommons.org/ns#"
   xmlns:dc="http://purl.org/dc/elements/1.1/">
  <metadata
     id="metadata12">
    <rdf:RDF>
      <cc:Work
         rdf:about="">
        <dc:format>image/svg+xml</dc:format>
        <dc:type
           rdf:resource="http://purl.org/dc/dcmitype/StillImage" />
        <dc:title />
      </cc:Work>
    </rdf:RDF>
  </metadata>
  <defs
     id="defs10" />
  <sodipodi:namedview
     pagecolor="#ffffff"
     bordercolor="#666666"
     borderopacity="1"
     objecttolerance="10"
     gridtolerance="10"
     guidetolerance="10"
     inkscape:pageopacity="0"
     inkscape:pageshadow="2"
     inkscape:window-width="1366"
     inkscape:window-height="689"
     id="namedview8"
     showgrid="true"
     inkscape:zoom="23.643884"
     inkscape:cx="15.014454"
     inkscape:cy="8.9875251"
     inkscape:window-x="0"
     inkscape:window-y="0"
     inkscape:window-maximized="1"
     inkscape:current-layer="svg6"
     inkscape:document-rotation="0"
     inkscape:pagecheckerboard="0">
    <inkscape:grid
       type="xygrid"
       id="grid831" />
  </sodipodi:namedview>
  <g
     transform="matrix(1.2857124,0,0,1.2857124,-425.87,-332.57073)"
     fill="#808080"
     id="g8">
    <path
       d="m 336.78237,261 c -1.2582,0.0145 -2.1789,-0.0306 -2.9316,0.38477 -0.37637,0.20766 -0.67323,0.55938 -0.83789,0.99804 -0.16467,0.43867 -0.22461,0.95958 -0.22461,1.6172 v 4 2.44412 c 0,0.65761 0.0599,1.1785 0.22461,1.6172 0.16467,0.43865 0.46152,0.79039 0.83789,0.99804 0.75275,0.41532 1.6734,0.3702 2.9316,0.38477 h 0.004 2.002 2.56964 1.22477 1.11641 c 1.2582,-0.0146 2.1789,0.0306 2.9316,-0.38477 0.37637,-0.20765 0.67322,-0.55939 0.83789,-0.99804 0.16453,-0.43866 0.0994,-0.92757 0.0994,-1.61721 l 10e-6,-2.44411 -0.003,-4 c -5e-4,-0.65761 -0.0599,-1.1785 -0.22461,-1.6172 -0.16466,-0.43866 -0.46152,-0.79038 -0.83789,-0.99804 -0.75275,-0.41537 -3.43535,-0.37027 -4.69355,-0.38477 h 1.10855 0.77382 -4.90282 -2.002 z m 2.0059,0.75556 h 2.56964 c 2,0 3.91129,-0.0156 4.65339,0.22461 0.98348,0.44721 0.77778,1.86334 0.77461,2.7754 -0.007,2.12319 0.002,3.24213 0.002,5.57778 h -3.87461 -4.125 l -5.2199,-10e-6 c 0,-2.33778 6.7e-4,-3.45457 -1.8e-4,-5.57777 -0.002,-0.93809 -0.21004,-2.3282 0.77344,-2.7754 0.74219,-0.24023 2.44647,-0.22461 4.44647,-0.22461 z"
       color="#000000"
       id="path4"
       sodipodi:nodetypes="cccscsccccccccccccscccccccccscscccccccc"
       style="fill:#111111;fill-opacity:1" />
  </g>
</svg>
