<?xml version="1.0" encoding="UTF-8" standalone="no"?>
<svg
   xmlns:dc="http://purl.org/dc/elements/1.1/"
   xmlns:cc="http://creativecommons.org/ns#"
   xmlns:rdf="http://www.w3.org/1999/02/22-rdf-syntax-ns#"
   xmlns:svg="http://www.w3.org/2000/svg"
   xmlns="http://www.w3.org/2000/svg"
   xmlns:xlink="http://www.w3.org/1999/xlink"
   xmlns:sodipodi="http://sodipodi.sourceforge.net/DTD/sodipodi-0.dtd"
   xmlns:inkscape="http://www.inkscape.org/namespaces/inkscape"
   viewBox="0 0 16 16"
   version="1.1"
   id="svg29"
   sodipodi:docname="konversation.svg"
   inkscape:version="1.0.2 (e86c870879, 2021-01-15)">
  <metadata
     id="metadata35">
    <rdf:RDF>
      <cc:Work
         rdf:about="">
        <dc:format>image/svg+xml</dc:format>
        <dc:type
           rdf:resource="http://purl.org/dc/dcmitype/StillImage" />
      </cc:Work>
    </rdf:RDF>
  </metadata>
  <defs
     id="defs33" />
  <sodipodi:namedview
     pagecolor="#ffffff"
     bordercolor="#666666"
     borderopacity="1"
     objecttolerance="10"
     gridtolerance="10"
     guidetolerance="10"
     inkscape:pageopacity="0"
     inkscape:pageshadow="2"
     inkscape:window-width="1366"
     inkscape:window-height="689"
     id="namedview31"
     showgrid="true"
     inkscape:zoom="23.643883"
     inkscape:cx="8"
     inkscape:cy="8"
     inkscape:window-x="0"
     inkscape:window-y="0"
     inkscape:window-maximized="1"
     inkscape:current-layer="svg29">
    <inkscape:grid
       type="xygrid"
       id="grid860" />
  </sodipodi:namedview>
  <linearGradient
     id="a"
     x2="0"
     y1="34"
     y2="4"
     gradientUnits="userSpaceOnUse">
    <stop
       stop-color="#7cbaf8"
       offset="0"
       id="stop2" />
    <stop
       stop-color="#f4fcff"
       offset="1"
       id="stop4" />
  </linearGradient>
  <linearGradient
     id="b"
     x1="405.57001"
     x2="427.57001"
     y1="509.79999"
     y2="533.79999"
     gradientUnits="userSpaceOnUse">
    <stop
       stop-opacity=".286"
       offset="0"
       id="stop7" />
    <stop
       stop-opacity="0"
       offset="1"
       id="stop9" />
  </linearGradient>
  <linearGradient
     id="c"
     x1="412.57001"
     x2="425.57001"
     y1="514.79999"
     y2="527.79999"
     gradientUnits="userSpaceOnUse"
     xlink:href="#b" />
  <linearGradient
     id="d"
     x2="0"
     y1="44"
     y2="4"
     gradientTransform="matrix(-1 0 0 1 432.57 499.8)"
     gradientUnits="userSpaceOnUse">
    <stop
       stop-color="#2f74c8"
       offset="0"
       id="stop13" />
    <stop
       stop-color="#4699d7"
       offset="1"
       id="stop15" />
  </linearGradient>
  <linearGradient
     id="e"
     x1="405.57001"
     x2="427.57001"
     y1="509.79999"
     y2="533.79999"
     gradientUnits="userSpaceOnUse"
     xlink:href="#b" />
  <g
     transform="translate(-632,-260)"
     fill="#808080"
     id="g8"
     style="fill:#111111;fill-opacity:1">
    <path
       d="m 634,261 c -1.108,0 -2,0.892 -2,2 v 8 c 0,1.108 0.892,2 2,2 h 1.5215 l 2.4785,3 2,-3 h 6 c 1.108,0 2,-0.892 2,-2 v -8 c 0,-1.108 -0.892,-2 -2,-2 z m 0,1 h 12 c 0.554,0 1,0.446 1,1 v 8 c 0,0.554 -0.446,1 -1,1 h -6.434 L 638,274.4 636.034,272 H 634 c -0.554,0 -1,-0.446 -1,-1 v -8 c 0,-0.554 0.446,-1 1,-1 z m -0.69922,11 c 0.15187,0.0168 0.32083,0.0211 0.52344,0 z"
       enable-background="new"
       id="path2"
       style="fill:#111111;fill-opacity:1" />
    <rect
       x="635"
       y="264"
       width="10"
       height="1"
       rx="0.25"
       ry="0.25"
       id="rect4"
       style="fill:#111111;fill-opacity:1" />
    <rect
       x="635"
       y="266"
       width="7"
       height="1"
       rx="0.25"
       ry="0.25"
       id="rect6"
       style="fill:#111111;fill-opacity:1" />
  </g>
</svg>
