<?xml version="1.0" encoding="UTF-8" standalone="no"?>
<svg
   xmlns:dc="http://purl.org/dc/elements/1.1/"
   xmlns:cc="http://creativecommons.org/ns#"
   xmlns:rdf="http://www.w3.org/1999/02/22-rdf-syntax-ns#"
   xmlns:svg="http://www.w3.org/2000/svg"
   xmlns="http://www.w3.org/2000/svg"
   xmlns:sodipodi="http://sodipodi.sourceforge.net/DTD/sodipodi-0.dtd"
   xmlns:inkscape="http://www.inkscape.org/namespaces/inkscape"
   height="16"
   width="16"
   version="1.1"
   id="svg29"
   sodipodi:docname="libreoffice-draw.svg"
   inkscape:version="1.0.2 (e86c870879, 2021-01-15)">
  <metadata
     id="metadata35">
    <rdf:RDF>
      <cc:Work
         rdf:about="">
        <dc:format>image/svg+xml</dc:format>
        <dc:type
           rdf:resource="http://purl.org/dc/dcmitype/StillImage" />
        <dc:title></dc:title>
      </cc:Work>
    </rdf:RDF>
  </metadata>
  <defs
     id="defs33" />
  <sodipodi:namedview
     pagecolor="#ffffff"
     bordercolor="#666666"
     borderopacity="1"
     objecttolerance="10"
     gridtolerance="10"
     guidetolerance="10"
     inkscape:pageopacity="0"
     inkscape:pageshadow="2"
     inkscape:window-width="1366"
     inkscape:window-height="689"
     id="namedview31"
     showgrid="true"
     inkscape:zoom="23.643883"
     inkscape:cx="8"
     inkscape:cy="8"
     inkscape:window-x="0"
     inkscape:window-y="0"
     inkscape:window-maximized="1"
     inkscape:current-layer="svg29"
     inkscape:document-rotation="0">
    <inkscape:grid
       type="xygrid"
       id="grid860" />
  </sodipodi:namedview>
  <linearGradient
     id="a"
     gradientUnits="userSpaceOnUse"
     x1="4.00001"
     x2="14.00001"
     y1="4.99999"
     y2="14.99999">
    <stop
       offset="0"
       stop-color="#383e51"
       id="stop2" />
    <stop
       offset="1"
       stop-color="#655c6f"
       stop-opacity="0"
       id="stop4" />
  </linearGradient>
  <linearGradient
     id="b"
     gradientTransform="matrix(.72727 0 0 .68966 .727 1.931)"
     gradientUnits="userSpaceOnUse"
     x2="0"
     y1="785.71002"
     y2="727.71002">
    <stop
       offset="0"
       stop-color="#26c281"
       id="stop7" />
    <stop
       offset="1"
       stop-color="#3fc380"
       id="stop9" />
  </linearGradient>
  <linearGradient
     id="c"
     gradientTransform="translate(-15 -20)"
     gradientUnits="userSpaceOnUse"
     x2="0"
     y1="531.79999"
     y2="515.79999">
    <stop
       offset="0"
       stop-color="#70e4b3"
       id="stop12" />
    <stop
       offset="1"
       stop-color="#c8f0dc"
       id="stop14" />
  </linearGradient>
  <g
     transform="translate(-412,-160)"
     id="g4"
     style="fill:#111111;fill-opacity:1">
    <path
       transform="translate(412,160)"
       d="M 4.9941,0 C 3.736,0.01507 2.8152,-0.028421 2.0625,0.38672 1.68614,0.59429 1.38929,0.9442 1.22461,1.38281 1.0599,1.82142 1,2.34239 1,3.00001 v 10 c 0,0.65761 0.059939,1.1785 0.22461,1.6172 0.16466,0.43866 0.46152,0.79039 0.83789,0.99805 0.75275,0.41537 1.6734,0.37027 2.9316,0.38477 h 0.00391 6.0059 0.002 c 1.2581,-0.01507 2.1789,0.02841 2.9316,-0.38672 0.37636,-0.20757 0.67321,-0.55748 0.83789,-0.99609 0.16451,-0.43861 0.22456,-0.95958 0.22456,-1.6172 v -8 -0.75 l -4.25,-4.25 h -0.75 -5.0039 z m 0.00586,1 h 0.00586 4.9941 v 4 h 2 2 v 8 c 0,0.59239 -0.06261,1.0058 -0.16016,1.2656 -0.09754,0.2598 -0.20135,0.3715 -0.38477,0.47266 -0.36598,0.20182 -1.1965,0.24652 -2.4551,0.26172 H 4.9998888 c -1.2585,-0.0147 -2.0891,-0.0598 -2.4551,-0.26172 -0.18341,-0.10119 -0.28717,-0.21275 -0.38477,-0.47266 C 2.0624588,14.0057 1.9998588,13.59236 1.9998588,13 V 3 c 0,-0.59239 0.062556,-1.0058 0.16016,-1.2656 0.09754,-0.25979 0.20135,-0.3715 0.38477,-0.47266 0.36598,-0.20182 1.1964,-0.24652 2.4551,-0.26172 z"
       color="#000000"
       id="path2"
       style="fill:#111111;fill-opacity:1" />
  </g>
  <g
     fill-rule="evenodd"
     stroke-width="0.667"
     id="g34"
     style="fill:#111111;fill-opacity:1" />
  <path
     d="m 11.4995,6 c -0.82843,0 -1.5,0.67157 -1.5,1.5 0,0.82843 0.67157,1.5 1.5,1.5 0.82843,0 1.5,-0.67157 1.5,-1.5 0,-0.82843 -0.67157,-1.5 -1.5,-1.5 z"
     color="#000000"
     id="path6"
     style="fill:#111111;fill-opacity:1" />
  <path
     d="M 6,7.5 3,13 H 5.7182 11 L 8.5,8.5 7.5,10 Z"
     color="#000000"
     id="path8"
     style="fill:#111111;fill-opacity:1" />
</svg>
