<?xml version="1.0" encoding="UTF-8" standalone="no"?>
<svg
   xmlns:dc="http://purl.org/dc/elements/1.1/"
   xmlns:cc="http://creativecommons.org/ns#"
   xmlns:rdf="http://www.w3.org/1999/02/22-rdf-syntax-ns#"
   xmlns:svg="http://www.w3.org/2000/svg"
   xmlns="http://www.w3.org/2000/svg"
   xmlns:sodipodi="http://sodipodi.sourceforge.net/DTD/sodipodi-0.dtd"
   xmlns:inkscape="http://www.inkscape.org/namespaces/inkscape"
   height="16"
   width="16"
   version="1.1"
   id="svg29"
   sodipodi:docname="libreoffice-writer.svg"
   inkscape:version="1.0.2 (e86c870879, 2021-01-15)">
  <metadata
     id="metadata35">
    <rdf:RDF>
      <cc:Work
         rdf:about="">
        <dc:format>image/svg+xml</dc:format>
        <dc:type
           rdf:resource="http://purl.org/dc/dcmitype/StillImage" />
      </cc:Work>
    </rdf:RDF>
  </metadata>
  <defs
     id="defs33" />
  <sodipodi:namedview
     pagecolor="#ffffff"
     bordercolor="#666666"
     borderopacity="1"
     objecttolerance="10"
     gridtolerance="10"
     guidetolerance="10"
     inkscape:pageopacity="0"
     inkscape:pageshadow="2"
     inkscape:window-width="1366"
     inkscape:window-height="689"
     id="namedview31"
     showgrid="true"
     inkscape:zoom="23.643883"
     inkscape:cx="8"
     inkscape:cy="8"
     inkscape:window-x="0"
     inkscape:window-y="0"
     inkscape:window-maximized="1"
     inkscape:current-layer="svg29">
    <inkscape:grid
       type="xygrid"
       id="grid860" />
  </sodipodi:namedview>
  <linearGradient
     id="a"
     gradientTransform="matrix(.66725341 0 0 .68966 34.383476 1.931)"
     gradientUnits="userSpaceOnUse"
     x2="0"
     y1="785.71002"
     y2="727.71002">
    <stop
       offset="0"
       stop-color="#22a7f0"
       id="stop2" />
    <stop
       offset="1"
       stop-color="#19b5fe"
       id="stop4" />
  </linearGradient>
  <linearGradient
     id="b"
     gradientTransform="translate(396.57 514.46761)"
     gradientUnits="userSpaceOnUse"
     x2="0"
     y1="20"
     y2="4">
    <stop
       offset="0"
       stop-color="#60c0f4"
       id="stop7" />
    <stop
       offset="1"
       stop-color="#b9e9ff"
       id="stop9" />
  </linearGradient>
  <linearGradient
     id="c"
     gradientUnits="userSpaceOnUse"
     x1="16"
     x2="32"
     y1="16"
     y2="32">
    <stop
       offset="0"
       stop-color="#383e51"
       id="stop12" />
    <stop
       offset="1"
       stop-color="#655c6f"
       stop-opacity="0"
       id="stop14" />
  </linearGradient>
  <g
     transform="translate(-411.9959,-159.99998)"
     id="g4"
     style="fill:#111111;fill-opacity:1">
    <path
       d="m 416.99,176 c -1.2582,-0.0145 -2.1789,0.0306 -2.9316,-0.38477 -0.37637,-0.20766 -0.67323,-0.55938 -0.83789,-0.99804 -0.16467,-0.43867 -0.22461,-0.95958 -0.22461,-1.6172 v -10 c 0,-0.65761 0.0599,-1.1786 0.22461,-1.6172 0.16468,-0.43861 0.46153,-0.78852 0.83789,-0.99609 0.75272,-0.41514 1.6735,-0.37165 2.9316,-0.38672 h 0.002 5.0039 0.75 l 4.25,4.25 v 0.75 8 c 0,0.65761 -0.0599,1.1786 -0.22461,1.6172 -0.16468,0.43861 -0.46153,0.78852 -0.83789,0.99609 -0.75272,0.41513 -1.6736,0.37165 -2.9316,0.38672 h -0.002 -6.0059 z m 0.006,-1 h 6 c 1.2586,-0.0152 2.0891,-0.0599 2.4551,-0.26172 0.18342,-0.10116 0.28722,-0.21286 0.38476,-0.47266 0.0976,-0.25979 0.16016,-0.67323 0.16016,-1.2656 v -8 h -2 -2 v -4 h -4.9941 -0.006 c -1.2586,0.0152 -2.0891,0.0599 -2.4551,0.26172 -0.18342,0.10116 -0.28722,0.21286 -0.38476,0.47265 -0.0976,0.2598 -0.16016,0.67324 -0.16016,1.2656 v 10 c 0,0.59239 0.0626,1.0057 0.16016,1.2656 0.0976,0.25991 0.20135,0.37147 0.38476,0.47266 0.36596,0.20192 1.1966,0.24702 2.4551,0.26172 z m -1,-4 v -1 h 8 v 1 z m 0,-2 v -1 h 8 v 1 z m 0,-2 v -1 h 8 v 1 z m 0,6 v -1 h 4 v 1 z"
       color="#000000"
       id="path2"
       style="fill:#111111;fill-opacity:1" />
  </g>
</svg>
