<?xml version="1.0" encoding="UTF-8" standalone="no"?>
<svg
   xmlns:dc="http://purl.org/dc/elements/1.1/"
   xmlns:cc="http://creativecommons.org/ns#"
   xmlns:rdf="http://www.w3.org/1999/02/22-rdf-syntax-ns#"
   xmlns:svg="http://www.w3.org/2000/svg"
   xmlns="http://www.w3.org/2000/svg"
   xmlns:sodipodi="http://sodipodi.sourceforge.net/DTD/sodipodi-0.dtd"
   xmlns:inkscape="http://www.inkscape.org/namespaces/inkscape"
   height="16"
   width="16"
   version="1.1"
   id="svg29"
   sodipodi:docname="libreoffice-math.svg"
   inkscape:version="1.0.2 (e86c870879, 2021-01-15)">
  <metadata
     id="metadata35">
    <rdf:RDF>
      <cc:Work
         rdf:about="">
        <dc:format>image/svg+xml</dc:format>
        <dc:type
           rdf:resource="http://purl.org/dc/dcmitype/StillImage" />
        <dc:title></dc:title>
      </cc:Work>
    </rdf:RDF>
  </metadata>
  <defs
     id="defs33" />
  <sodipodi:namedview
     pagecolor="#ffffff"
     bordercolor="#666666"
     borderopacity="1"
     objecttolerance="10"
     gridtolerance="10"
     guidetolerance="10"
     inkscape:pageopacity="0"
     inkscape:pageshadow="2"
     inkscape:window-width="1366"
     inkscape:window-height="689"
     id="namedview31"
     showgrid="true"
     inkscape:zoom="16.71875"
     inkscape:cx="10.207442"
     inkscape:cy="7.1337358"
     inkscape:window-x="0"
     inkscape:window-y="0"
     inkscape:window-maximized="1"
     inkscape:current-layer="svg29"
     inkscape:document-rotation="0">
    <inkscape:grid
       type="xygrid"
       id="grid860" />
  </sodipodi:namedview>
  <linearGradient
     id="a"
     gradientUnits="userSpaceOnUse"
     x1="4.00001"
     x2="14.00001"
     y1="4.99999"
     y2="14.99999">
    <stop
       offset="0"
       stop-color="#383e51"
       id="stop2" />
    <stop
       offset="1"
       stop-color="#655c6f"
       stop-opacity="0"
       id="stop4" />
  </linearGradient>
  <linearGradient
     id="b"
     gradientTransform="matrix(.72727 0 0 .68966 .727 1.931)"
     gradientUnits="userSpaceOnUse"
     x2="0"
     y1="785.71002"
     y2="727.71002">
    <stop
       offset="0"
       stop-color="#26c281"
       id="stop7" />
    <stop
       offset="1"
       stop-color="#3fc380"
       id="stop9" />
  </linearGradient>
  <linearGradient
     id="c"
     gradientTransform="translate(-15 -20)"
     gradientUnits="userSpaceOnUse"
     x2="0"
     y1="531.79999"
     y2="515.79999">
    <stop
       offset="0"
       stop-color="#70e4b3"
       id="stop12" />
    <stop
       offset="1"
       stop-color="#c8f0dc"
       id="stop14" />
  </linearGradient>
  <g
     id="g877">
    <g
       transform="translate(-412,-160)"
       id="g4"
       style="fill:#111111;fill-opacity:1">
      <path
         transform="translate(412,160)"
         d="M 4.9941,0 C 3.736,0.01507 2.8152,-0.028421 2.0625,0.38672 1.68614,0.59429 1.38929,0.9442 1.22461,1.38281 1.0599,1.82142 1,2.34239 1,3.00001 v 10 c 0,0.65761 0.059939,1.1785 0.22461,1.6172 0.16466,0.43866 0.46152,0.79039 0.83789,0.99805 0.75275,0.41537 1.6734,0.37027 2.9316,0.38477 h 0.00391 6.0059 0.002 c 1.2581,-0.01507 2.1789,0.02841 2.9316,-0.38672 0.37636,-0.20757 0.67321,-0.55748 0.83789,-0.99609 0.16451,-0.43861 0.22456,-0.95958 0.22456,-1.6172 v -8 -0.75 l -4.25,-4.25 h -0.75 -5.0039 z m 0.00586,1 h 0.00586 4.9941 v 4 h 2 2 v 8 c 0,0.59239 -0.06261,1.0058 -0.16016,1.2656 -0.09754,0.2598 -0.20135,0.3715 -0.38477,0.47266 -0.36598,0.20182 -1.1965,0.24652 -2.4551,0.26172 H 4.9998888 c -1.2585,-0.0147 -2.0891,-0.0598 -2.4551,-0.26172 -0.18341,-0.10119 -0.28717,-0.21275 -0.38477,-0.47266 C 2.0624588,14.0057 1.9998588,13.59236 1.9998588,13 V 3 c 0,-0.59239 0.062556,-1.0058 0.16016,-1.2656 0.09754,-0.25979 0.20135,-0.3715 0.38477,-0.47266 0.36598,-0.20182 1.1964,-0.24652 2.4551,-0.26172 z"
         color="#000000"
         id="path2"
         style="fill:#111111;fill-opacity:1" />
    </g>
    <g
       aria-label="√"
       id="text858"
       style="font-style:normal;font-variant:normal;font-weight:normal;font-stretch:normal;font-size:10.6667px;line-height:1.25;font-family:Ubuntu;-inkscape-font-specification:Ubuntu;fill:#000000;fill-opacity:1;stroke:none"
       transform="translate(0.0605469)">
      <path
         id="path860"
         style="font-size:10.6667px"
         d="M 8.9140625 6.2890625 L 7.0605469 12.763672 C 6.9467688 12.450782 6.8371358 12.163503 6.7304688 11.900391 C 6.6309128 11.637279 6.5265889 11.381704 6.4199219 11.132812 C 6.3132549 10.883923 6.2036219 10.638263 6.0898438 10.396484 C 5.9760655 10.147595 5.8545629 9.8847561 5.7265625 9.6074219 L 4 10.162109 L 4.2226562 10.865234 L 5.171875 10.566406 C 5.4278759 11.121075 5.6781434 11.683062 5.9199219 12.251953 C 6.1617004 12.820844 6.3954906 13.407273 6.6230469 14.011719 L 7.5195312 14.011719 L 9.4902344 7.2890625 L 11.914062 7.2890625 L 11.914062 6.2890625 L 8.9140625 6.2890625 z "
         transform="translate(-0.0605469)" />
    </g>
  </g>
</svg>
