<?xml version="1.0" encoding="UTF-8" standalone="no"?>
<svg
   xmlns:dc="http://purl.org/dc/elements/1.1/"
   xmlns:cc="http://creativecommons.org/ns#"
   xmlns:rdf="http://www.w3.org/1999/02/22-rdf-syntax-ns#"
   xmlns:svg="http://www.w3.org/2000/svg"
   xmlns="http://www.w3.org/2000/svg"
   xmlns:sodipodi="http://sodipodi.sourceforge.net/DTD/sodipodi-0.dtd"
   xmlns:inkscape="http://www.inkscape.org/namespaces/inkscape"
   height="16"
   viewBox="0 0 16 16"
   width="16"
   version="1.1"
   id="svg34"
   sodipodi:docname="plasmavault.svg"
   inkscape:version="1.0.2 (e86c870879, 2021-01-15)">
  <metadata
     id="metadata40">
    <rdf:RDF>
      <cc:Work
         rdf:about="">
        <dc:format>image/svg+xml</dc:format>
        <dc:type
           rdf:resource="http://purl.org/dc/dcmitype/StillImage" />
        <dc:title></dc:title>
      </cc:Work>
    </rdf:RDF>
  </metadata>
  <defs
     id="defs38" />
  <sodipodi:namedview
     pagecolor="#ffffff"
     bordercolor="#666666"
     borderopacity="1"
     objecttolerance="10"
     gridtolerance="10"
     guidetolerance="10"
     inkscape:pageopacity="0"
     inkscape:pageshadow="2"
     inkscape:window-width="1366"
     inkscape:window-height="689"
     id="namedview36"
     showgrid="true"
     inkscape:zoom="11.821942"
     inkscape:cx="11.288841"
     inkscape:cy="8.8222854"
     inkscape:window-x="0"
     inkscape:window-y="0"
     inkscape:window-maximized="1"
     inkscape:current-layer="svg34"
     inkscape:document-rotation="0">
    <inkscape:grid
       type="xygrid"
       id="grid865" />
  </sodipodi:namedview>
  <linearGradient
     id="a"
     gradientUnits="userSpaceOnUse"
     x1="4"
     x2="16"
     y1="3.99999"
     y2="16">
    <stop
       offset="0"
       id="stop2" />
    <stop
       offset="1"
       stop-opacity="0"
       id="stop4" />
  </linearGradient>
  <linearGradient
     id="b"
     gradientUnits="userSpaceOnUse"
     x1="-1.14285"
     x2="8.57143"
     y1="-1.71429"
     y2="9.14285">
    <stop
       offset="0"
       stop-color="#fff"
       id="stop7" />
    <stop
       offset="1"
       stop-color="#fff"
       stop-opacity="0"
       id="stop9" />
  </linearGradient>
  <path
     id="path2"
     style="font-variant-ligatures:none;font-variant-position:normal;font-variant-caps:normal;font-variant-numeric:normal;font-variant-alternates:normal;font-feature-settings:normal;text-indent:0;text-decoration:none;text-decoration-line:none;text-decoration-style:solid;text-decoration-color:#000000;text-transform:none;shape-padding:0;isolation:auto;mix-blend-mode:normal;fill:#111111;fill-opacity:1"
     d="M 3.9941406,1 C 2.7361406,1.015 1.8155,0.97071865 1.0625,1.3867188 0.67265512,1.6078906 0.37476772,1.9611988 0.22265625,2.3828125 0.05865625,2.8208125 0,3.343 0,4 v 8 c 0,0.658 0.05765625,1.179187 0.22265625,1.617188 0.164,0.439 0.46284375,0.790046 0.83984375,0.998046 C 1.8145,15.031234 2.7361406,14.985 3.9941406,15 H 8 C 8.01874,14.417683 8.02754,14.336414 8,14 H 4 C 2.74,13.985 1.912875,13.94028 1.546875,13.738281 c -0.184,-0.1 -0.2897185,-0.212656 -0.3867188,-0.472656 C 1.0631563,13.005625 1,12.592 1,12 V 8 C 1,7.408 1.064109,6.994375 1.1621094,6.734375 c 0.098,-0.26 0.2027187,-0.3716563 0.3867187,-0.4726562 C 1.9158281,6.0587188 2.7438125,6.015 4.0078125,6 H 7.4433594 L 9.4648438,4 h 2.5273442 c 1.263999,0.015 2.090984,0.059719 2.458984,0.2617188 0.183,0.1 0.288719,0.2126562 0.386719,0.4726562 C 14.935891,4.994375 15,5.408 15,6 v 2 c 0.0293,-1.09e-4 0.05858,1.237e-4 0.08789,0 0.303936,-7.725e-4 0.608064,-4.331e-4 0.912109,0 V 6 c 0,-0.658 -0.05766,-1.1791875 -0.222656,-1.6171875 -0.02,-0.055 -0.04822,-0.1042969 -0.07422,-0.1542969 L 15.675781,4.171875 C 15.513991,3.8415423 15.256809,3.5673514 14.9375,3.3847656 14.1845,2.9687656 13.263859,3.015 12.005859,3 H 8.9667969 L 6.9453125,1 H 3.9960938 Z m 0.011719,1 H 6.5351562 L 8.3007812,3.7460938 7.0332031,5 H 3.9941406 C 2.7361406,5.015 1.8155,4.9697656 1.0625,5.3847656 1.0405,5.3967656 1.022,5.4147344 1,5.4277344 V 4 C 1,3.408 1.0621565,2.994375 1.1601562,2.734375 1.2581563,2.474375 1.362875,2.3627188 1.546875,2.2617188 1.912875,2.0587186 2.741859,2.015 4.0058596,2 Z"
     sodipodi:nodetypes="cccsscccccccssssccccccsscccsccccccccccccccccsscc" />
  <path
     id="path2-3"
     style="font-variant-ligatures:normal;font-variant-position:normal;font-variant-caps:normal;font-variant-numeric:normal;font-variant-alternates:normal;font-feature-settings:normal;text-indent:0;text-decoration:none;text-decoration-line:none;text-decoration-style:solid;text-decoration-color:#000000;text-transform:none;text-orientation:mixed;shape-padding:0;isolation:auto;mix-blend-mode:normal"
     d="m 13,8.998047 c -1.108,0 -2,0.91025 -2,2.03125 V 12 h -1 v 4 h 6 V 12 H 15 V 11.029297 C 15,9.909297 14.108,9 13,9 Z m 0,1 c 0.554,0 1,0.442 1,1 v 1 h -2 v -1 c 0,-0.558 0.446,-1 1,-1 z" />
</svg>
