<?xml version="1.0" encoding="UTF-8" standalone="no"?>
<svg
   xmlns:dc="http://purl.org/dc/elements/1.1/"
   xmlns:cc="http://creativecommons.org/ns#"
   xmlns:rdf="http://www.w3.org/1999/02/22-rdf-syntax-ns#"
   xmlns:svg="http://www.w3.org/2000/svg"
   xmlns="http://www.w3.org/2000/svg"
   xmlns:sodipodi="http://sodipodi.sourceforge.net/DTD/sodipodi-0.dtd"
   xmlns:inkscape="http://www.inkscape.org/namespaces/inkscape"
   height="16"
   viewBox="0 0 16 16"
   width="16"
   version="1.1"
   id="svg34"
   sodipodi:docname="systemsettings.svg"
   inkscape:version="1.0.2 (e86c870879, 2021-01-15)">
  <metadata
     id="metadata40">
    <rdf:RDF>
      <cc:Work
         rdf:about="">
        <dc:format>image/svg+xml</dc:format>
        <dc:type
           rdf:resource="http://purl.org/dc/dcmitype/StillImage" />
      </cc:Work>
    </rdf:RDF>
  </metadata>
  <defs
     id="defs38" />
  <sodipodi:namedview
     pagecolor="#ffffff"
     bordercolor="#666666"
     borderopacity="1"
     objecttolerance="10"
     gridtolerance="10"
     guidetolerance="10"
     inkscape:pageopacity="0"
     inkscape:pageshadow="2"
     inkscape:window-width="1366"
     inkscape:window-height="689"
     id="namedview36"
     showgrid="true"
     inkscape:zoom="16.71875"
     inkscape:cx="2.4779953"
     inkscape:cy="11.177258"
     inkscape:window-x="0"
     inkscape:window-y="0"
     inkscape:window-maximized="1"
     inkscape:current-layer="svg34"
     inkscape:document-rotation="0">
    <inkscape:grid
       type="xygrid"
       id="grid865" />
  </sodipodi:namedview>
  <linearGradient
     id="a"
     gradientUnits="userSpaceOnUse"
     x1="4"
     x2="16"
     y1="3.99999"
     y2="16">
    <stop
       offset="0"
       id="stop2" />
    <stop
       offset="1"
       stop-opacity="0"
       id="stop4" />
  </linearGradient>
  <linearGradient
     id="b"
     gradientUnits="userSpaceOnUse"
     x1="-1.14285"
     x2="8.57143"
     y1="-1.71429"
     y2="9.14285">
    <stop
       offset="0"
       stop-color="#fff"
       id="stop7" />
    <stop
       offset="1"
       stop-color="#fff"
       stop-opacity="0"
       id="stop9" />
  </linearGradient>
  <g
     transform="translate(-632.01454,-320.12)"
     fill="#808080"
     id="g8"
     style="fill:#111111;fill-opacity:1">
    <path
       d="m 640.18,321 c -2.483,-0.0657 -4.9225,1.1941 -6.248,3.4922 -1.9281,3.3427 -0.77551,7.629 2.5703,9.5625 3.3458,1.9335 7.6344,0.79191 9.5625,-2.5508 1.9281,-3.3427 0.77551,-7.6329 -2.5703,-9.5664 -1.0456,-0.60423 -2.1858,-0.90763 -3.3144,-0.9375 z m -0.18164,0.99609 a 6,6 0 0 1 6,6 6,6 0 0 1 -6,6 6,6 0 0 1 -6,-6 6,6 0 0 1 6,-6 z"
       color="#000000"
       color-rendering="auto"
       image-rendering="auto"
       shape-rendering="auto"
       solid-color="#000000"
       style="font-variant-ligatures:none;font-variant-position:normal;font-variant-caps:normal;font-variant-numeric:normal;font-variant-alternates:normal;font-feature-settings:normal;text-indent:0;text-decoration:none;text-decoration-line:none;text-decoration-style:solid;text-decoration-color:#000000;text-transform:none;white-space:normal;shape-padding:0;isolation:auto;mix-blend-mode:normal;fill:#111111;fill-opacity:1"
       id="path2" />
    <path
       d="m 638.69,320.12 v 1.5451 c 0.86819,-0.1783 1.7641,-0.1766 2.6322,0.005 V 320.12 Z m -2.7536,0.98912 -2.0054,1.7049 0.98801,1.1776 c 0.54939,-0.69591 1.236,-1.2714 2.0174,-1.6908 z m 8.1287,0.0127 -0.99285,1.1835 c 0.0573,0.0293 0.11416,0.0595 0.17056,0.0905 0.71061,0.41285 1.3366,0.95679 1.8446,1.6029 l 1.0051,-1.1977 z m -11.61,4.2168 -0.44056,2.5954 1.5154,0.26739 c -0.0273,-0.8866 0.12755,-1.769 0.45509,-2.5927 z m 15.086,0.003 -1.5228,0.26851 c 0.32999,0.82318 0.48779,1.705 0.46365,2.5909 l 1.5329,-0.27 z m -13.682,4.6946 -1.3515,0.78058 h -3.4e-4 l 1.331,2.271 1.3381,-0.77238 c -0.59006,-0.66203 -1.0384,-1.4377 -1.3172,-2.2792 z m 12.301,0.003 c -0.13616,0.42225 -0.31536,0.82932 -0.53478,1.2148 -0.22083,0.38188 -0.48014,0.74014 -0.77388,1.0692 l 1.3388,0.77313 1.3016,-2.2881 z m -9.5569,3.4716 -0.53479,1.4688 2.4795,0.88448 0.52585,-1.4453 c -0.81119,-0.11877 -1.5928,-0.39022 -2.3034,-0.79995 -0.0563,-0.0351 -0.11203,-0.0711 -0.16721,-0.10799 z m 6.8133,0.0153 c -0.75448,0.46543 -1.5968,0.77091 -2.4747,0.89752 l 0.53031,1.4565 2.4676,-0.91651 z"
       color="#000000"
       id="path4"
       style="fill:#111111;fill-opacity:1" />
    <path
       d="m 639.65,323.01 c -1.6024,0.11249 -3.1219,0.99052 -3.9824,2.4824 -1.3769,2.3871 -0.55308,5.4534 1.8359,6.834 2.389,1.3806 5.4532,0.56088 6.8301,-1.8262 1.3769,-2.3871 0.55308,-5.4514 -1.8359,-6.832 -0.89588,-0.51773 -1.8862,-0.72569 -2.8476,-0.65821 z m 0.35156,0.98633 a 4,4 0 0 1 4,4 4,4 0 0 1 -4,4 4,4 0 0 1 -4,-4 4,4 0 0 1 4,-4 z"
       color="#000000"
       color-rendering="auto"
       image-rendering="auto"
       shape-rendering="auto"
       solid-color="#000000"
       style="font-variant-ligatures:none;font-variant-position:normal;font-variant-caps:normal;font-variant-numeric:normal;font-variant-alternates:normal;font-feature-settings:normal;text-indent:0;text-decoration:none;text-decoration-line:none;text-decoration-style:solid;text-decoration-color:#000000;text-transform:none;white-space:normal;shape-padding:0;isolation:auto;mix-blend-mode:normal;fill:#111111;fill-opacity:1"
       id="path6" />
  </g>
</svg>
