<?xml version="1.0" encoding="UTF-8" standalone="no"?>
<svg
   xmlns:dc="http://purl.org/dc/elements/1.1/"
   xmlns:cc="http://creativecommons.org/ns#"
   xmlns:rdf="http://www.w3.org/1999/02/22-rdf-syntax-ns#"
   xmlns:svg="http://www.w3.org/2000/svg"
   xmlns="http://www.w3.org/2000/svg"
   xmlns:sodipodi="http://sodipodi.sourceforge.net/DTD/sodipodi-0.dtd"
   xmlns:inkscape="http://www.inkscape.org/namespaces/inkscape"
   width="16"
   height="16"
   viewBox="0 0 16 16"
   id="svg4230"
   version="1.1"
   inkscape:version="1.0.2 (e86c870879, 2021-01-15)"
   sodipodi:docname="utilities-terminal.svg">
  <defs
     id="defs4232">
    <linearGradient
       id="c"
       y1="527.01447"
       x1="406.50085"
       y2="539.82538"
       x2="419.97357"
       gradientUnits="userSpaceOnUse"
       gradientTransform="matrix(0.39741182,0,0,0.39741182,-154.37173,836.21514)">
      <stop
         stop-color="#292c2f"
         id="stop17" />
      <stop
         offset="1"
         stop-opacity="0"
         id="stop19" />
    </linearGradient>
    <linearGradient
       gradientTransform="matrix(0.39741182,0,0,0.39741182,-1.5390692,1034.8416)"
       id="b"
       y1="39.054199"
       y2="11.375102"
       x2="13.937858"
       gradientUnits="userSpaceOnUse"
       x1="34.068108">
      <stop
         stop-color="#536161"
         id="stop12"
         style="stop-color:#d9dfdf;stop-opacity:1" />
      <stop
         offset="1"
         stop-color="#f4f5f5"
         id="stop14"
         style="stop-color:#f7f7f7;stop-opacity:1" />
    </linearGradient>
    <linearGradient
       id="a"
       y1="547.63354"
       y2="499.67896"
       x2="388.86475"
       gradientUnits="userSpaceOnUse"
       gradientTransform="matrix(0.39741182,0,0,0.39741182,-154.37173,836.21514)"
       x1="428.81628">
      <stop
         stop-color="#2a2c2f"
         id="stop7" />
      <stop
         offset="1"
         stop-color="#536161"
         id="stop9" />
    </linearGradient>
    <clipPath
       clipPathUnits="userSpaceOnUse"
       id="clipPath983">
      <path
         sodipodi:nodetypes="scccssscsss"
         inkscape:connector-curvature="0"
         id="path985"
         d="m 325.09646,237 c -2.80769,0 -3.10979,0.28839 -3.09603,3.10176 V 244 v 3.89824 c -0.0138,2.81337 0.28834,3.10176 3.09603,3.10176 h 5.8075 C 333.71166,251 334,250.71165 334,247.89824 V 244 240.10176 C 334,237.28836 333.71165,237 330.90396,237 Z"
         style="color:#000000;display:inline;overflow:visible;visibility:visible;opacity:1;fill:#46a926;fill-opacity:1;fill-rule:nonzero;stroke:none;stroke-width:2;stroke-miterlimit:4;stroke-dasharray:none;stroke-opacity:1;marker:none;enable-background:accumulate" />
    </clipPath>
  </defs>
  <sodipodi:namedview
     id="base"
     pagecolor="#ffffff"
     bordercolor="#666666"
     borderopacity="1.0"
     inkscape:pageopacity="0.0"
     inkscape:pageshadow="2"
     inkscape:zoom="22.4"
     inkscape:cx="14.902674"
     inkscape:cy="10.033905"
     inkscape:document-units="px"
     inkscape:current-layer="layer1"
     showgrid="true"
     units="px"
     inkscape:snap-bbox="true"
     inkscape:document-rotation="0"
     inkscape:window-width="1366"
     inkscape:window-height="689"
     inkscape:window-x="0"
     inkscape:window-y="0"
     inkscape:window-maximized="1">
    <inkscape:grid
       type="xygrid"
       id="grid4818" />
  </sodipodi:namedview>
  <metadata
     id="metadata4235">
    <rdf:RDF>
      <cc:Work
         rdf:about="">
        <dc:format>image/svg+xml</dc:format>
        <dc:type
           rdf:resource="http://purl.org/dc/dcmitype/StillImage" />
        <dc:title />
      </cc:Work>
    </rdf:RDF>
  </metadata>
  <g
     inkscape:label="Livello 1"
     inkscape:groupmode="layer"
     id="layer1"
     transform="translate(0,-1036.3622)">
    <g
       transform="translate(-591.9959,736.3622)"
       fill="#808080"
       id="g8">
      <path
         d="m 595.99,302 c -1.2582,0.0145 -2.1789,-0.0306 -2.9316,0.38477 -0.37637,0.20766 -0.67323,0.55938 -0.83789,0.99804 -0.16467,0.43867 -0.22461,0.95958 -0.22461,1.6172 v 7 c 0,0.65761 0.0599,1.1786 0.22461,1.6172 0.16468,0.43861 0.46153,0.78852 0.83789,0.99609 0.75272,0.41513 1.6735,0.37165 2.9316,0.38672 h 0.002 8.0059 0.004 c 1.2582,-0.0145 2.1789,0.0306 2.9316,-0.38477 0.37637,-0.20766 0.67322,-0.55938 0.83789,-0.99804 0.16453,-0.43867 0.22447,-0.95958 0.22447,-1.6172 v -7 c 0,-0.65761 -0.0599,-1.1786 -0.22461,-1.6172 -0.16468,-0.43861 -0.46153,-0.78852 -0.83789,-0.99609 -0.75272,-0.41513 -1.6736,-0.37165 -2.9316,-0.38672 h -0.002 -8.0059 z m 0.006,1 h 8 c 1.2586,0.0152 2.0891,0.0599 2.4551,0.26172 0.18342,0.10116 0.28722,0.21286 0.38476,0.47266 0.0974,0.25979 0.16002,0.67323 0.16002,1.2656 v 7 c 0,0.59239 -0.0626,1.0057 -0.16016,1.2656 -0.0976,0.25991 -0.20135,0.37147 -0.38476,0.47266 -0.36596,0.20192 -1.1966,0.24701 -2.4551,0.26172 h -7.9941 -0.006 c -1.2586,-0.0152 -2.0891,-0.0599 -2.4551,-0.26172 -0.18342,-0.10116 -0.28722,-0.21286 -0.38476,-0.47266 -0.0975,-0.25979 -0.16016,-0.67323 -0.16016,-1.2656 v -7 c 0,-0.59239 0.0626,-1.0057 0.16016,-1.2656 0.0976,-0.25991 0.20331,-0.37147 0.38672,-0.47266 0.36595,-0.20191 1.1946,-0.24702 2.4531,-0.26172 z"
         color="#000000"
         color-rendering="auto"
         dominant-baseline="auto"
         image-rendering="auto"
         shape-rendering="auto"
         solid-color="#000000"
         style="font-variant-ligatures:normal;font-variant-position:normal;font-variant-caps:normal;font-variant-numeric:normal;font-variant-alternates:normal;font-feature-settings:normal;text-indent:0;text-decoration:none;text-decoration-line:none;text-decoration-style:solid;text-decoration-color:#000000;text-transform:none;text-orientation:mixed;white-space:normal;shape-padding:0;isolation:auto;mix-blend-mode:normal;fill:#111111;fill-opacity:1"
         id="path2" />
    </g>
    <path
       id="path2-3"
       style="font-variant-ligatures:normal;font-variant-position:normal;font-variant-caps:normal;font-variant-numeric:normal;font-variant-alternates:normal;font-feature-settings:normal;text-indent:0;text-decoration:none;text-decoration-line:none;text-decoration-style:solid;text-decoration-color:#000000;text-transform:none;text-orientation:mixed;white-space:normal;shape-padding:0;isolation:auto;mix-blend-mode:normal;fill:#111111;fill-opacity:1"
       d="m 3.4812918,1041.3627 c -0.47384,0.019 -0.6572075,0.6257 -0.2734375,0.9043 l 1.4667969,1.0996 -1.4667969,1.0996 c -0.53385,0.4011 0.067692,1.2018 0.6015625,0.8008 l 2,-1.5 c 0.26732,-0.2 0.26732,-0.6008 0,-0.8008 l -2,-1.5 c -0.0937,-0.072 -0.209945,-0.1085 -0.328125,-0.1035 z m 2.5273438,4.0039 v 1 h 2.9999996 v -1 z" />
  </g>
</svg>
