<?xml version="1.0" encoding="UTF-8" standalone="no"?>
<svg
   xmlns:dc="http://purl.org/dc/elements/1.1/"
   xmlns:cc="http://creativecommons.org/ns#"
   xmlns:rdf="http://www.w3.org/1999/02/22-rdf-syntax-ns#"
   xmlns:svg="http://www.w3.org/2000/svg"
   xmlns="http://www.w3.org/2000/svg"
   xmlns:sodipodi="http://sodipodi.sourceforge.net/DTD/sodipodi-0.dtd"
   xmlns:inkscape="http://www.inkscape.org/namespaces/inkscape"
   viewBox="0 0 64 64"
   version="1.1"
   id="svg8"
   sodipodi:docname="osd-duplicate.svg"
   inkscape:version="1.0.2 (e86c870879, 2021-01-15)">
  <metadata
     id="metadata12">
    <rdf:RDF>
      <cc:Work
         rdf:about="">
        <dc:format>image/svg+xml</dc:format>
        <dc:type
           rdf:resource="http://purl.org/dc/dcmitype/StillImage" />
      </cc:Work>
    </rdf:RDF>
  </metadata>
  <sodipodi:namedview
     pagecolor="#ffffff"
     bordercolor="#666666"
     borderopacity="1"
     objecttolerance="10"
     gridtolerance="10"
     guidetolerance="10"
     inkscape:pageopacity="0"
     inkscape:pageshadow="2"
     inkscape:window-width="1366"
     inkscape:window-height="689"
     id="namedview10"
     showgrid="true"
     inkscape:zoom="8"
     inkscape:cx="41.656501"
     inkscape:cy="30.87002"
     inkscape:window-x="0"
     inkscape:window-y="0"
     inkscape:window-maximized="1"
     inkscape:current-layer="svg8"
     inkscape:document-rotation="0">
    <inkscape:grid
       type="xygrid"
       id="grid837" />
  </sodipodi:namedview>
  <defs
     id="defs3051">
    <style
       type="text/css"
       id="current-color-scheme">
      .ColorScheme-Text {
        color:#232629;
      }
      .ColorScheme-Highlight {
        color:#3daee9;
      }
      </style>
  </defs>
  <path
     id="rect4188"
     style="color:#000000;display:inline;overflow:visible;visibility:visible;fill:#111111;fill-opacity:1;fill-rule:nonzero;stroke:none;stroke-width:3.29832;stroke-linecap:butt;stroke-linejoin:miter;stroke-miterlimit:4;stroke-dasharray:none;stroke-dashoffset:0;stroke-opacity:1;marker:none;enable-background:accumulate"
     d="m 3.4179618,53 c -4e-6,3.157893 0.7909133,3.156246 4.7382813,3.15625 H 36.576165 c 3.947369,0 4.736328,0.0016 4.736328,-3.15625 H 25.523431 l 2.5e-4,1.324219 h -6.344 L 19.208981,53 Z"
     sodipodi:nodetypes="ccscccccc" />
  <path
     id="path2-3-5"
     style="font-variant-ligatures:normal;font-variant-position:normal;font-variant-caps:normal;font-variant-numeric:normal;font-variant-alternates:normal;font-feature-settings:normal;text-indent:0;text-decoration:none;text-decoration-line:none;text-decoration-style:solid;text-decoration-color:#000000;text-transform:none;text-orientation:mixed;shape-padding:0;isolation:auto;mix-blend-mode:normal;stroke-width:2.91667"
     d="M 25,8 C 21.33083,8.04375 18.644502,7.9126299 16.451172,9.1230469 15.315892,9.77087 14.449374,10.802935 14.007812,12.033203 13.526563,13.31362 13.351563,14.83375 13.351562,16.75 V 23 h 2.916016 v -6.25 c 0,-1.726667 0.183877,-2.935026 0.466797,-3.693359 0.28583,-0.758333 0.589297,-1.080416 1.123047,-1.375 1.06459,-0.589166 3.485156,-0.721875 7.160156,-0.765625 h 23.333984 c 3.67209,0.04375 6.086797,0.176459 7.154297,0.765625 0.53666,0.294584 0.845987,0.619583 1.128907,1.375 0.28291,0.758333 0.466796,1.966692 0.466796,3.693359 v 17.5 c 0,1.726667 -0.183886,2.935026 -0.466796,3.693359 -0.28584,0.758333 -0.592247,1.080416 -1.128907,1.375 -1.0675,0.589166 -3.482205,0.721875 -7.154297,0.765625 L 45,40 v 3 h 3.369141 c 3.66917,-0.04083 6.354531,0.08737 8.550781,-1.123047 1.13528,-0.647823 2.001798,-1.679888 2.443359,-2.910156 0.47833,-1.2775 0.654297,-2.800547 0.654297,-4.716797 v -17.5 c 0,-1.919167 -0.175,-3.43638 -0.65625,-4.716797 C 58.920256,10.803248 58.054469,9.7712266 56.919922,9.1230469 54.723672,7.9097128 52.038311,8.04375 48.369141,8 H 25.011719 Z"
     sodipodi:nodetypes="cccsccsccccccssccccccccssccccc" />
  <g
     fill="#808080"
     id="g4"
     transform="translate(13.93364,29)"
     style="fill:#111111;fill-opacity:1">
    <path
       d="M 3.9023,3 C 2.6581,3.01457 1.7482,2.969446 1.0039,3.38477 0.63173,3.59242 0.33861,3.94416 0.17578,4.38282 0.0129,4.82148 -0.06229695,5.3425807 -0.04688,6.00002 l 0.0469,2 v 5 c 0,0.65761 0.059821,1.1785 0.22266,1.6172 0.16282,0.43866 0.45595,0.79039 0.82812,0.99805 0.74436,0.41537 1.6543,0.37027 2.8984,0.38477 h 0.00391 1.9805 1.0664 2 1.0664 1.9805 0.0039 c 1.2442,-0.0145 2.1541,0.0306 2.8984,-0.38477 0.37218,-0.20766 0.6653,-0.55939 0.82812,-0.99805 0.16284,-0.43868 0.22266,-0.95958 0.22266,-1.6172 v -5 l -0.0469,-2 C 15.937673,5.3425907 15.89331,4.82152 15.73043,4.38282 15.5676,3.94416 15.27448,3.59242 14.90231,3.38477 14.157952,2.96945 13.248012,3.01457 12.003912,3 h -0.0039 -1.9805 -1.0663998 -2 -1.0664 -1.9805 z M 1.0664,6 h 4.8203 1.0664 2 1.0664 4.8203 c 0.08781,2.323 0.17106,3.8768 0.1719,6 0,1 0.20689,2.3282 -0.76562,2.7754 -0.73392,0.24023 -2.202,0.22461 -4.1797,0.22461 h -1.0664 -2 -1.0664 c -1.9777,0 -3.4458,0.01562 -4.1797,-0.22461 C 0.78136,14.32819 0.98826,13 0.98826,12 0.989101,9.8768 0.97855,8.323 1.06636,6 Z"
       style="text-indent:0;text-decoration:none;text-decoration-line:none;text-decoration-style:solid;text-decoration-color:#000000;text-transform:none;white-space:normal;isolation:auto;mix-blend-mode:normal;fill:#111111;fill-opacity:1"
       id="path2-3"
       sodipodi:nodetypes="cccscsscccccccccccscsccccccccccccccccccsccscccc" />
  </g>
  <path
     id="path2"
     style="font-variant-ligatures:normal;font-variant-position:normal;font-variant-caps:normal;font-variant-numeric:normal;font-variant-alternates:normal;font-feature-settings:normal;text-indent:0;text-decoration:none;text-decoration-line:none;text-decoration-style:solid;text-decoration-color:#000000;text-transform:none;text-orientation:mixed;shape-padding:0;isolation:auto;mix-blend-mode:normal;fill:#111111;fill-opacity:1;stroke-width:2.14598"
     d="M 13.734369,25.894531 C 10.982494,25.926111 8.9672587,25.831401 7.3222587,26.705078 6.4707905,27.173013 5.82106,27.918333 5.4902275,28.806641 5.1292903,29.730845 4.99804,30.827788 4.99804,32.210938 v 12.630859 c 0,0.05555 0.00348,0.103577 0.00391,0.158203 H 5 v 6.130859 h 2.1601563 v -0.002 h 4.1113287 v -0.0098 c 0.758202,0.02172 1.5586,0.02869 2.462891,0.03906 h 17.527343 c 0.901652,-0.0097 1.698704,-0.01734 2.455078,-0.03906 v 0.0098 l 4.09427,-0.053 v 0.002 l 2.179168,0.053 v -6.007812 c 0.0014,-0.09575 0.0078,-0.182649 0.0078,-0.28125 V 32.210938 c 0,-1.385256 -0.131249,-2.480093 -0.492187,-3.404297 -0.330832,-0.888308 -0.980563,-1.633628 -1.832031,-2.101563 -1.647186,-0.875784 -3.660234,-0.778968 -6.41211,-0.810547 H 13.744134 Z M 14.715137,28.992944 30.70047,29 c 2.754063,0.03158 4.608804,-0.07836 5.409429,0.346898 0.4025,0.21263 0.635469,0.448882 0.847656,0.994141 0.212188,0.547365 0.16033,1.419715 0.16488,2.666016 l 0.04299,11.77517 c 0.0046,1.2463 0.01461,2.576875 0.01426,3.217775 h -1.088794 c -0.936917,0 -2.599704,-0.03157 -5.353766,0 h -16.55744 -5.0000004 -1 c 0,-1 -0.027043,-1.77464 -0.027043,-3.020948 v -11.77517 c 0,-1.246308 0.1374222,-2.118651 0.3496094,-2.666016 0.2143737,-0.547364 0.4414835,-0.78151 0.8417966,-0.994141 0.7984364,-0.42526 2.6148434,-0.519202 5.3710934,-0.550781 z"
     sodipodi:nodetypes="cccsscccccccccccccccsscccccccccssccccccssccc" />
  <path
     id="path2-3-7-5"
     style="text-indent:0;text-decoration:none;text-decoration-line:none;text-decoration-style:solid;text-decoration-color:#000000;text-transform:none;white-space:normal;isolation:auto;mix-blend-mode:normal;fill:#111111;fill-opacity:1"
     d="m 31,16 c -1.2442,0.01457 -2.154135,-0.03055 -2.898438,0.384766 -0.372167,0.20765 -0.665296,0.559387 -0.828124,0.998046 C 27.110553,17.821478 27.035361,18.342561 27.050781,19 l 0.04687,5 h 1.019532 c 0.01152,-0.638932 0.01821,-4.244362 0.04687,-5 h 4.820313 1.066406 2 1.066407 8.93164 c 0.0878,2.323 0.01088,6.8768 0.01172,9 0,1 0.206885,2.328191 -0.765625,2.775391 C 45.026492,30.863261 44.039624,30.9071 43,30.9375 c 0.01116,0.331451 -0.0027,0.662467 0,0.994141 1.290543,-0.03959 2.631969,-0.112117 2.998047,-0.316407 0.37218,-0.20766 0.665305,-0.559389 0.828125,-0.998046 C 46.989124,30.178505 47.048828,29.660862 47.048828,29 v -8 l -0.04687,-2 c -0.0154,-0.657429 -0.0598,-1.178488 -0.222656,-1.617188 -0.16282,-0.438659 -0.455955,-0.790396 -0.828125,-0.998046 C 45.206787,15.969446 40.345664,16.01457 39.101562,16 h -1.984374 -1.066407 -2 -1.066406 -1.980469 z" />
</svg>
